<svg xmlns="http://www.w3.org/2000/svg" xmlns:xlink="http://www.w3.org/1999/xlink" width="600" height="400" viewBox="0 0 2400 1600">
<defs>
  <clipPath id="clip760">
    <rect x="0" y="0" width="2400" height="1600"></rect>
  </clipPath>
</defs>
<path clip-path="url(#clip760)" d="
M0 1600 L2400 1600 L2400 0 L0 0  Z
  " fill="#ffffff" fill-rule="evenodd" fill-opacity="1"></path>
<defs>
  <clipPath id="clip761">
    <rect x="480" y="0" width="1681" height="1600"></rect>
  </clipPath>
</defs>
<path clip-path="url(#clip760)" d="
M219.866 1423.18 L2352.76 1423.18 L2352.76 47.2441 L219.866 47.2441  Z
  " fill="#ffffff" fill-rule="evenodd" fill-opacity="1"></path>
<defs>
  <clipPath id="clip762">
    <rect x="219" y="47" width="2134" height="1377"></rect>
  </clipPath>
</defs>
<polyline clip-path="url(#clip762)" style="stroke:#000000; stroke-linecap:butt; stroke-linejoin:round; stroke-width:2; stroke-opacity:0.1; fill:none" points="
  280.231,1423.18 280.231,47.2441 
  "></polyline>
<polyline clip-path="url(#clip762)" style="stroke:#000000; stroke-linecap:butt; stroke-linejoin:round; stroke-width:2; stroke-opacity:0.1; fill:none" points="
  683.47,1423.18 683.47,47.2441 
  "></polyline>
<polyline clip-path="url(#clip762)" style="stroke:#000000; stroke-linecap:butt; stroke-linejoin:round; stroke-width:2; stroke-opacity:0.1; fill:none" points="
  1086.71,1423.18 1086.71,47.2441 
  "></polyline>
<polyline clip-path="url(#clip762)" style="stroke:#000000; stroke-linecap:butt; stroke-linejoin:round; stroke-width:2; stroke-opacity:0.1; fill:none" points="
  1489.95,1423.18 1489.95,47.2441 
  "></polyline>
<polyline clip-path="url(#clip762)" style="stroke:#000000; stroke-linecap:butt; stroke-linejoin:round; stroke-width:2; stroke-opacity:0.1; fill:none" points="
  1893.19,1423.18 1893.19,47.2441 
  "></polyline>
<polyline clip-path="url(#clip762)" style="stroke:#000000; stroke-linecap:butt; stroke-linejoin:round; stroke-width:2; stroke-opacity:0.1; fill:none" points="
  2296.42,1423.18 2296.42,47.2441 
  "></polyline>
<polyline clip-path="url(#clip760)" style="stroke:#000000; stroke-linecap:butt; stroke-linejoin:round; stroke-width:4; stroke-opacity:1; fill:none" points="
  219.866,1423.18 2352.76,1423.18 
  "></polyline>
<polyline clip-path="url(#clip760)" style="stroke:#000000; stroke-linecap:butt; stroke-linejoin:round; stroke-width:4; stroke-opacity:1; fill:none" points="
  280.231,1423.18 280.231,1404.28 
  "></polyline>
<polyline clip-path="url(#clip760)" style="stroke:#000000; stroke-linecap:butt; stroke-linejoin:round; stroke-width:4; stroke-opacity:1; fill:none" points="
  683.47,1423.18 683.47,1404.28 
  "></polyline>
<polyline clip-path="url(#clip760)" style="stroke:#000000; stroke-linecap:butt; stroke-linejoin:round; stroke-width:4; stroke-opacity:1; fill:none" points="
  1086.71,1423.18 1086.71,1404.28 
  "></polyline>
<polyline clip-path="url(#clip760)" style="stroke:#000000; stroke-linecap:butt; stroke-linejoin:round; stroke-width:4; stroke-opacity:1; fill:none" points="
  1489.95,1423.18 1489.95,1404.28 
  "></polyline>
<polyline clip-path="url(#clip760)" style="stroke:#000000; stroke-linecap:butt; stroke-linejoin:round; stroke-width:4; stroke-opacity:1; fill:none" points="
  1893.19,1423.18 1893.19,1404.28 
  "></polyline>
<polyline clip-path="url(#clip760)" style="stroke:#000000; stroke-linecap:butt; stroke-linejoin:round; stroke-width:4; stroke-opacity:1; fill:none" points="
  2296.42,1423.18 2296.42,1404.28 
  "></polyline>
<path clip-path="url(#clip760)" d="M280.231 1454.1 Q276.62 1454.1 274.791 1457.66 Q272.986 1461.2 272.986 1468.33 Q272.986 1475.44 274.791 1479.01 Q276.62 1482.55 280.231 1482.55 Q283.865 1482.55 285.671 1479.01 Q287.5 1475.44 287.5 1468.33 Q287.5 1461.2 285.671 1457.66 Q283.865 1454.1 280.231 1454.1 M280.231 1450.39 Q286.041 1450.39 289.097 1455 Q292.175 1459.58 292.175 1468.33 Q292.175 1477.06 289.097 1481.67 Q286.041 1486.25 280.231 1486.25 Q274.421 1486.25 271.342 1481.67 Q268.287 1477.06 268.287 1468.33 Q268.287 1459.58 271.342 1455 Q274.421 1450.39 280.231 1450.39 Z" fill="#000000" fill-rule="evenodd" fill-opacity="1"></path><path clip-path="url(#clip760)" d="M658.157 1481.64 L665.796 1481.64 L665.796 1455.28 L657.486 1456.95 L657.486 1452.69 L665.75 1451.02 L670.426 1451.02 L670.426 1481.64 L678.064 1481.64 L678.064 1485.58 L658.157 1485.58 L658.157 1481.64 Z" fill="#000000" fill-rule="evenodd" fill-opacity="1"></path><path clip-path="url(#clip760)" d="M697.509 1454.1 Q693.898 1454.1 692.069 1457.66 Q690.263 1461.2 690.263 1468.33 Q690.263 1475.44 692.069 1479.01 Q693.898 1482.55 697.509 1482.55 Q701.143 1482.55 702.949 1479.01 Q704.777 1475.44 704.777 1468.33 Q704.777 1461.2 702.949 1457.66 Q701.143 1454.1 697.509 1454.1 M697.509 1450.39 Q703.319 1450.39 706.375 1455 Q709.453 1459.58 709.453 1468.33 Q709.453 1477.06 706.375 1481.67 Q703.319 1486.25 697.509 1486.25 Q691.699 1486.25 688.62 1481.67 Q685.564 1477.06 685.564 1468.33 Q685.564 1459.58 688.62 1455 Q691.699 1450.39 697.509 1450.39 Z" fill="#000000" fill-rule="evenodd" fill-opacity="1"></path><path clip-path="url(#clip760)" d="M1065.48 1481.64 L1081.8 1481.64 L1081.8 1485.58 L1059.86 1485.58 L1059.86 1481.64 Q1062.52 1478.89 1067.1 1474.26 Q1071.71 1469.61 1072.89 1468.27 Q1075.13 1465.74 1076.01 1464.01 Q1076.92 1462.25 1076.92 1460.56 Q1076.92 1457.8 1074.97 1456.07 Q1073.05 1454.33 1069.95 1454.33 Q1067.75 1454.33 1065.3 1455.09 Q1062.87 1455.86 1060.09 1457.41 L1060.09 1452.69 Q1062.91 1451.55 1065.37 1450.97 Q1067.82 1450.39 1069.86 1450.39 Q1075.23 1450.39 1078.42 1453.08 Q1081.62 1455.77 1081.62 1460.26 Q1081.62 1462.39 1080.81 1464.31 Q1080.02 1466.2 1077.91 1468.8 Q1077.33 1469.47 1074.23 1472.69 Q1071.13 1475.88 1065.48 1481.64 Z" fill="#000000" fill-rule="evenodd" fill-opacity="1"></path><path clip-path="url(#clip760)" d="M1101.62 1454.1 Q1098 1454.1 1096.18 1457.66 Q1094.37 1461.2 1094.37 1468.33 Q1094.37 1475.44 1096.18 1479.01 Q1098 1482.55 1101.62 1482.55 Q1105.25 1482.55 1107.06 1479.01 Q1108.88 1475.44 1108.88 1468.33 Q1108.88 1461.2 1107.06 1457.66 Q1105.25 1454.1 1101.62 1454.1 M1101.62 1450.39 Q1107.43 1450.39 1110.48 1455 Q1113.56 1459.58 1113.56 1468.33 Q1113.56 1477.06 1110.48 1481.67 Q1107.43 1486.25 1101.62 1486.25 Q1095.81 1486.25 1092.73 1481.67 Q1089.67 1477.06 1089.67 1468.33 Q1089.67 1459.58 1092.73 1455 Q1095.81 1450.39 1101.62 1450.39 Z" fill="#000000" fill-rule="evenodd" fill-opacity="1"></path><path clip-path="url(#clip760)" d="M1478.79 1466.95 Q1482.15 1467.66 1484.02 1469.93 Q1485.92 1472.2 1485.92 1475.53 Q1485.92 1480.65 1482.4 1483.45 Q1478.88 1486.25 1472.4 1486.25 Q1470.22 1486.25 1467.91 1485.81 Q1465.62 1485.39 1463.16 1484.54 L1463.16 1480.02 Q1465.11 1481.16 1467.42 1481.74 Q1469.74 1482.32 1472.26 1482.32 Q1476.66 1482.32 1478.95 1480.58 Q1481.27 1478.84 1481.27 1475.53 Q1481.27 1472.48 1479.11 1470.77 Q1476.98 1469.03 1473.16 1469.03 L1469.14 1469.03 L1469.14 1465.19 L1473.35 1465.19 Q1476.8 1465.19 1478.63 1463.82 Q1480.46 1462.43 1480.46 1459.84 Q1480.46 1457.18 1478.56 1455.77 Q1476.68 1454.33 1473.16 1454.33 Q1471.24 1454.33 1469.04 1454.75 Q1466.84 1455.16 1464.21 1456.04 L1464.21 1451.88 Q1466.87 1451.14 1469.18 1450.77 Q1471.52 1450.39 1473.58 1450.39 Q1478.9 1450.39 1482.01 1452.83 Q1485.11 1455.23 1485.11 1459.35 Q1485.11 1462.22 1483.47 1464.21 Q1481.82 1466.18 1478.79 1466.95 Z" fill="#000000" fill-rule="evenodd" fill-opacity="1"></path><path clip-path="url(#clip760)" d="M1504.78 1454.1 Q1501.17 1454.1 1499.34 1457.66 Q1497.54 1461.2 1497.54 1468.33 Q1497.54 1475.44 1499.34 1479.01 Q1501.17 1482.55 1504.78 1482.55 Q1508.42 1482.55 1510.22 1479.01 Q1512.05 1475.44 1512.05 1468.33 Q1512.05 1461.2 1510.22 1457.66 Q1508.42 1454.1 1504.78 1454.1 M1504.78 1450.39 Q1510.59 1450.39 1513.65 1455 Q1516.73 1459.58 1516.73 1468.33 Q1516.73 1477.06 1513.65 1481.67 Q1510.59 1486.25 1504.78 1486.25 Q1498.97 1486.25 1495.9 1481.67 Q1492.84 1477.06 1492.84 1468.33 Q1492.84 1459.58 1495.9 1455 Q1498.97 1450.39 1504.78 1450.39 Z" fill="#000000" fill-rule="evenodd" fill-opacity="1"></path><path clip-path="url(#clip760)" d="M1881.36 1455.09 L1869.55 1473.54 L1881.36 1473.54 L1881.36 1455.09 M1880.13 1451.02 L1886.01 1451.02 L1886.01 1473.54 L1890.94 1473.54 L1890.94 1477.43 L1886.01 1477.43 L1886.01 1485.58 L1881.36 1485.58 L1881.36 1477.43 L1865.75 1477.43 L1865.75 1472.92 L1880.13 1451.02 Z" fill="#000000" fill-rule="evenodd" fill-opacity="1"></path><path clip-path="url(#clip760)" d="M1908.67 1454.1 Q1905.06 1454.1 1903.23 1457.66 Q1901.43 1461.2 1901.43 1468.33 Q1901.43 1475.44 1903.23 1479.01 Q1905.06 1482.55 1908.67 1482.55 Q1912.31 1482.55 1914.11 1479.01 Q1915.94 1475.44 1915.94 1468.33 Q1915.94 1461.2 1914.11 1457.66 Q1912.31 1454.1 1908.67 1454.1 M1908.67 1450.39 Q1914.48 1450.39 1917.54 1455 Q1920.62 1459.58 1920.62 1468.33 Q1920.62 1477.06 1917.54 1481.67 Q1914.48 1486.25 1908.67 1486.25 Q1902.86 1486.25 1899.78 1481.67 Q1896.73 1477.06 1896.73 1468.33 Q1896.73 1459.58 1899.78 1455 Q1902.86 1450.39 1908.67 1450.39 Z" fill="#000000" fill-rule="evenodd" fill-opacity="1"></path><path clip-path="url(#clip760)" d="M2271.12 1451.02 L2289.48 1451.02 L2289.48 1454.96 L2275.41 1454.96 L2275.41 1463.43 Q2276.42 1463.08 2277.44 1462.92 Q2278.46 1462.73 2279.48 1462.73 Q2285.27 1462.73 2288.65 1465.9 Q2292.03 1469.08 2292.03 1474.49 Q2292.03 1480.07 2288.55 1483.17 Q2285.08 1486.25 2278.76 1486.25 Q2276.59 1486.25 2274.32 1485.88 Q2272.07 1485.51 2269.66 1484.77 L2269.66 1480.07 Q2271.75 1481.2 2273.97 1481.76 Q2276.19 1482.32 2278.67 1482.32 Q2282.67 1482.32 2285.01 1480.21 Q2287.35 1478.1 2287.35 1474.49 Q2287.35 1470.88 2285.01 1468.77 Q2282.67 1466.67 2278.67 1466.67 Q2276.79 1466.67 2274.92 1467.08 Q2273.07 1467.5 2271.12 1468.38 L2271.12 1451.02 Z" fill="#000000" fill-rule="evenodd" fill-opacity="1"></path><path clip-path="url(#clip760)" d="M2311.24 1454.1 Q2307.63 1454.1 2305.8 1457.66 Q2303.99 1461.2 2303.99 1468.33 Q2303.99 1475.44 2305.8 1479.01 Q2307.63 1482.55 2311.24 1482.55 Q2314.87 1482.55 2316.68 1479.01 Q2318.51 1475.44 2318.51 1468.33 Q2318.51 1461.2 2316.68 1457.66 Q2314.87 1454.1 2311.24 1454.1 M2311.24 1450.39 Q2317.05 1450.39 2320.1 1455 Q2323.18 1459.58 2323.18 1468.33 Q2323.18 1477.06 2320.1 1481.67 Q2317.05 1486.25 2311.24 1486.25 Q2305.43 1486.25 2302.35 1481.67 Q2299.29 1477.06 2299.29 1468.33 Q2299.29 1459.58 2302.35 1455 Q2305.43 1450.39 2311.24 1450.39 Z" fill="#000000" fill-rule="evenodd" fill-opacity="1"></path><path clip-path="url(#clip760)" d="M1127.38 1520.52 L1167.57 1520.52 L1167.57 1525.93 L1150.71 1525.93 L1150.71 1568.04 L1144.24 1568.04 L1144.24 1525.93 L1127.38 1525.93 L1127.38 1520.52 Z" fill="#000000" fill-rule="evenodd" fill-opacity="1"></path><path clip-path="url(#clip760)" d="M1171.52 1532.4 L1177.38 1532.4 L1177.38 1568.04 L1171.52 1568.04 L1171.52 1532.4 M1171.52 1518.52 L1177.38 1518.52 L1177.38 1525.93 L1171.52 1525.93 L1171.52 1518.52 Z" fill="#000000" fill-rule="evenodd" fill-opacity="1"></path><path clip-path="url(#clip760)" d="M1217.39 1539.24 Q1219.58 1535.29 1222.64 1533.41 Q1225.69 1531.54 1229.83 1531.54 Q1235.4 1531.54 1238.43 1535.45 Q1241.45 1539.33 1241.45 1546.53 L1241.45 1568.04 L1235.56 1568.04 L1235.56 1546.72 Q1235.56 1541.59 1233.75 1539.11 Q1231.93 1536.63 1228.21 1536.63 Q1223.66 1536.63 1221.01 1539.65 Q1218.37 1542.68 1218.37 1547.9 L1218.37 1568.04 L1212.48 1568.04 L1212.48 1546.72 Q1212.48 1541.56 1210.67 1539.11 Q1208.86 1536.63 1205.07 1536.63 Q1200.58 1536.63 1197.94 1539.68 Q1195.3 1542.71 1195.3 1547.9 L1195.3 1568.04 L1189.41 1568.04 L1189.41 1532.4 L1195.3 1532.4 L1195.3 1537.93 Q1197.3 1534.66 1200.1 1533.1 Q1202.9 1531.54 1206.76 1531.54 Q1210.64 1531.54 1213.34 1533.51 Q1216.08 1535.48 1217.39 1539.24 Z" fill="#000000" fill-rule="evenodd" fill-opacity="1"></path><path clip-path="url(#clip760)" d="M1283.62 1548.76 L1283.62 1551.62 L1256.69 1551.62 Q1257.08 1557.67 1260.32 1560.85 Q1263.6 1564 1269.43 1564 Q1272.8 1564 1275.95 1563.17 Q1279.13 1562.35 1282.25 1560.69 L1282.25 1566.23 Q1279.1 1567.57 1275.79 1568.27 Q1272.48 1568.97 1269.08 1568.97 Q1260.55 1568.97 1255.55 1564 Q1250.58 1559.04 1250.58 1550.57 Q1250.58 1541.82 1255.29 1536.69 Q1260.04 1531.54 1268.06 1531.54 Q1275.25 1531.54 1279.42 1536.18 Q1283.62 1540.8 1283.62 1548.76 M1277.77 1547.04 Q1277.7 1542.23 1275.06 1539.37 Q1272.45 1536.5 1268.12 1536.5 Q1263.22 1536.5 1260.26 1539.27 Q1257.33 1542.04 1256.89 1547.07 L1277.77 1547.04 Z" fill="#000000" fill-rule="evenodd" fill-opacity="1"></path><path clip-path="url(#clip760)" d="M1336.68 1533.45 L1336.68 1538.98 Q1334.2 1537.71 1331.52 1537.07 Q1328.85 1536.44 1325.99 1536.44 Q1321.62 1536.44 1319.43 1537.77 Q1317.26 1539.11 1317.26 1541.79 Q1317.26 1543.82 1318.82 1545 Q1320.38 1546.15 1325.09 1547.2 L1327.1 1547.64 Q1333.34 1548.98 1335.95 1551.43 Q1338.59 1553.85 1338.59 1558.21 Q1338.59 1563.17 1334.64 1566.07 Q1330.73 1568.97 1323.85 1568.97 Q1320.99 1568.97 1317.87 1568.39 Q1314.78 1567.85 1311.34 1566.74 L1311.34 1560.69 Q1314.59 1562.38 1317.74 1563.24 Q1320.89 1564.07 1323.98 1564.07 Q1328.12 1564.07 1330.35 1562.66 Q1332.57 1561.23 1332.57 1558.65 Q1332.57 1556.27 1330.95 1554.99 Q1329.36 1553.72 1323.92 1552.54 L1321.88 1552.07 Q1316.44 1550.92 1314.02 1548.56 Q1311.6 1546.18 1311.6 1542.04 Q1311.6 1537.01 1315.16 1534.27 Q1318.73 1531.54 1325.29 1531.54 Q1328.53 1531.54 1331.4 1532.01 Q1334.26 1532.49 1336.68 1533.45 Z" fill="#000000" fill-rule="evenodd" fill-opacity="1"></path><path clip-path="url(#clip760)" d="M1353.71 1522.27 L1353.71 1532.4 L1365.77 1532.4 L1365.77 1536.95 L1353.71 1536.95 L1353.71 1556.3 Q1353.71 1560.66 1354.89 1561.9 Q1356.1 1563.14 1359.76 1563.14 L1365.77 1563.14 L1365.77 1568.04 L1359.76 1568.04 Q1352.98 1568.04 1350.4 1565.53 Q1347.82 1562.98 1347.82 1556.3 L1347.82 1536.95 L1343.52 1536.95 L1343.52 1532.4 L1347.82 1532.4 L1347.82 1522.27 L1353.71 1522.27 Z" fill="#000000" fill-rule="evenodd" fill-opacity="1"></path><path clip-path="url(#clip760)" d="M1403.97 1548.76 L1403.97 1551.62 L1377.04 1551.62 Q1377.42 1557.67 1380.67 1560.85 Q1383.95 1564 1389.77 1564 Q1393.14 1564 1396.29 1563.17 Q1399.48 1562.35 1402.6 1560.69 L1402.6 1566.23 Q1399.45 1567.57 1396.14 1568.27 Q1392.83 1568.97 1389.42 1568.97 Q1380.89 1568.97 1375.89 1564 Q1370.93 1559.04 1370.93 1550.57 Q1370.93 1541.82 1375.64 1536.69 Q1380.38 1531.54 1388.4 1531.54 Q1395.59 1531.54 1399.76 1536.18 Q1403.97 1540.8 1403.97 1548.76 M1398.11 1547.04 Q1398.05 1542.23 1395.4 1539.37 Q1392.79 1536.5 1388.46 1536.5 Q1383.56 1536.5 1380.6 1539.27 Q1377.67 1542.04 1377.23 1547.07 L1398.11 1547.04 Z" fill="#000000" fill-rule="evenodd" fill-opacity="1"></path><path clip-path="url(#clip760)" d="M1419.24 1562.7 L1419.24 1581.6 L1413.35 1581.6 L1413.35 1532.4 L1419.24 1532.4 L1419.24 1537.81 Q1421.09 1534.62 1423.89 1533.1 Q1426.72 1531.54 1430.64 1531.54 Q1437.13 1531.54 1441.17 1536.69 Q1445.25 1541.85 1445.25 1550.25 Q1445.25 1558.65 1441.17 1563.81 Q1437.13 1568.97 1430.64 1568.97 Q1426.72 1568.97 1423.89 1567.44 Q1421.09 1565.88 1419.24 1562.7 M1439.17 1550.25 Q1439.17 1543.79 1436.49 1540.13 Q1433.85 1536.44 1429.21 1536.44 Q1424.56 1536.44 1421.88 1540.13 Q1419.24 1543.79 1419.24 1550.25 Q1419.24 1556.71 1421.88 1560.4 Q1424.56 1564.07 1429.21 1564.07 Q1433.85 1564.07 1436.49 1560.4 Q1439.17 1556.71 1439.17 1550.25 Z" fill="#000000" fill-rule="evenodd" fill-opacity="1"></path><polyline clip-path="url(#clip762)" style="stroke:#000000; stroke-linecap:butt; stroke-linejoin:round; stroke-width:2; stroke-opacity:0.1; fill:none" points="
  219.866,1384.24 2352.76,1384.24 
  "></polyline>
<polyline clip-path="url(#clip762)" style="stroke:#000000; stroke-linecap:butt; stroke-linejoin:round; stroke-width:2; stroke-opacity:0.1; fill:none" points="
  219.866,1038.09 2352.76,1038.09 
  "></polyline>
<polyline clip-path="url(#clip762)" style="stroke:#000000; stroke-linecap:butt; stroke-linejoin:round; stroke-width:2; stroke-opacity:0.1; fill:none" points="
  219.866,691.944 2352.76,691.944 
  "></polyline>
<polyline clip-path="url(#clip762)" style="stroke:#000000; stroke-linecap:butt; stroke-linejoin:round; stroke-width:2; stroke-opacity:0.1; fill:none" points="
  219.866,345.796 2352.76,345.796 
  "></polyline>
<polyline clip-path="url(#clip760)" style="stroke:#000000; stroke-linecap:butt; stroke-linejoin:round; stroke-width:4; stroke-opacity:1; fill:none" points="
  219.866,1423.18 219.866,47.2441 
  "></polyline>
<polyline clip-path="url(#clip760)" style="stroke:#000000; stroke-linecap:butt; stroke-linejoin:round; stroke-width:4; stroke-opacity:1; fill:none" points="
  219.866,1384.24 238.764,1384.24 
  "></polyline>
<polyline clip-path="url(#clip760)" style="stroke:#000000; stroke-linecap:butt; stroke-linejoin:round; stroke-width:4; stroke-opacity:1; fill:none" points="
  219.866,1038.09 238.764,1038.09 
  "></polyline>
<polyline clip-path="url(#clip760)" style="stroke:#000000; stroke-linecap:butt; stroke-linejoin:round; stroke-width:4; stroke-opacity:1; fill:none" points="
  219.866,691.944 238.764,691.944 
  "></polyline>
<polyline clip-path="url(#clip760)" style="stroke:#000000; stroke-linecap:butt; stroke-linejoin:round; stroke-width:4; stroke-opacity:1; fill:none" points="
  219.866,345.796 238.764,345.796 
  "></polyline>
<path clip-path="url(#clip760)" d="M126.691 1370.04 Q123.08 1370.04 121.251 1373.6 Q119.445 1377.14 119.445 1384.27 Q119.445 1391.38 121.251 1394.94 Q123.08 1398.49 126.691 1398.49 Q130.325 1398.49 132.13 1394.94 Q133.959 1391.38 133.959 1384.27 Q133.959 1377.14 132.13 1373.6 Q130.325 1370.04 126.691 1370.04 M126.691 1366.33 Q132.501 1366.33 135.556 1370.94 Q138.635 1375.52 138.635 1384.27 Q138.635 1393 135.556 1397.61 Q132.501 1402.19 126.691 1402.19 Q120.88 1402.19 117.802 1397.61 Q114.746 1393 114.746 1384.27 Q114.746 1375.52 117.802 1370.94 Q120.88 1366.33 126.691 1366.33 Z" fill="#000000" fill-rule="evenodd" fill-opacity="1"></path><path clip-path="url(#clip760)" d="M146.853 1395.64 L151.737 1395.64 L151.737 1401.52 L146.853 1401.52 L146.853 1395.64 Z" fill="#000000" fill-rule="evenodd" fill-opacity="1"></path><path clip-path="url(#clip760)" d="M171.922 1370.04 Q168.311 1370.04 166.482 1373.6 Q164.677 1377.14 164.677 1384.27 Q164.677 1391.38 166.482 1394.94 Q168.311 1398.49 171.922 1398.49 Q175.556 1398.49 177.362 1394.94 Q179.19 1391.38 179.19 1384.27 Q179.19 1377.14 177.362 1373.6 Q175.556 1370.04 171.922 1370.04 M171.922 1366.33 Q177.732 1366.33 180.788 1370.94 Q183.866 1375.52 183.866 1384.27 Q183.866 1393 180.788 1397.61 Q177.732 1402.19 171.922 1402.19 Q166.112 1402.19 163.033 1397.61 Q159.978 1393 159.978 1384.27 Q159.978 1375.52 163.033 1370.94 Q166.112 1366.33 171.922 1366.33 Z" fill="#000000" fill-rule="evenodd" fill-opacity="1"></path><path clip-path="url(#clip760)" d="M128.288 1023.89 Q124.677 1023.89 122.848 1027.45 Q121.043 1031 121.043 1038.13 Q121.043 1045.23 122.848 1048.8 Q124.677 1052.34 128.288 1052.34 Q131.922 1052.34 133.728 1048.8 Q135.556 1045.23 135.556 1038.13 Q135.556 1031 133.728 1027.45 Q131.922 1023.89 128.288 1023.89 M128.288 1020.19 Q134.098 1020.19 137.154 1024.79 Q140.232 1029.38 140.232 1038.13 Q140.232 1046.85 137.154 1051.46 Q134.098 1056.04 128.288 1056.04 Q122.478 1056.04 119.399 1051.46 Q116.343 1046.85 116.343 1038.13 Q116.343 1029.38 119.399 1024.79 Q122.478 1020.19 128.288 1020.19 Z" fill="#000000" fill-rule="evenodd" fill-opacity="1"></path><path clip-path="url(#clip760)" d="M148.45 1049.49 L153.334 1049.49 L153.334 1055.37 L148.45 1055.37 L148.45 1049.49 Z" fill="#000000" fill-rule="evenodd" fill-opacity="1"></path><path clip-path="url(#clip760)" d="M167.547 1051.44 L183.866 1051.44 L183.866 1055.37 L161.922 1055.37 L161.922 1051.44 Q164.584 1048.68 169.167 1044.05 Q173.774 1039.4 174.954 1038.06 Q177.2 1035.53 178.079 1033.8 Q178.982 1032.04 178.982 1030.35 Q178.982 1027.59 177.038 1025.86 Q175.116 1024.12 172.014 1024.12 Q169.815 1024.12 167.362 1024.88 Q164.931 1025.65 162.153 1027.2 L162.153 1022.48 Q164.977 1021.34 167.431 1020.76 Q169.885 1020.19 171.922 1020.19 Q177.292 1020.19 180.487 1022.87 Q183.681 1025.56 183.681 1030.05 Q183.681 1032.18 182.871 1034.1 Q182.084 1036 179.977 1038.59 Q179.399 1039.26 176.297 1042.48 Q173.195 1045.67 167.547 1051.44 Z" fill="#000000" fill-rule="evenodd" fill-opacity="1"></path><path clip-path="url(#clip760)" d="M126.205 677.742 Q122.593 677.742 120.765 681.307 Q118.959 684.849 118.959 691.978 Q118.959 699.085 120.765 702.65 Q122.593 706.191 126.205 706.191 Q129.839 706.191 131.644 702.65 Q133.473 699.085 133.473 691.978 Q133.473 684.849 131.644 681.307 Q129.839 677.742 126.205 677.742 M126.205 674.039 Q132.015 674.039 135.07 678.645 Q138.149 683.228 138.149 691.978 Q138.149 700.705 135.07 705.312 Q132.015 709.895 126.205 709.895 Q120.394 709.895 117.316 705.312 Q114.26 700.705 114.26 691.978 Q114.26 683.228 117.316 678.645 Q120.394 674.039 126.205 674.039 Z" fill="#000000" fill-rule="evenodd" fill-opacity="1"></path><path clip-path="url(#clip760)" d="M146.366 703.344 L151.251 703.344 L151.251 709.224 L146.366 709.224 L146.366 703.344 Z" fill="#000000" fill-rule="evenodd" fill-opacity="1"></path><path clip-path="url(#clip760)" d="M174.283 678.738 L162.477 697.187 L174.283 697.187 L174.283 678.738 M173.056 674.664 L178.936 674.664 L178.936 697.187 L183.866 697.187 L183.866 701.075 L178.936 701.075 L178.936 709.224 L174.283 709.224 L174.283 701.075 L158.681 701.075 L158.681 696.562 L173.056 674.664 Z" fill="#000000" fill-rule="evenodd" fill-opacity="1"></path><path clip-path="url(#clip760)" d="M126.529 331.595 Q122.918 331.595 121.089 335.16 Q119.283 338.701 119.283 345.831 Q119.283 352.937 121.089 356.502 Q122.918 360.044 126.529 360.044 Q130.163 360.044 131.968 356.502 Q133.797 352.937 133.797 345.831 Q133.797 338.701 131.968 335.16 Q130.163 331.595 126.529 331.595 M126.529 327.891 Q132.339 327.891 135.394 332.498 Q138.473 337.081 138.473 345.831 Q138.473 354.558 135.394 359.164 Q132.339 363.747 126.529 363.747 Q120.718 363.747 117.64 359.164 Q114.584 354.558 114.584 345.831 Q114.584 337.081 117.64 332.498 Q120.718 327.891 126.529 327.891 Z" fill="#000000" fill-rule="evenodd" fill-opacity="1"></path><path clip-path="url(#clip760)" d="M146.691 357.197 L151.575 357.197 L151.575 363.076 L146.691 363.076 L146.691 357.197 Z" fill="#000000" fill-rule="evenodd" fill-opacity="1"></path><path clip-path="url(#clip760)" d="M172.339 343.933 Q169.19 343.933 167.339 346.086 Q165.51 348.238 165.51 351.988 Q165.51 355.715 167.339 357.891 Q169.19 360.044 172.339 360.044 Q175.487 360.044 177.315 357.891 Q179.167 355.715 179.167 351.988 Q179.167 348.238 177.315 346.086 Q175.487 343.933 172.339 343.933 M181.621 329.28 L181.621 333.539 Q179.862 332.706 178.056 332.266 Q176.274 331.826 174.514 331.826 Q169.885 331.826 167.431 334.951 Q165.001 338.076 164.653 344.396 Q166.019 342.382 168.079 341.317 Q170.139 340.229 172.616 340.229 Q177.825 340.229 180.834 343.4 Q183.866 346.549 183.866 351.988 Q183.866 357.312 180.718 360.53 Q177.57 363.747 172.339 363.747 Q166.343 363.747 163.172 359.164 Q160.001 354.558 160.001 345.831 Q160.001 337.637 163.89 332.775 Q167.778 327.891 174.329 327.891 Q176.089 327.891 177.871 328.238 Q179.676 328.586 181.621 329.28 Z" fill="#000000" fill-rule="evenodd" fill-opacity="1"></path><path clip-path="url(#clip760)" d="M16.4842 934.379 L16.4842 894.18 L21.895 894.18 L21.895 911.049 L64.0042 911.049 L64.0042 917.51 L21.895 917.51 L21.895 934.379 L16.4842 934.379 Z" fill="#000000" fill-rule="evenodd" fill-opacity="1"></path><path clip-path="url(#clip760)" d="M32.4621 885.49 Q32.4621 890.201 36.1542 892.938 Q39.8145 895.676 46.212 895.676 Q52.6095 895.676 56.3017 892.97 Q59.9619 890.233 59.9619 885.49 Q59.9619 880.812 56.2698 878.074 Q52.5777 875.337 46.212 875.337 Q39.8781 875.337 36.186 878.074 Q32.4621 880.812 32.4621 885.49 M27.4968 885.49 Q27.4968 877.852 32.4621 873.491 Q37.4273 869.131 46.212 869.131 Q54.9649 869.131 59.9619 873.491 Q64.9272 877.852 64.9272 885.49 Q64.9272 893.161 59.9619 897.522 Q54.9649 901.85 46.212 901.85 Q37.4273 901.85 32.4621 897.522 Q27.4968 893.161 27.4968 885.49 Z" fill="#000000" fill-rule="evenodd" fill-opacity="1"></path><path clip-path="url(#clip760)" d="M18.2347 853.63 L28.3562 853.63 L28.3562 841.567 L32.9077 841.567 L32.9077 853.63 L52.2594 853.63 Q56.6199 853.63 57.8613 852.452 Q59.1026 851.243 59.1026 847.583 L59.1026 841.567 L64.0042 841.567 L64.0042 847.583 Q64.0042 854.362 61.4897 856.94 Q58.9434 859.518 52.2594 859.518 L32.9077 859.518 L32.9077 863.815 L28.3562 863.815 L28.3562 859.518 L18.2347 859.518 L18.2347 853.63 Z" fill="#000000" fill-rule="evenodd" fill-opacity="1"></path><path clip-path="url(#clip760)" d="M46.0847 817.664 Q46.0847 824.762 47.7079 827.499 Q49.3312 830.236 53.2461 830.236 Q56.3653 830.236 58.2114 828.199 Q60.0256 826.13 60.0256 822.597 Q60.0256 817.727 56.5881 814.799 Q53.1188 811.839 47.3897 811.839 L46.0847 811.839 L46.0847 817.664 M43.6657 805.983 L64.0042 805.983 L64.0042 811.839 L58.5933 811.839 Q61.8398 813.844 63.3994 816.836 Q64.9272 819.828 64.9272 824.157 Q64.9272 829.631 61.8716 832.878 Q58.7843 836.093 53.6281 836.093 Q47.6125 836.093 44.5569 832.082 Q41.5014 828.04 41.5014 820.051 L41.5014 811.839 L40.9285 811.839 Q36.8862 811.839 34.6901 814.513 Q32.4621 817.155 32.4621 821.961 Q32.4621 825.016 33.1941 827.913 Q33.9262 830.809 35.3903 833.483 L29.9795 833.483 Q28.7381 830.268 28.1334 827.244 Q27.4968 824.22 27.4968 821.356 Q27.4968 813.622 31.5072 809.802 Q35.5176 805.983 43.6657 805.983 Z" fill="#000000" fill-rule="evenodd" fill-opacity="1"></path><path clip-path="url(#clip760)" d="M14.479 793.92 L14.479 788.063 L64.0042 788.063 L64.0042 793.92 L14.479 793.92 Z" fill="#000000" fill-rule="evenodd" fill-opacity="1"></path><path clip-path="url(#clip760)" d="M44.7161 724.597 L47.5806 724.597 L47.5806 751.524 Q53.6281 751.142 56.8109 747.896 Q59.9619 744.617 59.9619 738.793 Q59.9619 735.419 59.1344 732.268 Q58.3069 729.085 56.6518 725.966 L62.1899 725.966 Q63.5267 729.117 64.227 732.427 Q64.9272 735.737 64.9272 739.143 Q64.9272 747.673 59.9619 752.67 Q54.9967 757.635 46.5303 757.635 Q37.7774 757.635 32.6531 752.925 Q27.4968 748.182 27.4968 740.161 Q27.4968 732.968 32.1438 728.799 Q36.7589 724.597 44.7161 724.597 M42.9973 730.454 Q38.1912 730.517 35.3266 733.159 Q32.4621 735.769 32.4621 740.098 Q32.4621 744.999 35.2312 747.959 Q38.0002 750.888 43.0292 751.333 L42.9973 730.454 Z" fill="#000000" fill-rule="evenodd" fill-opacity="1"></path><path clip-path="url(#clip760)" d="M42.4881 685.353 L64.0042 685.353 L64.0042 691.209 L42.679 691.209 Q37.6183 691.209 35.1038 693.182 Q32.5894 695.156 32.5894 699.102 Q32.5894 703.845 35.6131 706.582 Q38.6368 709.319 43.8567 709.319 L64.0042 709.319 L64.0042 715.208 L28.3562 715.208 L28.3562 709.319 L33.8944 709.319 Q30.6797 707.219 29.0883 704.386 Q27.4968 701.521 27.4968 697.798 Q27.4968 691.655 31.3163 688.504 Q35.1038 685.353 42.4881 685.353 Z" fill="#000000" fill-rule="evenodd" fill-opacity="1"></path><path clip-path="url(#clip760)" d="M44.7161 643.18 L47.5806 643.18 L47.5806 670.107 Q53.6281 669.725 56.8109 666.478 Q59.9619 663.2 59.9619 657.375 Q59.9619 654.001 59.1344 650.85 Q58.3069 647.668 56.6518 644.548 L62.1899 644.548 Q63.5267 647.699 64.227 651.01 Q64.9272 654.32 64.9272 657.725 Q64.9272 666.255 59.9619 671.253 Q54.9967 676.218 46.5303 676.218 Q37.7774 676.218 32.6531 671.507 Q27.4968 666.765 27.4968 658.744 Q27.4968 651.551 32.1438 647.381 Q36.7589 643.18 44.7161 643.18 M42.9973 649.036 Q38.1912 649.1 35.3266 651.742 Q32.4621 654.352 32.4621 658.68 Q32.4621 663.582 35.2312 666.542 Q38.0002 669.47 43.0292 669.916 L42.9973 649.036 Z" fill="#000000" fill-rule="evenodd" fill-opacity="1"></path><path clip-path="url(#clip760)" d="M33.8307 612.911 Q33.2578 613.898 33.0032 615.075 Q32.7167 616.221 32.7167 617.621 Q32.7167 622.587 35.9632 625.26 Q39.1779 627.902 45.2253 627.902 L64.0042 627.902 L64.0042 633.79 L28.3562 633.79 L28.3562 627.902 L33.8944 627.902 Q30.6479 626.056 29.0883 623.096 Q27.4968 620.136 27.4968 615.903 Q27.4968 615.298 27.5923 614.566 Q27.656 613.834 27.8151 612.943 L33.8307 612.911 Z" fill="#000000" fill-rule="evenodd" fill-opacity="1"></path><path clip-path="url(#clip760)" d="M45.7664 584.456 Q39.4007 584.456 35.8996 587.098 Q32.3984 589.708 32.3984 594.45 Q32.3984 599.161 35.8996 601.803 Q39.4007 604.413 45.7664 604.413 Q52.1003 604.413 55.6014 601.803 Q59.1026 599.161 59.1026 594.45 Q59.1026 589.708 55.6014 587.098 Q52.1003 584.456 45.7664 584.456 M59.58 578.6 Q68.683 578.6 73.1071 582.642 Q77.5631 586.684 77.5631 595.023 Q77.5631 598.111 77.0857 600.848 Q76.6401 603.585 75.6852 606.163 L69.9879 606.163 Q71.3884 603.585 72.0568 601.071 Q72.7252 598.556 72.7252 595.946 Q72.7252 590.185 69.7015 587.321 Q66.7096 584.456 60.6303 584.456 L57.7339 584.456 Q60.885 586.27 62.4446 589.103 Q64.0042 591.936 64.0042 595.883 Q64.0042 602.439 59.0071 606.45 Q54.01 610.46 45.7664 610.46 Q37.491 610.46 32.4939 606.45 Q27.4968 602.439 27.4968 595.883 Q27.4968 591.936 29.0564 589.103 Q30.616 586.27 33.7671 584.456 L28.3562 584.456 L28.3562 578.6 L59.58 578.6 Z" fill="#000000" fill-rule="evenodd" fill-opacity="1"></path><path clip-path="url(#clip760)" d="M67.3143 551.705 Q73.68 554.187 75.6216 556.542 Q77.5631 558.898 77.5631 562.845 L77.5631 567.523 L72.6615 567.523 L72.6615 564.086 Q72.6615 561.667 71.5157 560.33 Q70.3699 558.993 66.1048 557.37 L63.4312 556.32 L28.3562 570.738 L28.3562 564.531 L56.238 553.391 L28.3562 542.251 L28.3562 536.045 L67.3143 551.705 Z" fill="#000000" fill-rule="evenodd" fill-opacity="1"></path><polyline clip-path="url(#clip762)" style="stroke:#009af9; stroke-linecap:butt; stroke-linejoin:round; stroke-width:12; stroke-opacity:1; fill:none" points="
  280.231,86.1857 284.263,123.326 288.296,149.622 292.328,167.128 296.361,177.796 300.393,183.455 304.425,185.785 308.458,186.306 312.49,186.368 316.523,187.148 
  320.555,189.638 324.587,194.652 328.62,202.826 332.652,214.63 336.684,230.374 340.717,250.222 344.749,274.2 348.782,302.221 352.814,334.086 356.846,369.508 
  360.879,408.129 364.911,449.533 368.944,493.253 372.976,538.802 377.008,585.676 381.041,633.363 385.073,681.364 389.105,729.195 393.138,776.402 397.17,822.561 
  401.203,867.292 405.235,910.253 409.267,951.154 413.3,989.755 417.332,1025.86 421.365,1059.34 425.397,1090.09 429.429,1118.07 433.462,1143.28 437.494,1165.76 
  441.526,1185.57 445.559,1202.82 449.591,1217.65 453.624,1230.21 457.656,1240.67 461.688,1249.23 465.721,1256.07 469.753,1261.4 473.786,1265.43 477.818,1268.35 
  481.85,1270.36 485.883,1271.64 489.915,1272.38 493.947,1272.73 497.98,1272.84 502.012,1272.86 506.045,1272.88 510.077,1273.03 514.109,1273.37 518.142,1273.98 
  522.174,1274.9 526.207,1276.18 530.239,1277.84 534.271,1279.88 538.304,1282.3 542.336,1285.09 546.368,1288.22 550.401,1291.67 554.433,1295.4 558.466,1299.36 
  562.498,1303.52 566.53,1307.83 570.563,1312.23 574.595,1316.68 578.628,1321.14 582.66,1325.57 586.692,1329.91 590.725,1334.14 594.757,1338.22 598.789,1342.12 
  602.822,1345.82 606.854,1349.29 610.887,1352.52 614.919,1355.51 618.951,1358.24 622.984,1360.71 627.016,1362.92 631.049,1364.89 635.081,1366.61 639.113,1368.1 
  643.146,1369.37 647.178,1370.43 651.21,1371.31 655.243,1372.03 659.275,1372.59 663.308,1373.02 667.34,1373.34 671.372,1373.57 675.405,1373.72 679.437,1373.81 
  683.47,1373.86 687.502,1373.88 691.534,1373.88 695.567,1373.88 699.599,1373.89 703.631,1373.91 707.664,1373.95 711.696,1374.03 715.729,1374.13 719.761,1374.26 
  723.793,1374.44 727.826,1374.64 731.858,1374.89 735.891,1375.16 739.923,1375.47 743.955,1375.8 747.988,1376.16 752.02,1376.54 756.052,1376.93 760.085,1377.34 
  764.117,1377.75 768.15,1378.17 772.182,1378.58 776.214,1378.99 780.247,1379.39 784.279,1379.77 788.312,1380.15 792.344,1380.5 796.376,1380.83 800.409,1381.14 
  804.441,1381.43 808.473,1381.7 812.506,1381.94 816.538,1382.16 820.571,1382.35 824.603,1382.52 828.635,1382.67 832.668,1382.8 836.7,1382.91 840.733,1383 
  844.765,1383.07 848.797,1383.13 852.83,1383.18 856.862,1383.21 860.894,1383.24 864.927,1383.25 868.959,1383.26 872.992,1383.27 877.024,1383.27 881.056,1383.28 
  885.089,1383.28 889.121,1383.28 893.154,1383.28 897.186,1383.28 901.218,1383.29 905.251,1383.29 909.283,1383.3 913.315,1383.32 917.348,1383.34 921.38,1383.36 
  925.413,1383.38 929.445,1383.41 933.477,1383.44 937.51,1383.47 941.542,1383.51 945.575,1383.54 949.607,1383.58 953.639,1383.62 957.672,1383.65 961.704,1383.69 
  965.736,1383.73 969.769,1383.77 973.801,1383.81 977.834,1383.84 981.866,1383.87 985.898,1383.91 989.931,1383.94 993.963,1383.96 997.996,1383.99 1002.03,1384.01 
  1006.06,1384.04 1010.09,1384.05 1014.13,1384.07 1018.16,1384.09 1022.19,1384.1 1026.22,1384.11 1030.25,1384.12 1034.29,1384.13 1038.32,1384.13 1042.35,1384.14 
  1046.38,1384.14 1050.42,1384.14 1054.45,1384.15 1058.48,1384.15 1062.51,1384.15 1066.55,1384.15 1070.58,1384.15 1074.61,1384.15 1078.64,1384.15 1082.68,1384.15 
  1086.71,1384.15 1090.74,1384.15 1094.77,1384.15 1098.81,1384.15 1102.84,1384.15 1106.87,1384.15 1110.9,1384.16 1114.93,1384.16 1118.97,1384.16 1123,1384.16 
  1127.03,1384.17 1131.06,1384.17 1135.1,1384.17 1139.13,1384.18 1143.16,1384.18 1147.19,1384.18 1151.23,1384.19 1155.26,1384.19 1159.29,1384.19 1163.32,1384.2 
  1167.36,1384.2 1171.39,1384.2 1175.42,1384.21 1179.45,1384.21 1183.49,1384.21 1187.52,1384.21 1191.55,1384.22 1195.58,1384.22 1199.61,1384.22 1203.65,1384.22 
  1207.68,1384.22 1211.71,1384.22 1215.74,1384.23 1219.78,1384.23 1223.81,1384.23 1227.84,1384.23 1231.87,1384.23 1235.91,1384.23 1239.94,1384.23 1243.97,1384.23 
  1248,1384.23 1252.04,1384.23 1256.07,1384.23 1260.1,1384.23 1264.13,1384.23 1268.17,1384.23 1272.2,1384.23 1276.23,1384.23 1280.26,1384.23 1284.29,1384.23 
  1288.33,1384.23 1292.36,1384.23 1296.39,1384.23 1300.42,1384.23 1304.46,1384.23 1308.49,1384.23 1312.52,1384.23 1316.55,1384.23 1320.59,1384.23 1324.62,1384.23 
  1328.65,1384.23 1332.68,1384.23 1336.72,1384.23 1340.75,1384.23 1344.78,1384.23 1348.81,1384.23 1352.85,1384.23 1356.88,1384.23 1360.91,1384.23 1364.94,1384.24 
  1368.97,1384.24 1373.01,1384.24 1377.04,1384.24 1381.07,1384.24 1385.1,1384.24 1389.14,1384.24 1393.17,1384.24 1397.2,1384.24 1401.23,1384.24 1405.27,1384.24 
  1409.3,1384.24 1413.33,1384.24 1417.36,1384.24 1421.4,1384.24 1425.43,1384.24 1429.46,1384.24 1433.49,1384.24 1437.53,1384.24 1441.56,1384.24 1445.59,1384.24 
  1449.62,1384.24 1453.66,1384.24 1457.69,1384.24 1461.72,1384.24 1465.75,1384.24 1469.78,1384.24 1473.82,1384.24 1477.85,1384.24 1481.88,1384.24 1485.91,1384.24 
  1489.95,1384.24 1493.98,1384.24 1498.01,1384.24 1502.04,1384.24 1506.08,1384.24 1510.11,1384.24 1514.14,1384.24 1518.17,1384.24 1522.21,1384.24 1526.24,1384.24 
  1530.27,1384.24 1534.3,1384.24 1538.34,1384.24 1542.37,1384.24 1546.4,1384.24 1550.43,1384.24 1554.46,1384.24 1558.5,1384.24 1562.53,1384.24 1566.56,1384.24 
  1570.59,1384.24 1574.63,1384.24 1578.66,1384.24 1582.69,1384.24 1586.72,1384.24 1590.76,1384.24 1594.79,1384.24 1598.82,1384.24 1602.85,1384.24 1606.89,1384.24 
  1610.92,1384.24 1614.95,1384.24 1618.98,1384.24 1623.02,1384.24 1627.05,1384.24 1631.08,1384.24 1635.11,1384.24 1639.14,1384.24 1643.18,1384.24 1647.21,1384.24 
  1651.24,1384.24 1655.27,1384.24 1659.31,1384.24 1663.34,1384.24 1667.37,1384.24 1671.4,1384.24 1675.44,1384.24 1679.47,1384.24 1683.5,1384.24 1687.53,1384.24 
  1691.57,1384.24 1695.6,1384.24 1699.63,1384.24 1703.66,1384.24 1707.7,1384.24 1711.73,1384.24 1715.76,1384.24 1719.79,1384.24 1723.82,1384.24 1727.86,1384.24 
  1731.89,1384.24 1735.92,1384.24 1739.95,1384.24 1743.99,1384.24 1748.02,1384.24 1752.05,1384.24 1756.08,1384.24 1760.12,1384.24 1764.15,1384.24 1768.18,1384.24 
  1772.21,1384.24 1776.25,1384.24 1780.28,1384.24 1784.31,1384.24 1788.34,1384.24 1792.38,1384.24 1796.41,1384.24 1800.44,1384.24 1804.47,1384.24 1808.5,1384.24 
  1812.54,1384.24 1816.57,1384.24 1820.6,1384.24 1824.63,1384.24 1828.67,1384.24 1832.7,1384.24 1836.73,1384.24 1840.76,1384.24 1844.8,1384.24 1848.83,1384.24 
  1852.86,1384.24 1856.89,1384.24 1860.93,1384.24 1864.96,1384.24 1868.99,1384.24 1873.02,1384.24 1877.06,1384.24 1881.09,1384.24 1885.12,1384.24 1889.15,1384.24 
  1893.19,1384.24 1897.22,1384.24 1901.25,1384.24 1905.28,1384.24 1909.31,1384.24 1913.35,1384.24 1917.38,1384.24 1921.41,1384.24 1925.44,1384.24 1929.48,1384.24 
  1933.51,1384.24 1937.54,1384.24 1941.57,1384.24 1945.61,1384.24 1949.64,1384.24 1953.67,1384.24 1957.7,1384.24 1961.74,1384.24 1965.77,1384.24 1969.8,1384.24 
  1973.83,1384.24 1977.87,1384.24 1981.9,1384.24 1985.93,1384.24 1989.96,1384.24 1993.99,1384.24 1998.03,1384.24 2002.06,1384.24 2006.09,1384.24 2010.12,1384.24 
  2014.16,1384.24 2018.19,1384.24 2022.22,1384.24 2026.25,1384.24 2030.29,1384.24 2034.32,1384.24 2038.35,1384.24 2042.38,1384.24 2046.42,1384.24 2050.45,1384.24 
  2054.48,1384.24 2058.51,1384.24 2062.55,1384.24 2066.58,1384.24 2070.61,1384.24 2074.64,1384.24 2078.67,1384.24 2082.71,1384.24 2086.74,1384.24 2090.77,1384.24 
  2094.8,1384.24 2098.84,1384.24 2102.87,1384.24 2106.9,1384.24 2110.93,1384.24 2114.97,1384.24 2119,1384.24 2123.03,1384.24 2127.06,1384.24 2131.1,1384.24 
  2135.13,1384.24 2139.16,1384.24 2143.19,1384.24 2147.23,1384.24 2151.26,1384.24 2155.29,1384.24 2159.32,1384.24 2163.35,1384.24 2167.39,1384.24 2171.42,1384.24 
  2175.45,1384.24 2179.48,1384.24 2183.52,1384.24 2187.55,1384.24 2191.58,1384.24 2195.61,1384.24 2199.65,1384.24 2203.68,1384.24 2207.71,1384.24 2211.74,1384.24 
  2215.78,1384.24 2219.81,1384.24 2223.84,1384.24 2227.87,1384.24 2231.91,1384.24 2235.94,1384.24 2239.97,1384.24 2244,1384.24 2248.03,1384.24 2252.07,1384.24 
  2256.1,1384.24 2260.13,1384.24 2264.16,1384.24 2268.2,1384.24 2272.23,1384.24 2276.26,1384.24 2280.29,1384.24 2284.33,1384.24 2288.36,1384.24 2292.39,1384.24 
  
  "></polyline>
<polyline clip-path="url(#clip762)" style="stroke:#e26f46; stroke-linecap:butt; stroke-linejoin:round; stroke-width:12; stroke-opacity:1; fill:none" stroke-dasharray="48, 24, 6, 24" points="
  280.231,86.1857 284.263,127.682 288.296,159.359 292.328,182.626 296.361,198.988 300.393,209.972 304.425,217.058 308.458,221.635 312.49,224.959 316.523,228.139 
  320.555,232.118 324.587,237.68 328.62,245.452 332.652,255.915 336.684,269.416 340.717,286.177 344.749,306.312 348.782,329.83 352.814,356.654 356.846,386.633 
  360.879,419.543 364.911,455.115 368.944,493.031 372.976,532.939 377.008,574.465 381.041,617.219 385.073,660.803 389.105,704.818 393.138,748.872 397.17,792.585 
  401.203,835.592 405.235,877.554 409.267,918.152 413.3,957.099 417.332,994.143 421.365,1029.07 425.397,1061.69 429.429,1091.88 433.462,1119.54 437.494,1144.61 
  441.526,1167.09 445.559,1187 449.591,1204.41 453.624,1219.41 457.656,1232.15 461.688,1242.77 465.721,1251.46 469.753,1258.43 473.786,1263.86 477.818,1267.98 
  481.85,1271 485.883,1273.12 489.915,1274.54 493.947,1275.45 497.98,1276.03 502.012,1276.41 506.045,1276.74 510.077,1277.14 514.109,1277.7 518.142,1278.5 
  522.174,1279.59 526.207,1281.03 530.239,1282.83 534.271,1285 538.304,1287.54 542.336,1290.45 546.368,1293.69 550.401,1297.23 554.433,1301.03 558.466,1305.06 
  562.498,1309.25 566.53,1313.57 570.563,1317.97 574.595,1322.39 578.628,1326.8 582.66,1331.14 586.692,1335.37 590.725,1339.46 594.757,1343.38 598.789,1347.1 
  602.822,1350.59 606.854,1353.84 610.887,1356.84 614.919,1359.57 618.951,1362.04 622.984,1364.25 627.016,1366.21 631.049,1367.92 635.081,1369.39 639.113,1370.65 
  643.146,1371.7 647.178,1372.57 651.21,1373.27 655.243,1373.83 659.275,1374.27 663.308,1374.6 667.34,1374.84 671.372,1375.02 675.405,1375.15 679.437,1375.24 
  683.47,1375.31 687.502,1375.37 691.534,1375.43 695.567,1375.51 699.599,1375.6 703.631,1375.71 707.664,1375.85 711.696,1376.02 715.729,1376.22 719.761,1376.45 
  723.793,1376.7 727.826,1376.99 731.858,1377.29 735.891,1377.62 739.923,1377.96 743.955,1378.32 747.988,1378.68 752.02,1379.05 756.052,1379.41 760.085,1379.77 
  764.117,1380.13 768.15,1380.47 772.182,1380.8 776.214,1381.11 780.247,1381.4 784.279,1381.67 788.312,1381.92 792.344,1382.15 796.376,1382.35 800.409,1382.54 
  804.441,1382.69 808.473,1382.83 812.506,1382.95 816.538,1383.05 820.571,1383.13 824.603,1383.19 828.635,1383.24 832.668,1383.28 836.7,1383.31 840.733,1383.33 
  844.765,1383.34 848.797,1383.34 852.83,1383.34 856.862,1383.34 860.894,1383.34 864.927,1383.33 868.959,1383.33 872.992,1383.33 877.024,1383.33 881.056,1383.33 
  885.089,1383.34 889.121,1383.35 893.154,1383.36 897.186,1383.38 901.218,1383.4 905.251,1383.43 909.283,1383.45 913.315,1383.48 917.348,1383.52 921.38,1383.55 
  925.413,1383.59 929.445,1383.62 933.477,1383.66 937.51,1383.7 941.542,1383.74 945.575,1383.77 949.607,1383.81 953.639,1383.85 957.672,1383.88 961.704,1383.91 
  965.736,1383.94 969.769,1383.97 973.801,1384 977.834,1384.02 981.866,1384.05 985.898,1384.07 989.931,1384.09 993.963,1384.1 997.996,1384.12 1002.03,1384.13 
  1006.06,1384.14 1010.09,1384.15 1014.13,1384.16 1018.16,1384.17 1022.19,1384.17 1026.22,1384.18 1030.25,1384.18 1034.29,1384.19 1038.32,1384.19 1042.35,1384.19 
  1046.38,1384.19 1050.42,1384.2 1054.45,1384.2 1058.48,1384.2 1062.51,1384.2 1066.55,1384.2 1070.58,1384.2 1074.61,1384.21 1078.64,1384.21 1082.68,1384.21 
  1086.71,1384.21 1090.74,1384.21 1094.77,1384.21 1098.81,1384.22 1102.84,1384.22 1106.87,1384.22 1110.9,1384.22 1114.93,1384.22 1118.97,1384.22 1123,1384.23 
  1127.03,1384.23 1131.06,1384.23 1135.1,1384.23 1139.13,1384.23 1143.16,1384.23 1147.19,1384.23 1151.23,1384.23 1155.26,1384.23 1159.29,1384.23 1163.32,1384.23 
  1167.36,1384.23 1171.39,1384.23 1175.42,1384.23 1179.45,1384.23 1183.49,1384.23 1187.52,1384.23 1191.55,1384.22 1195.58,1384.22 1199.61,1384.22 1203.65,1384.22 
  1207.68,1384.22 1211.71,1384.22 1215.74,1384.22 1219.78,1384.22 1223.81,1384.22 1227.84,1384.22 1231.87,1384.22 1235.91,1384.22 1239.94,1384.22 1243.97,1384.22 
  1248,1384.22 1252.04,1384.22 1256.07,1384.22 1260.1,1384.22 1264.13,1384.22 1268.17,1384.22 1272.2,1384.22 1276.23,1384.22 1280.26,1384.22 1284.29,1384.22 
  1288.33,1384.22 1292.36,1384.22 1296.39,1384.22 1300.42,1384.22 1304.46,1384.22 1308.49,1384.22 1312.52,1384.22 1316.55,1384.22 1320.59,1384.22 1324.62,1384.23 
  1328.65,1384.23 1332.68,1384.23 1336.72,1384.23 1340.75,1384.23 1344.78,1384.23 1348.81,1384.23 1352.85,1384.23 1356.88,1384.23 1360.91,1384.23 1364.94,1384.23 
  1368.97,1384.23 1373.01,1384.23 1377.04,1384.23 1381.07,1384.23 1385.1,1384.23 1389.14,1384.23 1393.17,1384.23 1397.2,1384.23 1401.23,1384.23 1405.27,1384.23 
  1409.3,1384.23 1413.33,1384.23 1417.36,1384.23 1421.4,1384.23 1425.43,1384.24 1429.46,1384.24 1433.49,1384.24 1437.53,1384.24 1441.56,1384.24 1445.59,1384.24 
  1449.62,1384.24 1453.66,1384.24 1457.69,1384.23 1461.72,1384.23 1465.75,1384.23 1469.78,1384.23 1473.82,1384.23 1477.85,1384.23 1481.88,1384.23 1485.91,1384.23 
  1489.95,1384.23 1493.98,1384.23 1498.01,1384.23 1502.04,1384.23 1506.08,1384.23 1510.11,1384.23 1514.14,1384.23 1518.17,1384.23 1522.21,1384.23 1526.24,1384.23 
  1530.27,1384.23 1534.3,1384.23 1538.34,1384.23 1542.37,1384.23 1546.4,1384.23 1550.43,1384.23 1554.46,1384.23 1558.5,1384.23 1562.53,1384.23 1566.56,1384.23 
  1570.59,1384.23 1574.63,1384.23 1578.66,1384.23 1582.69,1384.23 1586.72,1384.23 1590.76,1384.23 1594.79,1384.23 1598.82,1384.23 1602.85,1384.23 1606.89,1384.23 
  1610.92,1384.23 1614.95,1384.23 1618.98,1384.23 1623.02,1384.23 1627.05,1384.23 1631.08,1384.23 1635.11,1384.23 1639.14,1384.23 1643.18,1384.23 1647.21,1384.23 
  1651.24,1384.23 1655.27,1384.23 1659.31,1384.23 1663.34,1384.23 1667.37,1384.23 1671.4,1384.23 1675.44,1384.23 1679.47,1384.23 1683.5,1384.23 1687.53,1384.23 
  1691.57,1384.23 1695.6,1384.23 1699.63,1384.23 1703.66,1384.23 1707.7,1384.23 1711.73,1384.23 1715.76,1384.23 1719.79,1384.23 1723.82,1384.23 1727.86,1384.23 
  1731.89,1384.23 1735.92,1384.23 1739.95,1384.23 1743.99,1384.23 1748.02,1384.23 1752.05,1384.23 1756.08,1384.23 1760.12,1384.23 1764.15,1384.23 1768.18,1384.23 
  1772.21,1384.23 1776.25,1384.23 1780.28,1384.23 1784.31,1384.23 1788.34,1384.23 1792.38,1384.23 1796.41,1384.23 1800.44,1384.23 1804.47,1384.23 1808.5,1384.23 
  1812.54,1384.23 1816.57,1384.23 1820.6,1384.23 1824.63,1384.23 1828.67,1384.23 1832.7,1384.23 1836.73,1384.23 1840.76,1384.23 1844.8,1384.23 1848.83,1384.23 
  1852.86,1384.23 1856.89,1384.23 1860.93,1384.23 1864.96,1384.23 1868.99,1384.23 1873.02,1384.23 1877.06,1384.23 1881.09,1384.23 1885.12,1384.23 1889.15,1384.23 
  1893.19,1384.23 1897.22,1384.23 1901.25,1384.23 1905.28,1384.23 1909.31,1384.23 1913.35,1384.23 1917.38,1384.23 1921.41,1384.23 1925.44,1384.23 1929.48,1384.23 
  1933.51,1384.23 1937.54,1384.23 1941.57,1384.23 1945.61,1384.23 1949.64,1384.23 1953.67,1384.23 1957.7,1384.23 1961.74,1384.23 1965.77,1384.23 1969.8,1384.23 
  1973.83,1384.23 1977.87,1384.23 1981.9,1384.23 1985.93,1384.23 1989.96,1384.23 1993.99,1384.23 1998.03,1384.23 2002.06,1384.23 2006.09,1384.23 2010.12,1384.23 
  2014.16,1384.23 2018.19,1384.23 2022.22,1384.23 2026.25,1384.23 2030.29,1384.23 2034.32,1384.23 2038.35,1384.23 2042.38,1384.23 2046.42,1384.23 2050.45,1384.23 
  2054.48,1384.23 2058.51,1384.23 2062.55,1384.23 2066.58,1384.23 2070.61,1384.23 2074.64,1384.23 2078.67,1384.23 2082.71,1384.23 2086.74,1384.23 2090.77,1384.23 
  2094.8,1384.23 2098.84,1384.23 2102.87,1384.23 2106.9,1384.23 2110.93,1384.23 2114.97,1384.23 2119,1384.23 2123.03,1384.23 2127.06,1384.23 2131.1,1384.23 
  2135.13,1384.23 2139.16,1384.23 2143.19,1384.23 2147.23,1384.23 2151.26,1384.23 2155.29,1384.23 2159.32,1384.23 2163.35,1384.23 2167.39,1384.23 2171.42,1384.23 
  2175.45,1384.23 2179.48,1384.23 2183.52,1384.23 2187.55,1384.23 2191.58,1384.23 2195.61,1384.23 2199.65,1384.23 2203.68,1384.23 2207.71,1384.23 2211.74,1384.23 
  2215.78,1384.23 2219.81,1384.23 2223.84,1384.23 2227.87,1384.23 2231.91,1384.23 2235.94,1384.23 2239.97,1384.23 2244,1384.23 2248.03,1384.23 2252.07,1384.23 
  2256.1,1384.23 2260.13,1384.23 2264.16,1384.23 2268.2,1384.23 2272.23,1384.23 2276.26,1384.23 2280.29,1384.23 2284.33,1384.23 2288.36,1384.23 2292.39,1384.23 
  
  "></polyline>
<polyline clip-path="url(#clip762)" style="stroke:#3da44d; stroke-linecap:butt; stroke-linejoin:round; stroke-width:12; stroke-opacity:1; fill:none" stroke-dasharray="6, 12" points="
  280.231,86.1857 284.263,122.872 288.296,149.134 292.328,166.754 296.361,177.535 300.393,183.242 304.425,185.557 308.458,186.027 312.49,186.04 316.523,186.798 
  320.555,189.313 324.587,194.397 328.62,202.674 332.652,214.59 336.684,230.423 340.717,250.307 344.749,274.241 348.782,302.115 352.814,333.72 356.846,368.769 
  360.879,406.912 364.911,447.748 368.944,490.841 372.976,535.73 377.008,581.94 381.041,628.995 385.073,676.424 389.105,723.768 393.138,770.593 397.17,816.49 
  401.203,861.084 405.235,904.035 409.267,945.049 413.3,983.871 417.332,1020.29 421.365,1054.16 425.397,1085.35 429.429,1113.8 433.462,1139.48 437.494,1162.42 
  441.526,1182.66 445.559,1200.31 449.591,1215.48 453.624,1228.33 457.656,1239.02 461.688,1247.75 465.721,1254.72 469.753,1260.12 473.786,1264.19 477.818,1267.12 
  481.85,1269.11 485.883,1270.37 489.915,1271.07 493.947,1271.4 497.98,1271.49 502.012,1271.49 506.045,1271.53 510.077,1271.69 514.109,1272.07 518.142,1272.74 
  522.174,1273.73 526.207,1275.1 530.239,1276.85 534.271,1279 538.304,1281.53 542.336,1284.43 546.368,1287.68 550.401,1291.25 554.433,1295.09 558.466,1299.16 
  562.498,1303.42 566.53,1307.82 570.563,1312.31 574.595,1316.84 578.628,1321.37 582.66,1325.86 586.692,1330.26 590.725,1334.53 594.757,1338.65 598.789,1342.58 
  602.822,1346.31 606.854,1349.8 610.887,1353.05 614.919,1356.04 618.951,1358.78 622.984,1361.25 627.016,1363.47 631.049,1365.43 635.081,1367.14 639.113,1368.63 
  643.146,1369.89 647.178,1370.95 651.21,1371.83 655.243,1372.53 659.275,1373.09 663.308,1373.52 667.34,1373.83 671.372,1374.06 675.405,1374.21 679.437,1374.3 
  683.47,1374.34 687.502,1374.36 691.534,1374.37 695.567,1374.37 699.599,1374.37 703.631,1374.39 707.664,1374.43 711.696,1374.5 715.729,1374.6 719.761,1374.73 
  723.793,1374.9 727.826,1375.1 731.858,1375.33 735.891,1375.6 739.923,1375.89 743.955,1376.22 747.988,1376.56 752.02,1376.92 756.052,1377.3 760.085,1377.69 
  764.117,1378.09 768.15,1378.49 772.182,1378.88 776.214,1379.28 780.247,1379.66 784.279,1380.03 788.312,1380.39 792.344,1380.73 796.376,1381.05 800.409,1381.35 
  804.441,1381.62 808.473,1381.88 812.506,1382.11 816.538,1382.32 820.571,1382.51 824.603,1382.67 828.635,1382.82 832.668,1382.94 836.7,1383.05 840.733,1383.14 
  844.765,1383.21 848.797,1383.27 852.83,1383.31 856.862,1383.35 860.894,1383.37 864.927,1383.39 868.959,1383.4 872.992,1383.41 877.024,1383.42 881.056,1383.42 
  885.089,1383.42 889.121,1383.42 893.154,1383.42 897.186,1383.42 901.218,1383.42 905.251,1383.43 909.283,1383.44 913.315,1383.45 917.348,1383.46 921.38,1383.48 
  925.413,1383.5 929.445,1383.52 933.477,1383.55 937.51,1383.58 941.542,1383.6 945.575,1383.64 949.607,1383.67 953.639,1383.7 957.672,1383.73 961.704,1383.77 
  965.736,1383.8 969.769,1383.83 973.801,1383.86 977.834,1383.89 981.866,1383.92 985.898,1383.95 989.931,1383.98 993.963,1384 997.996,1384.02 1002.03,1384.04 
  1006.06,1384.06 1010.09,1384.08 1014.13,1384.09 1018.16,1384.1 1022.19,1384.12 1026.22,1384.13 1030.25,1384.13 1034.29,1384.14 1038.32,1384.15 1042.35,1384.15 
  1046.38,1384.15 1050.42,1384.16 1054.45,1384.16 1058.48,1384.16 1062.51,1384.16 1066.55,1384.16 1070.58,1384.16 1074.61,1384.16 1078.64,1384.16 1082.68,1384.16 
  1086.71,1384.16 1090.74,1384.16 1094.77,1384.16 1098.81,1384.16 1102.84,1384.16 1106.87,1384.16 1110.9,1384.17 1114.93,1384.17 1118.97,1384.17 1123,1384.17 
  1127.03,1384.17 1131.06,1384.18 1135.1,1384.18 1139.13,1384.18 1143.16,1384.19 1147.19,1384.19 1151.23,1384.19 1155.26,1384.2 1159.29,1384.2 1163.32,1384.2 
  1167.36,1384.2 1171.39,1384.21 1175.42,1384.21 1179.45,1384.21 1183.49,1384.22 1187.52,1384.22 1191.55,1384.22 1195.58,1384.22 1199.61,1384.22 1203.65,1384.23 
  1207.68,1384.23 1211.71,1384.23 1215.74,1384.23 1219.78,1384.23 1223.81,1384.23 1227.84,1384.23 1231.87,1384.23 1235.91,1384.23 1239.94,1384.23 1243.97,1384.23 
  1248,1384.23 1252.04,1384.23 1256.07,1384.23 1260.1,1384.23 1264.13,1384.23 1268.17,1384.23 1272.2,1384.23 1276.23,1384.23 1280.26,1384.23 1284.29,1384.23 
  1288.33,1384.23 1292.36,1384.23 1296.39,1384.23 1300.42,1384.23 1304.46,1384.23 1308.49,1384.23 1312.52,1384.23 1316.55,1384.23 1320.59,1384.23 1324.62,1384.23 
  1328.65,1384.23 1332.68,1384.23 1336.72,1384.23 1340.75,1384.24 1344.78,1384.24 1348.81,1384.24 1352.85,1384.24 1356.88,1384.24 1360.91,1384.24 1364.94,1384.24 
  1368.97,1384.24 1373.01,1384.24 1377.04,1384.24 1381.07,1384.24 1385.1,1384.24 1389.14,1384.24 1393.17,1384.24 1397.2,1384.24 1401.23,1384.24 1405.27,1384.24 
  1409.3,1384.24 1413.33,1384.24 1417.36,1384.24 1421.4,1384.24 1425.43,1384.24 1429.46,1384.24 1433.49,1384.24 1437.53,1384.24 1441.56,1384.24 1445.59,1384.24 
  1449.62,1384.24 1453.66,1384.24 1457.69,1384.24 1461.72,1384.24 1465.75,1384.24 1469.78,1384.24 1473.82,1384.24 1477.85,1384.24 1481.88,1384.24 1485.91,1384.24 
  1489.95,1384.24 1493.98,1384.24 1498.01,1384.24 1502.04,1384.24 1506.08,1384.24 1510.11,1384.24 1514.14,1384.24 1518.17,1384.24 1522.21,1384.24 1526.24,1384.24 
  1530.27,1384.24 1534.3,1384.24 1538.34,1384.24 1542.37,1384.24 1546.4,1384.24 1550.43,1384.24 1554.46,1384.24 1558.5,1384.24 1562.53,1384.24 1566.56,1384.24 
  1570.59,1384.24 1574.63,1384.24 1578.66,1384.24 1582.69,1384.24 1586.72,1384.24 1590.76,1384.24 1594.79,1384.24 1598.82,1384.24 1602.85,1384.24 1606.89,1384.24 
  1610.92,1384.24 1614.95,1384.24 1618.98,1384.24 1623.02,1384.24 1627.05,1384.24 1631.08,1384.24 1635.11,1384.24 1639.14,1384.24 1643.18,1384.24 1647.21,1384.24 
  1651.24,1384.24 1655.27,1384.24 1659.31,1384.24 1663.34,1384.24 1667.37,1384.24 1671.4,1384.24 1675.44,1384.24 1679.47,1384.24 1683.5,1384.24 1687.53,1384.24 
  1691.57,1384.24 1695.6,1384.24 1699.63,1384.24 1703.66,1384.24 1707.7,1384.24 1711.73,1384.24 1715.76,1384.24 1719.79,1384.24 1723.82,1384.24 1727.86,1384.24 
  1731.89,1384.24 1735.92,1384.24 1739.95,1384.24 1743.99,1384.24 1748.02,1384.24 1752.05,1384.24 1756.08,1384.24 1760.12,1384.24 1764.15,1384.24 1768.18,1384.24 
  1772.21,1384.24 1776.25,1384.24 1780.28,1384.24 1784.31,1384.24 1788.34,1384.24 1792.38,1384.24 1796.41,1384.24 1800.44,1384.24 1804.47,1384.24 1808.5,1384.24 
  1812.54,1384.24 1816.57,1384.24 1820.6,1384.24 1824.63,1384.24 1828.67,1384.24 1832.7,1384.24 1836.73,1384.24 1840.76,1384.24 1844.8,1384.24 1848.83,1384.24 
  1852.86,1384.24 1856.89,1384.24 1860.93,1384.24 1864.96,1384.24 1868.99,1384.24 1873.02,1384.24 1877.06,1384.24 1881.09,1384.24 1885.12,1384.24 1889.15,1384.24 
  1893.19,1384.24 1897.22,1384.24 1901.25,1384.24 1905.28,1384.24 1909.31,1384.24 1913.35,1384.24 1917.38,1384.24 1921.41,1384.24 1925.44,1384.24 1929.48,1384.24 
  1933.51,1384.24 1937.54,1384.24 1941.57,1384.24 1945.61,1384.24 1949.64,1384.24 1953.67,1384.24 1957.7,1384.24 1961.74,1384.24 1965.77,1384.24 1969.8,1384.24 
  1973.83,1384.24 1977.87,1384.24 1981.9,1384.24 1985.93,1384.24 1989.96,1384.24 1993.99,1384.24 1998.03,1384.24 2002.06,1384.24 2006.09,1384.24 2010.12,1384.24 
  2014.16,1384.24 2018.19,1384.24 2022.22,1384.24 2026.25,1384.24 2030.29,1384.24 2034.32,1384.24 2038.35,1384.24 2042.38,1384.24 2046.42,1384.24 2050.45,1384.24 
  2054.48,1384.24 2058.51,1384.24 2062.55,1384.24 2066.58,1384.24 2070.61,1384.24 2074.64,1384.24 2078.67,1384.24 2082.71,1384.24 2086.74,1384.24 2090.77,1384.24 
  2094.8,1384.24 2098.84,1384.24 2102.87,1384.24 2106.9,1384.24 2110.93,1384.24 2114.97,1384.24 2119,1384.24 2123.03,1384.24 2127.06,1384.24 2131.1,1384.24 
  2135.13,1384.24 2139.16,1384.24 2143.19,1384.24 2147.23,1384.24 2151.26,1384.24 2155.29,1384.24 2159.32,1384.24 2163.35,1384.24 2167.39,1384.24 2171.42,1384.24 
  2175.45,1384.24 2179.48,1384.24 2183.52,1384.24 2187.55,1384.24 2191.58,1384.24 2195.61,1384.24 2199.65,1384.24 2203.68,1384.24 2207.71,1384.24 2211.74,1384.24 
  2215.78,1384.24 2219.81,1384.24 2223.84,1384.24 2227.87,1384.24 2231.91,1384.24 2235.94,1384.24 2239.97,1384.24 2244,1384.24 2248.03,1384.24 2252.07,1384.24 
  2256.1,1384.24 2260.13,1384.24 2264.16,1384.24 2268.2,1384.24 2272.23,1384.24 2276.26,1384.24 2280.29,1384.24 2284.33,1384.24 2288.36,1384.24 2292.39,1384.24 
  
  "></polyline>
<path clip-path="url(#clip760)" d="
M1631.85 300.469 L2281.66 300.469 L2281.66 93.1086 L1631.85 93.1086  Z
  " fill="#ffffff" fill-rule="evenodd" fill-opacity="1"></path>
<polyline clip-path="url(#clip760)" style="stroke:#000000; stroke-linecap:butt; stroke-linejoin:round; stroke-width:4; stroke-opacity:1; fill:none" points="
  1631.85,300.469 2281.66,300.469 2281.66,93.1086 1631.85,93.1086 1631.85,300.469 
  "></polyline>
<polyline clip-path="url(#clip760)" style="stroke:#009af9; stroke-linecap:butt; stroke-linejoin:round; stroke-width:4; stroke-opacity:1; fill:none" points="
  1655.55,144.949 1797.74,144.949 
  "></polyline>
<path clip-path="url(#clip760)" d="M1847 157.298 L1847 148.016 L1839.36 148.016 L1839.36 144.173 L1851.63 144.173 L1851.63 159.011 Q1848.92 160.932 1845.65 161.928 Q1842.39 162.9 1838.69 162.9 Q1830.58 162.9 1826 158.178 Q1821.44 153.432 1821.44 144.983 Q1821.44 136.511 1826 131.789 Q1830.58 127.044 1838.69 127.044 Q1842.07 127.044 1845.1 127.877 Q1848.15 128.71 1850.72 130.331 L1850.72 135.307 Q1848.13 133.108 1845.21 131.997 Q1842.3 130.886 1839.08 130.886 Q1832.74 130.886 1829.54 134.428 Q1826.37 137.969 1826.37 144.983 Q1826.37 151.974 1829.54 155.516 Q1832.74 159.057 1839.08 159.057 Q1841.56 159.057 1843.5 158.641 Q1845.44 158.201 1847 157.298 Z" fill="#000000" fill-rule="evenodd" fill-opacity="1"></path><path clip-path="url(#clip760)" d="M1875 140.284 Q1874.29 139.868 1873.43 139.682 Q1872.6 139.474 1871.58 139.474 Q1867.97 139.474 1866.02 141.835 Q1864.1 144.173 1864.1 148.571 L1864.1 162.229 L1859.82 162.229 L1859.82 136.303 L1864.1 136.303 L1864.1 140.331 Q1865.44 137.969 1867.6 136.835 Q1869.75 135.678 1872.83 135.678 Q1873.27 135.678 1873.8 135.747 Q1874.33 135.794 1874.98 135.909 L1875 140.284 Z" fill="#000000" fill-rule="evenodd" fill-opacity="1"></path><path clip-path="url(#clip760)" d="M1888.48 139.289 Q1885.05 139.289 1883.06 141.974 Q1881.07 144.636 1881.07 149.289 Q1881.07 153.942 1883.04 156.627 Q1885.03 159.289 1888.48 159.289 Q1891.88 159.289 1893.87 156.604 Q1895.86 153.918 1895.86 149.289 Q1895.86 144.682 1893.87 141.997 Q1891.88 139.289 1888.48 139.289 M1888.48 135.678 Q1894.03 135.678 1897.2 139.289 Q1900.37 142.9 1900.37 149.289 Q1900.37 155.655 1897.2 159.289 Q1894.03 162.9 1888.48 162.9 Q1882.9 162.9 1879.73 159.289 Q1876.58 155.655 1876.58 149.289 Q1876.58 142.9 1879.73 139.289 Q1882.9 135.678 1888.48 135.678 Z" fill="#000000" fill-rule="evenodd" fill-opacity="1"></path><path clip-path="url(#clip760)" d="M1907 151.997 L1907 136.303 L1911.25 136.303 L1911.25 151.835 Q1911.25 155.516 1912.69 157.368 Q1914.12 159.196 1917 159.196 Q1920.44 159.196 1922.44 156.997 Q1924.45 154.798 1924.45 151.002 L1924.45 136.303 L1928.71 136.303 L1928.71 162.229 L1924.45 162.229 L1924.45 158.247 Q1922.9 160.608 1920.84 161.766 Q1918.8 162.9 1916.09 162.9 Q1911.62 162.9 1909.31 160.122 Q1907 157.344 1907 151.997 M1917.71 135.678 L1917.71 135.678 Z" fill="#000000" fill-rule="evenodd" fill-opacity="1"></path><path clip-path="url(#clip760)" d="M1959.03 146.581 L1959.03 162.229 L1954.77 162.229 L1954.77 146.719 Q1954.77 143.039 1953.34 141.21 Q1951.9 139.382 1949.03 139.382 Q1945.58 139.382 1943.59 141.581 Q1941.6 143.78 1941.6 147.576 L1941.6 162.229 L1937.32 162.229 L1937.32 136.303 L1941.6 136.303 L1941.6 140.331 Q1943.13 137.993 1945.19 136.835 Q1947.27 135.678 1949.98 135.678 Q1954.45 135.678 1956.74 138.456 Q1959.03 141.21 1959.03 146.581 Z" fill="#000000" fill-rule="evenodd" fill-opacity="1"></path><path clip-path="url(#clip760)" d="M1984.59 140.238 L1984.59 126.21 L1988.85 126.21 L1988.85 162.229 L1984.59 162.229 L1984.59 158.34 Q1983.24 160.655 1981.18 161.789 Q1979.15 162.9 1976.28 162.9 Q1971.58 162.9 1968.62 159.15 Q1965.68 155.4 1965.68 149.289 Q1965.68 143.178 1968.62 139.428 Q1971.58 135.678 1976.28 135.678 Q1979.15 135.678 1981.18 136.812 Q1983.24 137.923 1984.59 140.238 M1970.07 149.289 Q1970.07 153.988 1971.99 156.673 Q1973.94 159.335 1977.32 159.335 Q1980.7 159.335 1982.64 156.673 Q1984.59 153.988 1984.59 149.289 Q1984.59 144.59 1982.64 141.928 Q1980.7 139.243 1977.32 139.243 Q1973.94 139.243 1971.99 141.928 Q1970.07 144.59 1970.07 149.289 Z" fill="#000000" fill-rule="evenodd" fill-opacity="1"></path><path clip-path="url(#clip760)" d="M2016.9 128.942 L2016.9 136.303 L2025.68 136.303 L2025.68 139.613 L2016.9 139.613 L2016.9 153.687 Q2016.9 156.858 2017.76 157.761 Q2018.64 158.664 2021.3 158.664 L2025.68 158.664 L2025.68 162.229 L2021.3 162.229 Q2016.37 162.229 2014.49 160.4 Q2012.62 158.548 2012.62 153.687 L2012.62 139.613 L2009.49 139.613 L2009.49 136.303 L2012.62 136.303 L2012.62 128.942 L2016.9 128.942 Z" fill="#000000" fill-rule="evenodd" fill-opacity="1"></path><path clip-path="url(#clip760)" d="M2046.3 140.284 Q2045.58 139.868 2044.73 139.682 Q2043.89 139.474 2042.87 139.474 Q2039.26 139.474 2037.32 141.835 Q2035.4 144.173 2035.4 148.571 L2035.4 162.229 L2031.11 162.229 L2031.11 136.303 L2035.4 136.303 L2035.4 140.331 Q2036.74 137.969 2038.89 136.835 Q2041.05 135.678 2044.12 135.678 Q2044.56 135.678 2045.1 135.747 Q2045.63 135.794 2046.28 135.909 L2046.3 140.284 Z" fill="#000000" fill-rule="evenodd" fill-opacity="1"></path><path clip-path="url(#clip760)" d="M2050.33 151.997 L2050.33 136.303 L2054.59 136.303 L2054.59 151.835 Q2054.59 155.516 2056.02 157.368 Q2057.46 159.196 2060.33 159.196 Q2063.78 159.196 2065.77 156.997 Q2067.78 154.798 2067.78 151.002 L2067.78 136.303 L2072.04 136.303 L2072.04 162.229 L2067.78 162.229 L2067.78 158.247 Q2066.23 160.608 2064.17 161.766 Q2062.13 162.9 2059.43 162.9 Q2054.96 162.9 2052.64 160.122 Q2050.33 157.344 2050.33 151.997 M2061.05 135.678 L2061.05 135.678 Z" fill="#000000" fill-rule="evenodd" fill-opacity="1"></path><path clip-path="url(#clip760)" d="M2085.03 128.942 L2085.03 136.303 L2093.8 136.303 L2093.8 139.613 L2085.03 139.613 L2085.03 153.687 Q2085.03 156.858 2085.88 157.761 Q2086.76 158.664 2089.42 158.664 L2093.8 158.664 L2093.8 162.229 L2089.42 162.229 Q2084.49 162.229 2082.62 160.4 Q2080.74 158.548 2080.74 153.687 L2080.74 139.613 L2077.62 139.613 L2077.62 136.303 L2080.74 136.303 L2080.74 128.942 L2085.03 128.942 Z" fill="#000000" fill-rule="evenodd" fill-opacity="1"></path><path clip-path="url(#clip760)" d="M2120.95 146.581 L2120.95 162.229 L2116.69 162.229 L2116.69 146.719 Q2116.69 143.039 2115.26 141.21 Q2113.82 139.382 2110.95 139.382 Q2107.5 139.382 2105.51 141.581 Q2103.52 143.78 2103.52 147.576 L2103.52 162.229 L2099.24 162.229 L2099.24 126.21 L2103.52 126.21 L2103.52 140.331 Q2105.05 137.993 2107.11 136.835 Q2109.19 135.678 2111.9 135.678 Q2116.37 135.678 2118.66 138.456 Q2120.95 141.21 2120.95 146.581 Z" fill="#000000" fill-rule="evenodd" fill-opacity="1"></path><polyline clip-path="url(#clip760)" style="stroke:#e26f46; stroke-linecap:butt; stroke-linejoin:round; stroke-width:4; stroke-opacity:1; fill:none" stroke-dasharray="16, 8, 2, 8" points="
  1655.55,196.789 1797.74,196.789 
  "></polyline>
<path clip-path="url(#clip760)" d="M1837.46 182.68 Q1832.37 182.68 1829.36 186.476 Q1826.37 190.272 1826.37 196.823 Q1826.37 203.351 1829.36 207.147 Q1832.37 210.944 1837.46 210.944 Q1842.55 210.944 1845.51 207.147 Q1848.5 203.351 1848.5 196.823 Q1848.5 190.272 1845.51 186.476 Q1842.55 182.68 1837.46 182.68 M1837.46 178.884 Q1844.73 178.884 1849.08 183.768 Q1853.43 188.629 1853.43 196.823 Q1853.43 204.995 1849.08 209.879 Q1844.73 214.74 1837.46 214.74 Q1830.17 214.74 1825.79 209.879 Q1821.44 205.018 1821.44 196.823 Q1821.44 188.629 1825.79 183.768 Q1830.17 178.884 1837.46 178.884 Z" fill="#000000" fill-rule="evenodd" fill-opacity="1"></path><path clip-path="url(#clip760)" d="M1859.73 199.184 L1872.2 199.184 L1872.2 202.981 L1859.73 202.981 L1859.73 199.184 Z" fill="#000000" fill-rule="evenodd" fill-opacity="1"></path><path clip-path="url(#clip760)" d="M1879.17 179.509 L1885.47 179.509 L1900.79 208.421 L1900.79 179.509 L1905.33 179.509 L1905.33 214.069 L1899.03 214.069 L1883.71 185.157 L1883.71 214.069 L1879.17 214.069 L1879.17 179.509 Z" fill="#000000" fill-rule="evenodd" fill-opacity="1"></path><path clip-path="url(#clip760)" d="M1914.63 179.509 L1936.49 179.509 L1936.49 183.444 L1919.31 183.444 L1919.31 193.675 L1935.77 193.675 L1935.77 197.61 L1919.31 197.61 L1919.31 210.133 L1936.9 210.133 L1936.9 214.069 L1914.63 214.069 L1914.63 179.509 Z" fill="#000000" fill-rule="evenodd" fill-opacity="1"></path><path clip-path="url(#clip760)" d="M1939.8 179.509 L1969.03 179.509 L1969.03 183.444 L1956.76 183.444 L1956.76 214.069 L1952.06 214.069 L1952.06 183.444 L1939.8 183.444 L1939.8 179.509 Z" fill="#000000" fill-rule="evenodd" fill-opacity="1"></path><polyline clip-path="url(#clip760)" style="stroke:#3da44d; stroke-linecap:butt; stroke-linejoin:round; stroke-width:4; stroke-opacity:1; fill:none" stroke-dasharray="2, 4" points="
  1655.55,248.629 1797.74,248.629 
  "></polyline>
<path clip-path="url(#clip760)" d="M1843.69 232.483 L1843.69 237.043 Q1841.02 235.77 1838.66 235.145 Q1836.3 234.52 1834.1 234.52 Q1830.28 234.52 1828.2 236.001 Q1826.14 237.483 1826.14 240.214 Q1826.14 242.506 1827.5 243.687 Q1828.89 244.844 1832.74 245.562 L1835.56 246.14 Q1840.79 247.136 1843.27 249.659 Q1845.77 252.159 1845.77 256.372 Q1845.77 261.395 1842.39 263.987 Q1839.03 266.58 1832.53 266.58 Q1830.07 266.58 1827.3 266.024 Q1824.54 265.469 1821.58 264.381 L1821.58 259.566 Q1824.43 261.163 1827.16 261.973 Q1829.89 262.784 1832.53 262.784 Q1836.53 262.784 1838.71 261.21 Q1840.88 259.636 1840.88 256.719 Q1840.88 254.173 1839.31 252.737 Q1837.76 251.302 1834.19 250.585 L1831.35 250.029 Q1826.12 248.987 1823.78 246.765 Q1821.44 244.543 1821.44 240.585 Q1821.44 236.001 1824.66 233.362 Q1827.9 230.724 1833.57 230.724 Q1836 230.724 1838.52 231.163 Q1841.05 231.603 1843.69 232.483 Z" fill="#000000" fill-rule="evenodd" fill-opacity="1"></path><path clip-path="url(#clip760)" d="M1857.09 232.622 L1857.09 239.983 L1865.86 239.983 L1865.86 243.293 L1857.09 243.293 L1857.09 257.367 Q1857.09 260.538 1857.94 261.441 Q1858.82 262.344 1861.49 262.344 L1865.86 262.344 L1865.86 265.909 L1861.49 265.909 Q1856.56 265.909 1854.68 264.08 Q1852.81 262.228 1852.81 257.367 L1852.81 243.293 L1849.68 243.293 L1849.68 239.983 L1852.81 239.983 L1852.81 232.622 L1857.09 232.622 Z" fill="#000000" fill-rule="evenodd" fill-opacity="1"></path><path clip-path="url(#clip760)" d="M1886.49 243.964 Q1885.77 243.548 1884.91 243.362 Q1884.08 243.154 1883.06 243.154 Q1879.45 243.154 1877.5 245.515 Q1875.58 247.853 1875.58 252.251 L1875.58 265.909 L1871.3 265.909 L1871.3 239.983 L1875.58 239.983 L1875.58 244.011 Q1876.93 241.649 1879.08 240.515 Q1881.23 239.358 1884.31 239.358 Q1884.75 239.358 1885.28 239.427 Q1885.81 239.474 1886.46 239.589 L1886.49 243.964 Z" fill="#000000" fill-rule="evenodd" fill-opacity="1"></path><path clip-path="url(#clip760)" d="M1890.51 255.677 L1890.51 239.983 L1894.77 239.983 L1894.77 255.515 Q1894.77 259.196 1896.21 261.048 Q1897.64 262.876 1900.51 262.876 Q1903.96 262.876 1905.95 260.677 Q1907.97 258.478 1907.97 254.682 L1907.97 239.983 L1912.23 239.983 L1912.23 265.909 L1907.97 265.909 L1907.97 261.927 Q1906.42 264.288 1904.36 265.446 Q1902.32 266.58 1899.61 266.58 Q1895.14 266.58 1892.83 263.802 Q1890.51 261.024 1890.51 255.677 M1901.23 239.358 L1901.23 239.358 Z" fill="#000000" fill-rule="evenodd" fill-opacity="1"></path><path clip-path="url(#clip760)" d="M1939.66 240.978 L1939.66 244.96 Q1937.85 243.964 1936.02 243.478 Q1934.22 242.969 1932.37 242.969 Q1928.22 242.969 1925.93 245.608 Q1923.64 248.224 1923.64 252.969 Q1923.64 257.714 1925.93 260.353 Q1928.22 262.969 1932.37 262.969 Q1934.22 262.969 1936.02 262.483 Q1937.85 261.973 1939.66 260.978 L1939.66 264.913 Q1937.87 265.747 1935.95 266.163 Q1934.06 266.58 1931.9 266.58 Q1926.05 266.58 1922.6 262.899 Q1919.15 259.219 1919.15 252.969 Q1919.15 246.626 1922.62 242.992 Q1926.12 239.358 1932.18 239.358 Q1934.15 239.358 1936.02 239.775 Q1937.9 240.168 1939.66 240.978 Z" fill="#000000" fill-rule="evenodd" fill-opacity="1"></path><path clip-path="url(#clip760)" d="M1951.28 232.622 L1951.28 239.983 L1960.05 239.983 L1960.05 243.293 L1951.28 243.293 L1951.28 257.367 Q1951.28 260.538 1952.13 261.441 Q1953.01 262.344 1955.68 262.344 L1960.05 262.344 L1960.05 265.909 L1955.68 265.909 Q1950.75 265.909 1948.87 264.08 Q1947 262.228 1947 257.367 L1947 243.293 L1943.87 243.293 L1943.87 239.983 L1947 239.983 L1947 232.622 L1951.28 232.622 Z" fill="#000000" fill-rule="evenodd" fill-opacity="1"></path><path clip-path="url(#clip760)" d="M1965.21 255.677 L1965.21 239.983 L1969.47 239.983 L1969.47 255.515 Q1969.47 259.196 1970.91 261.048 Q1972.34 262.876 1975.21 262.876 Q1978.66 262.876 1980.65 260.677 Q1982.67 258.478 1982.67 254.682 L1982.67 239.983 L1986.93 239.983 L1986.93 265.909 L1982.67 265.909 L1982.67 261.927 Q1981.12 264.288 1979.06 265.446 Q1977.02 266.58 1974.31 266.58 Q1969.84 266.58 1967.53 263.802 Q1965.21 261.024 1965.21 255.677 M1975.93 239.358 L1975.93 239.358 Z" fill="#000000" fill-rule="evenodd" fill-opacity="1"></path><path clip-path="url(#clip760)" d="M2010.72 243.964 Q2010 243.548 2009.15 243.362 Q2008.31 243.154 2007.3 243.154 Q2003.68 243.154 2001.74 245.515 Q1999.82 247.853 1999.82 252.251 L1999.82 265.909 L1995.54 265.909 L1995.54 239.983 L1999.82 239.983 L1999.82 244.011 Q2001.16 241.649 2003.31 240.515 Q2005.47 239.358 2008.55 239.358 Q2008.99 239.358 2009.52 239.427 Q2010.05 239.474 2010.7 239.589 L2010.72 243.964 Z" fill="#000000" fill-rule="evenodd" fill-opacity="1"></path><path clip-path="url(#clip760)" d="M2036.32 251.881 L2036.32 253.964 L2016.74 253.964 Q2017.02 258.362 2019.38 260.677 Q2021.76 262.969 2026 262.969 Q2028.45 262.969 2030.74 262.367 Q2033.06 261.765 2035.33 260.561 L2035.33 264.589 Q2033.04 265.561 2030.63 266.071 Q2028.22 266.58 2025.74 266.58 Q2019.54 266.58 2015.91 262.969 Q2012.3 259.358 2012.3 253.2 Q2012.3 246.835 2015.72 243.108 Q2019.17 239.358 2025 239.358 Q2030.24 239.358 2033.27 242.737 Q2036.32 246.094 2036.32 251.881 M2032.06 250.631 Q2032.02 247.136 2030.1 245.052 Q2028.2 242.969 2025.05 242.969 Q2021.49 242.969 2019.33 244.983 Q2017.2 246.997 2016.88 250.654 L2032.06 250.631 Z" fill="#000000" fill-rule="evenodd" fill-opacity="1"></path><path clip-path="url(#clip760)" d="M2060.37 243.918 L2060.37 229.89 L2064.63 229.89 L2064.63 265.909 L2060.37 265.909 L2060.37 262.02 Q2059.03 264.335 2056.97 265.469 Q2054.93 266.58 2052.06 266.58 Q2047.36 266.58 2044.4 262.83 Q2041.46 259.08 2041.46 252.969 Q2041.46 246.858 2044.4 243.108 Q2047.36 239.358 2052.06 239.358 Q2054.93 239.358 2056.97 240.492 Q2059.03 241.603 2060.37 243.918 M2045.86 252.969 Q2045.86 257.668 2047.78 260.353 Q2049.73 263.015 2053.11 263.015 Q2056.49 263.015 2058.43 260.353 Q2060.37 257.668 2060.37 252.969 Q2060.37 248.27 2058.43 245.608 Q2056.49 242.923 2053.11 242.923 Q2049.73 242.923 2047.78 245.608 Q2045.86 248.27 2045.86 252.969 Z" fill="#000000" fill-rule="evenodd" fill-opacity="1"></path><path clip-path="url(#clip760)" d="M2102.69 234.52 Q2097.6 234.52 2094.59 238.316 Q2091.6 242.112 2091.6 248.663 Q2091.6 255.191 2094.59 258.987 Q2097.6 262.784 2102.69 262.784 Q2107.78 262.784 2110.74 258.987 Q2113.73 255.191 2113.73 248.663 Q2113.73 242.112 2110.74 238.316 Q2107.78 234.52 2102.69 234.52 M2102.69 230.724 Q2109.96 230.724 2114.31 235.608 Q2118.66 240.469 2118.66 248.663 Q2118.66 256.835 2114.31 261.719 Q2109.96 266.58 2102.69 266.58 Q2095.4 266.58 2091.02 261.719 Q2086.67 256.858 2086.67 248.663 Q2086.67 240.469 2091.02 235.608 Q2095.4 230.724 2102.69 230.724 Z" fill="#000000" fill-rule="evenodd" fill-opacity="1"></path><path clip-path="url(#clip760)" d="M2124.96 251.024 L2137.43 251.024 L2137.43 254.821 L2124.96 254.821 L2124.96 251.024 Z" fill="#000000" fill-rule="evenodd" fill-opacity="1"></path><path clip-path="url(#clip760)" d="M2144.4 231.349 L2150.7 231.349 L2166.02 260.261 L2166.02 231.349 L2170.56 231.349 L2170.56 265.909 L2164.26 265.909 L2148.94 236.997 L2148.94 265.909 L2144.4 265.909 L2144.4 231.349 Z" fill="#000000" fill-rule="evenodd" fill-opacity="1"></path><path clip-path="url(#clip760)" d="M2179.86 231.349 L2201.72 231.349 L2201.72 235.284 L2184.54 235.284 L2184.54 245.515 L2201 245.515 L2201 249.45 L2184.54 249.45 L2184.54 261.973 L2202.13 261.973 L2202.13 265.909 L2179.86 265.909 L2179.86 231.349 Z" fill="#000000" fill-rule="evenodd" fill-opacity="1"></path><path clip-path="url(#clip760)" d="M2205.03 231.349 L2234.26 231.349 L2234.26 235.284 L2221.99 235.284 L2221.99 265.909 L2217.29 265.909 L2217.29 235.284 L2205.03 235.284 L2205.03 231.349 Z" fill="#000000" fill-rule="evenodd" fill-opacity="1"></path></svg>