<svg xmlns="http://www.w3.org/2000/svg" xmlns:xlink="http://www.w3.org/1999/xlink" width="600" height="400" viewBox="0 0 2400 1600">
<defs>
  <clipPath id="clip940">
    <rect x="0" y="0" width="2400" height="1600"></rect>
  </clipPath>
</defs>
<path clip-path="url(#clip940)" d="
M0 1600 L2400 1600 L2400 0 L0 0  Z
  " fill="#ffffff" fill-rule="evenodd" fill-opacity="1"></path>
<defs>
  <clipPath id="clip941">
    <rect x="480" y="0" width="1681" height="1600"></rect>
  </clipPath>
</defs>
<path clip-path="url(#clip940)" d="
M210.746 1423.18 L2352.76 1423.18 L2352.76 47.2441 L210.746 47.2441  Z
  " fill="#ffffff" fill-rule="evenodd" fill-opacity="1"></path>
<defs>
  <clipPath id="clip942">
    <rect x="210" y="47" width="2143" height="1377"></rect>
  </clipPath>
</defs>
<polyline clip-path="url(#clip942)" style="stroke:#000000; stroke-linecap:butt; stroke-linejoin:round; stroke-width:2; stroke-opacity:0.1; fill:none" points="
  210.746,1423.18 210.746,47.2441 
  "></polyline>
<polyline clip-path="url(#clip942)" style="stroke:#000000; stroke-linecap:butt; stroke-linejoin:round; stroke-width:2; stroke-opacity:0.1; fill:none" points="
  639.148,1423.18 639.148,47.2441 
  "></polyline>
<polyline clip-path="url(#clip942)" style="stroke:#000000; stroke-linecap:butt; stroke-linejoin:round; stroke-width:2; stroke-opacity:0.1; fill:none" points="
  1067.55,1423.18 1067.55,47.2441 
  "></polyline>
<polyline clip-path="url(#clip942)" style="stroke:#000000; stroke-linecap:butt; stroke-linejoin:round; stroke-width:2; stroke-opacity:0.1; fill:none" points="
  1495.95,1423.18 1495.95,47.2441 
  "></polyline>
<polyline clip-path="url(#clip942)" style="stroke:#000000; stroke-linecap:butt; stroke-linejoin:round; stroke-width:2; stroke-opacity:0.1; fill:none" points="
  1924.35,1423.18 1924.35,47.2441 
  "></polyline>
<polyline clip-path="url(#clip942)" style="stroke:#000000; stroke-linecap:butt; stroke-linejoin:round; stroke-width:2; stroke-opacity:0.1; fill:none" points="
  2352.76,1423.18 2352.76,47.2441 
  "></polyline>
<polyline clip-path="url(#clip940)" style="stroke:#000000; stroke-linecap:butt; stroke-linejoin:round; stroke-width:4; stroke-opacity:1; fill:none" points="
  210.746,1423.18 2352.76,1423.18 
  "></polyline>
<polyline clip-path="url(#clip940)" style="stroke:#000000; stroke-linecap:butt; stroke-linejoin:round; stroke-width:4; stroke-opacity:1; fill:none" points="
  210.746,1423.18 210.746,1404.28 
  "></polyline>
<polyline clip-path="url(#clip940)" style="stroke:#000000; stroke-linecap:butt; stroke-linejoin:round; stroke-width:4; stroke-opacity:1; fill:none" points="
  639.148,1423.18 639.148,1404.28 
  "></polyline>
<polyline clip-path="url(#clip940)" style="stroke:#000000; stroke-linecap:butt; stroke-linejoin:round; stroke-width:4; stroke-opacity:1; fill:none" points="
  1067.55,1423.18 1067.55,1404.28 
  "></polyline>
<polyline clip-path="url(#clip940)" style="stroke:#000000; stroke-linecap:butt; stroke-linejoin:round; stroke-width:4; stroke-opacity:1; fill:none" points="
  1495.95,1423.18 1495.95,1404.28 
  "></polyline>
<polyline clip-path="url(#clip940)" style="stroke:#000000; stroke-linecap:butt; stroke-linejoin:round; stroke-width:4; stroke-opacity:1; fill:none" points="
  1924.35,1423.18 1924.35,1404.28 
  "></polyline>
<polyline clip-path="url(#clip940)" style="stroke:#000000; stroke-linecap:butt; stroke-linejoin:round; stroke-width:4; stroke-opacity:1; fill:none" points="
  2352.76,1423.18 2352.76,1404.28 
  "></polyline>
<path clip-path="url(#clip940)" d="M180.688 1468.75 L210.364 1468.75 L210.364 1472.69 L180.688 1472.69 L180.688 1468.75 Z" fill="#000000" fill-rule="evenodd" fill-opacity="1"></path><path clip-path="url(#clip940)" d="M224.484 1481.64 L240.804 1481.64 L240.804 1485.58 L218.859 1485.58 L218.859 1481.64 Q221.521 1478.89 226.105 1474.26 Q230.711 1469.61 231.892 1468.27 Q234.137 1465.74 235.017 1464.01 Q235.919 1462.25 235.919 1460.56 Q235.919 1457.8 233.975 1456.07 Q232.054 1454.33 228.952 1454.33 Q226.753 1454.33 224.299 1455.09 Q221.869 1455.86 219.091 1457.41 L219.091 1452.69 Q221.915 1451.55 224.369 1450.97 Q226.822 1450.39 228.859 1450.39 Q234.23 1450.39 237.424 1453.08 Q240.618 1455.77 240.618 1460.26 Q240.618 1462.39 239.808 1464.31 Q239.021 1466.2 236.915 1468.8 Q236.336 1469.47 233.234 1472.69 Q230.132 1475.88 224.484 1481.64 Z" fill="#000000" fill-rule="evenodd" fill-opacity="1"></path><path clip-path="url(#clip940)" d="M608.905 1468.75 L638.581 1468.75 L638.581 1472.69 L608.905 1472.69 L608.905 1468.75 Z" fill="#000000" fill-rule="evenodd" fill-opacity="1"></path><path clip-path="url(#clip940)" d="M649.484 1481.64 L657.122 1481.64 L657.122 1455.28 L648.812 1456.95 L648.812 1452.69 L657.076 1451.02 L661.752 1451.02 L661.752 1481.64 L669.391 1481.64 L669.391 1485.58 L649.484 1485.58 L649.484 1481.64 Z" fill="#000000" fill-rule="evenodd" fill-opacity="1"></path><path clip-path="url(#clip940)" d="M1067.55 1454.1 Q1063.94 1454.1 1062.11 1457.66 Q1060.3 1461.2 1060.3 1468.33 Q1060.3 1475.44 1062.11 1479.01 Q1063.94 1482.55 1067.55 1482.55 Q1071.18 1482.55 1072.99 1479.01 Q1074.82 1475.44 1074.82 1468.33 Q1074.82 1461.2 1072.99 1457.66 Q1071.18 1454.1 1067.55 1454.1 M1067.55 1450.39 Q1073.36 1450.39 1076.42 1455 Q1079.49 1459.58 1079.49 1468.33 Q1079.49 1477.06 1076.42 1481.67 Q1073.36 1486.25 1067.55 1486.25 Q1061.74 1486.25 1058.66 1481.67 Q1055.61 1477.06 1055.61 1468.33 Q1055.61 1459.58 1058.66 1455 Q1061.74 1450.39 1067.55 1450.39 Z" fill="#000000" fill-rule="evenodd" fill-opacity="1"></path><path clip-path="url(#clip940)" d="M1486.33 1481.64 L1493.97 1481.64 L1493.97 1455.28 L1485.66 1456.95 L1485.66 1452.69 L1493.93 1451.02 L1498.6 1451.02 L1498.6 1481.64 L1506.24 1481.64 L1506.24 1485.58 L1486.33 1485.58 L1486.33 1481.64 Z" fill="#000000" fill-rule="evenodd" fill-opacity="1"></path><path clip-path="url(#clip940)" d="M1919.01 1481.64 L1935.33 1481.64 L1935.33 1485.58 L1913.38 1485.58 L1913.38 1481.64 Q1916.04 1478.89 1920.63 1474.26 Q1925.23 1469.61 1926.41 1468.27 Q1928.66 1465.74 1929.54 1464.01 Q1930.44 1462.25 1930.44 1460.56 Q1930.44 1457.8 1928.5 1456.07 Q1926.58 1454.33 1923.47 1454.33 Q1921.28 1454.33 1918.82 1455.09 Q1916.39 1455.86 1913.61 1457.41 L1913.61 1452.69 Q1916.44 1451.55 1918.89 1450.97 Q1921.34 1450.39 1923.38 1450.39 Q1928.75 1450.39 1931.95 1453.08 Q1935.14 1455.77 1935.14 1460.26 Q1935.14 1462.39 1934.33 1464.31 Q1933.54 1466.2 1931.44 1468.8 Q1930.86 1469.47 1927.76 1472.69 Q1924.65 1475.88 1919.01 1481.64 Z" fill="#000000" fill-rule="evenodd" fill-opacity="1"></path><path clip-path="url(#clip940)" d="M2357 1466.95 Q2360.36 1467.66 2362.24 1469.93 Q2364.13 1472.2 2364.13 1475.53 Q2364.13 1480.65 2360.61 1483.45 Q2357.1 1486.25 2350.61 1486.25 Q2348.44 1486.25 2346.12 1485.81 Q2343.83 1485.39 2341.38 1484.54 L2341.38 1480.02 Q2343.32 1481.16 2345.64 1481.74 Q2347.95 1482.32 2350.48 1482.32 Q2354.87 1482.32 2357.17 1480.58 Q2359.48 1478.84 2359.48 1475.53 Q2359.48 1472.48 2357.33 1470.77 Q2355.2 1469.03 2351.38 1469.03 L2347.35 1469.03 L2347.35 1465.19 L2351.56 1465.19 Q2355.01 1465.19 2356.84 1463.82 Q2358.67 1462.43 2358.67 1459.84 Q2358.67 1457.18 2356.77 1455.77 Q2354.9 1454.33 2351.38 1454.33 Q2349.46 1454.33 2347.26 1454.75 Q2345.06 1455.16 2342.42 1456.04 L2342.42 1451.88 Q2345.08 1451.14 2347.4 1450.77 Q2349.74 1450.39 2351.8 1450.39 Q2357.12 1450.39 2360.22 1452.83 Q2363.32 1455.23 2363.32 1459.35 Q2363.32 1462.22 2361.68 1464.21 Q2360.04 1466.18 2357 1466.95 Z" fill="#000000" fill-rule="evenodd" fill-opacity="1"></path><path clip-path="url(#clip940)" d="M1271.87 1550.25 Q1271.87 1556.71 1274.51 1560.4 Q1277.18 1564.07 1281.83 1564.07 Q1286.48 1564.07 1289.15 1560.4 Q1291.82 1556.71 1291.82 1550.25 Q1291.82 1543.79 1289.15 1540.13 Q1286.48 1536.44 1281.83 1536.44 Q1277.18 1536.44 1274.51 1540.13 Q1271.87 1543.79 1271.87 1550.25 M1291.82 1562.7 Q1289.98 1565.88 1287.15 1567.44 Q1284.34 1568.97 1280.4 1568.97 Q1273.94 1568.97 1269.86 1563.81 Q1265.82 1558.65 1265.82 1550.25 Q1265.82 1541.85 1269.86 1536.69 Q1273.94 1531.54 1280.4 1531.54 Q1284.34 1531.54 1287.15 1533.1 Q1289.98 1534.62 1291.82 1537.81 L1291.82 1532.4 L1297.68 1532.4 L1297.68 1581.6 L1291.82 1581.6 L1291.82 1562.7 Z" fill="#000000" fill-rule="evenodd" fill-opacity="1"></path><polyline clip-path="url(#clip942)" style="stroke:#000000; stroke-linecap:butt; stroke-linejoin:round; stroke-width:2; stroke-opacity:0.1; fill:none" points="
  210.746,1423.18 2352.76,1423.18 
  "></polyline>
<polyline clip-path="url(#clip942)" style="stroke:#000000; stroke-linecap:butt; stroke-linejoin:round; stroke-width:2; stroke-opacity:0.1; fill:none" points="
  210.746,1147.99 2352.76,1147.99 
  "></polyline>
<polyline clip-path="url(#clip942)" style="stroke:#000000; stroke-linecap:butt; stroke-linejoin:round; stroke-width:2; stroke-opacity:0.1; fill:none" points="
  210.746,872.806 2352.76,872.806 
  "></polyline>
<polyline clip-path="url(#clip942)" style="stroke:#000000; stroke-linecap:butt; stroke-linejoin:round; stroke-width:2; stroke-opacity:0.1; fill:none" points="
  210.746,597.618 2352.76,597.618 
  "></polyline>
<polyline clip-path="url(#clip942)" style="stroke:#000000; stroke-linecap:butt; stroke-linejoin:round; stroke-width:2; stroke-opacity:0.1; fill:none" points="
  210.746,322.431 2352.76,322.431 
  "></polyline>
<polyline clip-path="url(#clip942)" style="stroke:#000000; stroke-linecap:butt; stroke-linejoin:round; stroke-width:2; stroke-opacity:0.1; fill:none" points="
  210.746,47.2441 2352.76,47.2441 
  "></polyline>
<polyline clip-path="url(#clip940)" style="stroke:#000000; stroke-linecap:butt; stroke-linejoin:round; stroke-width:4; stroke-opacity:1; fill:none" points="
  210.746,1423.18 210.746,47.2441 
  "></polyline>
<polyline clip-path="url(#clip940)" style="stroke:#000000; stroke-linecap:butt; stroke-linejoin:round; stroke-width:4; stroke-opacity:1; fill:none" points="
  210.746,1423.18 229.644,1423.18 
  "></polyline>
<polyline clip-path="url(#clip940)" style="stroke:#000000; stroke-linecap:butt; stroke-linejoin:round; stroke-width:4; stroke-opacity:1; fill:none" points="
  210.746,1147.99 229.644,1147.99 
  "></polyline>
<polyline clip-path="url(#clip940)" style="stroke:#000000; stroke-linecap:butt; stroke-linejoin:round; stroke-width:4; stroke-opacity:1; fill:none" points="
  210.746,872.806 229.644,872.806 
  "></polyline>
<polyline clip-path="url(#clip940)" style="stroke:#000000; stroke-linecap:butt; stroke-linejoin:round; stroke-width:4; stroke-opacity:1; fill:none" points="
  210.746,597.618 229.644,597.618 
  "></polyline>
<polyline clip-path="url(#clip940)" style="stroke:#000000; stroke-linecap:butt; stroke-linejoin:round; stroke-width:4; stroke-opacity:1; fill:none" points="
  210.746,322.431 229.644,322.431 
  "></polyline>
<polyline clip-path="url(#clip940)" style="stroke:#000000; stroke-linecap:butt; stroke-linejoin:round; stroke-width:4; stroke-opacity:1; fill:none" points="
  210.746,47.2441 229.644,47.2441 
  "></polyline>
<path clip-path="url(#clip940)" d="M114.631 1423.63 L144.306 1423.63 L144.306 1427.57 L114.631 1427.57 L114.631 1423.63 Z" fill="#000000" fill-rule="evenodd" fill-opacity="1"></path><path clip-path="url(#clip940)" d="M158.427 1436.52 L174.746 1436.52 L174.746 1440.46 L152.802 1440.46 L152.802 1436.52 Q155.464 1433.77 160.047 1429.14 Q164.653 1424.49 165.834 1423.15 Q168.079 1420.62 168.959 1418.89 Q169.862 1417.13 169.862 1415.44 Q169.862 1412.68 167.917 1410.95 Q165.996 1409.21 162.894 1409.21 Q160.695 1409.21 158.241 1409.97 Q155.811 1410.74 153.033 1412.29 L153.033 1407.57 Q155.857 1406.43 158.311 1405.85 Q160.765 1405.27 162.802 1405.27 Q168.172 1405.27 171.366 1407.96 Q174.561 1410.65 174.561 1415.14 Q174.561 1417.27 173.751 1419.19 Q172.964 1421.08 170.857 1423.68 Q170.278 1424.35 167.177 1427.57 Q164.075 1430.76 158.427 1436.52 Z" fill="#000000" fill-rule="evenodd" fill-opacity="1"></path><path clip-path="url(#clip940)" d="M114.26 1148.44 L143.936 1148.44 L143.936 1152.38 L114.26 1152.38 L114.26 1148.44 Z" fill="#000000" fill-rule="evenodd" fill-opacity="1"></path><path clip-path="url(#clip940)" d="M154.839 1161.34 L162.477 1161.34 L162.477 1134.97 L154.167 1136.64 L154.167 1132.38 L162.431 1130.71 L167.107 1130.71 L167.107 1161.34 L174.746 1161.34 L174.746 1165.27 L154.839 1165.27 L154.839 1161.34 Z" fill="#000000" fill-rule="evenodd" fill-opacity="1"></path><path clip-path="url(#clip940)" d="M162.802 858.604 Q159.19 858.604 157.362 862.169 Q155.556 865.711 155.556 872.84 Q155.556 879.947 157.362 883.512 Q159.19 887.053 162.802 887.053 Q166.436 887.053 168.241 883.512 Q170.07 879.947 170.07 872.84 Q170.07 865.711 168.241 862.169 Q166.436 858.604 162.802 858.604 M162.802 854.901 Q168.612 854.901 171.667 859.507 Q174.746 864.09 174.746 872.84 Q174.746 881.567 171.667 886.174 Q168.612 890.757 162.802 890.757 Q156.991 890.757 153.913 886.174 Q150.857 881.567 150.857 872.84 Q150.857 864.09 153.913 859.507 Q156.991 854.901 162.802 854.901 Z" fill="#000000" fill-rule="evenodd" fill-opacity="1"></path><path clip-path="url(#clip940)" d="M154.839 610.963 L162.477 610.963 L162.477 584.598 L154.167 586.264 L154.167 582.005 L162.431 580.338 L167.107 580.338 L167.107 610.963 L174.746 610.963 L174.746 614.898 L154.839 614.898 L154.839 610.963 Z" fill="#000000" fill-rule="evenodd" fill-opacity="1"></path><path clip-path="url(#clip940)" d="M158.427 335.776 L174.746 335.776 L174.746 339.711 L152.802 339.711 L152.802 335.776 Q155.464 333.021 160.047 328.392 Q164.653 323.739 165.834 322.397 Q168.079 319.873 168.959 318.137 Q169.862 316.378 169.862 314.688 Q169.862 311.934 167.917 310.198 Q165.996 308.461 162.894 308.461 Q160.695 308.461 158.241 309.225 Q155.811 309.989 153.033 311.54 L153.033 306.818 Q155.857 305.684 158.311 305.105 Q160.765 304.526 162.802 304.526 Q168.172 304.526 171.366 307.211 Q174.561 309.897 174.561 314.387 Q174.561 316.517 173.751 318.438 Q172.964 320.336 170.857 322.929 Q170.278 323.6 167.177 326.818 Q164.075 330.012 158.427 335.776 Z" fill="#000000" fill-rule="evenodd" fill-opacity="1"></path><path clip-path="url(#clip940)" d="M167.616 45.8899 Q170.973 46.6075 172.848 48.876 Q174.746 51.1445 174.746 54.4779 Q174.746 59.5936 171.227 62.3945 Q167.709 65.1954 161.227 65.1954 Q159.052 65.1954 156.737 64.7556 Q154.445 64.3389 151.991 63.4824 L151.991 58.9686 Q153.936 60.1028 156.251 60.6815 Q158.565 61.2602 161.089 61.2602 Q165.487 61.2602 167.778 59.5241 Q170.093 57.788 170.093 54.4779 Q170.093 51.4223 167.94 49.7094 Q165.811 47.9733 161.991 47.9733 L157.964 47.9733 L157.964 44.1307 L162.177 44.1307 Q165.626 44.1307 167.454 42.765 Q169.283 41.3761 169.283 38.7835 Q169.283 36.1215 167.385 34.7094 Q165.51 33.2743 161.991 33.2743 Q160.07 33.2743 157.871 33.6909 Q155.672 34.1076 153.033 34.9872 L153.033 30.8206 Q155.695 30.0798 158.01 29.7095 Q160.348 29.3391 162.408 29.3391 Q167.732 29.3391 170.834 31.7696 Q173.936 34.177 173.936 38.2974 Q173.936 41.1677 172.292 43.1585 Q170.649 45.1261 167.616 45.8899 Z" fill="#000000" fill-rule="evenodd" fill-opacity="1"></path><path clip-path="url(#clip940)" d="M58.657 745.27 L77.5631 745.27 L77.5631 751.158 L28.3562 751.158 L28.3562 745.27 L33.7671 745.27 Q30.5842 743.424 29.0564 740.623 Q27.4968 737.79 27.4968 733.875 Q27.4968 727.382 32.6531 723.34 Q37.8093 719.266 46.212 719.266 Q54.6147 719.266 59.771 723.34 Q64.9272 727.382 64.9272 733.875 Q64.9272 737.79 63.3994 740.623 Q61.8398 743.424 58.657 745.27 M46.212 725.345 Q39.7508 725.345 36.0905 728.019 Q32.3984 730.66 32.3984 735.307 Q32.3984 739.954 36.0905 742.628 Q39.7508 745.27 46.212 745.27 Q52.6732 745.27 56.3653 742.628 Q60.0256 739.954 60.0256 735.307 Q60.0256 730.66 56.3653 728.019 Q52.6732 725.345 46.212 725.345 Z" fill="#000000" fill-rule="evenodd" fill-opacity="1"></path><polyline clip-path="url(#clip942)" style="stroke:#009af9; stroke-linecap:butt; stroke-linejoin:round; stroke-width:16; stroke-opacity:1; fill:none" points="
  1495.95,597.618 1515.77,638.525 1532.44,678.58 1546.03,717.629 1556.63,755.53 1564.32,792.154 1569.22,827.384 1571.43,861.116 1571.08,893.259 1568.29,923.735 
  1563.19,952.477 1555.93,979.428 1546.64,1004.54 1535.46,1027.79 1522.55,1049.15 1508.05,1068.61 1492.11,1086.17 1474.88,1101.82 1456.5,1115.6 1437.12,1127.52 
  1416.89,1137.62 1395.94,1145.93 1374.41,1152.51 1352.43,1157.4 1330.13,1160.66 1307.65,1162.37 1285.09,1162.57 1262.56,1161.35 1240.19,1158.79 1218.07,1154.95 
  1196.29,1149.93 1174.94,1143.8 1154.12,1136.65 1133.89,1128.56 1114.32,1119.62 1095.48,1109.91 1077.43,1099.52 1060.2,1088.54 1043.86,1077.03 1028.42,1065.09 
  1013.93,1052.8 1000.41,1040.23 987.87,1027.46 976.334,1014.55 965.805,1001.58 956.286,988.62 947.774,975.725 940.261,962.956 933.735,950.372 928.181,938.022 
  923.577,925.958 919.899,914.223 917.121,902.858 915.211,891.902 914.137,881.387 913.864,871.343 914.352,861.797 915.564,852.769 917.458,844.28 919.992,836.344 
  923.121,828.972 926.802,822.174 930.99,815.954 935.639,810.315 940.705,805.256 946.142,800.773 951.906,796.859 957.953,793.508 964.239,790.706 970.723,788.441 
  977.362,786.698 984.117,785.461 990.95,784.709 997.823,784.424 1004.7,784.584 1011.55,785.166 1018.34,786.147 1025.03,787.503 1031.61,789.209 1038.04,791.24 
  1044.3,793.568 1050.37,796.17 1056.23,799.018 1061.85,802.086 1067.23,805.35 1072.35,808.783 1077.19,812.36 1081.76,816.059 1086.03,819.853 1090,823.72 
  1093.67,827.639 1097.03,831.586 1100.08,835.542 1102.83,839.486 1105.27,843.401 1107.41,847.268 1109.25,851.071 1110.79,854.795 1112.05,858.424 1113.04,861.947 
  1113.75,865.35 1114.2,868.624 1114.4,871.759 1114.37,874.745 1114.1,877.577 1113.63,880.247 1112.95,882.751 1112.08,885.084 1111.04,887.243 1109.84,889.227 
  1108.49,891.034 1107.01,892.664 1105.4,894.117 1103.69,895.396 1101.89,896.502 1100.01,897.439 1098.06,898.21 1096.05,898.819 1094.01,899.272 1091.94,899.573 
  1089.85,899.73 1087.75,899.747 1085.65,899.632 1083.57,899.392 1081.52,899.034 1079.49,898.566 1077.51,897.994 1075.57,897.328 1073.69,896.575 1071.88,895.743 
  1070.12,894.839 1068.45,893.872 1066.85,892.85 1065.33,891.78 1063.89,890.67 1062.55,889.526 1061.29,888.357 1060.13,887.169 1059.06,885.969 1058.08,884.763 
  1057.19,883.558 1056.4,882.359 1055.71,881.172 1055.1,880.002 1054.59,878.854 1054.16,877.733 1053.82,876.642 1053.56,875.586 1053.38,874.568 1053.29,873.591 
  1053.26,872.658 1053.31,871.771 1053.42,870.932 1053.6,870.143 1053.83,869.406 1054.13,868.721 1054.47,868.09 1054.86,867.512 1055.29,866.989 1055.76,866.519 
  1056.27,866.103 1056.8,865.74 1057.37,865.429 1057.95,865.169 1058.56,864.959 1059.17,864.798 1059.8,864.683 1060.44,864.614 1061.08,864.588 1061.71,864.603 
  1062.35,864.658 1062.98,864.75 1063.6,864.876 1064.22,865.035 1064.81,865.224 1065.4,865.441 1065.96,865.684 1066.5,865.949 1067.03,866.234 1067.53,866.538 
  1068,866.857 1068.45,867.19 1068.88,867.534 1069.27,867.887 1069.64,868.247 1069.98,868.611 1070.29,868.978 1070.58,869.346 1070.83,869.713 1071.06,870.076 
  1071.26,870.436 1071.43,870.789 1071.57,871.136 1071.69,871.473 1071.78,871.8 1071.85,872.117 1071.89,872.421 1071.91,872.712 1071.9,872.99 1071.88,873.253 
  1071.83,873.501 1071.77,873.733 1071.69,873.95 1071.59,874.151 1071.48,874.335 1071.35,874.503 1071.22,874.654 1071.07,874.789 1070.91,874.907 1070.74,875.01 
  1070.57,875.097 1070.38,875.168 1070.2,875.225 1070.01,875.267 1069.81,875.295 1069.62,875.309 1069.43,875.31 1069.23,875.299 1069.04,875.277 1068.85,875.244 
  1068.66,875.2 1068.47,875.147 1068.29,875.085 1068.12,875.014 1067.95,874.937 1067.79,874.853 1067.63,874.763 1067.48,874.668 1067.34,874.568 1067.21,874.465 
  1067.08,874.359 1066.97,874.25 1066.86,874.139 1066.76,874.028 1066.67,873.916 1066.59,873.804 1066.51,873.692 1066.45,873.582 1066.39,873.473 1066.34,873.366 
  1066.3,873.262 1066.27,873.161 1066.25,873.063 1066.23,872.968 1066.22,872.877 1066.22,872.791 1066.23,872.708 1066.24,872.63 1066.25,872.557 1066.28,872.489 
  1066.3,872.425 1066.33,872.366 1066.37,872.313 1066.41,872.264 1066.45,872.221 1066.5,872.182 1066.55,872.148 1066.6,872.119 1066.66,872.095 1066.71,872.076 
  1066.77,872.061 1066.83,872.05 1066.89,872.044 1066.95,872.042 1067.01,872.043 1067.07,872.048 1067.13,872.057 1067.18,872.069 1067.24,872.083 1067.3,872.101 
  1067.35,872.121 1067.4,872.144 1067.45,872.169 1067.5,872.195 1067.55,872.223 1067.59,872.253 1067.63,872.284 1067.67,872.316 1067.71,872.349 1067.74,872.382 
  1067.78,872.416 1067.81,872.45 1067.83,872.485 1067.86,872.519 1067.88,872.552 1067.89,872.586 1067.91,872.619 1067.92,872.651 1067.93,872.682 1067.94,872.713 
  1067.95,872.742 1067.95,872.77 1067.95,872.797 1067.95,872.823 1067.95,872.848 1067.95,872.871 1067.94,872.892 1067.93,872.912 1067.93,872.931 1067.91,872.948 
  1067.9,872.964 1067.89,872.978 1067.88,872.99 1067.86,873.001 1067.85,873.011 1067.83,873.019 1067.81,873.025 1067.8,873.03 1067.78,873.034 1067.76,873.037 
  1067.74,873.038 1067.72,873.038 1067.71,873.037 1067.69,873.035 1067.67,873.032 1067.65,873.028 1067.64,873.023 1067.62,873.017 1067.6,873.011 1067.59,873.003 
  1067.57,872.996 1067.56,872.987 1067.54,872.978 1067.53,872.969 1067.52,872.959 1067.51,872.95 1067.5,872.939 1067.49,872.929 1067.48,872.919 1067.47,872.908 
  1067.46,872.898 1067.45,872.888 1067.45,872.877 1067.44,872.867 1067.44,872.857 1067.43,872.848 1067.43,872.838 1067.43,872.829 1067.43,872.82 1067.43,872.812 
  1067.43,872.804 1067.43,872.796 1067.43,872.789 1067.43,872.782 1067.43,872.776 1067.43,872.77 1067.44,872.765 1067.44,872.76 1067.44,872.755 1067.45,872.751 
  1067.45,872.748 1067.46,872.744 1067.46,872.742 1067.47,872.74 1067.47,872.738 1067.48,872.736 1067.48,872.735 1067.49,872.735 1067.49,872.735 1067.5,872.735 
  1067.51,872.735 1067.51,872.736 1067.52,872.737 1067.52,872.739 1067.53,872.74 1067.53,872.742 1067.54,872.744 1067.54,872.747 1067.55,872.749 1067.55,872.752 
  1067.55,872.754 1067.56,872.757 1067.56,872.76 1067.56,872.763 1067.57,872.766 1067.57,872.77 1067.57,872.773 1067.58,872.776 1067.58,872.779 1067.58,872.782 
  1067.58,872.785 1067.58,872.788 1067.58,872.791 1067.59,872.794 1067.59,872.797 1067.59,872.8 1067.59,872.802 1067.59,872.805 1067.59,872.807 1067.59,872.81 
  1067.59,872.812 1067.59,872.814 1067.59,872.816 1067.58,872.817 1067.58,872.819 1067.58,872.82 1067.58,872.822 1067.58,872.823 1067.58,872.824 1067.58,872.825 
  1067.58,872.825 1067.57,872.826 1067.57,872.826 1067.57,872.827 1067.57,872.827 1067.57,872.827 1067.57,872.827 1067.56,872.827 1067.56,872.827 1067.56,872.826 
  1067.56,872.826 1067.56,872.826 1067.56,872.825 1067.55,872.824 1067.55,872.824 1067.55,872.823 1067.55,872.822 1067.55,872.821 1067.55,872.821 1067.55,872.82 
  1067.55,872.819 1067.54,872.818 1067.54,872.817 1067.54,872.816 1067.54,872.815 1067.54,872.814 1067.54,872.813 1067.54,872.812 1067.54,872.811 1067.54,872.81 
  1067.54,872.809 1067.54,872.808 1067.54,872.808 1067.54,872.807 1067.54,872.806 1067.54,872.805 1067.54,872.805 1067.54,872.804 1067.54,872.803 1067.54,872.803 
  1067.54,872.802 1067.54,872.802 1067.54,872.801 1067.54,872.801 1067.54,872.8 1067.54,872.8 1067.54,872.8 1067.54,872.8 1067.54,872.799 1067.54,872.799 
  1067.54,872.799 1067.54,872.799 1067.54,872.799 1067.54,872.799 1067.55,872.799 1067.55,872.799 1067.55,872.799 1067.55,872.799 1067.55,872.799 1067.55,872.8 
  1067.55,872.8 1067.55,872.8 1067.55,872.8 1067.55,872.8 1067.55,872.801 1067.55,872.801 1067.55,872.801 1067.55,872.801 1067.55,872.802 1067.55,872.802 
  1067.55,872.802 1067.55,872.803 1067.55,872.803 1067.55,872.803 1067.55,872.804 1067.55,872.804 1067.55,872.804 1067.55,872.804 1067.55,872.805 1067.55,872.805 
  1067.55,872.805 1067.55,872.805 1067.55,872.806 1067.55,872.806 1067.55,872.806 1067.55,872.806 1067.55,872.806 1067.55,872.807 1067.55,872.807 1067.55,872.807 
  1067.55,872.807 1067.55,872.807 1067.55,872.807 1067.55,872.807 1067.55,872.807 1067.55,872.807 1067.55,872.807 1067.55,872.807 1067.55,872.807 1067.55,872.807 
  
  "></polyline>
<polyline clip-path="url(#clip942)" style="stroke:#e26f46; stroke-linecap:butt; stroke-linejoin:round; stroke-width:16; stroke-opacity:1; fill:none" stroke-dasharray="64, 32, 8, 32" points="
  1495.95,597.618 1513.46,636.512 1528.4,675.043 1540.71,712.975 1550.38,750.09 1557.39,786.183 1561.81,821.074 1563.7,854.606 1563.16,886.647 1560.31,917.088 
  1555.28,945.843 1548.21,972.847 1539.26,998.053 1528.56,1021.43 1516.27,1042.96 1502.53,1062.64 1487.48,1080.48 1471.26,1096.5 1454,1110.72 1435.81,1123.17 
  1416.83,1133.89 1397.16,1142.91 1376.92,1150.28 1356.22,1156.05 1335.15,1160.26 1313.81,1162.97 1292.31,1164.22 1270.74,1164.08 1249.18,1162.59 1227.74,1159.82 
  1206.48,1155.81 1185.51,1150.65 1164.9,1144.38 1144.72,1137.08 1125.06,1128.82 1105.99,1119.67 1087.58,1109.7 1069.9,1099 1053,1087.64 1036.95,1075.7 
  1021.79,1063.27 1007.57,1050.43 994.326,1037.27 982.097,1023.87 970.905,1010.32 960.768,996.7 951.697,983.085 943.695,969.555 936.758,956.182 930.875,943.034 
  926.029,930.176 922.195,917.665 919.345,905.556 917.444,893.896 916.453,882.728 916.33,872.087 917.03,862.006 918.506,852.51 920.708,843.62 923.585,835.354 
  927.084,827.723 931.154,820.735 935.743,814.393 940.796,808.697 946.263,803.643 952.092,799.226 958.234,795.434 964.638,792.255 971.257,789.674 978.045,787.674 
  984.956,786.236 991.948,785.336 998.98,784.954 1006.01,785.064 1013,785.64 1019.92,786.656 1026.74,788.083 1033.41,789.892 1039.92,792.055 1046.24,794.541 
  1052.33,797.32 1058.19,800.362 1063.79,803.638 1069.11,807.116 1074.14,810.768 1078.86,814.565 1083.27,818.478 1087.36,822.48 1091.11,826.544 1094.54,830.644 
  1097.63,834.757 1100.39,838.857 1102.81,842.924 1104.91,846.936 1106.68,850.874 1108.14,854.721 1109.3,858.458 1110.15,862.072 1110.72,865.549 1111.02,868.877 
  1111.05,872.046 1110.84,875.045 1110.4,877.868 1109.74,880.509 1108.87,882.963 1107.82,885.225 1106.59,887.294 1105.21,889.168 1103.69,890.848 1102.05,892.334 
  1100.3,893.63 1098.46,894.736 1096.53,895.659 1094.55,896.401 1092.52,896.97 1090.45,897.37 1088.37,897.609 1086.27,897.694 1084.18,897.633 1082.1,897.434 
  1080.05,897.105 1078.03,896.655 1076.06,896.093 1074.15,895.428 1072.29,894.669 1070.5,893.826 1068.79,892.907 1067.16,891.922 1065.61,890.88 1064.15,889.79 
  1062.78,888.66 1061.51,887.498 1060.33,886.312 1059.25,885.112 1058.28,883.903 1057.4,882.693 1056.62,881.489 1055.93,880.297 1055.35,879.124 1054.85,877.974 
  1054.45,876.853 1054.14,875.765 1053.92,874.715 1053.78,873.707 1053.72,872.744 1053.73,871.828 1053.81,870.963 1053.97,870.15 1054.18,869.392 1054.45,868.689 
  1054.78,868.042 1055.15,867.452 1055.57,866.92 1056.03,866.444 1056.53,866.026 1057.05,865.663 1057.6,865.355 1058.17,865.101 1058.76,864.9 1059.36,864.749 
  1059.97,864.647 1060.58,864.592 1061.2,864.581 1061.81,864.612 1062.42,864.684 1063.02,864.792 1063.61,864.936 1064.18,865.111 1064.74,865.316 1065.28,865.547 
  1065.8,865.803 1066.3,866.079 1066.77,866.375 1067.21,866.686 1067.64,867.011 1068.03,867.346 1068.39,867.69 1068.73,868.04 1069.04,868.394 1069.31,868.75 
  1069.56,869.105 1069.78,869.458 1069.98,869.807 1070.14,870.149 1070.27,870.485 1070.38,870.811 1070.47,871.127 1070.52,871.432 1070.56,871.724 1070.57,872.003 
  1070.56,872.267 1070.53,872.517 1070.48,872.751 1070.41,872.968 1070.32,873.17 1070.22,873.354 1070.11,873.522 1069.98,873.673 1069.84,873.807 1069.69,873.925 
  1069.54,874.026 1069.37,874.112 1069.2,874.181 1069.03,874.235 1068.85,874.275 1068.67,874.301 1068.49,874.312 1068.31,874.312 1068.13,874.298 1067.95,874.274 
  1067.78,874.238 1067.61,874.193 1067.44,874.139 1067.28,874.076 1067.12,874.005 1066.97,873.928 1066.83,873.845 1066.69,873.757 1066.56,873.664 1066.44,873.567 
  1066.33,873.468 1066.22,873.366 1066.13,873.263 1066.04,873.158 1065.96,873.054 1065.89,872.95 1065.83,872.846 1065.77,872.744 1065.73,872.644 1065.69,872.547 
  1065.66,872.452 1065.64,872.36 1065.63,872.272 1065.62,872.187 1065.62,872.106 1065.62,872.03 1065.63,871.958 1065.65,871.891 1065.67,871.829 1065.7,871.771 
  1065.73,871.719 1065.76,871.671 1065.8,871.628 1065.84,871.591 1065.89,871.558 1065.94,871.529 1065.98,871.506 1066.03,871.487 1066.09,871.473 1066.14,871.462 
  1066.19,871.456 1066.24,871.454 1066.3,871.456 1066.35,871.461 1066.4,871.469 1066.45,871.48 1066.5,871.495 1066.55,871.511 1066.6,871.531 1066.65,871.552 
  1066.69,871.575 1066.73,871.6 1066.77,871.627 1066.81,871.654 1066.84,871.683 1066.87,871.713 1066.9,871.743 1066.93,871.773 1066.96,871.804 1066.98,871.834 
  1067,871.865 1067.02,871.895 1067.03,871.925 1067.04,871.954 1067.05,871.983 1067.06,872.01 1067.07,872.037 1067.07,872.062 1067.07,872.087 1067.07,872.11 
  1067.07,872.132 1067.07,872.153 1067.06,872.172 1067.05,872.19 1067.04,872.206 1067.03,872.221 1067.02,872.235 1067.01,872.247 1067,872.257 1066.99,872.266 
  1066.97,872.274 1066.96,872.281 1066.94,872.286 1066.93,872.29 1066.91,872.292 1066.9,872.294 1066.88,872.294 1066.87,872.293 1066.85,872.291 1066.84,872.288 
  1066.82,872.285 1066.81,872.28 1066.79,872.275 1066.78,872.269 1066.77,872.263 1066.75,872.256 1066.74,872.248 1066.73,872.24 1066.72,872.232 1066.71,872.224 
  1066.7,872.215 1066.69,872.206 1066.68,872.197 1066.68,872.188 1066.67,872.179 1066.66,872.17 1066.66,872.161 1066.66,872.153 1066.65,872.144 1066.65,872.136 
  1066.65,872.128 1066.65,872.12 1066.64,872.113 1066.64,872.106 1066.64,872.099 1066.65,872.093 1066.65,872.087 1066.65,872.081 1066.65,872.076 1066.65,872.072 
  1066.66,872.067 1066.66,872.063 1066.66,872.06 1066.67,872.057 1066.67,872.055 1066.68,872.053 1066.68,872.051 1066.68,872.049 1066.69,872.048 1066.69,872.048 
  1066.7,872.048 1066.7,872.048 1066.71,872.048 1066.71,872.049 1066.72,872.05 1066.72,872.051 1066.72,872.052 1066.73,872.054 1066.73,872.055 1066.74,872.057 
  1066.74,872.06 1066.74,872.062 1066.75,872.064 1066.75,872.067 1066.75,872.069 1066.75,872.072 1066.76,872.074 1066.76,872.077 1066.76,872.08 1066.76,872.082 
  1066.76,872.085 1066.77,872.087 1066.77,872.09 1066.77,872.092 1066.77,872.095 1066.77,872.097 1066.77,872.099 1066.77,872.101 1066.77,872.103 1066.77,872.105 
  1066.77,872.107 1066.77,872.109 1066.77,872.11 1066.77,872.112 1066.77,872.113 1066.77,872.114 1066.76,872.115 1066.76,872.116 1066.76,872.117 1066.76,872.118 
  1066.76,872.118 1066.76,872.119 1066.76,872.119 1066.76,872.119 1066.75,872.119 1066.75,872.119 1066.75,872.119 1066.75,872.119 1066.75,872.119 1066.75,872.119 
  1066.75,872.118 1066.75,872.118 1066.74,872.117 1066.74,872.117 1066.74,872.116 1066.74,872.116 1066.74,872.115 1066.74,872.114 1066.74,872.113 1066.74,872.113 
  1066.74,872.112 1066.74,872.111 1066.74,872.11 1066.74,872.11 1066.73,872.109 1066.73,872.108 1066.73,872.107 1066.73,872.107 1066.73,872.106 1066.73,872.105 
  1066.73,872.105 1066.73,872.104 1066.73,872.103 1066.73,872.103 1066.73,872.102 1066.73,872.102 1066.73,872.101 1066.73,872.101 1066.73,872.101 1066.73,872.1 
  1066.73,872.1 1066.73,872.1 1066.74,872.099 1066.74,872.099 1066.74,872.099 1066.74,872.099 1066.74,872.099 1066.74,872.099 1066.74,872.099 1066.74,872.099 
  1066.74,872.099 1066.74,872.099 1066.74,872.099 1066.74,872.099 1066.74,872.099 1066.74,872.099 1066.74,872.099 1066.74,872.099 1066.74,872.1 1066.74,872.1 
  1066.74,872.1 1066.74,872.1 1066.74,872.1 1066.74,872.101 1066.74,872.101 1066.74,872.101 1066.74,872.101 1066.74,872.102 1066.74,872.102 1066.74,872.102 
  1066.74,872.102 1066.74,872.102 1066.74,872.103 1066.74,872.103 1066.74,872.103 1066.74,872.103 1066.74,872.103 1066.74,872.104 1066.74,872.104 1066.74,872.104 
  1066.74,872.104 1066.74,872.104 1066.74,872.104 1066.74,872.104 1066.74,872.104 1066.74,872.104 1066.74,872.104 1066.74,872.104 1066.74,872.104 1066.74,872.105 
  1066.74,872.105 1066.74,872.105 1066.74,872.105 1066.74,872.105 1066.74,872.104 1066.74,872.104 1066.74,872.104 1066.74,872.104 1066.74,872.104 1066.74,872.104 
  1066.74,872.104 1066.74,872.104 1066.74,872.104 1066.74,872.104 1066.74,872.104 1066.74,872.104 1066.74,872.104 1066.74,872.104 1066.74,872.104 1066.74,872.104 
  1066.74,872.104 1066.74,872.104 1066.74,872.103 1066.74,872.103 1066.74,872.103 1066.74,872.103 1066.74,872.103 1066.74,872.103 1066.74,872.103 1066.74,872.103 
  
  "></polyline>
<polyline clip-path="url(#clip942)" style="stroke:#3da44d; stroke-linecap:butt; stroke-linejoin:round; stroke-width:16; stroke-opacity:1; fill:none" stroke-dasharray="8, 16" points="
  1495.95,597.618 1515.79,638.373 1532.48,678.421 1546.08,717.543 1556.69,755.546 1564.39,792.263 1569.28,827.555 1571.49,861.305 1571.14,893.419 1568.35,923.824 
  1563.26,952.462 1556.02,979.292 1546.76,1004.28 1535.62,1027.42 1522.76,1048.69 1508.32,1068.09 1492.43,1085.63 1475.26,1101.31 1456.93,1115.17 1437.6,1127.21 
  1417.39,1137.47 1396.46,1145.98 1374.93,1152.78 1352.94,1157.92 1330.61,1161.44 1308.07,1163.39 1285.43,1163.85 1262.82,1162.86 1240.33,1160.49 1218.08,1156.82 
  1196.16,1151.93 1174.67,1145.89 1153.69,1138.78 1133.3,1130.69 1113.58,1121.7 1094.59,1111.9 1076.39,1101.38 1059.03,1090.23 1042.56,1078.53 1027.02,1066.37 
  1012.44,1053.84 998.85,1041.02 986.263,1027.99 974.696,1014.83 964.155,1001.62 954.642,988.423 946.153,975.309 938.679,962.341 932.206,949.579 926.717,937.076 
  922.189,924.883 918.596,913.045 915.909,901.603 914.096,890.594 913.122,880.05 912.949,869.999 913.538,860.467 914.849,851.472 916.838,843.032 919.462,835.159 
  922.676,827.863 926.436,821.151 930.695,815.025 935.408,809.485 940.53,804.529 946.014,800.153 951.818,796.347 957.895,793.102 964.204,790.407 970.702,788.246 
  977.348,786.603 984.102,785.462 990.927,784.803 997.784,784.604 1004.64,784.845 1011.46,785.503 1018.22,786.553 1024.87,787.972 1031.41,789.733 1037.79,791.812 
  1044.01,794.182 1050.02,796.818 1055.83,799.693 1061.4,802.782 1066.72,806.058 1071.78,809.496 1076.57,813.071 1081.08,816.76 1085.29,820.537 1089.21,824.38 
  1092.83,828.268 1096.14,832.178 1099.15,836.09 1101.86,839.985 1104.27,843.846 1106.37,847.654 1108.18,851.394 1109.71,855.05 1110.95,858.61 1111.92,862.061 
  1112.63,865.391 1113.08,868.59 1113.29,871.649 1113.27,874.56 1113.02,877.317 1112.57,879.913 1111.92,882.345 1111.09,884.608 1110.09,886.701 1108.94,888.621 
  1107.64,890.367 1106.21,891.941 1104.66,893.342 1103.02,894.574 1101.28,895.637 1099.47,896.536 1097.59,897.275 1095.67,897.857 1093.7,898.288 1091.71,898.574 
  1089.69,898.72 1087.68,898.732 1085.66,898.618 1083.66,898.383 1081.69,898.036 1079.74,897.583 1077.83,897.033 1075.97,896.392 1074.16,895.668 1072.42,894.869 
  1070.73,894.003 1069.12,893.077 1067.58,892.099 1066.12,891.076 1064.73,890.015 1063.44,888.924 1062.23,887.809 1061.1,886.676 1060.07,885.533 1059.12,884.386 
  1058.26,883.239 1057.5,882.099 1056.82,880.971 1056.23,879.86 1055.72,878.77 1055.3,877.706 1054.95,876.672 1054.69,875.67 1054.51,874.705 1054.4,873.779 
  1054.35,872.894 1054.38,872.054 1054.47,871.259 1054.62,870.512 1054.82,869.813 1055.08,869.164 1055.39,868.566 1055.74,868.017 1056.13,867.52 1056.56,867.074 
  1057.02,866.677 1057.51,866.331 1058.03,866.033 1058.57,865.783 1059.12,865.58 1059.69,865.422 1060.27,865.308 1060.85,865.237 1061.44,865.206 1062.04,865.213 
  1062.63,865.257 1063.21,865.335 1063.79,865.446 1064.35,865.587 1064.91,865.757 1065.45,865.952 1065.98,866.17 1066.48,866.41 1066.97,866.67 1067.44,866.946 
  1067.88,867.236 1068.3,867.539 1068.7,867.853 1069.07,868.175 1069.42,868.504 1069.74,868.836 1070.04,869.172 1070.31,869.508 1070.55,869.844 1070.77,870.177 
  1070.96,870.506 1071.13,870.83 1071.27,871.148 1071.39,871.457 1071.48,871.758 1071.55,872.048 1071.6,872.328 1071.63,872.596 1071.63,872.851 1071.62,873.094 
  1071.59,873.323 1071.54,873.538 1071.47,873.738 1071.39,873.924 1071.3,874.095 1071.19,874.252 1071.08,874.393 1070.95,874.52 1070.81,874.632 1070.66,874.729 
  1070.51,874.813 1070.35,874.882 1070.19,874.937 1070.02,874.98 1069.85,875.01 1069.68,875.027 1069.5,875.033 1069.33,875.028 1069.16,875.012 1068.99,874.986 
  1068.82,874.951 1068.66,874.907 1068.49,874.855 1068.34,874.796 1068.18,874.73 1068.04,874.658 1067.9,874.581 1067.76,874.499 1067.63,874.412 1067.51,874.323 
  1067.4,874.23 1067.29,874.135 1067.19,874.038 1067.1,873.941 1067.01,873.842 1066.94,873.744 1066.87,873.645 1066.8,873.548 1066.75,873.452 1066.7,873.358 
  1066.66,873.265 1066.63,873.175 1066.61,873.088 1066.59,873.004 1066.58,872.923 1066.57,872.845 1066.57,872.771 1066.58,872.702 1066.59,872.636 1066.6,872.574 
  1066.62,872.516 1066.65,872.463 1066.67,872.414 1066.71,872.369 1066.74,872.329 1066.78,872.293 1066.82,872.262 1066.87,872.234 1066.91,872.211 1066.96,872.192 
  1067.01,872.177 1067.06,872.166 1067.11,872.158 1067.16,872.154 1067.21,872.153 1067.26,872.155 1067.31,872.161 1067.36,872.169 1067.41,872.18 1067.46,872.194 
  1067.5,872.21 1067.55,872.228 1067.59,872.247 1067.63,872.269 1067.68,872.292 1067.71,872.317 1067.75,872.342 1067.79,872.369 1067.82,872.396 1067.85,872.424 
  1067.88,872.452 1067.91,872.481 1067.93,872.51 1067.95,872.539 1067.97,872.568 1067.99,872.596 1068,872.624 1068.02,872.652 1068.03,872.678 1068.04,872.705 
  1068.04,872.73 1068.05,872.754 1068.05,872.778 1068.05,872.8 1068.05,872.821 1068.05,872.842 1068.05,872.861 1068.04,872.878 1068.04,872.895 1068.03,872.91 
  1068.02,872.924 1068.01,872.937 1068,872.948 1067.99,872.958 1067.98,872.967 1067.96,872.975 1067.95,872.981 1067.93,872.987 1067.92,872.991 1067.91,872.994 
  1067.89,872.996 1067.88,872.997 1067.86,872.997 1067.85,872.996 1067.83,872.994 1067.82,872.991 1067.8,872.988 1067.79,872.984 1067.78,872.979 1067.76,872.973 
  1067.75,872.967 1067.74,872.961 1067.73,872.954 1067.71,872.947 1067.7,872.939 1067.69,872.931 1067.68,872.923 1067.67,872.915 1067.67,872.907 1067.66,872.898 
  1067.65,872.89 1067.65,872.881 1067.64,872.873 1067.64,872.865 1067.63,872.856 1067.63,872.848 1067.62,872.841 1067.62,872.833 1067.62,872.826 1067.62,872.819 
  1067.62,872.812 1067.62,872.805 1067.62,872.799 1067.62,872.793 1067.62,872.788 1067.62,872.783 1067.62,872.778 1067.63,872.774 1067.63,872.77 1067.63,872.766 
  1067.63,872.763 1067.64,872.76 1067.64,872.757 1067.65,872.755 1067.65,872.754 1067.65,872.752 1067.66,872.751 1067.66,872.75 1067.67,872.75 1067.67,872.75 
  1067.68,872.75 1067.68,872.75 1067.68,872.751 1067.69,872.751 1067.69,872.752 1067.7,872.754 1067.7,872.755 1067.7,872.757 1067.71,872.759 1067.71,872.761 
  1067.72,872.763 1067.72,872.765 1067.72,872.767 1067.72,872.769 1067.73,872.772 1067.73,872.774 1067.73,872.777 1067.73,872.779 1067.74,872.782 1067.74,872.784 
  1067.74,872.787 1067.74,872.789 1067.74,872.791 1067.74,872.794 1067.74,872.796 1067.74,872.798 1067.74,872.8 1067.75,872.802 1067.75,872.804 1067.75,872.806 
  1067.75,872.808 1067.75,872.81 1067.74,872.811 1067.74,872.813 1067.74,872.814 1067.74,872.815 1067.74,872.816 1067.74,872.817 1067.74,872.818 1067.74,872.819 
  1067.74,872.82 1067.74,872.82 1067.74,872.821 1067.73,872.821 1067.73,872.822 1067.73,872.822 1067.73,872.822 1067.73,872.822 1067.73,872.822 1067.73,872.822 
  1067.73,872.822 1067.72,872.821 1067.72,872.821 1067.72,872.821 1067.72,872.82 1067.72,872.82 1067.72,872.819 1067.72,872.819 1067.72,872.818 1067.72,872.817 
  1067.71,872.817 1067.71,872.816 1067.71,872.815 1067.71,872.815 1067.71,872.814 1067.71,872.813 1067.71,872.812 1067.71,872.812 1067.71,872.811 1067.71,872.81 
  1067.71,872.81 1067.71,872.809 1067.71,872.808 1067.71,872.808 1067.71,872.807 1067.71,872.806 1067.71,872.806 1067.71,872.805 1067.71,872.805 1067.71,872.804 
  1067.71,872.804 1067.71,872.803 1067.71,872.803 1067.71,872.803 1067.71,872.802 1067.71,872.802 1067.71,872.802 1067.71,872.802 1067.71,872.801 1067.71,872.801 
  1067.71,872.801 1067.71,872.801 1067.71,872.801 1067.71,872.801 1067.71,872.801 1067.71,872.801 1067.71,872.801 1067.71,872.801 1067.71,872.801 1067.71,872.801 
  1067.71,872.801 1067.72,872.801 1067.72,872.801 1067.72,872.801 1067.72,872.802 1067.72,872.802 1067.72,872.802 1067.72,872.802 1067.72,872.802 1067.72,872.803 
  1067.72,872.803 1067.72,872.803 1067.72,872.803 1067.72,872.803 1067.72,872.804 1067.72,872.804 1067.72,872.804 1067.72,872.804 1067.72,872.804 1067.72,872.805 
  1067.72,872.805 1067.72,872.805 1067.72,872.805 1067.72,872.805 1067.72,872.806 1067.72,872.806 1067.72,872.806 1067.72,872.806 1067.72,872.806 1067.72,872.806 
  1067.72,872.806 1067.72,872.806 1067.72,872.807 1067.72,872.807 1067.72,872.807 1067.72,872.807 1067.72,872.807 1067.72,872.807 1067.72,872.807 1067.72,872.807 
  
  "></polyline>
<path clip-path="url(#clip940)" d="
M1630.53 300.469 L2281.36 300.469 L2281.36 93.1086 L1630.53 93.1086  Z
  " fill="#ffffff" fill-rule="evenodd" fill-opacity="1"></path>
<polyline clip-path="url(#clip940)" style="stroke:#000000; stroke-linecap:butt; stroke-linejoin:round; stroke-width:4; stroke-opacity:1; fill:none" points="
  1630.53,300.469 2281.36,300.469 2281.36,93.1086 1630.53,93.1086 1630.53,300.469 
  "></polyline>
<polyline clip-path="url(#clip940)" style="stroke:#009af9; stroke-linecap:butt; stroke-linejoin:round; stroke-width:4; stroke-opacity:1; fill:none" points="
  1654.33,144.949 1797.13,144.949 
  "></polyline>
<path clip-path="url(#clip940)" d="M1846.49 157.298 L1846.49 148.016 L1838.85 148.016 L1838.85 144.173 L1851.12 144.173 L1851.12 159.011 Q1848.41 160.932 1845.15 161.928 Q1841.88 162.9 1838.18 162.9 Q1830.08 162.9 1825.49 158.178 Q1820.93 153.432 1820.93 144.983 Q1820.93 136.511 1825.49 131.789 Q1830.08 127.044 1838.18 127.044 Q1841.56 127.044 1844.59 127.877 Q1847.65 128.71 1850.22 130.331 L1850.22 135.307 Q1847.62 133.108 1844.71 131.997 Q1841.79 130.886 1838.57 130.886 Q1832.23 130.886 1829.04 134.428 Q1825.86 137.969 1825.86 144.983 Q1825.86 151.974 1829.04 155.516 Q1832.23 159.057 1838.57 159.057 Q1841.05 159.057 1842.99 158.641 Q1844.94 158.201 1846.49 157.298 Z" fill="#000000" fill-rule="evenodd" fill-opacity="1"></path><path clip-path="url(#clip940)" d="M1874.5 140.284 Q1873.78 139.868 1872.92 139.682 Q1872.09 139.474 1871.07 139.474 Q1867.46 139.474 1865.52 141.835 Q1863.6 144.173 1863.6 148.571 L1863.6 162.229 L1859.31 162.229 L1859.31 136.303 L1863.6 136.303 L1863.6 140.331 Q1864.94 137.969 1867.09 136.835 Q1869.24 135.678 1872.32 135.678 Q1872.76 135.678 1873.29 135.747 Q1873.83 135.794 1874.47 135.909 L1874.5 140.284 Z" fill="#000000" fill-rule="evenodd" fill-opacity="1"></path><path clip-path="url(#clip940)" d="M1887.97 139.289 Q1884.54 139.289 1882.55 141.974 Q1880.56 144.636 1880.56 149.289 Q1880.56 153.942 1882.53 156.627 Q1884.52 159.289 1887.97 159.289 Q1891.37 159.289 1893.36 156.604 Q1895.35 153.918 1895.35 149.289 Q1895.35 144.682 1893.36 141.997 Q1891.37 139.289 1887.97 139.289 M1887.97 135.678 Q1893.53 135.678 1896.7 139.289 Q1899.87 142.9 1899.87 149.289 Q1899.87 155.655 1896.7 159.289 Q1893.53 162.9 1887.97 162.9 Q1882.39 162.9 1879.22 159.289 Q1876.07 155.655 1876.07 149.289 Q1876.07 142.9 1879.22 139.289 Q1882.39 135.678 1887.97 135.678 Z" fill="#000000" fill-rule="evenodd" fill-opacity="1"></path><path clip-path="url(#clip940)" d="M1906.49 151.997 L1906.49 136.303 L1910.75 136.303 L1910.75 151.835 Q1910.75 155.516 1912.18 157.368 Q1913.62 159.196 1916.49 159.196 Q1919.94 159.196 1921.93 156.997 Q1923.94 154.798 1923.94 151.002 L1923.94 136.303 L1928.2 136.303 L1928.2 162.229 L1923.94 162.229 L1923.94 158.247 Q1922.39 160.608 1920.33 161.766 Q1918.29 162.9 1915.59 162.9 Q1911.12 162.9 1908.8 160.122 Q1906.49 157.344 1906.49 151.997 M1917.21 135.678 L1917.21 135.678 Z" fill="#000000" fill-rule="evenodd" fill-opacity="1"></path><path clip-path="url(#clip940)" d="M1958.53 146.581 L1958.53 162.229 L1954.27 162.229 L1954.27 146.719 Q1954.27 143.039 1952.83 141.21 Q1951.4 139.382 1948.53 139.382 Q1945.08 139.382 1943.09 141.581 Q1941.09 143.78 1941.09 147.576 L1941.09 162.229 L1936.81 162.229 L1936.81 136.303 L1941.09 136.303 L1941.09 140.331 Q1942.62 137.993 1944.68 136.835 Q1946.77 135.678 1949.47 135.678 Q1953.94 135.678 1956.23 138.456 Q1958.53 141.21 1958.53 146.581 Z" fill="#000000" fill-rule="evenodd" fill-opacity="1"></path><path clip-path="url(#clip940)" d="M1984.08 140.238 L1984.08 126.21 L1988.34 126.21 L1988.34 162.229 L1984.08 162.229 L1984.08 158.34 Q1982.74 160.655 1980.68 161.789 Q1978.64 162.9 1975.77 162.9 Q1971.07 162.9 1968.11 159.15 Q1965.17 155.4 1965.17 149.289 Q1965.17 143.178 1968.11 139.428 Q1971.07 135.678 1975.77 135.678 Q1978.64 135.678 1980.68 136.812 Q1982.74 137.923 1984.08 140.238 M1969.57 149.289 Q1969.57 153.988 1971.49 156.673 Q1973.43 159.335 1976.81 159.335 Q1980.19 159.335 1982.14 156.673 Q1984.08 153.988 1984.08 149.289 Q1984.08 144.59 1982.14 141.928 Q1980.19 139.243 1976.81 139.243 Q1973.43 139.243 1971.49 141.928 Q1969.57 144.59 1969.57 149.289 Z" fill="#000000" fill-rule="evenodd" fill-opacity="1"></path><path clip-path="url(#clip940)" d="M2016.4 128.942 L2016.4 136.303 L2025.17 136.303 L2025.17 139.613 L2016.4 139.613 L2016.4 153.687 Q2016.4 156.858 2017.25 157.761 Q2018.13 158.664 2020.79 158.664 L2025.17 158.664 L2025.17 162.229 L2020.79 162.229 Q2015.86 162.229 2013.99 160.4 Q2012.11 158.548 2012.11 153.687 L2012.11 139.613 L2008.99 139.613 L2008.99 136.303 L2012.11 136.303 L2012.11 128.942 L2016.4 128.942 Z" fill="#000000" fill-rule="evenodd" fill-opacity="1"></path><path clip-path="url(#clip940)" d="M2045.79 140.284 Q2045.08 139.868 2044.22 139.682 Q2043.39 139.474 2042.37 139.474 Q2038.76 139.474 2036.81 141.835 Q2034.89 144.173 2034.89 148.571 L2034.89 162.229 L2030.61 162.229 L2030.61 136.303 L2034.89 136.303 L2034.89 140.331 Q2036.23 137.969 2038.39 136.835 Q2040.54 135.678 2043.62 135.678 Q2044.06 135.678 2044.59 135.747 Q2045.12 135.794 2045.77 135.909 L2045.79 140.284 Z" fill="#000000" fill-rule="evenodd" fill-opacity="1"></path><path clip-path="url(#clip940)" d="M2049.82 151.997 L2049.82 136.303 L2054.08 136.303 L2054.08 151.835 Q2054.08 155.516 2055.52 157.368 Q2056.95 159.196 2059.82 159.196 Q2063.27 159.196 2065.26 156.997 Q2067.27 154.798 2067.27 151.002 L2067.27 136.303 L2071.53 136.303 L2071.53 162.229 L2067.27 162.229 L2067.27 158.247 Q2065.72 160.608 2063.66 161.766 Q2061.63 162.9 2058.92 162.9 Q2054.45 162.9 2052.14 160.122 Q2049.82 157.344 2049.82 151.997 M2060.54 135.678 L2060.54 135.678 Z" fill="#000000" fill-rule="evenodd" fill-opacity="1"></path><path clip-path="url(#clip940)" d="M2084.52 128.942 L2084.52 136.303 L2093.29 136.303 L2093.29 139.613 L2084.52 139.613 L2084.52 153.687 Q2084.52 156.858 2085.38 157.761 Q2086.26 158.664 2088.92 158.664 L2093.29 158.664 L2093.29 162.229 L2088.92 162.229 Q2083.99 162.229 2082.11 160.4 Q2080.24 158.548 2080.24 153.687 L2080.24 139.613 L2077.11 139.613 L2077.11 136.303 L2080.24 136.303 L2080.24 128.942 L2084.52 128.942 Z" fill="#000000" fill-rule="evenodd" fill-opacity="1"></path><path clip-path="url(#clip940)" d="M2120.45 146.581 L2120.45 162.229 L2116.19 162.229 L2116.19 146.719 Q2116.19 143.039 2114.75 141.21 Q2113.32 139.382 2110.45 139.382 Q2107 139.382 2105.01 141.581 Q2103.02 143.78 2103.02 147.576 L2103.02 162.229 L2098.73 162.229 L2098.73 126.21 L2103.02 126.21 L2103.02 140.331 Q2104.54 137.993 2106.6 136.835 Q2108.69 135.678 2111.39 135.678 Q2115.86 135.678 2118.15 138.456 Q2120.45 141.21 2120.45 146.581 Z" fill="#000000" fill-rule="evenodd" fill-opacity="1"></path><polyline clip-path="url(#clip940)" style="stroke:#e26f46; stroke-linecap:butt; stroke-linejoin:round; stroke-width:4; stroke-opacity:1; fill:none" stroke-dasharray="16, 8, 2, 8" points="
  1654.33,196.789 1797.13,196.789 
  "></polyline>
<path clip-path="url(#clip940)" d="M1836.95 182.68 Q1831.86 182.68 1828.85 186.476 Q1825.86 190.272 1825.86 196.823 Q1825.86 203.351 1828.85 207.147 Q1831.86 210.944 1836.95 210.944 Q1842.04 210.944 1845.01 207.147 Q1847.99 203.351 1847.99 196.823 Q1847.99 190.272 1845.01 186.476 Q1842.04 182.68 1836.95 182.68 M1836.95 178.884 Q1844.22 178.884 1848.57 183.768 Q1852.92 188.629 1852.92 196.823 Q1852.92 204.995 1848.57 209.879 Q1844.22 214.74 1836.95 214.74 Q1829.66 214.74 1825.29 209.879 Q1820.93 205.018 1820.93 196.823 Q1820.93 188.629 1825.29 183.768 Q1829.66 178.884 1836.95 178.884 Z" fill="#000000" fill-rule="evenodd" fill-opacity="1"></path><path clip-path="url(#clip940)" d="M1859.22 199.184 L1871.7 199.184 L1871.7 202.981 L1859.22 202.981 L1859.22 199.184 Z" fill="#000000" fill-rule="evenodd" fill-opacity="1"></path><path clip-path="url(#clip940)" d="M1878.66 179.509 L1884.96 179.509 L1900.28 208.421 L1900.28 179.509 L1904.82 179.509 L1904.82 214.069 L1898.53 214.069 L1883.2 185.157 L1883.2 214.069 L1878.66 214.069 L1878.66 179.509 Z" fill="#000000" fill-rule="evenodd" fill-opacity="1"></path><path clip-path="url(#clip940)" d="M1914.13 179.509 L1935.98 179.509 L1935.98 183.444 L1918.8 183.444 L1918.8 193.675 L1935.26 193.675 L1935.26 197.61 L1918.8 197.61 L1918.8 210.133 L1936.4 210.133 L1936.4 214.069 L1914.13 214.069 L1914.13 179.509 Z" fill="#000000" fill-rule="evenodd" fill-opacity="1"></path><path clip-path="url(#clip940)" d="M1939.29 179.509 L1968.53 179.509 L1968.53 183.444 L1956.26 183.444 L1956.26 214.069 L1951.56 214.069 L1951.56 183.444 L1939.29 183.444 L1939.29 179.509 Z" fill="#000000" fill-rule="evenodd" fill-opacity="1"></path><polyline clip-path="url(#clip940)" style="stroke:#3da44d; stroke-linecap:butt; stroke-linejoin:round; stroke-width:4; stroke-opacity:1; fill:none" stroke-dasharray="2, 4" points="
  1654.33,248.629 1797.13,248.629 
  "></polyline>
<path clip-path="url(#clip940)" d="M1843.18 232.483 L1843.18 237.043 Q1840.52 235.77 1838.16 235.145 Q1835.79 234.52 1833.6 234.52 Q1829.78 234.52 1827.69 236.001 Q1825.63 237.483 1825.63 240.214 Q1825.63 242.506 1827 243.687 Q1828.39 244.844 1832.23 245.562 L1835.05 246.14 Q1840.29 247.136 1842.76 249.659 Q1845.26 252.159 1845.26 256.372 Q1845.26 261.395 1841.88 263.987 Q1838.53 266.58 1832.02 266.58 Q1829.57 266.58 1826.79 266.024 Q1824.04 265.469 1821.07 264.381 L1821.07 259.566 Q1823.92 261.163 1826.65 261.973 Q1829.38 262.784 1832.02 262.784 Q1836.03 262.784 1838.2 261.21 Q1840.38 259.636 1840.38 256.719 Q1840.38 254.173 1838.8 252.737 Q1837.25 251.302 1833.69 250.585 L1830.84 250.029 Q1825.61 248.987 1823.27 246.765 Q1820.93 244.543 1820.93 240.585 Q1820.93 236.001 1824.15 233.362 Q1827.39 230.724 1833.06 230.724 Q1835.49 230.724 1838.02 231.163 Q1840.54 231.603 1843.18 232.483 Z" fill="#000000" fill-rule="evenodd" fill-opacity="1"></path><path clip-path="url(#clip940)" d="M1856.58 232.622 L1856.58 239.983 L1865.35 239.983 L1865.35 243.293 L1856.58 243.293 L1856.58 257.367 Q1856.58 260.538 1857.44 261.441 Q1858.32 262.344 1860.98 262.344 L1865.35 262.344 L1865.35 265.909 L1860.98 265.909 Q1856.05 265.909 1854.17 264.08 Q1852.3 262.228 1852.3 257.367 L1852.3 243.293 L1849.17 243.293 L1849.17 239.983 L1852.3 239.983 L1852.3 232.622 L1856.58 232.622 Z" fill="#000000" fill-rule="evenodd" fill-opacity="1"></path><path clip-path="url(#clip940)" d="M1885.98 243.964 Q1885.26 243.548 1884.41 243.362 Q1883.57 243.154 1882.55 243.154 Q1878.94 243.154 1877 245.515 Q1875.08 247.853 1875.08 252.251 L1875.08 265.909 L1870.79 265.909 L1870.79 239.983 L1875.08 239.983 L1875.08 244.011 Q1876.42 241.649 1878.57 240.515 Q1880.72 239.358 1883.8 239.358 Q1884.24 239.358 1884.78 239.427 Q1885.31 239.474 1885.96 239.589 L1885.98 243.964 Z" fill="#000000" fill-rule="evenodd" fill-opacity="1"></path><path clip-path="url(#clip940)" d="M1890.01 255.677 L1890.01 239.983 L1894.27 239.983 L1894.27 255.515 Q1894.27 259.196 1895.7 261.048 Q1897.14 262.876 1900.01 262.876 Q1903.46 262.876 1905.45 260.677 Q1907.46 258.478 1907.46 254.682 L1907.46 239.983 L1911.72 239.983 L1911.72 265.909 L1907.46 265.909 L1907.46 261.927 Q1905.91 264.288 1903.85 265.446 Q1901.81 266.58 1899.1 266.58 Q1894.64 266.58 1892.32 263.802 Q1890.01 261.024 1890.01 255.677 M1900.72 239.358 L1900.72 239.358 Z" fill="#000000" fill-rule="evenodd" fill-opacity="1"></path><path clip-path="url(#clip940)" d="M1939.15 240.978 L1939.15 244.96 Q1937.34 243.964 1935.52 243.478 Q1933.71 242.969 1931.86 242.969 Q1927.72 242.969 1925.42 245.608 Q1923.13 248.224 1923.13 252.969 Q1923.13 257.714 1925.42 260.353 Q1927.72 262.969 1931.86 262.969 Q1933.71 262.969 1935.52 262.483 Q1937.34 261.973 1939.15 260.978 L1939.15 264.913 Q1937.37 265.747 1935.45 266.163 Q1933.55 266.58 1931.4 266.58 Q1925.54 266.58 1922.09 262.899 Q1918.64 259.219 1918.64 252.969 Q1918.64 246.626 1922.11 242.992 Q1925.61 239.358 1931.67 239.358 Q1933.64 239.358 1935.52 239.775 Q1937.39 240.168 1939.15 240.978 Z" fill="#000000" fill-rule="evenodd" fill-opacity="1"></path><path clip-path="url(#clip940)" d="M1950.77 232.622 L1950.77 239.983 L1959.54 239.983 L1959.54 243.293 L1950.77 243.293 L1950.77 257.367 Q1950.77 260.538 1951.63 261.441 Q1952.51 262.344 1955.17 262.344 L1959.54 262.344 L1959.54 265.909 L1955.17 265.909 Q1950.24 265.909 1948.36 264.08 Q1946.49 262.228 1946.49 257.367 L1946.49 243.293 L1943.36 243.293 L1943.36 239.983 L1946.49 239.983 L1946.49 232.622 L1950.77 232.622 Z" fill="#000000" fill-rule="evenodd" fill-opacity="1"></path><path clip-path="url(#clip940)" d="M1964.71 255.677 L1964.71 239.983 L1968.97 239.983 L1968.97 255.515 Q1968.97 259.196 1970.4 261.048 Q1971.84 262.876 1974.71 262.876 Q1978.15 262.876 1980.15 260.677 Q1982.16 258.478 1982.16 254.682 L1982.16 239.983 L1986.42 239.983 L1986.42 265.909 L1982.16 265.909 L1982.16 261.927 Q1980.61 264.288 1978.55 265.446 Q1976.51 266.58 1973.8 266.58 Q1969.34 266.58 1967.02 263.802 Q1964.71 261.024 1964.71 255.677 M1975.42 239.358 L1975.42 239.358 Z" fill="#000000" fill-rule="evenodd" fill-opacity="1"></path><path clip-path="url(#clip940)" d="M2010.21 243.964 Q2009.5 243.548 2008.64 243.362 Q2007.81 243.154 2006.79 243.154 Q2003.18 243.154 2001.23 245.515 Q1999.31 247.853 1999.31 252.251 L1999.31 265.909 L1995.03 265.909 L1995.03 239.983 L1999.31 239.983 L1999.31 244.011 Q2000.65 241.649 2002.81 240.515 Q2004.96 239.358 2008.04 239.358 Q2008.48 239.358 2009.01 239.427 Q2009.54 239.474 2010.19 239.589 L2010.21 243.964 Z" fill="#000000" fill-rule="evenodd" fill-opacity="1"></path><path clip-path="url(#clip940)" d="M2035.82 251.881 L2035.82 253.964 L2016.23 253.964 Q2016.51 258.362 2018.87 260.677 Q2021.26 262.969 2025.49 262.969 Q2027.95 262.969 2030.24 262.367 Q2032.55 261.765 2034.82 260.561 L2034.82 264.589 Q2032.53 265.561 2030.12 266.071 Q2027.71 266.58 2025.24 266.58 Q2019.03 266.58 2015.4 262.969 Q2011.79 259.358 2011.79 253.2 Q2011.79 246.835 2015.21 243.108 Q2018.66 239.358 2024.5 239.358 Q2029.73 239.358 2032.76 242.737 Q2035.82 246.094 2035.82 251.881 M2031.56 250.631 Q2031.51 247.136 2029.59 245.052 Q2027.69 242.969 2024.54 242.969 Q2020.98 242.969 2018.83 244.983 Q2016.7 246.997 2016.37 250.654 L2031.56 250.631 Z" fill="#000000" fill-rule="evenodd" fill-opacity="1"></path><path clip-path="url(#clip940)" d="M2059.87 243.918 L2059.87 229.89 L2064.13 229.89 L2064.13 265.909 L2059.87 265.909 L2059.87 262.02 Q2058.52 264.335 2056.46 265.469 Q2054.43 266.58 2051.56 266.58 Q2046.86 266.58 2043.9 262.83 Q2040.96 259.08 2040.96 252.969 Q2040.96 246.858 2043.9 243.108 Q2046.86 239.358 2051.56 239.358 Q2054.43 239.358 2056.46 240.492 Q2058.52 241.603 2059.87 243.918 M2045.35 252.969 Q2045.35 257.668 2047.27 260.353 Q2049.22 263.015 2052.6 263.015 Q2055.98 263.015 2057.92 260.353 Q2059.87 257.668 2059.87 252.969 Q2059.87 248.27 2057.92 245.608 Q2055.98 242.923 2052.6 242.923 Q2049.22 242.923 2047.27 245.608 Q2045.35 248.27 2045.35 252.969 Z" fill="#000000" fill-rule="evenodd" fill-opacity="1"></path><path clip-path="url(#clip940)" d="M2102.18 234.52 Q2097.09 234.52 2094.08 238.316 Q2091.09 242.112 2091.09 248.663 Q2091.09 255.191 2094.08 258.987 Q2097.09 262.784 2102.18 262.784 Q2107.27 262.784 2110.24 258.987 Q2113.22 255.191 2113.22 248.663 Q2113.22 242.112 2110.24 238.316 Q2107.27 234.52 2102.18 234.52 M2102.18 230.724 Q2109.45 230.724 2113.8 235.608 Q2118.15 240.469 2118.15 248.663 Q2118.15 256.835 2113.8 261.719 Q2109.45 266.58 2102.18 266.58 Q2094.89 266.58 2090.52 261.719 Q2086.16 256.858 2086.16 248.663 Q2086.16 240.469 2090.52 235.608 Q2094.89 230.724 2102.18 230.724 Z" fill="#000000" fill-rule="evenodd" fill-opacity="1"></path><path clip-path="url(#clip940)" d="M2124.45 251.024 L2136.93 251.024 L2136.93 254.821 L2124.45 254.821 L2124.45 251.024 Z" fill="#000000" fill-rule="evenodd" fill-opacity="1"></path><path clip-path="url(#clip940)" d="M2143.89 231.349 L2150.19 231.349 L2165.51 260.261 L2165.51 231.349 L2170.05 231.349 L2170.05 265.909 L2163.76 265.909 L2148.43 236.997 L2148.43 265.909 L2143.89 265.909 L2143.89 231.349 Z" fill="#000000" fill-rule="evenodd" fill-opacity="1"></path><path clip-path="url(#clip940)" d="M2179.36 231.349 L2201.21 231.349 L2201.21 235.284 L2184.03 235.284 L2184.03 245.515 L2200.49 245.515 L2200.49 249.45 L2184.03 249.45 L2184.03 261.973 L2201.63 261.973 L2201.63 265.909 L2179.36 265.909 L2179.36 231.349 Z" fill="#000000" fill-rule="evenodd" fill-opacity="1"></path><path clip-path="url(#clip940)" d="M2204.52 231.349 L2233.76 231.349 L2233.76 235.284 L2221.49 235.284 L2221.49 265.909 L2216.79 265.909 L2216.79 235.284 L2204.52 235.284 L2204.52 231.349 Z" fill="#000000" fill-rule="evenodd" fill-opacity="1"></path></svg>