<svg xmlns="http://www.w3.org/2000/svg" xmlns:xlink="http://www.w3.org/1999/xlink" width="600" height="400" viewBox="0 0 2400 1600">
<defs>
  <clipPath id="clip180">
    <rect x="0" y="0" width="2400" height="1600"></rect>
  </clipPath>
</defs>
<path clip-path="url(#clip180)" d="
M0 1600 L2400 1600 L2400 0 L0 0  Z
  " fill="#ffffff" fill-rule="evenodd" fill-opacity="1"></path>
<defs>
  <clipPath id="clip181">
    <rect x="480" y="0" width="1681" height="1600"></rect>
  </clipPath>
</defs>
<path clip-path="url(#clip180)" d="
M310.352 1423.18 L2352.76 1423.18 L2352.76 47.2441 L310.352 47.2441  Z
  " fill="#ffffff" fill-rule="evenodd" fill-opacity="1"></path>
<defs>
  <clipPath id="clip182">
    <rect x="310" y="47" width="2043" height="1377"></rect>
  </clipPath>
</defs>
<polyline clip-path="url(#clip182)" style="stroke:#000000; stroke-linecap:butt; stroke-linejoin:round; stroke-width:2; stroke-opacity:0.1; fill:none" points="
  368.156,1423.18 368.156,47.2441 
  "></polyline>
<polyline clip-path="url(#clip182)" style="stroke:#000000; stroke-linecap:butt; stroke-linejoin:round; stroke-width:2; stroke-opacity:0.1; fill:none" points="
  754.287,1423.18 754.287,47.2441 
  "></polyline>
<polyline clip-path="url(#clip182)" style="stroke:#000000; stroke-linecap:butt; stroke-linejoin:round; stroke-width:2; stroke-opacity:0.1; fill:none" points="
  1140.42,1423.18 1140.42,47.2441 
  "></polyline>
<polyline clip-path="url(#clip182)" style="stroke:#000000; stroke-linecap:butt; stroke-linejoin:round; stroke-width:2; stroke-opacity:0.1; fill:none" points="
  1526.55,1423.18 1526.55,47.2441 
  "></polyline>
<polyline clip-path="url(#clip182)" style="stroke:#000000; stroke-linecap:butt; stroke-linejoin:round; stroke-width:2; stroke-opacity:0.1; fill:none" points="
  1912.68,1423.18 1912.68,47.2441 
  "></polyline>
<polyline clip-path="url(#clip182)" style="stroke:#000000; stroke-linecap:butt; stroke-linejoin:round; stroke-width:2; stroke-opacity:0.1; fill:none" points="
  2298.81,1423.18 2298.81,47.2441 
  "></polyline>
<polyline clip-path="url(#clip180)" style="stroke:#000000; stroke-linecap:butt; stroke-linejoin:round; stroke-width:4; stroke-opacity:1; fill:none" points="
  310.352,1423.18 2352.76,1423.18 
  "></polyline>
<polyline clip-path="url(#clip180)" style="stroke:#000000; stroke-linecap:butt; stroke-linejoin:round; stroke-width:4; stroke-opacity:1; fill:none" points="
  368.156,1423.18 368.156,1404.28 
  "></polyline>
<polyline clip-path="url(#clip180)" style="stroke:#000000; stroke-linecap:butt; stroke-linejoin:round; stroke-width:4; stroke-opacity:1; fill:none" points="
  754.287,1423.18 754.287,1404.28 
  "></polyline>
<polyline clip-path="url(#clip180)" style="stroke:#000000; stroke-linecap:butt; stroke-linejoin:round; stroke-width:4; stroke-opacity:1; fill:none" points="
  1140.42,1423.18 1140.42,1404.28 
  "></polyline>
<polyline clip-path="url(#clip180)" style="stroke:#000000; stroke-linecap:butt; stroke-linejoin:round; stroke-width:4; stroke-opacity:1; fill:none" points="
  1526.55,1423.18 1526.55,1404.28 
  "></polyline>
<polyline clip-path="url(#clip180)" style="stroke:#000000; stroke-linecap:butt; stroke-linejoin:round; stroke-width:4; stroke-opacity:1; fill:none" points="
  1912.68,1423.18 1912.68,1404.28 
  "></polyline>
<polyline clip-path="url(#clip180)" style="stroke:#000000; stroke-linecap:butt; stroke-linejoin:round; stroke-width:4; stroke-opacity:1; fill:none" points="
  2298.81,1423.18 2298.81,1404.28 
  "></polyline>
<path clip-path="url(#clip180)" d="M368.156 1454.1 Q364.545 1454.1 362.716 1457.66 Q360.91 1461.2 360.91 1468.33 Q360.91 1475.44 362.716 1479.01 Q364.545 1482.55 368.156 1482.55 Q371.79 1482.55 373.596 1479.01 Q375.424 1475.44 375.424 1468.33 Q375.424 1461.2 373.596 1457.66 Q371.79 1454.1 368.156 1454.1 M368.156 1450.39 Q373.966 1450.39 377.021 1455 Q380.1 1459.58 380.1 1468.33 Q380.1 1477.06 377.021 1481.67 Q373.966 1486.25 368.156 1486.25 Q362.346 1486.25 359.267 1481.67 Q356.211 1477.06 356.211 1468.33 Q356.211 1459.58 359.267 1455 Q362.346 1450.39 368.156 1450.39 Z" fill="#000000" fill-rule="evenodd" fill-opacity="1"></path><path clip-path="url(#clip180)" d="M728.975 1481.64 L736.614 1481.64 L736.614 1455.28 L728.304 1456.95 L728.304 1452.69 L736.567 1451.02 L741.243 1451.02 L741.243 1481.64 L748.882 1481.64 L748.882 1485.58 L728.975 1485.58 L728.975 1481.64 Z" fill="#000000" fill-rule="evenodd" fill-opacity="1"></path><path clip-path="url(#clip180)" d="M768.327 1454.1 Q764.715 1454.1 762.887 1457.66 Q761.081 1461.2 761.081 1468.33 Q761.081 1475.44 762.887 1479.01 Q764.715 1482.55 768.327 1482.55 Q771.961 1482.55 773.766 1479.01 Q775.595 1475.44 775.595 1468.33 Q775.595 1461.2 773.766 1457.66 Q771.961 1454.1 768.327 1454.1 M768.327 1450.39 Q774.137 1450.39 777.192 1455 Q780.271 1459.58 780.271 1468.33 Q780.271 1477.06 777.192 1481.67 Q774.137 1486.25 768.327 1486.25 Q762.516 1486.25 759.438 1481.67 Q756.382 1477.06 756.382 1468.33 Q756.382 1459.58 759.438 1455 Q762.516 1450.39 768.327 1450.39 Z" fill="#000000" fill-rule="evenodd" fill-opacity="1"></path><path clip-path="url(#clip180)" d="M1119.19 1481.64 L1135.51 1481.64 L1135.51 1485.58 L1113.57 1485.58 L1113.57 1481.64 Q1116.23 1478.89 1120.81 1474.26 Q1125.42 1469.61 1126.6 1468.27 Q1128.84 1465.74 1129.72 1464.01 Q1130.63 1462.25 1130.63 1460.56 Q1130.63 1457.8 1128.68 1456.07 Q1126.76 1454.33 1123.66 1454.33 Q1121.46 1454.33 1119.01 1455.09 Q1116.58 1455.86 1113.8 1457.41 L1113.8 1452.69 Q1116.62 1451.55 1119.08 1450.97 Q1121.53 1450.39 1123.57 1450.39 Q1128.94 1450.39 1132.13 1453.08 Q1135.33 1455.77 1135.33 1460.26 Q1135.33 1462.39 1134.52 1464.31 Q1133.73 1466.2 1131.62 1468.8 Q1131.04 1469.47 1127.94 1472.69 Q1124.84 1475.88 1119.19 1481.64 Z" fill="#000000" fill-rule="evenodd" fill-opacity="1"></path><path clip-path="url(#clip180)" d="M1155.33 1454.1 Q1151.72 1454.1 1149.89 1457.66 Q1148.08 1461.2 1148.08 1468.33 Q1148.08 1475.44 1149.89 1479.01 Q1151.72 1482.55 1155.33 1482.55 Q1158.96 1482.55 1160.77 1479.01 Q1162.59 1475.44 1162.59 1468.33 Q1162.59 1461.2 1160.77 1457.66 Q1158.96 1454.1 1155.33 1454.1 M1155.33 1450.39 Q1161.14 1450.39 1164.19 1455 Q1167.27 1459.58 1167.27 1468.33 Q1167.27 1477.06 1164.19 1481.67 Q1161.14 1486.25 1155.33 1486.25 Q1149.52 1486.25 1146.44 1481.67 Q1143.38 1477.06 1143.38 1468.33 Q1143.38 1459.58 1146.44 1455 Q1149.52 1450.39 1155.33 1450.39 Z" fill="#000000" fill-rule="evenodd" fill-opacity="1"></path><path clip-path="url(#clip180)" d="M1515.39 1466.95 Q1518.75 1467.66 1520.62 1469.93 Q1522.52 1472.2 1522.52 1475.53 Q1522.52 1480.65 1519 1483.45 Q1515.49 1486.25 1509 1486.25 Q1506.83 1486.25 1504.51 1485.81 Q1502.22 1485.39 1499.77 1484.54 L1499.77 1480.02 Q1501.71 1481.16 1504.03 1481.74 Q1506.34 1482.32 1508.87 1482.32 Q1513.26 1482.32 1515.56 1480.58 Q1517.87 1478.84 1517.87 1475.53 Q1517.87 1472.48 1515.72 1470.77 Q1513.59 1469.03 1509.77 1469.03 L1505.74 1469.03 L1505.74 1465.19 L1509.95 1465.19 Q1513.4 1465.19 1515.23 1463.82 Q1517.06 1462.43 1517.06 1459.84 Q1517.06 1457.18 1515.16 1455.77 Q1513.29 1454.33 1509.77 1454.33 Q1507.85 1454.33 1505.65 1454.75 Q1503.45 1455.16 1500.81 1456.04 L1500.81 1451.88 Q1503.47 1451.14 1505.79 1450.77 Q1508.12 1450.39 1510.18 1450.39 Q1515.51 1450.39 1518.61 1452.83 Q1521.71 1455.23 1521.71 1459.35 Q1521.71 1462.22 1520.07 1464.21 Q1518.43 1466.18 1515.39 1466.95 Z" fill="#000000" fill-rule="evenodd" fill-opacity="1"></path><path clip-path="url(#clip180)" d="M1541.39 1454.1 Q1537.78 1454.1 1535.95 1457.66 Q1534.14 1461.2 1534.14 1468.33 Q1534.14 1475.44 1535.95 1479.01 Q1537.78 1482.55 1541.39 1482.55 Q1545.02 1482.55 1546.83 1479.01 Q1548.66 1475.44 1548.66 1468.33 Q1548.66 1461.2 1546.83 1457.66 Q1545.02 1454.1 1541.39 1454.1 M1541.39 1450.39 Q1547.2 1450.39 1550.25 1455 Q1553.33 1459.58 1553.33 1468.33 Q1553.33 1477.06 1550.25 1481.67 Q1547.2 1486.25 1541.39 1486.25 Q1535.58 1486.25 1532.5 1481.67 Q1529.44 1477.06 1529.44 1468.33 Q1529.44 1459.58 1532.5 1455 Q1535.58 1450.39 1541.39 1450.39 Z" fill="#000000" fill-rule="evenodd" fill-opacity="1"></path><path clip-path="url(#clip180)" d="M1900.85 1455.09 L1889.05 1473.54 L1900.85 1473.54 L1900.85 1455.09 M1899.63 1451.02 L1905.51 1451.02 L1905.51 1473.54 L1910.44 1473.54 L1910.44 1477.43 L1905.51 1477.43 L1905.51 1485.58 L1900.85 1485.58 L1900.85 1477.43 L1885.25 1477.43 L1885.25 1472.92 L1899.63 1451.02 Z" fill="#000000" fill-rule="evenodd" fill-opacity="1"></path><path clip-path="url(#clip180)" d="M1928.17 1454.1 Q1924.56 1454.1 1922.73 1457.66 Q1920.92 1461.2 1920.92 1468.33 Q1920.92 1475.44 1922.73 1479.01 Q1924.56 1482.55 1928.17 1482.55 Q1931.8 1482.55 1933.61 1479.01 Q1935.44 1475.44 1935.44 1468.33 Q1935.44 1461.2 1933.61 1457.66 Q1931.8 1454.1 1928.17 1454.1 M1928.17 1450.39 Q1933.98 1450.39 1937.03 1455 Q1940.11 1459.58 1940.11 1468.33 Q1940.11 1477.06 1937.03 1481.67 Q1933.98 1486.25 1928.17 1486.25 Q1922.36 1486.25 1919.28 1481.67 Q1916.22 1477.06 1916.22 1468.33 Q1916.22 1459.58 1919.28 1455 Q1922.36 1450.39 1928.17 1450.39 Z" fill="#000000" fill-rule="evenodd" fill-opacity="1"></path><path clip-path="url(#clip180)" d="M2273.51 1451.02 L2291.87 1451.02 L2291.87 1454.96 L2277.79 1454.96 L2277.79 1463.43 Q2278.81 1463.08 2279.83 1462.92 Q2280.85 1462.73 2281.87 1462.73 Q2287.66 1462.73 2291.04 1465.9 Q2294.42 1469.08 2294.42 1474.49 Q2294.42 1480.07 2290.94 1483.17 Q2287.47 1486.25 2281.15 1486.25 Q2278.98 1486.25 2276.71 1485.88 Q2274.46 1485.51 2272.05 1484.77 L2272.05 1480.07 Q2274.14 1481.2 2276.36 1481.76 Q2278.58 1482.32 2281.06 1482.32 Q2285.06 1482.32 2287.4 1480.21 Q2289.74 1478.1 2289.74 1474.49 Q2289.74 1470.88 2287.4 1468.77 Q2285.06 1466.67 2281.06 1466.67 Q2279.18 1466.67 2277.31 1467.08 Q2275.46 1467.5 2273.51 1468.38 L2273.51 1451.02 Z" fill="#000000" fill-rule="evenodd" fill-opacity="1"></path><path clip-path="url(#clip180)" d="M2313.63 1454.1 Q2310.02 1454.1 2308.19 1457.66 Q2306.38 1461.2 2306.38 1468.33 Q2306.38 1475.44 2308.19 1479.01 Q2310.02 1482.55 2313.63 1482.55 Q2317.26 1482.55 2319.07 1479.01 Q2320.9 1475.44 2320.9 1468.33 Q2320.9 1461.2 2319.07 1457.66 Q2317.26 1454.1 2313.63 1454.1 M2313.63 1450.39 Q2319.44 1450.39 2322.49 1455 Q2325.57 1459.58 2325.57 1468.33 Q2325.57 1477.06 2322.49 1481.67 Q2319.44 1486.25 2313.63 1486.25 Q2307.82 1486.25 2304.74 1481.67 Q2301.68 1477.06 2301.68 1468.33 Q2301.68 1459.58 2304.74 1455 Q2307.82 1450.39 2313.63 1450.39 Z" fill="#000000" fill-rule="evenodd" fill-opacity="1"></path><path clip-path="url(#clip180)" d="M1172.62 1520.52 L1212.82 1520.52 L1212.82 1525.93 L1195.95 1525.93 L1195.95 1568.04 L1189.49 1568.04 L1189.49 1525.93 L1172.62 1525.93 L1172.62 1520.52 Z" fill="#000000" fill-rule="evenodd" fill-opacity="1"></path><path clip-path="url(#clip180)" d="M1216.76 1532.4 L1222.62 1532.4 L1222.62 1568.04 L1216.76 1568.04 L1216.76 1532.4 M1216.76 1518.52 L1222.62 1518.52 L1222.62 1525.93 L1216.76 1525.93 L1216.76 1518.52 Z" fill="#000000" fill-rule="evenodd" fill-opacity="1"></path><path clip-path="url(#clip180)" d="M1262.63 1539.24 Q1264.83 1535.29 1267.88 1533.41 Q1270.94 1531.54 1275.07 1531.54 Q1280.64 1531.54 1283.67 1535.45 Q1286.69 1539.33 1286.69 1546.53 L1286.69 1568.04 L1280.8 1568.04 L1280.8 1546.72 Q1280.8 1541.59 1278.99 1539.11 Q1277.17 1536.63 1273.45 1536.63 Q1268.9 1536.63 1266.26 1539.65 Q1263.62 1542.68 1263.62 1547.9 L1263.62 1568.04 L1257.73 1568.04 L1257.73 1546.72 Q1257.73 1541.56 1255.91 1539.11 Q1254.1 1536.63 1250.31 1536.63 Q1245.82 1536.63 1243.18 1539.68 Q1240.54 1542.71 1240.54 1547.9 L1240.54 1568.04 L1234.65 1568.04 L1234.65 1532.4 L1240.54 1532.4 L1240.54 1537.93 Q1242.55 1534.66 1245.35 1533.1 Q1248.15 1531.54 1252 1531.54 Q1255.88 1531.54 1258.59 1533.51 Q1261.32 1535.48 1262.63 1539.24 Z" fill="#000000" fill-rule="evenodd" fill-opacity="1"></path><path clip-path="url(#clip180)" d="M1328.86 1548.76 L1328.86 1551.62 L1301.94 1551.62 Q1302.32 1557.67 1305.57 1560.85 Q1308.84 1564 1314.67 1564 Q1318.04 1564 1321.19 1563.17 Q1324.38 1562.35 1327.5 1560.69 L1327.5 1566.23 Q1324.34 1567.57 1321.03 1568.27 Q1317.72 1568.97 1314.32 1568.97 Q1305.79 1568.97 1300.79 1564 Q1295.83 1559.04 1295.83 1550.57 Q1295.83 1541.82 1300.54 1536.69 Q1305.28 1531.54 1313.3 1531.54 Q1320.49 1531.54 1324.66 1536.18 Q1328.86 1540.8 1328.86 1548.76 M1323.01 1547.04 Q1322.94 1542.23 1320.3 1539.37 Q1317.69 1536.5 1313.36 1536.5 Q1308.46 1536.5 1305.5 1539.27 Q1302.57 1542.04 1302.13 1547.07 L1323.01 1547.04 Z" fill="#000000" fill-rule="evenodd" fill-opacity="1"></path><path clip-path="url(#clip180)" d="M1381.92 1533.45 L1381.92 1538.98 Q1379.44 1537.71 1376.77 1537.07 Q1374.09 1536.44 1371.23 1536.44 Q1366.87 1536.44 1364.67 1537.77 Q1362.51 1539.11 1362.51 1541.79 Q1362.51 1543.82 1364.07 1545 Q1365.63 1546.15 1370.34 1547.2 L1372.34 1547.64 Q1378.58 1548.98 1381.19 1551.43 Q1383.83 1553.85 1383.83 1558.21 Q1383.83 1563.17 1379.89 1566.07 Q1375.97 1568.97 1369.1 1568.97 Q1366.23 1568.97 1363.11 1568.39 Q1360.02 1567.85 1356.59 1566.74 L1356.59 1560.69 Q1359.83 1562.38 1362.98 1563.24 Q1366.14 1564.07 1369.22 1564.07 Q1373.36 1564.07 1375.59 1562.66 Q1377.82 1561.23 1377.82 1558.65 Q1377.82 1556.27 1376.19 1554.99 Q1374.6 1553.72 1369.16 1552.54 L1367.12 1552.07 Q1361.68 1550.92 1359.26 1548.56 Q1356.84 1546.18 1356.84 1542.04 Q1356.84 1537.01 1360.41 1534.27 Q1363.97 1531.54 1370.53 1531.54 Q1373.77 1531.54 1376.64 1532.01 Q1379.5 1532.49 1381.92 1533.45 Z" fill="#000000" fill-rule="evenodd" fill-opacity="1"></path><path clip-path="url(#clip180)" d="M1398.95 1522.27 L1398.95 1532.4 L1411.01 1532.4 L1411.01 1536.95 L1398.95 1536.95 L1398.95 1556.3 Q1398.95 1560.66 1400.13 1561.9 Q1401.34 1563.14 1405 1563.14 L1411.01 1563.14 L1411.01 1568.04 L1405 1568.04 Q1398.22 1568.04 1395.64 1565.53 Q1393.06 1562.98 1393.06 1556.3 L1393.06 1536.95 L1388.77 1536.95 L1388.77 1532.4 L1393.06 1532.4 L1393.06 1522.27 L1398.95 1522.27 Z" fill="#000000" fill-rule="evenodd" fill-opacity="1"></path><path clip-path="url(#clip180)" d="M1449.21 1548.76 L1449.21 1551.62 L1422.28 1551.62 Q1422.66 1557.67 1425.91 1560.85 Q1429.19 1564 1435.01 1564 Q1438.39 1564 1441.54 1563.17 Q1444.72 1562.35 1447.84 1560.69 L1447.84 1566.23 Q1444.69 1567.57 1441.38 1568.27 Q1438.07 1568.97 1434.66 1568.97 Q1426.13 1568.97 1421.14 1564 Q1416.17 1559.04 1416.17 1550.57 Q1416.17 1541.82 1420.88 1536.69 Q1425.62 1531.54 1433.64 1531.54 Q1440.84 1531.54 1445.01 1536.18 Q1449.21 1540.8 1449.21 1548.76 M1443.35 1547.04 Q1443.29 1542.23 1440.65 1539.37 Q1438.04 1536.5 1433.71 1536.5 Q1428.81 1536.5 1425.85 1539.27 Q1422.92 1542.04 1422.47 1547.07 L1443.35 1547.04 Z" fill="#000000" fill-rule="evenodd" fill-opacity="1"></path><path clip-path="url(#clip180)" d="M1464.49 1562.7 L1464.49 1581.6 L1458.6 1581.6 L1458.6 1532.4 L1464.49 1532.4 L1464.49 1537.81 Q1466.33 1534.62 1469.13 1533.1 Q1471.97 1531.54 1475.88 1531.54 Q1482.37 1531.54 1486.42 1536.69 Q1490.49 1541.85 1490.49 1550.25 Q1490.49 1558.65 1486.42 1563.81 Q1482.37 1568.97 1475.88 1568.97 Q1471.97 1568.97 1469.13 1567.44 Q1466.33 1565.88 1464.49 1562.7 M1484.41 1550.25 Q1484.41 1543.79 1481.74 1540.13 Q1479.1 1536.44 1474.45 1536.44 Q1469.8 1536.44 1467.13 1540.13 Q1464.49 1543.79 1464.49 1550.25 Q1464.49 1556.71 1467.13 1560.4 Q1469.8 1564.07 1474.45 1564.07 Q1479.1 1564.07 1481.74 1560.4 Q1484.41 1556.71 1484.41 1550.25 Z" fill="#000000" fill-rule="evenodd" fill-opacity="1"></path><polyline clip-path="url(#clip182)" style="stroke:#000000; stroke-linecap:butt; stroke-linejoin:round; stroke-width:2; stroke-opacity:0.1; fill:none" points="
  310.352,1423.18 2352.76,1423.18 
  "></polyline>
<polyline clip-path="url(#clip182)" style="stroke:#000000; stroke-linecap:butt; stroke-linejoin:round; stroke-width:2; stroke-opacity:0.1; fill:none" points="
  310.352,1147.99 2352.76,1147.99 
  "></polyline>
<polyline clip-path="url(#clip182)" style="stroke:#000000; stroke-linecap:butt; stroke-linejoin:round; stroke-width:2; stroke-opacity:0.1; fill:none" points="
  310.352,872.806 2352.76,872.806 
  "></polyline>
<polyline clip-path="url(#clip182)" style="stroke:#000000; stroke-linecap:butt; stroke-linejoin:round; stroke-width:2; stroke-opacity:0.1; fill:none" points="
  310.352,597.618 2352.76,597.618 
  "></polyline>
<polyline clip-path="url(#clip182)" style="stroke:#000000; stroke-linecap:butt; stroke-linejoin:round; stroke-width:2; stroke-opacity:0.1; fill:none" points="
  310.352,322.431 2352.76,322.431 
  "></polyline>
<polyline clip-path="url(#clip182)" style="stroke:#000000; stroke-linecap:butt; stroke-linejoin:round; stroke-width:2; stroke-opacity:0.1; fill:none" points="
  310.352,47.2441 2352.76,47.2441 
  "></polyline>
<polyline clip-path="url(#clip180)" style="stroke:#000000; stroke-linecap:butt; stroke-linejoin:round; stroke-width:4; stroke-opacity:1; fill:none" points="
  310.352,1423.18 310.352,47.2441 
  "></polyline>
<polyline clip-path="url(#clip180)" style="stroke:#000000; stroke-linecap:butt; stroke-linejoin:round; stroke-width:4; stroke-opacity:1; fill:none" points="
  310.352,1423.18 329.25,1423.18 
  "></polyline>
<polyline clip-path="url(#clip180)" style="stroke:#000000; stroke-linecap:butt; stroke-linejoin:round; stroke-width:4; stroke-opacity:1; fill:none" points="
  310.352,1147.99 329.25,1147.99 
  "></polyline>
<polyline clip-path="url(#clip180)" style="stroke:#000000; stroke-linecap:butt; stroke-linejoin:round; stroke-width:4; stroke-opacity:1; fill:none" points="
  310.352,872.806 329.25,872.806 
  "></polyline>
<polyline clip-path="url(#clip180)" style="stroke:#000000; stroke-linecap:butt; stroke-linejoin:round; stroke-width:4; stroke-opacity:1; fill:none" points="
  310.352,597.618 329.25,597.618 
  "></polyline>
<polyline clip-path="url(#clip180)" style="stroke:#000000; stroke-linecap:butt; stroke-linejoin:round; stroke-width:4; stroke-opacity:1; fill:none" points="
  310.352,322.431 329.25,322.431 
  "></polyline>
<polyline clip-path="url(#clip180)" style="stroke:#000000; stroke-linecap:butt; stroke-linejoin:round; stroke-width:4; stroke-opacity:1; fill:none" points="
  310.352,47.2441 329.25,47.2441 
  "></polyline>
<path clip-path="url(#clip180)" d="M126.691 1408.98 Q123.08 1408.98 121.251 1412.54 Q119.445 1416.08 119.445 1423.21 Q119.445 1430.32 121.251 1433.89 Q123.08 1437.43 126.691 1437.43 Q130.325 1437.43 132.13 1433.89 Q133.959 1430.32 133.959 1423.21 Q133.959 1416.08 132.13 1412.54 Q130.325 1408.98 126.691 1408.98 M126.691 1405.27 Q132.501 1405.27 135.556 1409.88 Q138.635 1414.46 138.635 1423.21 Q138.635 1431.94 135.556 1436.55 Q132.501 1441.13 126.691 1441.13 Q120.88 1441.13 117.802 1436.55 Q114.746 1431.94 114.746 1423.21 Q114.746 1414.46 117.802 1409.88 Q120.88 1405.27 126.691 1405.27 Z" fill="#000000" fill-rule="evenodd" fill-opacity="1"></path><path clip-path="url(#clip180)" d="M146.853 1434.58 L151.737 1434.58 L151.737 1440.46 L146.853 1440.46 L146.853 1434.58 Z" fill="#000000" fill-rule="evenodd" fill-opacity="1"></path><path clip-path="url(#clip180)" d="M171.922 1408.98 Q168.311 1408.98 166.482 1412.54 Q164.677 1416.08 164.677 1423.21 Q164.677 1430.32 166.482 1433.89 Q168.311 1437.43 171.922 1437.43 Q175.556 1437.43 177.362 1433.89 Q179.19 1430.32 179.19 1423.21 Q179.19 1416.08 177.362 1412.54 Q175.556 1408.98 171.922 1408.98 M171.922 1405.27 Q177.732 1405.27 180.788 1409.88 Q183.866 1414.46 183.866 1423.21 Q183.866 1431.94 180.788 1436.55 Q177.732 1441.13 171.922 1441.13 Q166.112 1441.13 163.033 1436.55 Q159.978 1431.94 159.978 1423.21 Q159.978 1414.46 163.033 1409.88 Q166.112 1405.27 171.922 1405.27 Z" fill="#000000" fill-rule="evenodd" fill-opacity="1"></path><path clip-path="url(#clip180)" d="M202.084 1408.98 Q198.473 1408.98 196.644 1412.54 Q194.838 1416.08 194.838 1423.21 Q194.838 1430.32 196.644 1433.89 Q198.473 1437.43 202.084 1437.43 Q205.718 1437.43 207.524 1433.89 Q209.352 1430.32 209.352 1423.21 Q209.352 1416.08 207.524 1412.54 Q205.718 1408.98 202.084 1408.98 M202.084 1405.27 Q207.894 1405.27 210.949 1409.88 Q214.028 1414.46 214.028 1423.21 Q214.028 1431.94 210.949 1436.55 Q207.894 1441.13 202.084 1441.13 Q196.274 1441.13 193.195 1436.55 Q190.139 1431.94 190.139 1423.21 Q190.139 1414.46 193.195 1409.88 Q196.274 1405.27 202.084 1405.27 Z" fill="#000000" fill-rule="evenodd" fill-opacity="1"></path><path clip-path="url(#clip180)" d="M232.246 1408.98 Q228.635 1408.98 226.806 1412.54 Q225 1416.08 225 1423.21 Q225 1430.32 226.806 1433.89 Q228.635 1437.43 232.246 1437.43 Q235.88 1437.43 237.685 1433.89 Q239.514 1430.32 239.514 1423.21 Q239.514 1416.08 237.685 1412.54 Q235.88 1408.98 232.246 1408.98 M232.246 1405.27 Q238.056 1405.27 241.111 1409.88 Q244.19 1414.46 244.19 1423.21 Q244.19 1431.94 241.111 1436.55 Q238.056 1441.13 232.246 1441.13 Q226.435 1441.13 223.357 1436.55 Q220.301 1431.94 220.301 1423.21 Q220.301 1414.46 223.357 1409.88 Q226.435 1405.27 232.246 1405.27 Z" fill="#000000" fill-rule="evenodd" fill-opacity="1"></path><path clip-path="url(#clip180)" d="M262.408 1408.98 Q258.796 1408.98 256.968 1412.54 Q255.162 1416.08 255.162 1423.21 Q255.162 1430.32 256.968 1433.89 Q258.796 1437.43 262.408 1437.43 Q266.042 1437.43 267.847 1433.89 Q269.676 1430.32 269.676 1423.21 Q269.676 1416.08 267.847 1412.54 Q266.042 1408.98 262.408 1408.98 M262.408 1405.27 Q268.218 1405.27 271.273 1409.88 Q274.352 1414.46 274.352 1423.21 Q274.352 1431.94 271.273 1436.55 Q268.218 1441.13 262.408 1441.13 Q256.597 1441.13 253.519 1436.55 Q250.463 1431.94 250.463 1423.21 Q250.463 1414.46 253.519 1409.88 Q256.597 1405.27 262.408 1405.27 Z" fill="#000000" fill-rule="evenodd" fill-opacity="1"></path><path clip-path="url(#clip180)" d="M128.288 1133.79 Q124.677 1133.79 122.848 1137.36 Q121.043 1140.9 121.043 1148.03 Q121.043 1155.13 122.848 1158.7 Q124.677 1162.24 128.288 1162.24 Q131.922 1162.24 133.728 1158.7 Q135.556 1155.13 135.556 1148.03 Q135.556 1140.9 133.728 1137.36 Q131.922 1133.79 128.288 1133.79 M128.288 1130.09 Q134.098 1130.09 137.154 1134.69 Q140.232 1139.28 140.232 1148.03 Q140.232 1156.75 137.154 1161.36 Q134.098 1165.94 128.288 1165.94 Q122.478 1165.94 119.399 1161.36 Q116.343 1156.75 116.343 1148.03 Q116.343 1139.28 119.399 1134.69 Q122.478 1130.09 128.288 1130.09 Z" fill="#000000" fill-rule="evenodd" fill-opacity="1"></path><path clip-path="url(#clip180)" d="M148.45 1159.39 L153.334 1159.39 L153.334 1165.27 L148.45 1165.27 L148.45 1159.39 Z" fill="#000000" fill-rule="evenodd" fill-opacity="1"></path><path clip-path="url(#clip180)" d="M173.519 1133.79 Q169.908 1133.79 168.079 1137.36 Q166.274 1140.9 166.274 1148.03 Q166.274 1155.13 168.079 1158.7 Q169.908 1162.24 173.519 1162.24 Q177.153 1162.24 178.959 1158.7 Q180.788 1155.13 180.788 1148.03 Q180.788 1140.9 178.959 1137.36 Q177.153 1133.79 173.519 1133.79 M173.519 1130.09 Q179.329 1130.09 182.385 1134.69 Q185.463 1139.28 185.463 1148.03 Q185.463 1156.75 182.385 1161.36 Q179.329 1165.94 173.519 1165.94 Q167.709 1165.94 164.63 1161.36 Q161.575 1156.75 161.575 1148.03 Q161.575 1139.28 164.63 1134.69 Q167.709 1130.09 173.519 1130.09 Z" fill="#000000" fill-rule="evenodd" fill-opacity="1"></path><path clip-path="url(#clip180)" d="M203.681 1133.79 Q200.07 1133.79 198.241 1137.36 Q196.436 1140.9 196.436 1148.03 Q196.436 1155.13 198.241 1158.7 Q200.07 1162.24 203.681 1162.24 Q207.315 1162.24 209.121 1158.7 Q210.949 1155.13 210.949 1148.03 Q210.949 1140.9 209.121 1137.36 Q207.315 1133.79 203.681 1133.79 M203.681 1130.09 Q209.491 1130.09 212.547 1134.69 Q215.625 1139.28 215.625 1148.03 Q215.625 1156.75 212.547 1161.36 Q209.491 1165.94 203.681 1165.94 Q197.871 1165.94 194.792 1161.36 Q191.737 1156.75 191.737 1148.03 Q191.737 1139.28 194.792 1134.69 Q197.871 1130.09 203.681 1130.09 Z" fill="#000000" fill-rule="evenodd" fill-opacity="1"></path><path clip-path="url(#clip180)" d="M233.843 1133.79 Q230.232 1133.79 228.403 1137.36 Q226.598 1140.9 226.598 1148.03 Q226.598 1155.13 228.403 1158.7 Q230.232 1162.24 233.843 1162.24 Q237.477 1162.24 239.283 1158.7 Q241.111 1155.13 241.111 1148.03 Q241.111 1140.9 239.283 1137.36 Q237.477 1133.79 233.843 1133.79 M233.843 1130.09 Q239.653 1130.09 242.709 1134.69 Q245.787 1139.28 245.787 1148.03 Q245.787 1156.75 242.709 1161.36 Q239.653 1165.94 233.843 1165.94 Q228.033 1165.94 224.954 1161.36 Q221.898 1156.75 221.898 1148.03 Q221.898 1139.28 224.954 1134.69 Q228.033 1130.09 233.843 1130.09 Z" fill="#000000" fill-rule="evenodd" fill-opacity="1"></path><path clip-path="url(#clip180)" d="M258.033 1161.34 L274.352 1161.34 L274.352 1165.27 L252.408 1165.27 L252.408 1161.34 Q255.07 1158.58 259.653 1153.95 Q264.259 1149.3 265.44 1147.96 Q267.685 1145.43 268.565 1143.7 Q269.468 1141.94 269.468 1140.25 Q269.468 1137.5 267.523 1135.76 Q265.602 1134.02 262.5 1134.02 Q260.301 1134.02 257.847 1134.79 Q255.417 1135.55 252.639 1137.1 L252.639 1132.38 Q255.463 1131.25 257.917 1130.67 Q260.37 1130.09 262.408 1130.09 Q267.778 1130.09 270.972 1132.77 Q274.167 1135.46 274.167 1139.95 Q274.167 1142.08 273.357 1144 Q272.569 1145.9 270.463 1148.49 Q269.884 1149.16 266.782 1152.38 Q263.681 1155.57 258.033 1161.34 Z" fill="#000000" fill-rule="evenodd" fill-opacity="1"></path><path clip-path="url(#clip180)" d="M126.205 858.604 Q122.593 858.604 120.765 862.169 Q118.959 865.711 118.959 872.84 Q118.959 879.947 120.765 883.512 Q122.593 887.053 126.205 887.053 Q129.839 887.053 131.644 883.512 Q133.473 879.947 133.473 872.84 Q133.473 865.711 131.644 862.169 Q129.839 858.604 126.205 858.604 M126.205 854.901 Q132.015 854.901 135.07 859.507 Q138.149 864.09 138.149 872.84 Q138.149 881.567 135.07 886.174 Q132.015 890.757 126.205 890.757 Q120.394 890.757 117.316 886.174 Q114.26 881.567 114.26 872.84 Q114.26 864.09 117.316 859.507 Q120.394 854.901 126.205 854.901 Z" fill="#000000" fill-rule="evenodd" fill-opacity="1"></path><path clip-path="url(#clip180)" d="M146.366 884.206 L151.251 884.206 L151.251 890.086 L146.366 890.086 L146.366 884.206 Z" fill="#000000" fill-rule="evenodd" fill-opacity="1"></path><path clip-path="url(#clip180)" d="M171.436 858.604 Q167.825 858.604 165.996 862.169 Q164.19 865.711 164.19 872.84 Q164.19 879.947 165.996 883.512 Q167.825 887.053 171.436 887.053 Q175.07 887.053 176.876 883.512 Q178.704 879.947 178.704 872.84 Q178.704 865.711 176.876 862.169 Q175.07 858.604 171.436 858.604 M171.436 854.901 Q177.246 854.901 180.301 859.507 Q183.38 864.09 183.38 872.84 Q183.38 881.567 180.301 886.174 Q177.246 890.757 171.436 890.757 Q165.626 890.757 162.547 886.174 Q159.491 881.567 159.491 872.84 Q159.491 864.09 162.547 859.507 Q165.626 854.901 171.436 854.901 Z" fill="#000000" fill-rule="evenodd" fill-opacity="1"></path><path clip-path="url(#clip180)" d="M201.598 858.604 Q197.987 858.604 196.158 862.169 Q194.352 865.711 194.352 872.84 Q194.352 879.947 196.158 883.512 Q197.987 887.053 201.598 887.053 Q205.232 887.053 207.037 883.512 Q208.866 879.947 208.866 872.84 Q208.866 865.711 207.037 862.169 Q205.232 858.604 201.598 858.604 M201.598 854.901 Q207.408 854.901 210.463 859.507 Q213.542 864.09 213.542 872.84 Q213.542 881.567 210.463 886.174 Q207.408 890.757 201.598 890.757 Q195.787 890.757 192.709 886.174 Q189.653 881.567 189.653 872.84 Q189.653 864.09 192.709 859.507 Q195.787 854.901 201.598 854.901 Z" fill="#000000" fill-rule="evenodd" fill-opacity="1"></path><path clip-path="url(#clip180)" d="M231.76 858.604 Q228.148 858.604 226.32 862.169 Q224.514 865.711 224.514 872.84 Q224.514 879.947 226.32 883.512 Q228.148 887.053 231.76 887.053 Q235.394 887.053 237.199 883.512 Q239.028 879.947 239.028 872.84 Q239.028 865.711 237.199 862.169 Q235.394 858.604 231.76 858.604 M231.76 854.901 Q237.57 854.901 240.625 859.507 Q243.704 864.09 243.704 872.84 Q243.704 881.567 240.625 886.174 Q237.57 890.757 231.76 890.757 Q225.949 890.757 222.871 886.174 Q219.815 881.567 219.815 872.84 Q219.815 864.09 222.871 859.507 Q225.949 854.901 231.76 854.901 Z" fill="#000000" fill-rule="evenodd" fill-opacity="1"></path><path clip-path="url(#clip180)" d="M264.769 859.6 L252.963 878.049 L264.769 878.049 L264.769 859.6 M263.542 855.526 L269.421 855.526 L269.421 878.049 L274.352 878.049 L274.352 881.937 L269.421 881.937 L269.421 890.086 L264.769 890.086 L264.769 881.937 L249.167 881.937 L249.167 877.424 L263.542 855.526 Z" fill="#000000" fill-rule="evenodd" fill-opacity="1"></path><path clip-path="url(#clip180)" d="M126.529 583.417 Q122.918 583.417 121.089 586.982 Q119.283 590.524 119.283 597.653 Q119.283 604.76 121.089 608.324 Q122.918 611.866 126.529 611.866 Q130.163 611.866 131.968 608.324 Q133.797 604.76 133.797 597.653 Q133.797 590.524 131.968 586.982 Q130.163 583.417 126.529 583.417 M126.529 579.713 Q132.339 579.713 135.394 584.32 Q138.473 588.903 138.473 597.653 Q138.473 606.38 135.394 610.986 Q132.339 615.57 126.529 615.57 Q120.718 615.57 117.64 610.986 Q114.584 606.38 114.584 597.653 Q114.584 588.903 117.64 584.32 Q120.718 579.713 126.529 579.713 Z" fill="#000000" fill-rule="evenodd" fill-opacity="1"></path><path clip-path="url(#clip180)" d="M146.691 609.019 L151.575 609.019 L151.575 614.898 L146.691 614.898 L146.691 609.019 Z" fill="#000000" fill-rule="evenodd" fill-opacity="1"></path><path clip-path="url(#clip180)" d="M171.76 583.417 Q168.149 583.417 166.32 586.982 Q164.515 590.524 164.515 597.653 Q164.515 604.76 166.32 608.324 Q168.149 611.866 171.76 611.866 Q175.394 611.866 177.2 608.324 Q179.028 604.76 179.028 597.653 Q179.028 590.524 177.2 586.982 Q175.394 583.417 171.76 583.417 M171.76 579.713 Q177.57 579.713 180.626 584.32 Q183.704 588.903 183.704 597.653 Q183.704 606.38 180.626 610.986 Q177.57 615.57 171.76 615.57 Q165.95 615.57 162.871 610.986 Q159.815 606.38 159.815 597.653 Q159.815 588.903 162.871 584.32 Q165.95 579.713 171.76 579.713 Z" fill="#000000" fill-rule="evenodd" fill-opacity="1"></path><path clip-path="url(#clip180)" d="M201.922 583.417 Q198.311 583.417 196.482 586.982 Q194.676 590.524 194.676 597.653 Q194.676 604.76 196.482 608.324 Q198.311 611.866 201.922 611.866 Q205.556 611.866 207.362 608.324 Q209.19 604.76 209.19 597.653 Q209.19 590.524 207.362 586.982 Q205.556 583.417 201.922 583.417 M201.922 579.713 Q207.732 579.713 210.787 584.32 Q213.866 588.903 213.866 597.653 Q213.866 606.38 210.787 610.986 Q207.732 615.57 201.922 615.57 Q196.112 615.57 193.033 610.986 Q189.977 606.38 189.977 597.653 Q189.977 588.903 193.033 584.32 Q196.112 579.713 201.922 579.713 Z" fill="#000000" fill-rule="evenodd" fill-opacity="1"></path><path clip-path="url(#clip180)" d="M232.084 583.417 Q228.473 583.417 226.644 586.982 Q224.838 590.524 224.838 597.653 Q224.838 604.76 226.644 608.324 Q228.473 611.866 232.084 611.866 Q235.718 611.866 237.523 608.324 Q239.352 604.76 239.352 597.653 Q239.352 590.524 237.523 586.982 Q235.718 583.417 232.084 583.417 M232.084 579.713 Q237.894 579.713 240.949 584.32 Q244.028 588.903 244.028 597.653 Q244.028 606.38 240.949 610.986 Q237.894 615.57 232.084 615.57 Q226.273 615.57 223.195 610.986 Q220.139 606.38 220.139 597.653 Q220.139 588.903 223.195 584.32 Q226.273 579.713 232.084 579.713 Z" fill="#000000" fill-rule="evenodd" fill-opacity="1"></path><path clip-path="url(#clip180)" d="M262.824 595.755 Q259.676 595.755 257.824 597.908 Q255.996 600.061 255.996 603.81 Q255.996 607.537 257.824 609.713 Q259.676 611.866 262.824 611.866 Q265.972 611.866 267.801 609.713 Q269.653 607.537 269.653 603.81 Q269.653 600.061 267.801 597.908 Q265.972 595.755 262.824 595.755 M272.107 581.102 L272.107 585.362 Q270.347 584.528 268.542 584.088 Q266.759 583.649 265 583.649 Q260.37 583.649 257.917 586.774 Q255.486 589.899 255.139 596.218 Q256.505 594.204 258.565 593.139 Q260.625 592.051 263.102 592.051 Q268.31 592.051 271.32 595.223 Q274.352 598.371 274.352 603.81 Q274.352 609.135 271.204 612.352 Q268.056 615.57 262.824 615.57 Q256.829 615.57 253.658 610.986 Q250.486 606.38 250.486 597.653 Q250.486 589.459 254.375 584.598 Q258.264 579.713 264.815 579.713 Q266.574 579.713 268.357 580.061 Q270.162 580.408 272.107 581.102 Z" fill="#000000" fill-rule="evenodd" fill-opacity="1"></path><path clip-path="url(#clip180)" d="M126.783 308.23 Q123.172 308.23 121.343 311.795 Q119.538 315.336 119.538 322.466 Q119.538 329.572 121.343 333.137 Q123.172 336.679 126.783 336.679 Q130.417 336.679 132.223 333.137 Q134.052 329.572 134.052 322.466 Q134.052 315.336 132.223 311.795 Q130.417 308.23 126.783 308.23 M126.783 304.526 Q132.593 304.526 135.649 309.133 Q138.728 313.716 138.728 322.466 Q138.728 331.193 135.649 335.799 Q132.593 340.383 126.783 340.383 Q120.973 340.383 117.894 335.799 Q114.839 331.193 114.839 322.466 Q114.839 313.716 117.894 309.133 Q120.973 304.526 126.783 304.526 Z" fill="#000000" fill-rule="evenodd" fill-opacity="1"></path><path clip-path="url(#clip180)" d="M146.945 333.832 L151.829 333.832 L151.829 339.711 L146.945 339.711 L146.945 333.832 Z" fill="#000000" fill-rule="evenodd" fill-opacity="1"></path><path clip-path="url(#clip180)" d="M172.014 308.23 Q168.403 308.23 166.575 311.795 Q164.769 315.336 164.769 322.466 Q164.769 329.572 166.575 333.137 Q168.403 336.679 172.014 336.679 Q175.649 336.679 177.454 333.137 Q179.283 329.572 179.283 322.466 Q179.283 315.336 177.454 311.795 Q175.649 308.23 172.014 308.23 M172.014 304.526 Q177.825 304.526 180.88 309.133 Q183.959 313.716 183.959 322.466 Q183.959 331.193 180.88 335.799 Q177.825 340.383 172.014 340.383 Q166.204 340.383 163.126 335.799 Q160.07 331.193 160.07 322.466 Q160.07 313.716 163.126 309.133 Q166.204 304.526 172.014 304.526 Z" fill="#000000" fill-rule="evenodd" fill-opacity="1"></path><path clip-path="url(#clip180)" d="M202.176 308.23 Q198.565 308.23 196.737 311.795 Q194.931 315.336 194.931 322.466 Q194.931 329.572 196.737 333.137 Q198.565 336.679 202.176 336.679 Q205.811 336.679 207.616 333.137 Q209.445 329.572 209.445 322.466 Q209.445 315.336 207.616 311.795 Q205.811 308.23 202.176 308.23 M202.176 304.526 Q207.987 304.526 211.042 309.133 Q214.121 313.716 214.121 322.466 Q214.121 331.193 211.042 335.799 Q207.987 340.383 202.176 340.383 Q196.366 340.383 193.288 335.799 Q190.232 331.193 190.232 322.466 Q190.232 313.716 193.288 309.133 Q196.366 304.526 202.176 304.526 Z" fill="#000000" fill-rule="evenodd" fill-opacity="1"></path><path clip-path="url(#clip180)" d="M232.338 308.23 Q228.727 308.23 226.898 311.795 Q225.093 315.336 225.093 322.466 Q225.093 329.572 226.898 333.137 Q228.727 336.679 232.338 336.679 Q235.972 336.679 237.778 333.137 Q239.607 329.572 239.607 322.466 Q239.607 315.336 237.778 311.795 Q235.972 308.23 232.338 308.23 M232.338 304.526 Q238.148 304.526 241.204 309.133 Q244.283 313.716 244.283 322.466 Q244.283 331.193 241.204 335.799 Q238.148 340.383 232.338 340.383 Q226.528 340.383 223.449 335.799 Q220.394 331.193 220.394 322.466 Q220.394 313.716 223.449 309.133 Q226.528 304.526 232.338 304.526 Z" fill="#000000" fill-rule="evenodd" fill-opacity="1"></path><path clip-path="url(#clip180)" d="M262.5 323.299 Q259.167 323.299 257.246 325.082 Q255.347 326.864 255.347 329.989 Q255.347 333.114 257.246 334.896 Q259.167 336.679 262.5 336.679 Q265.833 336.679 267.755 334.896 Q269.676 333.091 269.676 329.989 Q269.676 326.864 267.755 325.082 Q265.857 323.299 262.5 323.299 M257.824 321.309 Q254.815 320.568 253.125 318.508 Q251.458 316.447 251.458 313.485 Q251.458 309.341 254.398 306.934 Q257.361 304.526 262.5 304.526 Q267.662 304.526 270.602 306.934 Q273.542 309.341 273.542 313.485 Q273.542 316.447 271.852 318.508 Q270.185 320.568 267.199 321.309 Q270.579 322.096 272.454 324.387 Q274.352 326.679 274.352 329.989 Q274.352 335.012 271.273 337.697 Q268.218 340.383 262.5 340.383 Q256.783 340.383 253.704 337.697 Q250.648 335.012 250.648 329.989 Q250.648 326.679 252.546 324.387 Q254.445 322.096 257.824 321.309 M256.111 313.924 Q256.111 316.61 257.778 318.114 Q259.468 319.619 262.5 319.619 Q265.509 319.619 267.199 318.114 Q268.912 316.61 268.912 313.924 Q268.912 311.239 267.199 309.735 Q265.509 308.23 262.5 308.23 Q259.468 308.23 257.778 309.735 Q256.111 311.239 256.111 313.924 Z" fill="#000000" fill-rule="evenodd" fill-opacity="1"></path><path clip-path="url(#clip180)" d="M126.691 33.0428 Q123.08 33.0428 121.251 36.6076 Q119.445 40.1492 119.445 47.2788 Q119.445 54.3853 121.251 57.9501 Q123.08 61.4917 126.691 61.4917 Q130.325 61.4917 132.13 57.9501 Q133.959 54.3853 133.959 47.2788 Q133.959 40.1492 132.13 36.6076 Q130.325 33.0428 126.691 33.0428 M126.691 29.3391 Q132.501 29.3391 135.556 33.9456 Q138.635 38.5289 138.635 47.2788 Q138.635 56.0056 135.556 60.6121 Q132.501 65.1954 126.691 65.1954 Q120.88 65.1954 117.802 60.6121 Q114.746 56.0056 114.746 47.2788 Q114.746 38.5289 117.802 33.9456 Q120.88 29.3391 126.691 29.3391 Z" fill="#000000" fill-rule="evenodd" fill-opacity="1"></path><path clip-path="url(#clip180)" d="M146.853 58.6445 L151.737 58.6445 L151.737 64.5241 L146.853 64.5241 L146.853 58.6445 Z" fill="#000000" fill-rule="evenodd" fill-opacity="1"></path><path clip-path="url(#clip180)" d="M171.922 33.0428 Q168.311 33.0428 166.482 36.6076 Q164.677 40.1492 164.677 47.2788 Q164.677 54.3853 166.482 57.9501 Q168.311 61.4917 171.922 61.4917 Q175.556 61.4917 177.362 57.9501 Q179.19 54.3853 179.19 47.2788 Q179.19 40.1492 177.362 36.6076 Q175.556 33.0428 171.922 33.0428 M171.922 29.3391 Q177.732 29.3391 180.788 33.9456 Q183.866 38.5289 183.866 47.2788 Q183.866 56.0056 180.788 60.6121 Q177.732 65.1954 171.922 65.1954 Q166.112 65.1954 163.033 60.6121 Q159.978 56.0056 159.978 47.2788 Q159.978 38.5289 163.033 33.9456 Q166.112 29.3391 171.922 29.3391 Z" fill="#000000" fill-rule="evenodd" fill-opacity="1"></path><path clip-path="url(#clip180)" d="M202.084 33.0428 Q198.473 33.0428 196.644 36.6076 Q194.838 40.1492 194.838 47.2788 Q194.838 54.3853 196.644 57.9501 Q198.473 61.4917 202.084 61.4917 Q205.718 61.4917 207.524 57.9501 Q209.352 54.3853 209.352 47.2788 Q209.352 40.1492 207.524 36.6076 Q205.718 33.0428 202.084 33.0428 M202.084 29.3391 Q207.894 29.3391 210.949 33.9456 Q214.028 38.5289 214.028 47.2788 Q214.028 56.0056 210.949 60.6121 Q207.894 65.1954 202.084 65.1954 Q196.274 65.1954 193.195 60.6121 Q190.139 56.0056 190.139 47.2788 Q190.139 38.5289 193.195 33.9456 Q196.274 29.3391 202.084 29.3391 Z" fill="#000000" fill-rule="evenodd" fill-opacity="1"></path><path clip-path="url(#clip180)" d="M223.056 60.5889 L230.695 60.5889 L230.695 34.2233 L222.385 35.89 L222.385 31.6308 L230.648 29.9641 L235.324 29.9641 L235.324 60.5889 L242.963 60.5889 L242.963 64.5241 L223.056 64.5241 L223.056 60.5889 Z" fill="#000000" fill-rule="evenodd" fill-opacity="1"></path><path clip-path="url(#clip180)" d="M262.408 33.0428 Q258.796 33.0428 256.968 36.6076 Q255.162 40.1492 255.162 47.2788 Q255.162 54.3853 256.968 57.9501 Q258.796 61.4917 262.408 61.4917 Q266.042 61.4917 267.847 57.9501 Q269.676 54.3853 269.676 47.2788 Q269.676 40.1492 267.847 36.6076 Q266.042 33.0428 262.408 33.0428 M262.408 29.3391 Q268.218 29.3391 271.273 33.9456 Q274.352 38.5289 274.352 47.2788 Q274.352 56.0056 271.273 60.6121 Q268.218 65.1954 262.408 65.1954 Q256.597 65.1954 253.519 60.6121 Q250.463 56.0056 250.463 47.2788 Q250.463 38.5289 253.519 33.9456 Q256.597 29.3391 262.408 29.3391 Z" fill="#000000" fill-rule="evenodd" fill-opacity="1"></path><path clip-path="url(#clip180)" d="M21.7677 1218.11 L39.6235 1218.11 L39.6235 1210.03 Q39.6235 1205.54 37.3 1203.09 Q34.9765 1200.64 30.6797 1200.64 Q26.4147 1200.64 24.0912 1203.09 Q21.7677 1205.54 21.7677 1210.03 L21.7677 1218.11 M16.4842 1224.54 L16.4842 1210.03 Q16.4842 1202.04 20.1126 1197.97 Q23.7092 1193.86 30.6797 1193.86 Q37.7138 1193.86 41.3104 1197.97 Q44.907 1202.04 44.907 1210.03 L44.907 1218.11 L64.0042 1218.11 L64.0042 1224.54 L16.4842 1224.54 Z" fill="#000000" fill-rule="evenodd" fill-opacity="1"></path><path clip-path="url(#clip180)" d="M33.8307 1165.98 Q33.2578 1166.97 33.0032 1168.14 Q32.7167 1169.29 32.7167 1170.69 Q32.7167 1175.66 35.9632 1178.33 Q39.1779 1180.97 45.2253 1180.97 L64.0042 1180.97 L64.0042 1186.86 L28.3562 1186.86 L28.3562 1180.97 L33.8944 1180.97 Q30.6479 1179.12 29.0883 1176.16 Q27.4968 1173.2 27.4968 1168.97 Q27.4968 1168.37 27.5923 1167.63 Q27.656 1166.9 27.8151 1166.01 L33.8307 1165.98 Z" fill="#000000" fill-rule="evenodd" fill-opacity="1"></path><path clip-path="url(#clip180)" d="M44.7161 1130.78 L47.5806 1130.78 L47.5806 1157.7 Q53.6281 1157.32 56.8109 1154.08 Q59.9619 1150.8 59.9619 1144.97 Q59.9619 1141.6 59.1344 1138.45 Q58.3069 1135.26 56.6518 1132.15 L62.1899 1132.15 Q63.5267 1135.3 64.227 1138.61 Q64.9272 1141.92 64.9272 1145.32 Q64.9272 1153.85 59.9619 1158.85 Q54.9967 1163.81 46.5303 1163.81 Q37.7774 1163.81 32.6531 1159.1 Q27.4968 1154.36 27.4968 1146.34 Q27.4968 1139.15 32.1438 1134.98 Q36.7589 1130.78 44.7161 1130.78 M42.9973 1136.63 Q38.1912 1136.7 35.3266 1139.34 Q32.4621 1141.95 32.4621 1146.28 Q32.4621 1151.18 35.2312 1154.14 Q38.0002 1157.07 43.0292 1157.51 L42.9973 1136.63 Z" fill="#000000" fill-rule="evenodd" fill-opacity="1"></path><path clip-path="url(#clip180)" d="M33.7671 1097.71 L14.479 1097.71 L14.479 1091.85 L64.0042 1091.85 L64.0042 1097.71 L58.657 1097.71 Q61.8398 1099.55 63.3994 1102.39 Q64.9272 1105.19 64.9272 1109.13 Q64.9272 1115.59 59.771 1119.67 Q54.6147 1123.71 46.212 1123.71 Q37.8093 1123.71 32.6531 1119.67 Q27.4968 1115.59 27.4968 1109.13 Q27.4968 1105.19 29.0564 1102.39 Q30.5842 1099.55 33.7671 1097.71 M46.212 1117.66 Q52.6732 1117.66 56.3653 1115.02 Q60.0256 1112.35 60.0256 1107.7 Q60.0256 1103.05 56.3653 1100.38 Q52.6732 1097.71 46.212 1097.71 Q39.7508 1097.71 36.0905 1100.38 Q32.3984 1103.05 32.3984 1107.7 Q32.3984 1112.35 36.0905 1115.02 Q39.7508 1117.66 46.212 1117.66 Z" fill="#000000" fill-rule="evenodd" fill-opacity="1"></path><path clip-path="url(#clip180)" d="M28.3562 1079.79 L28.3562 1073.93 L64.0042 1073.93 L64.0042 1079.79 L28.3562 1079.79 M14.479 1079.79 L14.479 1073.93 L21.895 1073.93 L21.895 1079.79 L14.479 1079.79 Z" fill="#000000" fill-rule="evenodd" fill-opacity="1"></path><path clip-path="url(#clip180)" d="M29.7248 1036.02 L35.1993 1036.02 Q33.8307 1038.51 33.1623 1041.02 Q32.4621 1043.5 32.4621 1046.05 Q32.4621 1051.75 36.0905 1054.9 Q39.6872 1058.05 46.212 1058.05 Q52.7369 1058.05 56.3653 1054.9 Q59.9619 1051.75 59.9619 1046.05 Q59.9619 1043.5 59.2935 1041.02 Q58.5933 1038.51 57.2247 1036.02 L62.6355 1036.02 Q63.7814 1038.47 64.3543 1041.12 Q64.9272 1043.73 64.9272 1046.69 Q64.9272 1054.74 59.8664 1059.48 Q54.8057 1064.22 46.212 1064.22 Q37.491 1064.22 32.4939 1059.45 Q27.4968 1054.64 27.4968 1046.3 Q27.4968 1043.6 28.0697 1041.02 Q28.6108 1038.44 29.7248 1036.02 Z" fill="#000000" fill-rule="evenodd" fill-opacity="1"></path><path clip-path="url(#clip180)" d="M18.2347 1020.05 L28.3562 1020.05 L28.3562 1007.98 L32.9077 1007.98 L32.9077 1020.05 L52.2594 1020.05 Q56.6199 1020.05 57.8613 1018.87 Q59.1026 1017.66 59.1026 1014 L59.1026 1007.98 L64.0042 1007.98 L64.0042 1014 Q64.0042 1020.78 61.4897 1023.36 Q58.9434 1025.93 52.2594 1025.93 L32.9077 1025.93 L32.9077 1030.23 L28.3562 1030.23 L28.3562 1025.93 L18.2347 1025.93 L18.2347 1020.05 Z" fill="#000000" fill-rule="evenodd" fill-opacity="1"></path><path clip-path="url(#clip180)" d="M28.3562 1000.28 L28.3562 994.424 L64.0042 994.424 L64.0042 1000.28 L28.3562 1000.28 M14.479 1000.28 L14.479 994.424 L21.895 994.424 L21.895 1000.28 L14.479 1000.28 Z" fill="#000000" fill-rule="evenodd" fill-opacity="1"></path><path clip-path="url(#clip180)" d="M32.4621 968.356 Q32.4621 973.067 36.1542 975.804 Q39.8145 978.541 46.212 978.541 Q52.6095 978.541 56.3017 975.836 Q59.9619 973.098 59.9619 968.356 Q59.9619 963.677 56.2698 960.94 Q52.5777 958.203 46.212 958.203 Q39.8781 958.203 36.186 960.94 Q32.4621 963.677 32.4621 968.356 M27.4968 968.356 Q27.4968 960.717 32.4621 956.357 Q37.4273 951.996 46.212 951.996 Q54.9649 951.996 59.9619 956.357 Q64.9272 960.717 64.9272 968.356 Q64.9272 976.027 59.9619 980.387 Q54.9649 984.716 46.212 984.716 Q37.4273 984.716 32.4621 980.387 Q27.4968 976.027 27.4968 968.356 Z" fill="#000000" fill-rule="evenodd" fill-opacity="1"></path><path clip-path="url(#clip180)" d="M42.4881 912.656 L64.0042 912.656 L64.0042 918.512 L42.679 918.512 Q37.6183 918.512 35.1038 920.486 Q32.5894 922.459 32.5894 926.406 Q32.5894 931.148 35.6131 933.886 Q38.6368 936.623 43.8567 936.623 L64.0042 936.623 L64.0042 942.511 L28.3562 942.511 L28.3562 936.623 L33.8944 936.623 Q30.6797 934.522 29.0883 931.69 Q27.4968 928.825 27.4968 925.101 Q27.4968 918.958 31.3163 915.807 Q35.1038 912.656 42.4881 912.656 Z" fill="#000000" fill-rule="evenodd" fill-opacity="1"></path><path clip-path="url(#clip180)" d="M44.7161 849.763 L47.5806 849.763 L47.5806 876.69 Q53.6281 876.308 56.8109 873.061 Q59.9619 869.783 59.9619 863.958 Q59.9619 860.585 59.1344 857.434 Q58.3069 854.251 56.6518 851.131 L62.1899 851.131 Q63.5267 854.283 64.227 857.593 Q64.9272 860.903 64.9272 864.308 Q64.9272 872.839 59.9619 877.836 Q54.9967 882.801 46.5303 882.801 Q37.7774 882.801 32.6531 878.09 Q27.4968 873.348 27.4968 865.327 Q27.4968 858.134 32.1438 853.964 Q36.7589 849.763 44.7161 849.763 M42.9973 855.619 Q38.1912 855.683 35.3266 858.325 Q32.4621 860.935 32.4621 865.263 Q32.4621 870.165 35.2312 873.125 Q38.0002 876.053 43.0292 876.499 L42.9973 855.619 Z" fill="#000000" fill-rule="evenodd" fill-opacity="1"></path><path clip-path="url(#clip180)" d="M33.8307 819.494 Q33.2578 820.481 33.0032 821.658 Q32.7167 822.804 32.7167 824.205 Q32.7167 829.17 35.9632 831.843 Q39.1779 834.485 45.2253 834.485 L64.0042 834.485 L64.0042 840.373 L28.3562 840.373 L28.3562 834.485 L33.8944 834.485 Q30.6479 832.639 29.0883 829.679 Q27.4968 826.719 27.4968 822.486 Q27.4968 821.881 27.5923 821.149 Q27.656 820.417 27.8151 819.526 L33.8307 819.494 Z" fill="#000000" fill-rule="evenodd" fill-opacity="1"></path><path clip-path="url(#clip180)" d="M33.8307 793.84 Q33.2578 794.827 33.0032 796.004 Q32.7167 797.15 32.7167 798.551 Q32.7167 803.516 35.9632 806.19 Q39.1779 808.831 45.2253 808.831 L64.0042 808.831 L64.0042 814.72 L28.3562 814.72 L28.3562 808.831 L33.8944 808.831 Q30.6479 806.985 29.0883 804.025 Q27.4968 801.065 27.4968 796.832 Q27.4968 796.227 27.5923 795.495 Q27.656 794.763 27.8151 793.872 L33.8307 793.84 Z" fill="#000000" fill-rule="evenodd" fill-opacity="1"></path><path clip-path="url(#clip180)" d="M32.4621 775.316 Q32.4621 780.027 36.1542 782.764 Q39.8145 785.501 46.212 785.501 Q52.6095 785.501 56.3017 782.796 Q59.9619 780.058 59.9619 775.316 Q59.9619 770.637 56.2698 767.9 Q52.5777 765.163 46.212 765.163 Q39.8781 765.163 36.186 767.9 Q32.4621 770.637 32.4621 775.316 M27.4968 775.316 Q27.4968 767.677 32.4621 763.317 Q37.4273 758.956 46.212 758.956 Q54.9649 758.956 59.9619 763.317 Q64.9272 767.677 64.9272 775.316 Q64.9272 782.987 59.9619 787.347 Q54.9649 791.676 46.212 791.676 Q37.4273 791.676 32.4621 787.347 Q27.4968 782.987 27.4968 775.316 Z" fill="#000000" fill-rule="evenodd" fill-opacity="1"></path><path clip-path="url(#clip180)" d="M33.8307 728.592 Q33.2578 729.578 33.0032 730.756 Q32.7167 731.902 32.7167 733.302 Q32.7167 738.268 35.9632 740.941 Q39.1779 743.583 45.2253 743.583 L64.0042 743.583 L64.0042 749.471 L28.3562 749.471 L28.3562 743.583 L33.8944 743.583 Q30.6479 741.737 29.0883 738.777 Q27.4968 735.817 27.4968 731.584 Q27.4968 730.979 27.5923 730.247 Q27.656 729.515 27.8151 728.623 L33.8307 728.592 Z" fill="#000000" fill-rule="evenodd" fill-opacity="1"></path><path clip-path="url(#clip180)" d="M32.4621 687.915 Q32.4621 692.625 36.1542 695.363 Q39.8145 698.1 46.212 698.1 Q52.6095 698.1 56.3017 695.394 Q59.9619 692.657 59.9619 687.915 Q59.9619 683.236 56.2698 680.499 Q52.5777 677.761 46.212 677.761 Q39.8781 677.761 36.186 680.499 Q32.4621 683.236 32.4621 687.915 M27.4968 687.915 Q27.4968 680.276 32.4621 675.915 Q37.4273 671.555 46.212 671.555 Q54.9649 671.555 59.9619 675.915 Q64.9272 680.276 64.9272 687.915 Q64.9272 695.585 59.9619 699.946 Q54.9649 704.275 46.212 704.275 Q37.4273 704.275 32.4621 699.946 Q27.4968 695.585 27.4968 687.915 Z" fill="#000000" fill-rule="evenodd" fill-opacity="1"></path><path clip-path="url(#clip180)" d="M14.479 643.8 L19.3487 643.8 L19.3487 649.402 Q19.3487 652.553 20.6219 653.795 Q21.895 655.004 25.2052 655.004 L28.3562 655.004 L28.3562 645.36 L32.9077 645.36 L32.9077 655.004 L64.0042 655.004 L64.0042 660.892 L32.9077 660.892 L32.9077 666.494 L28.3562 666.494 L28.3562 660.892 L25.8736 660.892 Q19.9216 660.892 17.2162 658.123 Q14.479 655.354 14.479 649.339 L14.479 643.8 Z" fill="#000000" fill-rule="evenodd" fill-opacity="1"></path><path clip-path="url(#clip180)" d="M29.7248 592.525 L35.1993 592.525 Q33.8307 595.007 33.1623 597.522 Q32.4621 600.004 32.4621 602.551 Q32.4621 608.248 36.0905 611.399 Q39.6872 614.55 46.212 614.55 Q52.7369 614.55 56.3653 611.399 Q59.9619 608.248 59.9619 602.551 Q59.9619 600.004 59.2935 597.522 Q58.5933 595.007 57.2247 592.525 L62.6355 592.525 Q63.7814 594.975 64.3543 597.617 Q64.9272 600.227 64.9272 603.187 Q64.9272 611.24 59.8664 615.982 Q54.8057 620.725 46.212 620.725 Q37.491 620.725 32.4939 615.95 Q27.4968 611.144 27.4968 602.805 Q27.4968 600.1 28.0697 597.522 Q28.6108 594.944 29.7248 592.525 Z" fill="#000000" fill-rule="evenodd" fill-opacity="1"></path><path clip-path="url(#clip180)" d="M32.4621 568.526 Q32.4621 573.237 36.1542 575.974 Q39.8145 578.711 46.212 578.711 Q52.6095 578.711 56.3017 576.006 Q59.9619 573.268 59.9619 568.526 Q59.9619 563.847 56.2698 561.11 Q52.5777 558.373 46.212 558.373 Q39.8781 558.373 36.186 561.11 Q32.4621 563.847 32.4621 568.526 M27.4968 568.526 Q27.4968 560.887 32.4621 556.527 Q37.4273 552.166 46.212 552.166 Q54.9649 552.166 59.9619 556.527 Q64.9272 560.887 64.9272 568.526 Q64.9272 576.197 59.9619 580.557 Q54.9649 584.886 46.212 584.886 Q37.4273 584.886 32.4621 580.557 Q27.4968 576.197 27.4968 568.526 Z" fill="#000000" fill-rule="evenodd" fill-opacity="1"></path><path clip-path="url(#clip180)" d="M32.4621 528.645 Q32.4621 533.355 36.1542 536.093 Q39.8145 538.83 46.212 538.83 Q52.6095 538.83 56.3017 536.124 Q59.9619 533.387 59.9619 528.645 Q59.9619 523.966 56.2698 521.229 Q52.5777 518.491 46.212 518.491 Q39.8781 518.491 36.186 521.229 Q32.4621 523.966 32.4621 528.645 M27.4968 528.645 Q27.4968 521.006 32.4621 516.645 Q37.4273 512.285 46.212 512.285 Q54.9649 512.285 59.9619 516.645 Q64.9272 521.006 64.9272 528.645 Q64.9272 536.315 59.9619 540.676 Q54.9649 545.005 46.212 545.005 Q37.4273 545.005 32.4621 540.676 Q27.4968 536.315 27.4968 528.645 Z" fill="#000000" fill-rule="evenodd" fill-opacity="1"></path><path clip-path="url(#clip180)" d="M33.8307 481.921 Q33.2578 482.907 33.0032 484.085 Q32.7167 485.231 32.7167 486.631 Q32.7167 491.596 35.9632 494.27 Q39.1779 496.912 45.2253 496.912 L64.0042 496.912 L64.0042 502.8 L28.3562 502.8 L28.3562 496.912 L33.8944 496.912 Q30.6479 495.066 29.0883 492.106 Q27.4968 489.146 27.4968 484.912 Q27.4968 484.308 27.5923 483.576 Q27.656 482.844 27.8151 481.952 L33.8307 481.921 Z" fill="#000000" fill-rule="evenodd" fill-opacity="1"></path><path clip-path="url(#clip180)" d="M33.7671 453.466 L14.479 453.466 L14.479 447.609 L64.0042 447.609 L64.0042 453.466 L58.657 453.466 Q61.8398 455.312 63.3994 458.145 Q64.9272 460.945 64.9272 464.892 Q64.9272 471.353 59.771 475.427 Q54.6147 479.47 46.212 479.47 Q37.8093 479.47 32.6531 475.427 Q27.4968 471.353 27.4968 464.892 Q27.4968 460.945 29.0564 458.145 Q30.5842 455.312 33.7671 453.466 M46.212 473.422 Q52.6732 473.422 56.3653 470.781 Q60.0256 468.107 60.0256 463.46 Q60.0256 458.813 56.3653 456.139 Q52.6732 453.466 46.212 453.466 Q39.7508 453.466 36.0905 456.139 Q32.3984 458.813 32.3984 463.46 Q32.3984 468.107 36.0905 470.781 Q39.7508 473.422 46.212 473.422 Z" fill="#000000" fill-rule="evenodd" fill-opacity="1"></path><path clip-path="url(#clip180)" d="M28.3562 435.546 L28.3562 429.69 L64.0042 429.69 L64.0042 435.546 L28.3562 435.546 M14.479 435.546 L14.479 429.69 L21.895 429.69 L21.895 435.546 L14.479 435.546 Z" fill="#000000" fill-rule="evenodd" fill-opacity="1"></path><path clip-path="url(#clip180)" d="M42.4881 387.804 L64.0042 387.804 L64.0042 393.66 L42.679 393.66 Q37.6183 393.66 35.1038 395.633 Q32.5894 397.607 32.5894 401.553 Q32.5894 406.296 35.6131 409.033 Q38.6368 411.77 43.8567 411.77 L64.0042 411.77 L64.0042 417.659 L28.3562 417.659 L28.3562 411.77 L33.8944 411.77 Q30.6797 409.67 29.0883 406.837 Q27.4968 403.972 27.4968 400.248 Q27.4968 394.106 31.3163 390.955 Q35.1038 387.804 42.4881 387.804 Z" fill="#000000" fill-rule="evenodd" fill-opacity="1"></path><path clip-path="url(#clip180)" d="M46.0847 359.922 Q46.0847 367.019 47.7079 369.757 Q49.3312 372.494 53.2461 372.494 Q56.3653 372.494 58.2114 370.457 Q60.0256 368.388 60.0256 364.855 Q60.0256 359.985 56.5881 357.057 Q53.1188 354.097 47.3897 354.097 L46.0847 354.097 L46.0847 359.922 M43.6657 348.241 L64.0042 348.241 L64.0042 354.097 L58.5933 354.097 Q61.8398 356.102 63.3994 359.094 Q64.9272 362.086 64.9272 366.415 Q64.9272 371.889 61.8716 375.136 Q58.7843 378.35 53.6281 378.35 Q47.6125 378.35 44.5569 374.34 Q41.5014 370.298 41.5014 362.309 L41.5014 354.097 L40.9285 354.097 Q36.8862 354.097 34.6901 356.771 Q32.4621 359.412 32.4621 364.219 Q32.4621 367.274 33.1941 370.171 Q33.9262 373.067 35.3903 375.741 L29.9795 375.741 Q28.7381 372.526 28.1334 369.502 Q27.4968 366.478 27.4968 363.614 Q27.4968 355.88 31.5072 352.06 Q35.5176 348.241 43.6657 348.241 Z" fill="#000000" fill-rule="evenodd" fill-opacity="1"></path><path clip-path="url(#clip180)" d="M18.2347 330.385 L28.3562 330.385 L28.3562 318.322 L32.9077 318.322 L32.9077 330.385 L52.2594 330.385 Q56.6199 330.385 57.8613 329.207 Q59.1026 327.998 59.1026 324.337 L59.1026 318.322 L64.0042 318.322 L64.0042 324.337 Q64.0042 331.117 61.4897 333.695 Q58.9434 336.273 52.2594 336.273 L32.9077 336.273 L32.9077 340.57 L28.3562 340.57 L28.3562 336.273 L18.2347 336.273 L18.2347 330.385 Z" fill="#000000" fill-rule="evenodd" fill-opacity="1"></path><path clip-path="url(#clip180)" d="M44.7161 280.128 L47.5806 280.128 L47.5806 307.055 Q53.6281 306.673 56.8109 303.426 Q59.9619 300.148 59.9619 294.323 Q59.9619 290.949 59.1344 287.798 Q58.3069 284.615 56.6518 281.496 L62.1899 281.496 Q63.5267 284.647 64.227 287.957 Q64.9272 291.268 64.9272 294.673 Q64.9272 303.203 59.9619 308.2 Q54.9967 313.166 46.5303 313.166 Q37.7774 313.166 32.6531 308.455 Q27.4968 303.713 27.4968 295.692 Q27.4968 288.499 32.1438 284.329 Q36.7589 280.128 44.7161 280.128 M42.9973 285.984 Q38.1912 286.048 35.3266 288.689 Q32.4621 291.299 32.4621 295.628 Q32.4621 300.53 35.2312 303.49 Q38.0002 306.418 43.0292 306.864 L42.9973 285.984 Z" fill="#000000" fill-rule="evenodd" fill-opacity="1"></path><path clip-path="url(#clip180)" d="M29.4065 247.79 L34.9447 247.79 Q33.6716 250.272 33.035 252.946 Q32.3984 255.62 32.3984 258.484 Q32.3984 262.845 33.7352 265.041 Q35.072 267.205 37.7456 267.205 Q39.7826 267.205 40.9603 265.646 Q42.1061 264.086 43.1565 259.375 L43.6021 257.37 Q44.9389 251.132 47.3897 248.522 Q49.8086 245.88 54.1691 245.88 Q59.1344 245.88 62.0308 249.827 Q64.9272 253.742 64.9272 260.617 Q64.9272 263.481 64.3543 266.6 Q63.8132 269.688 62.6992 273.125 L56.6518 273.125 Q58.3387 269.879 59.198 266.728 Q60.0256 263.577 60.0256 260.489 Q60.0256 256.352 58.6251 254.124 Q57.1929 251.896 54.6147 251.896 Q52.2276 251.896 50.9545 253.519 Q49.6813 255.11 48.5037 260.553 L48.0262 262.59 Q46.8804 268.033 44.5251 270.452 Q42.138 272.871 38.0002 272.871 Q32.9713 272.871 30.2341 269.306 Q27.4968 265.741 27.4968 259.184 Q27.4968 255.938 27.9743 253.073 Q28.4517 250.209 29.4065 247.79 Z" fill="#000000" fill-rule="evenodd" fill-opacity="1"></path><polyline clip-path="url(#clip182)" style="stroke:#009af9; stroke-linecap:butt; stroke-linejoin:round; stroke-width:12; stroke-opacity:1; fill:none" points="
  368.156,1423.18 372.017,1366.66 375.878,1249.44 379.74,1122.57 383.601,1010.7 387.462,922.601 391.324,858.751 395.185,816.314 399.046,791.848 402.908,782.544 
  406.769,786.52 410.63,802.713 414.492,830.501 418.353,869.305 422.214,918.197 426.076,975.684 429.937,1039.54 433.798,1106.79 437.659,1173.82 441.521,1236.45 
  445.382,1290.33 449.243,1331.01 453.105,1354.46 456.966,1357.28 460.827,1337.04 464.689,1292.56 468.55,1224.08 472.411,1133.39 476.273,1023.81 480.134,900.045 
  483.995,767.957 487.857,634.206 491.718,505.745 495.579,389.285 499.44,290.993 503.302,215.993 507.163,168.012 511.024,149.066 514.886,159.578 518.747,198.34 
  522.608,262.445 526.47,347.744 530.331,449.211 534.192,561.401 538.054,678.789 541.915,796.183 545.776,909.014 549.638,1013.53 553.499,1106.87 557.36,1187.23 
  561.222,1253.62 565.083,1305.97 568.944,1344.8 572.805,1371.22 576.667,1386.65 580.528,1392.75 584.389,1391.24 588.251,1383.79 592.112,1371.95 595.973,1357.13 
  599.835,1340.5 603.696,1323.03 607.557,1305.44 611.419,1288.27 615.28,1271.84 619.141,1256.3 623.003,1241.67 626.864,1227.84 630.725,1214.65 634.587,1201.84 
  638.448,1189.15 642.309,1176.31 646.17,1163.05 650.032,1149.15 653.893,1134.41 657.754,1118.72 661.616,1102.02 665.477,1084.32 669.338,1065.71 673.2,1046.37 
  677.061,1026.52 680.922,1006.45 684.784,986.513 688.645,967.072 692.506,948.5 696.368,931.192 700.229,915.551 704.09,901.957 707.952,890.75 711.813,882.225 
  715.674,876.609 719.535,874.052 723.397,874.627 727.258,878.323 731.119,885.025 734.981,894.564 738.842,906.662 742.703,920.985 746.565,937.133 750.426,954.654 
  754.287,973.057 758.149,991.83 762.01,1010.45 765.871,1028.4 769.733,1045.21 773.594,1060.42 777.455,1073.64 781.316,1084.52 785.178,1092.78 789.039,1098.22 
  792.9,1100.71 796.762,1100.19 800.623,1096.68 804.484,1090.3 808.346,1081.21 812.207,1069.65 816.068,1055.9 819.93,1040.32 823.791,1023.29 827.652,1005.22 
  831.514,986.555 835.375,967.733 839.236,949.203 843.098,931.403 846.959,914.753 850.82,899.635 854.681,886.405 858.543,875.368 862.404,866.776 866.265,860.832 
  870.127,857.69 873.988,857.448 877.849,860.15 881.711,865.783 885.572,874.282 889.433,885.534 893.295,899.379 897.156,915.617 901.017,934.014 904.879,954.307 
  908.74,976.209 912.601,999.419 916.463,1023.62 920.324,1048.51 924.185,1073.77 928.046,1099.09 931.908,1124.18 935.769,1148.78 939.63,1172.63 943.492,1195.52 
  947.353,1217.26 951.214,1237.67 955.076,1256.64 958.937,1274.06 962.798,1289.88 966.66,1304.04 970.521,1316.56 974.382,1327.45 978.244,1336.76 982.105,1344.56 
  985.966,1350.95 989.828,1356.02 993.689,1359.91 997.55,1362.74 1001.41,1364.65 1005.27,1365.78 1009.13,1366.26 1013,1366.25 1016.86,1365.86 1020.72,1365.23 
  1024.58,1364.46 1028.44,1363.68 1032.3,1362.95 1036.16,1362.38 1040.02,1362.01 1043.89,1361.9 1047.75,1362.09 1051.61,1362.59 1055.47,1363.42 1059.33,1364.58 
  1063.19,1366.05 1067.05,1367.81 1070.92,1369.82 1074.78,1372.05 1078.64,1374.46 1082.5,1377 1086.36,1379.61 1090.22,1382.24 1094.08,1384.85 1097.94,1387.38 
  1101.81,1389.8 1105.67,1392.04 1109.53,1394.08 1113.39,1395.89 1117.25,1397.43 1121.11,1398.68 1124.97,1399.63 1128.83,1400.28 1132.7,1400.61 1136.56,1400.64 
  1140.42,1400.37 1144.28,1399.82 1148.14,1399.01 1152,1397.96 1155.86,1396.7 1159.73,1395.27 1163.59,1393.69 1167.45,1392.01 1171.31,1390.25 1175.17,1388.45 
  1179.03,1386.65 1182.89,1384.87 1186.75,1383.16 1190.62,1381.55 1194.48,1380.05 1198.34,1378.7 1202.2,1377.51 1206.06,1376.5 1209.92,1375.69 1213.78,1375.09 
  1217.65,1374.7 1221.51,1374.53 1225.37,1374.58 1229.23,1374.85 1233.09,1375.32 1236.95,1376 1240.81,1376.86 1244.67,1377.91 1248.54,1379.11 1252.4,1380.47 
  1256.26,1381.95 1260.12,1383.55 1263.98,1385.24 1267.84,1387.01 1271.7,1388.83 1275.56,1390.69 1279.43,1392.58 1283.29,1394.47 1287.15,1396.36 1291.01,1398.22 
  1294.87,1400.05 1298.73,1401.83 1302.59,1403.56 1306.46,1405.22 1310.32,1406.8 1314.18,1408.32 1318.04,1409.74 1321.9,1411.09 1325.76,1412.34 1329.62,1413.51 
  1333.48,1414.59 1337.35,1415.58 1341.21,1416.49 1345.07,1417.31 1348.93,1418.06 1352.79,1418.72 1356.65,1419.32 1360.51,1419.85 1364.38,1420.31 1368.24,1420.71 
  1372.1,1421.06 1375.96,1421.35 1379.82,1421.59 1383.68,1421.79 1387.54,1421.95 1391.4,1422.06 1395.27,1422.14 1399.13,1422.19 1402.99,1422.21 1406.85,1422.2 
  1410.71,1422.16 1414.57,1422.1 1418.43,1422.01 1422.29,1421.9 1426.16,1421.77 1430.02,1421.62 1433.88,1421.45 1437.74,1421.27 1441.6,1421.06 1445.46,1420.84 
  1449.32,1420.6 1453.19,1420.35 1457.05,1420.08 1460.91,1419.81 1464.77,1419.52 1468.63,1419.22 1472.49,1418.91 1476.35,1418.6 1480.21,1418.28 1484.08,1417.95 
  1487.94,1417.62 1491.8,1417.29 1495.66,1416.96 1499.52,1416.64 1503.38,1416.32 1507.24,1416 1511.11,1415.69 1514.97,1415.39 1518.83,1415.11 1522.69,1414.83 
  1526.55,1414.57 1530.41,1414.32 1534.27,1414.09 1538.13,1413.87 1542,1413.67 1545.86,1413.49 1549.72,1413.33 1553.58,1413.19 1557.44,1413.07 1561.3,1412.97 
  1565.16,1412.89 1569.02,1412.83 1572.89,1412.79 1576.75,1412.77 1580.61,1412.76 1584.47,1412.77 1588.33,1412.81 1592.19,1412.85 1596.05,1412.91 1599.92,1412.99 
  1603.78,1413.08 1607.64,1413.18 1611.5,1413.3 1615.36,1413.42 1619.22,1413.55 1623.08,1413.69 1626.94,1413.84 1630.81,1413.99 1634.67,1414.14 1638.53,1414.3 
  1642.39,1414.46 1646.25,1414.62 1650.11,1414.78 1653.97,1414.94 1657.84,1415.1 1661.7,1415.26 1665.56,1415.41 1669.42,1415.56 1673.28,1415.71 1677.14,1415.85 
  1681,1415.98 1684.86,1416.11 1688.73,1416.24 1692.59,1416.36 1696.45,1416.47 1700.31,1416.57 1704.17,1416.67 1708.03,1416.76 1711.89,1416.84 1715.75,1416.92 
  1719.62,1416.98 1723.48,1417.05 1727.34,1417.1 1731.2,1417.15 1735.06,1417.19 1738.92,1417.22 1742.78,1417.25 1746.65,1417.27 1750.51,1417.28 1754.37,1417.29 
  1758.23,1417.3 1762.09,1417.29 1765.95,1417.29 1769.81,1417.27 1773.67,1417.26 1777.54,1417.24 1781.4,1417.21 1785.26,1417.18 1789.12,1417.15 1792.98,1417.12 
  1796.84,1417.08 1800.7,1417.04 1804.56,1417 1808.43,1416.95 1812.29,1416.9 1816.15,1416.86 1820.01,1416.81 1823.87,1416.76 1827.73,1416.71 1831.59,1416.66 
  1835.46,1416.61 1839.32,1416.56 1843.18,1416.51 1847.04,1416.47 1850.9,1416.42 1854.76,1416.37 1858.62,1416.33 1862.48,1416.29 1866.35,1416.24 1870.21,1416.2 
  1874.07,1416.17 1877.93,1416.13 1881.79,1416.1 1885.65,1416.07 1889.51,1416.04 1893.38,1416.01 1897.24,1415.99 1901.1,1415.96 1904.96,1415.94 1908.82,1415.93 
  1912.68,1415.91 1916.54,1415.9 1920.4,1415.89 1924.27,1415.88 1928.13,1415.88 1931.99,1415.87 1935.85,1415.87 1939.71,1415.87 1943.57,1415.87 1947.43,1415.88 
  1951.29,1415.88 1955.16,1415.89 1959.02,1415.9 1962.88,1415.91 1966.74,1415.92 1970.6,1415.94 1974.46,1415.95 1978.32,1415.96 1982.19,1415.98 1986.05,1416 
  1989.91,1416.01 1993.77,1416.03 1997.63,1416.05 2001.49,1416.06 2005.35,1416.08 2009.21,1416.1 2013.08,1416.12 2016.94,1416.13 2020.8,1416.15 2024.66,1416.17 
  2028.52,1416.18 2032.38,1416.2 2036.24,1416.22 2040.11,1416.23 2043.97,1416.25 2047.83,1416.26 2051.69,1416.27 2055.55,1416.28 2059.41,1416.3 2063.27,1416.31 
  2067.13,1416.32 2071,1416.33 2074.86,1416.33 2078.72,1416.34 2082.58,1416.35 2086.44,1416.35 2090.3,1416.36 2094.16,1416.36 2098.02,1416.37 2101.89,1416.37 
  2105.75,1416.37 2109.61,1416.37 2113.47,1416.37 2117.33,1416.37 2121.19,1416.37 2125.05,1416.37 2128.92,1416.37 2132.78,1416.37 2136.64,1416.36 2140.5,1416.36 
  2144.36,1416.36 2148.22,1416.35 2152.08,1416.35 2155.94,1416.34 2159.81,1416.34 2163.67,1416.33 2167.53,1416.33 2171.39,1416.32 2175.25,1416.31 2179.11,1416.31 
  2182.97,1416.3 2186.84,1416.3 2190.7,1416.29 2194.56,1416.28 2198.42,1416.28 2202.28,1416.27 2206.14,1416.27 2210,1416.26 2213.86,1416.26 2217.73,1416.25 
  2221.59,1416.25 2225.45,1416.24 2229.31,1416.24 2233.17,1416.23 2237.03,1416.23 2240.89,1416.23 2244.75,1416.22 2248.62,1416.22 2252.48,1416.22 2256.34,1416.22 
  2260.2,1416.21 2264.06,1416.21 2267.92,1416.21 2271.78,1416.21 2275.65,1416.21 2279.51,1416.21 2283.37,1416.21 2287.23,1416.21 2291.09,1416.21 2294.95,1416.21 
  
  "></polyline>
<polyline clip-path="url(#clip182)" style="stroke:#e26f46; stroke-linecap:butt; stroke-linejoin:round; stroke-width:12; stroke-opacity:1; fill:none" points="
  368.156,1423.18 372.017,1423.01 375.878,1423.02 379.74,1423.16 383.601,1423.14 387.462,1422.93 391.324,1422.7 395.185,1422.62 399.046,1422.75 402.908,1422.99 
  406.769,1423.16 410.63,1423.08 414.492,1422.69 418.353,1422.04 422.214,1421.28 426.076,1420.65 429.937,1420.33 433.798,1420.43 437.659,1420.95 441.521,1421.72 
  445.382,1422.48 449.243,1422.93 453.105,1422.75 456.966,1421.7 460.827,1419.63 464.689,1416.56 468.55,1412.65 472.411,1408.18 476.273,1403.52 480.134,1399.09 
  483.995,1395.29 487.857,1392.45 491.718,1390.81 495.579,1390.46 499.44,1391.38 503.302,1393.39 507.163,1396.24 511.024,1399.6 514.886,1403.09 518.747,1406.39 
  522.608,1409.18 526.47,1411.26 530.331,1412.48 534.192,1412.83 538.054,1412.34 541.915,1411.15 545.776,1409.46 549.638,1407.46 553.499,1405.39 557.36,1403.45 
  561.222,1401.81 565.083,1400.62 568.944,1399.96 572.805,1399.87 576.667,1400.34 580.528,1401.33 584.389,1402.77 588.251,1404.56 592.112,1406.6 595.973,1408.78 
  599.835,1411 603.696,1413.18 607.557,1415.24 611.419,1417.1 615.28,1418.74 619.141,1420.11 623.003,1421.21 626.864,1422.02 630.725,1422.56 634.587,1422.84 
  638.448,1422.88 642.309,1422.72 646.17,1422.37 650.032,1421.87 653.893,1421.26 657.754,1420.56 661.616,1419.8 665.477,1419.02 669.338,1418.23 673.2,1417.47 
  677.061,1416.75 680.922,1416.09 684.784,1415.52 688.645,1415.03 692.506,1414.64 696.368,1414.35 700.229,1414.17 704.09,1414.09 707.952,1414.11 711.813,1414.21 
  715.674,1414.4 719.535,1414.65 723.397,1414.96 727.258,1415.3 731.119,1415.65 734.981,1416.02 738.842,1416.36 742.703,1416.68 746.565,1416.96 750.426,1417.18 
  754.287,1417.34 758.149,1417.43 762.01,1417.45 765.871,1417.4 769.733,1417.26 773.594,1417.06 777.455,1416.8 781.316,1416.48 785.178,1416.11 789.039,1415.7 
  792.9,1415.27 796.762,1414.83 800.623,1414.38 804.484,1413.95 808.346,1413.54 812.207,1413.16 816.068,1412.82 819.93,1412.53 823.791,1412.3 827.652,1412.13 
  831.514,1412.01 835.375,1411.97 839.236,1411.98 843.098,1412.06 846.959,1412.2 850.82,1412.39 854.681,1412.63 858.543,1412.92 862.404,1413.24 866.265,1413.59 
  870.127,1413.97 873.988,1414.35 877.849,1414.74 881.711,1415.13 885.572,1415.52 889.433,1415.88 893.295,1416.23 897.156,1416.55 901.017,1416.85 904.879,1417.11 
  908.74,1417.34 912.601,1417.53 916.463,1417.68 920.324,1417.8 924.185,1417.89 928.046,1417.94 931.908,1417.97 935.769,1417.97 939.63,1417.94 943.492,1417.9 
  947.353,1417.85 951.214,1417.79 955.076,1417.72 958.937,1417.65 962.798,1417.59 966.66,1417.54 970.521,1417.5 974.382,1417.47 978.244,1417.46 982.105,1417.48 
  985.966,1417.51 989.828,1417.57 993.689,1417.65 997.55,1417.75 1001.41,1417.88 1005.27,1418.03 1009.13,1418.21 1013,1418.4 1016.86,1418.61 1020.72,1418.83 
  1024.58,1419.07 1028.44,1419.31 1032.3,1419.57 1036.16,1419.82 1040.02,1420.08 1043.89,1420.34 1047.75,1420.59 1051.61,1420.84 1055.47,1421.07 1059.33,1421.3 
  1063.19,1421.51 1067.05,1421.71 1070.92,1421.89 1074.78,1422.06 1078.64,1422.21 1082.5,1422.34 1086.36,1422.45 1090.22,1422.55 1094.08,1422.63 1097.94,1422.69 
  1101.81,1422.74 1105.67,1422.77 1109.53,1422.79 1113.39,1422.8 1117.25,1422.8 1121.11,1422.79 1124.97,1422.77 1128.83,1422.74 1132.7,1422.71 1136.56,1422.68 
  1140.42,1422.65 1144.28,1422.61 1148.14,1422.57 1152,1422.54 1155.86,1422.5 1159.73,1422.47 1163.59,1422.45 1167.45,1422.42 1171.31,1422.4 1175.17,1422.39 
  1179.03,1422.38 1182.89,1422.37 1186.75,1422.37 1190.62,1422.37 1194.48,1422.37 1198.34,1422.38 1202.2,1422.39 1206.06,1422.41 1209.92,1422.42 1213.78,1422.44 
  1217.65,1422.46 1221.51,1422.48 1225.37,1422.5 1229.23,1422.52 1233.09,1422.54 1236.95,1422.56 1240.81,1422.57 1244.67,1422.59 1248.54,1422.61 1252.4,1422.62 
  1256.26,1422.63 1260.12,1422.64 1263.98,1422.65 1267.84,1422.66 1271.7,1422.67 1275.56,1422.67 1279.43,1422.67 1283.29,1422.67 1287.15,1422.68 1291.01,1422.68 
  1294.87,1422.68 1298.73,1422.68 1302.59,1422.68 1306.46,1422.68 1310.32,1422.68 1314.18,1422.68 1318.04,1422.68 1321.9,1422.68 1325.76,1422.69 1329.62,1422.69 
  1333.48,1422.7 1337.35,1422.71 1341.21,1422.71 1345.07,1422.72 1348.93,1422.74 1352.79,1422.75 1356.65,1422.76 1360.51,1422.78 1364.38,1422.79 1368.24,1422.81 
  1372.1,1422.83 1375.96,1422.84 1379.82,1422.86 1383.68,1422.88 1387.54,1422.9 1391.4,1422.92 1395.27,1422.93 1399.13,1422.95 1402.99,1422.97 1406.85,1422.99 
  1410.71,1423 1414.57,1423.02 1418.43,1423.04 1422.29,1423.05 1426.16,1423.06 1430.02,1423.08 1433.88,1423.09 1437.74,1423.1 1441.6,1423.11 1445.46,1423.12 
  1449.32,1423.12 1453.19,1423.13 1457.05,1423.14 1460.91,1423.14 1464.77,1423.14 1468.63,1423.15 1472.49,1423.15 1476.35,1423.15 1480.21,1423.15 1484.08,1423.15 
  1487.94,1423.15 1491.8,1423.15 1495.66,1423.14 1499.52,1423.14 1503.38,1423.14 1507.24,1423.14 1511.11,1423.13 1514.97,1423.13 1518.83,1423.13 1522.69,1423.12 
  1526.55,1423.12 1530.41,1423.11 1534.27,1423.11 1538.13,1423.11 1542,1423.1 1545.86,1423.1 1549.72,1423.1 1553.58,1423.09 1557.44,1423.09 1561.3,1423.09 
  1565.16,1423.08 1569.02,1423.08 1572.89,1423.08 1576.75,1423.07 1580.61,1423.07 1584.47,1423.07 1588.33,1423.06 1592.19,1423.06 1596.05,1423.06 1599.92,1423.06 
  1603.78,1423.05 1607.64,1423.05 1611.5,1423.05 1615.36,1423.05 1619.22,1423.05 1623.08,1423.05 1626.94,1423.04 1630.81,1423.04 1634.67,1423.04 1638.53,1423.04 
  1642.39,1423.04 1646.25,1423.04 1650.11,1423.04 1653.97,1423.04 1657.84,1423.04 1661.7,1423.04 1665.56,1423.04 1669.42,1423.04 1673.28,1423.04 1677.14,1423.04 
  1681,1423.04 1684.86,1423.04 1688.73,1423.04 1692.59,1423.04 1696.45,1423.04 1700.31,1423.04 1704.17,1423.05 1708.03,1423.05 1711.89,1423.05 1715.75,1423.05 
  1719.62,1423.05 1723.48,1423.05 1727.34,1423.05 1731.2,1423.06 1735.06,1423.06 1738.92,1423.06 1742.78,1423.06 1746.65,1423.06 1750.51,1423.06 1754.37,1423.07 
  1758.23,1423.07 1762.09,1423.07 1765.95,1423.07 1769.81,1423.07 1773.67,1423.07 1777.54,1423.08 1781.4,1423.08 1785.26,1423.08 1789.12,1423.08 1792.98,1423.08 
  1796.84,1423.08 1800.7,1423.08 1804.56,1423.08 1808.43,1423.08 1812.29,1423.08 1816.15,1423.09 1820.01,1423.09 1823.87,1423.09 1827.73,1423.09 1831.59,1423.09 
  1835.46,1423.09 1839.32,1423.09 1843.18,1423.09 1847.04,1423.09 1850.9,1423.09 1854.76,1423.09 1858.62,1423.09 1862.48,1423.09 1866.35,1423.09 1870.21,1423.09 
  1874.07,1423.09 1877.93,1423.09 1881.79,1423.09 1885.65,1423.08 1889.51,1423.08 1893.38,1423.08 1897.24,1423.08 1901.1,1423.08 1904.96,1423.08 1908.82,1423.08 
  1912.68,1423.08 1916.54,1423.08 1920.4,1423.08 1924.27,1423.08 1928.13,1423.08 1931.99,1423.08 1935.85,1423.08 1939.71,1423.08 1943.57,1423.08 1947.43,1423.08 
  1951.29,1423.08 1955.16,1423.08 1959.02,1423.08 1962.88,1423.07 1966.74,1423.07 1970.6,1423.07 1974.46,1423.07 1978.32,1423.07 1982.19,1423.07 1986.05,1423.07 
  1989.91,1423.07 1993.77,1423.07 1997.63,1423.07 2001.49,1423.07 2005.35,1423.07 2009.21,1423.07 2013.08,1423.07 2016.94,1423.07 2020.8,1423.07 2024.66,1423.07 
  2028.52,1423.07 2032.38,1423.07 2036.24,1423.07 2040.11,1423.07 2043.97,1423.07 2047.83,1423.07 2051.69,1423.07 2055.55,1423.07 2059.41,1423.07 2063.27,1423.07 
  2067.13,1423.07 2071,1423.07 2074.86,1423.07 2078.72,1423.07 2082.58,1423.07 2086.44,1423.07 2090.3,1423.07 2094.16,1423.07 2098.02,1423.07 2101.89,1423.07 
  2105.75,1423.07 2109.61,1423.07 2113.47,1423.07 2117.33,1423.07 2121.19,1423.07 2125.05,1423.07 2128.92,1423.08 2132.78,1423.08 2136.64,1423.08 2140.5,1423.08 
  2144.36,1423.08 2148.22,1423.08 2152.08,1423.08 2155.94,1423.08 2159.81,1423.08 2163.67,1423.08 2167.53,1423.08 2171.39,1423.08 2175.25,1423.08 2179.11,1423.08 
  2182.97,1423.08 2186.84,1423.08 2190.7,1423.08 2194.56,1423.08 2198.42,1423.08 2202.28,1423.08 2206.14,1423.08 2210,1423.08 2213.86,1423.08 2217.73,1423.08 
  2221.59,1423.08 2225.45,1423.08 2229.31,1423.08 2233.17,1423.08 2237.03,1423.08 2240.89,1423.08 2244.75,1423.08 2248.62,1423.08 2252.48,1423.08 2256.34,1423.08 
  2260.2,1423.08 2264.06,1423.08 2267.92,1423.08 2271.78,1423.08 2275.65,1423.08 2279.51,1423.08 2283.37,1423.08 2287.23,1423.08 2291.09,1423.08 2294.95,1423.08 
  
  "></polyline>
<path clip-path="url(#clip180)" d="
M1644.92 248.629 L2284.68 248.629 L2284.68 93.1086 L1644.92 93.1086  Z
  " fill="#ffffff" fill-rule="evenodd" fill-opacity="1"></path>
<polyline clip-path="url(#clip180)" style="stroke:#000000; stroke-linecap:butt; stroke-linejoin:round; stroke-width:4; stroke-opacity:1; fill:none" points="
  1644.92,248.629 2284.68,248.629 2284.68,93.1086 1644.92,93.1086 1644.92,248.629 
  "></polyline>
<polyline clip-path="url(#clip180)" style="stroke:#009af9; stroke-linecap:butt; stroke-linejoin:round; stroke-width:4; stroke-opacity:1; fill:none" points="
  1667.61,144.949 1803.77,144.949 
  "></polyline>
<path clip-path="url(#clip180)" d="M1842.49 130.84 Q1837.39 130.84 1834.38 134.636 Q1831.4 138.432 1831.4 144.983 Q1831.4 151.511 1834.38 155.307 Q1837.39 159.104 1842.49 159.104 Q1847.58 159.104 1850.54 155.307 Q1853.53 151.511 1853.53 144.983 Q1853.53 138.432 1850.54 134.636 Q1847.58 130.84 1842.49 130.84 M1842.49 127.044 Q1849.75 127.044 1854.11 131.928 Q1858.46 136.789 1858.46 144.983 Q1858.46 153.155 1854.11 158.039 Q1849.75 162.9 1842.49 162.9 Q1835.19 162.9 1830.82 158.039 Q1826.47 153.178 1826.47 144.983 Q1826.47 136.789 1830.82 131.928 Q1835.19 127.044 1842.49 127.044 Z" fill="#000000" fill-rule="evenodd" fill-opacity="1"></path><path clip-path="url(#clip180)" d="M1864.75 147.344 L1877.23 147.344 L1877.23 151.141 L1864.75 151.141 L1864.75 147.344 Z" fill="#000000" fill-rule="evenodd" fill-opacity="1"></path><path clip-path="url(#clip180)" d="M1884.2 127.669 L1890.49 127.669 L1905.82 156.581 L1905.82 127.669 L1910.36 127.669 L1910.36 162.229 L1904.06 162.229 L1888.74 133.317 L1888.74 162.229 L1884.2 162.229 L1884.2 127.669 Z" fill="#000000" fill-rule="evenodd" fill-opacity="1"></path><path clip-path="url(#clip180)" d="M1919.66 127.669 L1941.51 127.669 L1941.51 131.604 L1924.34 131.604 L1924.34 141.835 L1940.8 141.835 L1940.8 145.77 L1924.34 145.77 L1924.34 158.293 L1941.93 158.293 L1941.93 162.229 L1919.66 162.229 L1919.66 127.669 Z" fill="#000000" fill-rule="evenodd" fill-opacity="1"></path><path clip-path="url(#clip180)" d="M1944.82 127.669 L1974.06 127.669 L1974.06 131.604 L1961.79 131.604 L1961.79 162.229 L1957.09 162.229 L1957.09 131.604 L1944.82 131.604 L1944.82 127.669 Z" fill="#000000" fill-rule="evenodd" fill-opacity="1"></path><polyline clip-path="url(#clip180)" style="stroke:#e26f46; stroke-linecap:butt; stroke-linejoin:round; stroke-width:4; stroke-opacity:1; fill:none" points="
  1667.61,196.789 1803.77,196.789 
  "></polyline>
<path clip-path="url(#clip180)" d="M1848.71 180.643 L1848.71 185.203 Q1846.05 183.93 1843.69 183.305 Q1841.33 182.68 1839.13 182.68 Q1835.31 182.68 1833.23 184.161 Q1831.17 185.643 1831.17 188.374 Q1831.17 190.666 1832.53 191.847 Q1833.92 193.004 1837.76 193.722 L1840.59 194.3 Q1845.82 195.296 1848.3 197.819 Q1850.8 200.319 1850.8 204.532 Q1850.8 209.555 1847.42 212.147 Q1844.06 214.74 1837.56 214.74 Q1835.1 214.74 1832.32 214.184 Q1829.57 213.629 1826.61 212.541 L1826.61 207.726 Q1829.45 209.323 1832.18 210.133 Q1834.92 210.944 1837.56 210.944 Q1841.56 210.944 1843.74 209.37 Q1845.91 207.796 1845.91 204.879 Q1845.91 202.333 1844.34 200.897 Q1842.79 199.462 1839.22 198.745 L1836.37 198.189 Q1831.14 197.147 1828.81 194.925 Q1826.47 192.703 1826.47 188.745 Q1826.47 184.161 1829.68 181.522 Q1832.93 178.884 1838.6 178.884 Q1841.03 178.884 1843.55 179.323 Q1846.07 179.763 1848.71 180.643 Z" fill="#000000" fill-rule="evenodd" fill-opacity="1"></path><path clip-path="url(#clip180)" d="M1862.12 180.782 L1862.12 188.143 L1870.89 188.143 L1870.89 191.453 L1862.12 191.453 L1862.12 205.527 Q1862.12 208.698 1862.97 209.601 Q1863.85 210.504 1866.51 210.504 L1870.89 210.504 L1870.89 214.069 L1866.51 214.069 Q1861.58 214.069 1859.71 212.24 Q1857.83 210.388 1857.83 205.527 L1857.83 191.453 L1854.71 191.453 L1854.71 188.143 L1857.83 188.143 L1857.83 180.782 L1862.12 180.782 Z" fill="#000000" fill-rule="evenodd" fill-opacity="1"></path><path clip-path="url(#clip180)" d="M1891.51 192.124 Q1890.8 191.708 1889.94 191.522 Q1889.11 191.314 1888.09 191.314 Q1884.48 191.314 1882.53 193.675 Q1880.61 196.013 1880.61 200.411 L1880.61 214.069 L1876.33 214.069 L1876.33 188.143 L1880.61 188.143 L1880.61 192.171 Q1881.95 189.809 1884.11 188.675 Q1886.26 187.518 1889.34 187.518 Q1889.78 187.518 1890.31 187.587 Q1890.84 187.634 1891.49 187.749 L1891.51 192.124 Z" fill="#000000" fill-rule="evenodd" fill-opacity="1"></path><path clip-path="url(#clip180)" d="M1895.54 203.837 L1895.54 188.143 L1899.8 188.143 L1899.8 203.675 Q1899.8 207.356 1901.24 209.208 Q1902.67 211.036 1905.54 211.036 Q1908.99 211.036 1910.98 208.837 Q1912.99 206.638 1912.99 202.842 L1912.99 188.143 L1917.25 188.143 L1917.25 214.069 L1912.99 214.069 L1912.99 210.087 Q1911.44 212.448 1909.38 213.606 Q1907.35 214.74 1904.64 214.74 Q1900.17 214.74 1897.86 211.962 Q1895.54 209.184 1895.54 203.837 M1906.26 187.518 L1906.26 187.518 Z" fill="#000000" fill-rule="evenodd" fill-opacity="1"></path><path clip-path="url(#clip180)" d="M1944.68 189.138 L1944.68 193.12 Q1942.88 192.124 1941.05 191.638 Q1939.24 191.129 1937.39 191.129 Q1933.25 191.129 1930.96 193.768 Q1928.67 196.384 1928.67 201.129 Q1928.67 205.874 1930.96 208.513 Q1933.25 211.129 1937.39 211.129 Q1939.24 211.129 1941.05 210.643 Q1942.88 210.133 1944.68 209.138 L1944.68 213.073 Q1942.9 213.907 1940.98 214.323 Q1939.08 214.74 1936.93 214.74 Q1931.07 214.74 1927.62 211.059 Q1924.17 207.379 1924.17 201.129 Q1924.17 194.786 1927.65 191.152 Q1931.14 187.518 1937.21 187.518 Q1939.17 187.518 1941.05 187.935 Q1942.92 188.328 1944.68 189.138 Z" fill="#000000" fill-rule="evenodd" fill-opacity="1"></path><path clip-path="url(#clip180)" d="M1956.3 180.782 L1956.3 188.143 L1965.08 188.143 L1965.08 191.453 L1956.3 191.453 L1956.3 205.527 Q1956.3 208.698 1957.16 209.601 Q1958.04 210.504 1960.7 210.504 L1965.08 210.504 L1965.08 214.069 L1960.7 214.069 Q1955.77 214.069 1953.9 212.24 Q1952.02 210.388 1952.02 205.527 L1952.02 191.453 L1948.9 191.453 L1948.9 188.143 L1952.02 188.143 L1952.02 180.782 L1956.3 180.782 Z" fill="#000000" fill-rule="evenodd" fill-opacity="1"></path><path clip-path="url(#clip180)" d="M1970.24 203.837 L1970.24 188.143 L1974.5 188.143 L1974.5 203.675 Q1974.5 207.356 1975.93 209.208 Q1977.37 211.036 1980.24 211.036 Q1983.69 211.036 1985.68 208.837 Q1987.69 206.638 1987.69 202.842 L1987.69 188.143 L1991.95 188.143 L1991.95 214.069 L1987.69 214.069 L1987.69 210.087 Q1986.14 212.448 1984.08 213.606 Q1982.05 214.74 1979.34 214.74 Q1974.87 214.74 1972.55 211.962 Q1970.24 209.184 1970.24 203.837 M1980.96 187.518 L1980.96 187.518 Z" fill="#000000" fill-rule="evenodd" fill-opacity="1"></path><path clip-path="url(#clip180)" d="M2015.75 192.124 Q2015.03 191.708 2014.17 191.522 Q2013.34 191.314 2012.32 191.314 Q2008.71 191.314 2006.77 193.675 Q2004.85 196.013 2004.85 200.411 L2004.85 214.069 L2000.56 214.069 L2000.56 188.143 L2004.85 188.143 L2004.85 192.171 Q2006.19 189.809 2008.34 188.675 Q2010.49 187.518 2013.57 187.518 Q2014.01 187.518 2014.54 187.587 Q2015.08 187.634 2015.73 187.749 L2015.75 192.124 Z" fill="#000000" fill-rule="evenodd" fill-opacity="1"></path><path clip-path="url(#clip180)" d="M2041.35 200.041 L2041.35 202.124 L2021.77 202.124 Q2022.04 206.522 2024.41 208.837 Q2026.79 211.129 2031.03 211.129 Q2033.48 211.129 2035.77 210.527 Q2038.09 209.925 2040.35 208.721 L2040.35 212.749 Q2038.06 213.721 2035.66 214.231 Q2033.25 214.74 2030.77 214.74 Q2024.57 214.74 2020.93 211.129 Q2017.32 207.518 2017.32 201.36 Q2017.32 194.995 2020.75 191.268 Q2024.2 187.518 2030.03 187.518 Q2035.26 187.518 2038.29 190.897 Q2041.35 194.254 2041.35 200.041 M2037.09 198.791 Q2037.04 195.296 2035.12 193.212 Q2033.23 191.129 2030.08 191.129 Q2026.51 191.129 2024.36 193.143 Q2022.23 195.157 2021.91 198.814 L2037.09 198.791 Z" fill="#000000" fill-rule="evenodd" fill-opacity="1"></path><path clip-path="url(#clip180)" d="M2065.4 192.078 L2065.4 178.05 L2069.66 178.05 L2069.66 214.069 L2065.4 214.069 L2065.4 210.18 Q2064.06 212.495 2062 213.629 Q2059.96 214.74 2057.09 214.74 Q2052.39 214.74 2049.43 210.99 Q2046.49 207.24 2046.49 201.129 Q2046.49 195.018 2049.43 191.268 Q2052.39 187.518 2057.09 187.518 Q2059.96 187.518 2062 188.652 Q2064.06 189.763 2065.4 192.078 M2050.89 201.129 Q2050.89 205.828 2052.81 208.513 Q2054.75 211.175 2058.13 211.175 Q2061.51 211.175 2063.46 208.513 Q2065.4 205.828 2065.4 201.129 Q2065.4 196.43 2063.46 193.768 Q2061.51 191.083 2058.13 191.083 Q2054.75 191.083 2052.81 193.768 Q2050.89 196.43 2050.89 201.129 Z" fill="#000000" fill-rule="evenodd" fill-opacity="1"></path><path clip-path="url(#clip180)" d="M2107.72 182.68 Q2102.62 182.68 2099.61 186.476 Q2096.63 190.272 2096.63 196.823 Q2096.63 203.351 2099.61 207.147 Q2102.62 210.944 2107.72 210.944 Q2112.81 210.944 2115.77 207.147 Q2118.76 203.351 2118.76 196.823 Q2118.76 190.272 2115.77 186.476 Q2112.81 182.68 2107.72 182.68 M2107.72 178.884 Q2114.98 178.884 2119.34 183.768 Q2123.69 188.629 2123.69 196.823 Q2123.69 204.995 2119.34 209.879 Q2114.98 214.74 2107.72 214.74 Q2100.42 214.74 2096.05 209.879 Q2091.7 205.018 2091.7 196.823 Q2091.7 188.629 2096.05 183.768 Q2100.42 178.884 2107.72 178.884 Z" fill="#000000" fill-rule="evenodd" fill-opacity="1"></path><path clip-path="url(#clip180)" d="M2129.98 199.184 L2142.46 199.184 L2142.46 202.981 L2129.98 202.981 L2129.98 199.184 Z" fill="#000000" fill-rule="evenodd" fill-opacity="1"></path><path clip-path="url(#clip180)" d="M2149.43 179.509 L2155.72 179.509 L2171.05 208.421 L2171.05 179.509 L2175.59 179.509 L2175.59 214.069 L2169.29 214.069 L2153.97 185.157 L2153.97 214.069 L2149.43 214.069 L2149.43 179.509 Z" fill="#000000" fill-rule="evenodd" fill-opacity="1"></path><path clip-path="url(#clip180)" d="M2184.89 179.509 L2206.74 179.509 L2206.74 183.444 L2189.57 183.444 L2189.57 193.675 L2206.03 193.675 L2206.03 197.61 L2189.57 197.61 L2189.57 210.133 L2207.16 210.133 L2207.16 214.069 L2184.89 214.069 L2184.89 179.509 Z" fill="#000000" fill-rule="evenodd" fill-opacity="1"></path><path clip-path="url(#clip180)" d="M2210.05 179.509 L2239.29 179.509 L2239.29 183.444 L2227.02 183.444 L2227.02 214.069 L2222.32 214.069 L2222.32 183.444 L2210.05 183.444 L2210.05 179.509 Z" fill="#000000" fill-rule="evenodd" fill-opacity="1"></path></svg>