<svg xmlns="http://www.w3.org/2000/svg" xmlns:xlink="http://www.w3.org/1999/xlink" width="600" height="400" viewBox="0 0 2400 1600">
<defs>
  <clipPath id="clip660">
    <rect x="0" y="0" width="2400" height="1600"></rect>
  </clipPath>
</defs>
<path clip-path="url(#clip660)" d="
M0 1600 L2400 1600 L2400 0 L0 0  Z
  " fill="#ffffff" fill-rule="evenodd" fill-opacity="1"></path>
<defs>
  <clipPath id="clip661">
    <rect x="480" y="0" width="1681" height="1600"></rect>
  </clipPath>
</defs>
<path clip-path="url(#clip660)" d="
M249.449 1423.18 L2352.76 1423.18 L2352.76 47.2441 L249.449 47.2441  Z
  " fill="#ffffff" fill-rule="evenodd" fill-opacity="1"></path>
<defs>
  <clipPath id="clip662">
    <rect x="249" y="47" width="2104" height="1377"></rect>
  </clipPath>
</defs>
<polyline clip-path="url(#clip662)" style="stroke:#000000; stroke-linecap:butt; stroke-linejoin:round; stroke-width:2; stroke-opacity:0.1; fill:none" points="
  308.977,1423.18 308.977,47.2441 
  "></polyline>
<polyline clip-path="url(#clip662)" style="stroke:#000000; stroke-linecap:butt; stroke-linejoin:round; stroke-width:2; stroke-opacity:0.1; fill:none" points="
  807.533,1423.18 807.533,47.2441 
  "></polyline>
<polyline clip-path="url(#clip662)" style="stroke:#000000; stroke-linecap:butt; stroke-linejoin:round; stroke-width:2; stroke-opacity:0.1; fill:none" points="
  1306.09,1423.18 1306.09,47.2441 
  "></polyline>
<polyline clip-path="url(#clip662)" style="stroke:#000000; stroke-linecap:butt; stroke-linejoin:round; stroke-width:2; stroke-opacity:0.1; fill:none" points="
  1804.64,1423.18 1804.64,47.2441 
  "></polyline>
<polyline clip-path="url(#clip662)" style="stroke:#000000; stroke-linecap:butt; stroke-linejoin:round; stroke-width:2; stroke-opacity:0.1; fill:none" points="
  2303.2,1423.18 2303.2,47.2441 
  "></polyline>
<polyline clip-path="url(#clip660)" style="stroke:#000000; stroke-linecap:butt; stroke-linejoin:round; stroke-width:4; stroke-opacity:1; fill:none" points="
  249.449,1423.18 2352.76,1423.18 
  "></polyline>
<polyline clip-path="url(#clip660)" style="stroke:#000000; stroke-linecap:butt; stroke-linejoin:round; stroke-width:4; stroke-opacity:1; fill:none" points="
  308.977,1423.18 308.977,1404.28 
  "></polyline>
<polyline clip-path="url(#clip660)" style="stroke:#000000; stroke-linecap:butt; stroke-linejoin:round; stroke-width:4; stroke-opacity:1; fill:none" points="
  807.533,1423.18 807.533,1404.28 
  "></polyline>
<polyline clip-path="url(#clip660)" style="stroke:#000000; stroke-linecap:butt; stroke-linejoin:round; stroke-width:4; stroke-opacity:1; fill:none" points="
  1306.09,1423.18 1306.09,1404.28 
  "></polyline>
<polyline clip-path="url(#clip660)" style="stroke:#000000; stroke-linecap:butt; stroke-linejoin:round; stroke-width:4; stroke-opacity:1; fill:none" points="
  1804.64,1423.18 1804.64,1404.28 
  "></polyline>
<polyline clip-path="url(#clip660)" style="stroke:#000000; stroke-linecap:butt; stroke-linejoin:round; stroke-width:4; stroke-opacity:1; fill:none" points="
  2303.2,1423.18 2303.2,1404.28 
  "></polyline>
<path clip-path="url(#clip660)" d="M308.977 1454.1 Q305.366 1454.1 303.537 1457.66 Q301.732 1461.2 301.732 1468.33 Q301.732 1475.44 303.537 1479.01 Q305.366 1482.55 308.977 1482.55 Q312.611 1482.55 314.417 1479.01 Q316.245 1475.44 316.245 1468.33 Q316.245 1461.2 314.417 1457.66 Q312.611 1454.1 308.977 1454.1 M308.977 1450.39 Q314.787 1450.39 317.843 1455 Q320.921 1459.58 320.921 1468.33 Q320.921 1477.06 317.843 1481.67 Q314.787 1486.25 308.977 1486.25 Q303.167 1486.25 300.088 1481.67 Q297.033 1477.06 297.033 1468.33 Q297.033 1459.58 300.088 1455 Q303.167 1450.39 308.977 1450.39 Z" fill="#000000" fill-rule="evenodd" fill-opacity="1"></path><path clip-path="url(#clip660)" d="M797.81 1451.02 L816.167 1451.02 L816.167 1454.96 L802.093 1454.96 L802.093 1463.43 Q803.111 1463.08 804.13 1462.92 Q805.148 1462.73 806.167 1462.73 Q811.954 1462.73 815.333 1465.9 Q818.713 1469.08 818.713 1474.49 Q818.713 1480.07 815.241 1483.17 Q811.769 1486.25 805.449 1486.25 Q803.273 1486.25 801.005 1485.88 Q798.76 1485.51 796.352 1484.77 L796.352 1480.07 Q798.435 1481.2 800.658 1481.76 Q802.88 1482.32 805.357 1482.32 Q809.361 1482.32 811.699 1480.21 Q814.037 1478.1 814.037 1474.49 Q814.037 1470.88 811.699 1468.77 Q809.361 1466.67 805.357 1466.67 Q803.482 1466.67 801.607 1467.08 Q799.755 1467.5 797.81 1468.38 L797.81 1451.02 Z" fill="#000000" fill-rule="evenodd" fill-opacity="1"></path><path clip-path="url(#clip660)" d="M1280.78 1481.64 L1288.41 1481.64 L1288.41 1455.28 L1280.1 1456.95 L1280.1 1452.69 L1288.37 1451.02 L1293.04 1451.02 L1293.04 1481.64 L1300.68 1481.64 L1300.68 1485.58 L1280.78 1485.58 L1280.78 1481.64 Z" fill="#000000" fill-rule="evenodd" fill-opacity="1"></path><path clip-path="url(#clip660)" d="M1320.13 1454.1 Q1316.52 1454.1 1314.69 1457.66 Q1312.88 1461.2 1312.88 1468.33 Q1312.88 1475.44 1314.69 1479.01 Q1316.52 1482.55 1320.13 1482.55 Q1323.76 1482.55 1325.57 1479.01 Q1327.4 1475.44 1327.4 1468.33 Q1327.4 1461.2 1325.57 1457.66 Q1323.76 1454.1 1320.13 1454.1 M1320.13 1450.39 Q1325.94 1450.39 1328.99 1455 Q1332.07 1459.58 1332.07 1468.33 Q1332.07 1477.06 1328.99 1481.67 Q1325.94 1486.25 1320.13 1486.25 Q1314.32 1486.25 1311.24 1481.67 Q1308.18 1477.06 1308.18 1468.33 Q1308.18 1459.58 1311.24 1455 Q1314.32 1450.39 1320.13 1450.39 Z" fill="#000000" fill-rule="evenodd" fill-opacity="1"></path><path clip-path="url(#clip660)" d="M1779.83 1481.64 L1787.47 1481.64 L1787.47 1455.28 L1779.16 1456.95 L1779.16 1452.69 L1787.42 1451.02 L1792.1 1451.02 L1792.1 1481.64 L1799.74 1481.64 L1799.74 1485.58 L1779.83 1485.58 L1779.83 1481.64 Z" fill="#000000" fill-rule="evenodd" fill-opacity="1"></path><path clip-path="url(#clip660)" d="M1809.23 1451.02 L1827.58 1451.02 L1827.58 1454.96 L1813.51 1454.96 L1813.51 1463.43 Q1814.53 1463.08 1815.55 1462.92 Q1816.57 1462.73 1817.58 1462.73 Q1823.37 1462.73 1826.75 1465.9 Q1830.13 1469.08 1830.13 1474.49 Q1830.13 1480.07 1826.66 1483.17 Q1823.19 1486.25 1816.87 1486.25 Q1814.69 1486.25 1812.42 1485.88 Q1810.18 1485.51 1807.77 1484.77 L1807.77 1480.07 Q1809.85 1481.2 1812.07 1481.76 Q1814.3 1482.32 1816.77 1482.32 Q1820.78 1482.32 1823.12 1480.21 Q1825.45 1478.1 1825.45 1474.49 Q1825.45 1470.88 1823.12 1468.77 Q1820.78 1466.67 1816.77 1466.67 Q1814.9 1466.67 1813.02 1467.08 Q1811.17 1467.5 1809.23 1468.38 L1809.23 1451.02 Z" fill="#000000" fill-rule="evenodd" fill-opacity="1"></path><path clip-path="url(#clip660)" d="M2281.97 1481.64 L2298.29 1481.64 L2298.29 1485.58 L2276.35 1485.58 L2276.35 1481.64 Q2279.01 1478.89 2283.59 1474.26 Q2288.2 1469.61 2289.38 1468.27 Q2291.63 1465.74 2292.51 1464.01 Q2293.41 1462.25 2293.41 1460.56 Q2293.41 1457.8 2291.46 1456.07 Q2289.54 1454.33 2286.44 1454.33 Q2284.24 1454.33 2281.79 1455.09 Q2279.36 1455.86 2276.58 1457.41 L2276.58 1452.69 Q2279.4 1451.55 2281.86 1450.97 Q2284.31 1450.39 2286.35 1450.39 Q2291.72 1450.39 2294.91 1453.08 Q2298.11 1455.77 2298.11 1460.26 Q2298.11 1462.39 2297.3 1464.31 Q2296.51 1466.2 2294.4 1468.8 Q2293.82 1469.47 2290.72 1472.69 Q2287.62 1475.88 2281.97 1481.64 Z" fill="#000000" fill-rule="evenodd" fill-opacity="1"></path><path clip-path="url(#clip660)" d="M2318.11 1454.1 Q2314.5 1454.1 2312.67 1457.66 Q2310.86 1461.2 2310.86 1468.33 Q2310.86 1475.44 2312.67 1479.01 Q2314.5 1482.55 2318.11 1482.55 Q2321.74 1482.55 2323.55 1479.01 Q2325.38 1475.44 2325.38 1468.33 Q2325.38 1461.2 2323.55 1457.66 Q2321.74 1454.1 2318.11 1454.1 M2318.11 1450.39 Q2323.92 1450.39 2326.97 1455 Q2330.05 1459.58 2330.05 1468.33 Q2330.05 1477.06 2326.97 1481.67 Q2323.92 1486.25 2318.11 1486.25 Q2312.3 1486.25 2309.22 1481.67 Q2306.16 1477.06 2306.16 1468.33 Q2306.16 1459.58 2309.22 1455 Q2312.3 1450.39 2318.11 1450.39 Z" fill="#000000" fill-rule="evenodd" fill-opacity="1"></path><path clip-path="url(#clip660)" d="M1142.17 1520.52 L1182.37 1520.52 L1182.37 1525.93 L1165.5 1525.93 L1165.5 1568.04 L1159.04 1568.04 L1159.04 1525.93 L1142.17 1525.93 L1142.17 1520.52 Z" fill="#000000" fill-rule="evenodd" fill-opacity="1"></path><path clip-path="url(#clip660)" d="M1186.31 1532.4 L1192.17 1532.4 L1192.17 1568.04 L1186.31 1568.04 L1186.31 1532.4 M1186.31 1518.52 L1192.17 1518.52 L1192.17 1525.93 L1186.31 1525.93 L1186.31 1518.52 Z" fill="#000000" fill-rule="evenodd" fill-opacity="1"></path><path clip-path="url(#clip660)" d="M1232.18 1539.24 Q1234.37 1535.29 1237.43 1533.41 Q1240.49 1531.54 1244.62 1531.54 Q1250.19 1531.54 1253.22 1535.45 Q1256.24 1539.33 1256.24 1546.53 L1256.24 1568.04 L1250.35 1568.04 L1250.35 1546.72 Q1250.35 1541.59 1248.54 1539.11 Q1246.72 1536.63 1243 1536.63 Q1238.45 1536.63 1235.81 1539.65 Q1233.16 1542.68 1233.16 1547.9 L1233.16 1568.04 L1227.28 1568.04 L1227.28 1546.72 Q1227.28 1541.56 1225.46 1539.11 Q1223.65 1536.63 1219.86 1536.63 Q1215.37 1536.63 1212.73 1539.68 Q1210.09 1542.71 1210.09 1547.9 L1210.09 1568.04 L1204.2 1568.04 L1204.2 1532.4 L1210.09 1532.4 L1210.09 1537.93 Q1212.09 1534.66 1214.9 1533.1 Q1217.7 1531.54 1221.55 1531.54 Q1225.43 1531.54 1228.14 1533.51 Q1230.87 1535.48 1232.18 1539.24 Z" fill="#000000" fill-rule="evenodd" fill-opacity="1"></path><path clip-path="url(#clip660)" d="M1298.41 1548.76 L1298.41 1551.62 L1271.49 1551.62 Q1271.87 1557.67 1275.11 1560.85 Q1278.39 1564 1284.22 1564 Q1287.59 1564 1290.74 1563.17 Q1293.93 1562.35 1297.04 1560.69 L1297.04 1566.23 Q1293.89 1567.57 1290.58 1568.27 Q1287.27 1568.97 1283.87 1568.97 Q1275.34 1568.97 1270.34 1564 Q1265.38 1559.04 1265.38 1550.57 Q1265.38 1541.82 1270.09 1536.69 Q1274.83 1531.54 1282.85 1531.54 Q1290.04 1531.54 1294.21 1536.18 Q1298.41 1540.8 1298.41 1548.76 M1292.56 1547.04 Q1292.49 1542.23 1289.85 1539.37 Q1287.24 1536.5 1282.91 1536.5 Q1278.01 1536.5 1275.05 1539.27 Q1272.12 1542.04 1271.68 1547.07 L1292.56 1547.04 Z" fill="#000000" fill-rule="evenodd" fill-opacity="1"></path><path clip-path="url(#clip660)" d="M1351.47 1533.45 L1351.47 1538.98 Q1348.99 1537.71 1346.32 1537.07 Q1343.64 1536.44 1340.78 1536.44 Q1336.42 1536.44 1334.22 1537.77 Q1332.06 1539.11 1332.06 1541.79 Q1332.06 1543.82 1333.62 1545 Q1335.18 1546.15 1339.89 1547.2 L1341.89 1547.64 Q1348.13 1548.98 1350.74 1551.43 Q1353.38 1553.85 1353.38 1558.21 Q1353.38 1563.17 1349.43 1566.07 Q1345.52 1568.97 1338.64 1568.97 Q1335.78 1568.97 1332.66 1568.39 Q1329.57 1567.85 1326.14 1566.74 L1326.14 1560.69 Q1329.38 1562.38 1332.53 1563.24 Q1335.68 1564.07 1338.77 1564.07 Q1342.91 1564.07 1345.14 1562.66 Q1347.37 1561.23 1347.37 1558.65 Q1347.37 1556.27 1345.74 1554.99 Q1344.15 1553.72 1338.71 1552.54 L1336.67 1552.07 Q1331.23 1550.92 1328.81 1548.56 Q1326.39 1546.18 1326.39 1542.04 Q1326.39 1537.01 1329.96 1534.27 Q1333.52 1531.54 1340.08 1531.54 Q1343.32 1531.54 1346.19 1532.01 Q1349.05 1532.49 1351.47 1533.45 Z" fill="#000000" fill-rule="evenodd" fill-opacity="1"></path><path clip-path="url(#clip660)" d="M1368.5 1522.27 L1368.5 1532.4 L1380.56 1532.4 L1380.56 1536.95 L1368.5 1536.95 L1368.5 1556.3 Q1368.5 1560.66 1369.68 1561.9 Q1370.89 1563.14 1374.55 1563.14 L1380.56 1563.14 L1380.56 1568.04 L1374.55 1568.04 Q1367.77 1568.04 1365.19 1565.53 Q1362.61 1562.98 1362.61 1556.3 L1362.61 1536.95 L1358.31 1536.95 L1358.31 1532.4 L1362.61 1532.4 L1362.61 1522.27 L1368.5 1522.27 Z" fill="#000000" fill-rule="evenodd" fill-opacity="1"></path><path clip-path="url(#clip660)" d="M1418.76 1548.76 L1418.76 1551.62 L1391.83 1551.62 Q1392.21 1557.67 1395.46 1560.85 Q1398.74 1564 1404.56 1564 Q1407.94 1564 1411.09 1563.17 Q1414.27 1562.35 1417.39 1560.69 L1417.39 1566.23 Q1414.24 1567.57 1410.93 1568.27 Q1407.62 1568.97 1404.21 1568.97 Q1395.68 1568.97 1390.68 1564 Q1385.72 1559.04 1385.72 1550.57 Q1385.72 1541.82 1390.43 1536.69 Q1395.17 1531.54 1403.19 1531.54 Q1410.39 1531.54 1414.56 1536.18 Q1418.76 1540.8 1418.76 1548.76 M1412.9 1547.04 Q1412.84 1542.23 1410.19 1539.37 Q1407.59 1536.5 1403.26 1536.5 Q1398.35 1536.5 1395.39 1539.27 Q1392.47 1542.04 1392.02 1547.07 L1412.9 1547.04 Z" fill="#000000" fill-rule="evenodd" fill-opacity="1"></path><path clip-path="url(#clip660)" d="M1434.03 1562.7 L1434.03 1581.6 L1428.15 1581.6 L1428.15 1532.4 L1434.03 1532.4 L1434.03 1537.81 Q1435.88 1534.62 1438.68 1533.1 Q1441.51 1531.54 1445.43 1531.54 Q1451.92 1531.54 1455.96 1536.69 Q1460.04 1541.85 1460.04 1550.25 Q1460.04 1558.65 1455.96 1563.81 Q1451.92 1568.97 1445.43 1568.97 Q1441.51 1568.97 1438.68 1567.44 Q1435.88 1565.88 1434.03 1562.7 M1453.96 1550.25 Q1453.96 1543.79 1451.29 1540.13 Q1448.64 1536.44 1444 1536.44 Q1439.35 1536.44 1436.68 1540.13 Q1434.03 1543.79 1434.03 1550.25 Q1434.03 1556.71 1436.68 1560.4 Q1439.35 1564.07 1444 1564.07 Q1448.64 1564.07 1451.29 1560.4 Q1453.96 1556.71 1453.96 1550.25 Z" fill="#000000" fill-rule="evenodd" fill-opacity="1"></path><polyline clip-path="url(#clip662)" style="stroke:#000000; stroke-linecap:butt; stroke-linejoin:round; stroke-width:2; stroke-opacity:0.1; fill:none" points="
  249.449,1211.5 2352.76,1211.5 
  "></polyline>
<polyline clip-path="url(#clip662)" style="stroke:#000000; stroke-linecap:butt; stroke-linejoin:round; stroke-width:2; stroke-opacity:0.1; fill:none" points="
  249.449,893.974 2352.76,893.974 
  "></polyline>
<polyline clip-path="url(#clip662)" style="stroke:#000000; stroke-linecap:butt; stroke-linejoin:round; stroke-width:2; stroke-opacity:0.1; fill:none" points="
  249.449,576.45 2352.76,576.45 
  "></polyline>
<polyline clip-path="url(#clip662)" style="stroke:#000000; stroke-linecap:butt; stroke-linejoin:round; stroke-width:2; stroke-opacity:0.1; fill:none" points="
  249.449,258.927 2352.76,258.927 
  "></polyline>
<polyline clip-path="url(#clip660)" style="stroke:#000000; stroke-linecap:butt; stroke-linejoin:round; stroke-width:4; stroke-opacity:1; fill:none" points="
  249.449,1423.18 249.449,47.2441 
  "></polyline>
<polyline clip-path="url(#clip660)" style="stroke:#000000; stroke-linecap:butt; stroke-linejoin:round; stroke-width:4; stroke-opacity:1; fill:none" points="
  249.449,1211.5 268.347,1211.5 
  "></polyline>
<polyline clip-path="url(#clip660)" style="stroke:#000000; stroke-linecap:butt; stroke-linejoin:round; stroke-width:4; stroke-opacity:1; fill:none" points="
  249.449,893.974 268.347,893.974 
  "></polyline>
<polyline clip-path="url(#clip660)" style="stroke:#000000; stroke-linecap:butt; stroke-linejoin:round; stroke-width:4; stroke-opacity:1; fill:none" points="
  249.449,576.45 268.347,576.45 
  "></polyline>
<polyline clip-path="url(#clip660)" style="stroke:#000000; stroke-linecap:butt; stroke-linejoin:round; stroke-width:4; stroke-opacity:1; fill:none" points="
  249.449,258.927 268.347,258.927 
  "></polyline>
<path clip-path="url(#clip660)" d="M127.709 1197.3 Q124.098 1197.3 122.269 1200.86 Q120.464 1204.4 120.464 1211.53 Q120.464 1218.64 122.269 1222.2 Q124.098 1225.75 127.709 1225.75 Q131.343 1225.75 133.149 1222.2 Q134.978 1218.64 134.978 1211.53 Q134.978 1204.4 133.149 1200.86 Q131.343 1197.3 127.709 1197.3 M127.709 1193.59 Q133.519 1193.59 136.575 1198.2 Q139.654 1202.78 139.654 1211.53 Q139.654 1220.26 136.575 1224.87 Q133.519 1229.45 127.709 1229.45 Q121.899 1229.45 118.82 1224.87 Q115.765 1220.26 115.765 1211.53 Q115.765 1202.78 118.82 1198.2 Q121.899 1193.59 127.709 1193.59 Z" fill="#000000" fill-rule="evenodd" fill-opacity="1"></path><path clip-path="url(#clip660)" d="M147.871 1222.9 L152.755 1222.9 L152.755 1228.78 L147.871 1228.78 L147.871 1222.9 Z" fill="#000000" fill-rule="evenodd" fill-opacity="1"></path><path clip-path="url(#clip660)" d="M161.76 1194.22 L183.982 1194.22 L183.982 1196.21 L171.436 1228.78 L166.552 1228.78 L178.357 1198.15 L161.76 1198.15 L161.76 1194.22 Z" fill="#000000" fill-rule="evenodd" fill-opacity="1"></path><path clip-path="url(#clip660)" d="M197.13 1224.84 L213.449 1224.84 L213.449 1228.78 L191.505 1228.78 L191.505 1224.84 Q194.167 1222.09 198.75 1217.46 Q203.357 1212.81 204.537 1211.46 Q206.783 1208.94 207.662 1207.2 Q208.565 1205.44 208.565 1203.75 Q208.565 1201 206.621 1199.26 Q204.699 1197.53 201.598 1197.53 Q199.399 1197.53 196.945 1198.29 Q194.514 1199.06 191.737 1200.61 L191.737 1195.88 Q194.561 1194.75 197.014 1194.17 Q199.468 1193.59 201.505 1193.59 Q206.875 1193.59 210.07 1196.28 Q213.264 1198.96 213.264 1203.45 Q213.264 1205.58 212.454 1207.5 Q211.667 1209.4 209.561 1212 Q208.982 1212.67 205.88 1215.88 Q202.778 1219.08 197.13 1224.84 Z" fill="#000000" fill-rule="evenodd" fill-opacity="1"></path><path clip-path="url(#clip660)" d="M127.107 879.772 Q123.496 879.772 121.668 883.337 Q119.862 886.879 119.862 894.009 Q119.862 901.115 121.668 904.68 Q123.496 908.221 127.107 908.221 Q130.742 908.221 132.547 904.68 Q134.376 901.115 134.376 894.009 Q134.376 886.879 132.547 883.337 Q130.742 879.772 127.107 879.772 M127.107 876.069 Q132.917 876.069 135.973 880.675 Q139.052 885.259 139.052 894.009 Q139.052 902.735 135.973 907.342 Q132.917 911.925 127.107 911.925 Q121.297 911.925 118.218 907.342 Q115.163 902.735 115.163 894.009 Q115.163 885.259 118.218 880.675 Q121.297 876.069 127.107 876.069 Z" fill="#000000" fill-rule="evenodd" fill-opacity="1"></path><path clip-path="url(#clip660)" d="M147.269 905.374 L152.153 905.374 L152.153 911.254 L147.269 911.254 L147.269 905.374 Z" fill="#000000" fill-rule="evenodd" fill-opacity="1"></path><path clip-path="url(#clip660)" d="M161.158 876.694 L183.38 876.694 L183.38 878.685 L170.834 911.254 L165.95 911.254 L177.755 880.629 L161.158 880.629 L161.158 876.694 Z" fill="#000000" fill-rule="evenodd" fill-opacity="1"></path><path clip-path="url(#clip660)" d="M192.547 876.694 L210.903 876.694 L210.903 880.629 L196.829 880.629 L196.829 889.101 Q197.848 888.754 198.866 888.592 Q199.885 888.407 200.903 888.407 Q206.69 888.407 210.07 891.578 Q213.449 894.749 213.449 900.166 Q213.449 905.745 209.977 908.846 Q206.505 911.925 200.186 911.925 Q198.01 911.925 195.741 911.555 Q193.496 911.184 191.088 910.444 L191.088 905.745 Q193.172 906.879 195.394 907.434 Q197.616 907.99 200.093 907.99 Q204.098 907.99 206.436 905.883 Q208.774 903.777 208.774 900.166 Q208.774 896.555 206.436 894.448 Q204.098 892.342 200.093 892.342 Q198.218 892.342 196.343 892.759 Q194.491 893.175 192.547 894.055 L192.547 876.694 Z" fill="#000000" fill-rule="evenodd" fill-opacity="1"></path><path clip-path="url(#clip660)" d="M126.205 562.249 Q122.593 562.249 120.765 565.814 Q118.959 569.355 118.959 576.485 Q118.959 583.591 120.765 587.156 Q122.593 590.698 126.205 590.698 Q129.839 590.698 131.644 587.156 Q133.473 583.591 133.473 576.485 Q133.473 569.355 131.644 565.814 Q129.839 562.249 126.205 562.249 M126.205 558.545 Q132.015 558.545 135.07 563.152 Q138.149 567.735 138.149 576.485 Q138.149 585.212 135.07 589.818 Q132.015 594.401 126.205 594.401 Q120.394 594.401 117.316 589.818 Q114.26 585.212 114.26 576.485 Q114.26 567.735 117.316 563.152 Q120.394 558.545 126.205 558.545 Z" fill="#000000" fill-rule="evenodd" fill-opacity="1"></path><path clip-path="url(#clip660)" d="M146.366 587.851 L151.251 587.851 L151.251 593.73 L146.366 593.73 L146.366 587.851 Z" fill="#000000" fill-rule="evenodd" fill-opacity="1"></path><path clip-path="url(#clip660)" d="M160.255 559.17 L182.477 559.17 L182.477 561.161 L169.931 593.73 L165.047 593.73 L176.852 563.105 L160.255 563.105 L160.255 559.17 Z" fill="#000000" fill-rule="evenodd" fill-opacity="1"></path><path clip-path="url(#clip660)" d="M201.598 577.318 Q198.264 577.318 196.343 579.101 Q194.445 580.883 194.445 584.008 Q194.445 587.133 196.343 588.915 Q198.264 590.698 201.598 590.698 Q204.931 590.698 206.852 588.915 Q208.774 587.11 208.774 584.008 Q208.774 580.883 206.852 579.101 Q204.954 577.318 201.598 577.318 M196.922 575.327 Q193.913 574.587 192.223 572.527 Q190.556 570.466 190.556 567.503 Q190.556 563.36 193.496 560.953 Q196.459 558.545 201.598 558.545 Q206.76 558.545 209.699 560.953 Q212.639 563.36 212.639 567.503 Q212.639 570.466 210.949 572.527 Q209.283 574.587 206.297 575.327 Q209.676 576.115 211.551 578.406 Q213.449 580.698 213.449 584.008 Q213.449 589.031 210.371 591.716 Q207.315 594.401 201.598 594.401 Q195.88 594.401 192.801 591.716 Q189.746 589.031 189.746 584.008 Q189.746 580.698 191.644 578.406 Q193.542 576.115 196.922 575.327 M195.209 567.943 Q195.209 570.628 196.875 572.133 Q198.565 573.638 201.598 573.638 Q204.607 573.638 206.297 572.133 Q208.01 570.628 208.01 567.943 Q208.01 565.258 206.297 563.753 Q204.607 562.249 201.598 562.249 Q198.565 562.249 196.875 563.753 Q195.209 565.258 195.209 567.943 Z" fill="#000000" fill-rule="evenodd" fill-opacity="1"></path><path clip-path="url(#clip660)" d="M127.339 244.725 Q123.728 244.725 121.899 248.29 Q120.093 251.832 120.093 258.961 Q120.093 266.068 121.899 269.632 Q123.728 273.174 127.339 273.174 Q130.973 273.174 132.779 269.632 Q134.607 266.068 134.607 258.961 Q134.607 251.832 132.779 248.29 Q130.973 244.725 127.339 244.725 M127.339 241.022 Q133.149 241.022 136.204 245.628 Q139.283 250.211 139.283 258.961 Q139.283 267.688 136.204 272.295 Q133.149 276.878 127.339 276.878 Q121.529 276.878 118.45 272.295 Q115.394 267.688 115.394 258.961 Q115.394 250.211 118.45 245.628 Q121.529 241.022 127.339 241.022 Z" fill="#000000" fill-rule="evenodd" fill-opacity="1"></path><path clip-path="url(#clip660)" d="M147.501 270.327 L152.385 270.327 L152.385 276.207 L147.501 276.207 L147.501 270.327 Z" fill="#000000" fill-rule="evenodd" fill-opacity="1"></path><path clip-path="url(#clip660)" d="M172.57 259.795 Q169.237 259.795 167.315 261.577 Q165.417 263.359 165.417 266.484 Q165.417 269.609 167.315 271.392 Q169.237 273.174 172.57 273.174 Q175.903 273.174 177.825 271.392 Q179.746 269.586 179.746 266.484 Q179.746 263.359 177.825 261.577 Q175.926 259.795 172.57 259.795 M167.894 257.804 Q164.885 257.063 163.195 255.003 Q161.528 252.943 161.528 249.98 Q161.528 245.836 164.468 243.429 Q167.431 241.022 172.57 241.022 Q177.732 241.022 180.672 243.429 Q183.612 245.836 183.612 249.98 Q183.612 252.943 181.922 255.003 Q180.255 257.063 177.269 257.804 Q180.649 258.591 182.524 260.883 Q184.422 263.174 184.422 266.484 Q184.422 271.507 181.343 274.193 Q178.288 276.878 172.57 276.878 Q166.852 276.878 163.774 274.193 Q160.718 271.507 160.718 266.484 Q160.718 263.174 162.616 260.883 Q164.515 258.591 167.894 257.804 M166.181 250.42 Q166.181 253.105 167.848 254.609 Q169.538 256.114 172.57 256.114 Q175.579 256.114 177.269 254.609 Q178.982 253.105 178.982 250.42 Q178.982 247.734 177.269 246.23 Q175.579 244.725 172.57 244.725 Q169.538 244.725 167.848 246.23 Q166.181 247.734 166.181 250.42 Z" fill="#000000" fill-rule="evenodd" fill-opacity="1"></path><path clip-path="url(#clip660)" d="M193.542 272.271 L201.181 272.271 L201.181 245.906 L192.871 247.572 L192.871 243.313 L201.135 241.647 L205.811 241.647 L205.811 272.271 L213.449 272.271 L213.449 276.207 L193.542 276.207 L193.542 272.271 Z" fill="#000000" fill-rule="evenodd" fill-opacity="1"></path><path clip-path="url(#clip660)" d="M16.4842 926.645 L16.4842 920.215 L35.9632 920.215 L35.9632 896.853 L16.4842 896.853 L16.4842 890.424 L64.0042 890.424 L64.0042 896.853 L41.3741 896.853 L41.3741 920.215 L64.0042 920.215 L64.0042 926.645 L16.4842 926.645 Z" fill="#000000" fill-rule="evenodd" fill-opacity="1"></path><path clip-path="url(#clip660)" d="M46.0847 861.683 Q46.0847 868.78 47.7079 871.518 Q49.3312 874.255 53.2461 874.255 Q56.3653 874.255 58.2114 872.218 Q60.0256 870.149 60.0256 866.616 Q60.0256 861.746 56.5881 858.818 Q53.1188 855.858 47.3897 855.858 L46.0847 855.858 L46.0847 861.683 M43.6657 850.002 L64.0042 850.002 L64.0042 855.858 L58.5933 855.858 Q61.8398 857.863 63.3994 860.855 Q64.9272 863.847 64.9272 868.176 Q64.9272 873.65 61.8716 876.897 Q58.7843 880.111 53.6281 880.111 Q47.6125 880.111 44.5569 876.101 Q41.5014 872.059 41.5014 864.07 L41.5014 855.858 L40.9285 855.858 Q36.8862 855.858 34.6901 858.532 Q32.4621 861.173 32.4621 865.979 Q32.4621 869.035 33.1941 871.931 Q33.9262 874.828 35.3903 877.501 L29.9795 877.501 Q28.7381 874.287 28.1334 871.263 Q27.4968 868.239 27.4968 865.375 Q27.4968 857.64 31.5072 853.821 Q35.5176 850.002 43.6657 850.002 Z" fill="#000000" fill-rule="evenodd" fill-opacity="1"></path><path clip-path="url(#clip660)" d="M35.1993 810.184 Q31.2526 807.988 29.3747 804.932 Q27.4968 801.877 27.4968 797.739 Q27.4968 792.169 31.4117 789.145 Q35.2948 786.122 42.4881 786.122 L64.0042 786.122 L64.0042 792.01 L42.679 792.01 Q37.5546 792.01 35.072 793.824 Q32.5894 795.638 32.5894 799.362 Q32.5894 803.914 35.6131 806.556 Q38.6368 809.197 43.8567 809.197 L64.0042 809.197 L64.0042 815.086 L42.679 815.086 Q37.5228 815.086 35.072 816.9 Q32.5894 818.714 32.5894 822.502 Q32.5894 826.99 35.6449 829.631 Q38.6686 832.273 43.8567 832.273 L64.0042 832.273 L64.0042 838.161 L28.3562 838.161 L28.3562 832.273 L33.8944 832.273 Q30.616 830.268 29.0564 827.467 Q27.4968 824.666 27.4968 820.815 Q27.4968 816.932 29.4702 814.226 Q31.4436 811.489 35.1993 810.184 Z" fill="#000000" fill-rule="evenodd" fill-opacity="1"></path><path clip-path="url(#clip660)" d="M28.3562 774.441 L28.3562 768.584 L64.0042 768.584 L64.0042 774.441 L28.3562 774.441 M14.479 774.441 L14.479 768.584 L21.895 768.584 L21.895 774.441 L14.479 774.441 Z" fill="#000000" fill-rule="evenodd" fill-opacity="1"></path><path clip-path="url(#clip660)" d="M14.479 756.33 L14.479 750.474 L64.0042 750.474 L64.0042 756.33 L14.479 756.33 Z" fill="#000000" fill-rule="evenodd" fill-opacity="1"></path><path clip-path="url(#clip660)" d="M18.2347 732.427 L28.3562 732.427 L28.3562 720.364 L32.9077 720.364 L32.9077 732.427 L52.2594 732.427 Q56.6199 732.427 57.8613 731.249 Q59.1026 730.04 59.1026 726.38 L59.1026 720.364 L64.0042 720.364 L64.0042 726.38 Q64.0042 733.159 61.4897 735.737 Q58.9434 738.315 52.2594 738.315 L32.9077 738.315 L32.9077 742.612 L28.3562 742.612 L28.3562 738.315 L18.2347 738.315 L18.2347 732.427 Z" fill="#000000" fill-rule="evenodd" fill-opacity="1"></path><path clip-path="url(#clip660)" d="M32.4621 698.848 Q32.4621 703.558 36.1542 706.296 Q39.8145 709.033 46.212 709.033 Q52.6095 709.033 56.3017 706.328 Q59.9619 703.59 59.9619 698.848 Q59.9619 694.169 56.2698 691.432 Q52.5777 688.695 46.212 688.695 Q39.8781 688.695 36.186 691.432 Q32.4621 694.169 32.4621 698.848 M27.4968 698.848 Q27.4968 691.209 32.4621 686.849 Q37.4273 682.488 46.212 682.488 Q54.9649 682.488 59.9619 686.849 Q64.9272 691.209 64.9272 698.848 Q64.9272 706.519 59.9619 710.879 Q54.9649 715.208 46.212 715.208 Q37.4273 715.208 32.4621 710.879 Q27.4968 706.519 27.4968 698.848 Z" fill="#000000" fill-rule="evenodd" fill-opacity="1"></path><path clip-path="url(#clip660)" d="M42.4881 643.148 L64.0042 643.148 L64.0042 649.004 L42.679 649.004 Q37.6183 649.004 35.1038 650.978 Q32.5894 652.951 32.5894 656.898 Q32.5894 661.64 35.6131 664.378 Q38.6368 667.115 43.8567 667.115 L64.0042 667.115 L64.0042 673.003 L28.3562 673.003 L28.3562 667.115 L33.8944 667.115 Q30.6797 665.014 29.0883 662.181 Q27.4968 659.317 27.4968 655.593 Q27.4968 649.45 31.3163 646.299 Q35.1038 643.148 42.4881 643.148 Z" fill="#000000" fill-rule="evenodd" fill-opacity="1"></path><path clip-path="url(#clip660)" d="M28.3562 631.467 L28.3562 625.61 L64.0042 625.61 L64.0042 631.467 L28.3562 631.467 M14.479 631.467 L14.479 625.61 L21.895 625.61 L21.895 631.467 L14.479 631.467 Z" fill="#000000" fill-rule="evenodd" fill-opacity="1"></path><path clip-path="url(#clip660)" d="M46.0847 597.156 Q46.0847 604.253 47.7079 606.991 Q49.3312 609.728 53.2461 609.728 Q56.3653 609.728 58.2114 607.691 Q60.0256 605.622 60.0256 602.089 Q60.0256 597.219 56.5881 594.291 Q53.1188 591.331 47.3897 591.331 L46.0847 591.331 L46.0847 597.156 M43.6657 585.475 L64.0042 585.475 L64.0042 591.331 L58.5933 591.331 Q61.8398 593.336 63.3994 596.328 Q64.9272 599.32 64.9272 603.649 Q64.9272 609.123 61.8716 612.37 Q58.7843 615.584 53.6281 615.584 Q47.6125 615.584 44.5569 611.574 Q41.5014 607.532 41.5014 599.543 L41.5014 591.331 L40.9285 591.331 Q36.8862 591.331 34.6901 594.005 Q32.4621 596.646 32.4621 601.453 Q32.4621 604.508 33.1941 607.404 Q33.9262 610.301 35.3903 612.974 L29.9795 612.974 Q28.7381 609.76 28.1334 606.736 Q27.4968 603.712 27.4968 600.848 Q27.4968 593.113 31.5072 589.294 Q35.5176 585.475 43.6657 585.475 Z" fill="#000000" fill-rule="evenodd" fill-opacity="1"></path><path clip-path="url(#clip660)" d="M42.4881 543.779 L64.0042 543.779 L64.0042 549.636 L42.679 549.636 Q37.6183 549.636 35.1038 551.609 Q32.5894 553.582 32.5894 557.529 Q32.5894 562.272 35.6131 565.009 Q38.6368 567.746 43.8567 567.746 L64.0042 567.746 L64.0042 573.634 L28.3562 573.634 L28.3562 567.746 L33.8944 567.746 Q30.6797 565.645 29.0883 562.813 Q27.4968 559.948 27.4968 556.224 Q27.4968 550.081 31.3163 546.93 Q35.1038 543.779 42.4881 543.779 Z" fill="#000000" fill-rule="evenodd" fill-opacity="1"></path><polyline clip-path="url(#clip662)" style="stroke:#009af9; stroke-linecap:butt; stroke-linejoin:round; stroke-width:12; stroke-opacity:1; fill:none" points="
  308.977,893.974 318.948,893.973 328.919,893.972 338.89,893.969 348.861,893.967 358.833,893.963 368.804,893.959 378.775,893.955 388.746,893.95 398.717,893.946 
  408.688,893.941 418.659,893.936 428.63,893.931 438.601,893.926 448.573,893.921 458.544,893.916 468.515,893.911 478.486,893.907 488.457,893.902 498.428,893.897 
  508.399,893.893 518.37,893.888 528.341,893.884 538.313,893.88 548.284,893.875 558.255,893.87 568.226,893.866 578.197,893.862 588.168,893.857 598.139,893.852 
  608.11,893.848 618.081,893.844 628.053,893.839 638.024,893.833 647.995,893.828 657.966,893.823 667.937,893.818 677.908,893.814 687.879,893.809 697.85,893.804 
  707.821,893.799 717.793,893.795 727.764,893.79 737.735,893.786 747.706,893.781 757.677,893.776 767.648,893.772 777.619,893.768 787.59,893.763 797.561,893.759 
  807.533,893.755 817.504,893.75 827.475,893.746 837.446,893.741 847.417,893.736 857.388,893.731 867.359,893.726 877.33,893.721 887.302,893.716 897.273,893.711 
  907.244,893.706 917.215,893.701 927.186,893.697 937.157,893.692 947.128,893.687 957.099,893.683 967.07,893.679 977.042,893.674 987.013,893.67 996.984,893.665 
  1006.95,893.661 1016.93,893.657 1026.9,893.652 1036.87,893.647 1046.84,893.643 1056.81,893.639 1066.78,893.634 1076.75,893.628 1086.72,893.623 1096.69,893.618 
  1106.67,893.613 1116.64,893.608 1126.61,893.604 1136.58,893.599 1146.55,893.594 1156.52,893.589 1166.49,893.585 1176.46,893.581 1186.43,893.576 1196.41,893.571 
  1206.38,893.567 1216.35,893.563 1226.32,893.558 1236.29,893.553 1246.26,893.549 1256.23,893.545 1266.2,893.541 1276.17,893.536 1286.15,893.531 1296.12,893.526 
  1306.09,893.521 1316.06,893.516 1326.03,893.511 1336,893.506 1345.97,893.501 1355.94,893.496 1365.91,893.492 1375.89,893.487 1385.86,893.482 1395.83,893.478 
  1405.8,893.473 1415.77,893.469 1425.74,893.465 1435.71,893.46 1445.68,893.455 1455.65,893.451 1465.63,893.447 1475.6,893.442 1485.57,893.438 1495.54,893.434 
  1505.51,893.429 1515.48,893.424 1525.45,893.418 1535.42,893.413 1545.39,893.408 1555.37,893.403 1565.34,893.399 1575.31,893.394 1585.28,893.389 1595.25,893.384 
  1605.22,893.38 1615.19,893.376 1625.16,893.371 1635.13,893.366 1645.11,893.362 1655.08,893.358 1665.05,893.353 1675.02,893.349 1684.99,893.344 1694.96,893.34 
  1704.93,893.336 1714.9,893.331 1724.87,893.326 1734.85,893.321 1744.82,893.316 1754.79,893.311 1764.76,893.306 1774.73,893.301 1784.7,893.296 1794.67,893.291 
  1804.64,893.287 1814.61,893.283 1824.59,893.278 1834.56,893.273 1844.53,893.268 1854.5,893.264 1864.47,893.26 1874.44,893.255 1884.41,893.25 1894.38,893.246 
  1904.35,893.242 1914.33,893.237 1924.3,893.233 1934.27,893.229 1944.24,893.224 1954.21,893.22 1964.18,893.214 1974.15,893.209 1984.12,893.203 1994.09,893.199 
  2004.07,893.194 2014.04,893.19 2024.01,893.185 2033.98,893.18 2043.95,893.175 2053.92,893.171 2063.89,893.167 2073.86,893.162 2083.84,893.157 2093.81,893.153 
  2103.78,893.149 2113.75,893.144 2123.72,893.139 2133.69,893.135 2143.66,893.131 2153.63,893.126 2163.6,893.122 2173.58,893.117 2183.55,893.112 2193.52,893.107 
  2203.49,893.102 2213.46,893.097 2223.43,893.092 2233.4,893.087 2243.37,893.082 2253.34,893.078 2263.32,893.073 2273.29,893.068 2283.26,893.064 2293.23,893.06 
  
  "></polyline>
<polyline clip-path="url(#clip662)" style="stroke:#e26f46; stroke-linecap:butt; stroke-linejoin:round; stroke-width:12; stroke-opacity:1; fill:none" points="
  308.977,893.974 318.948,846.07 328.919,798.878 338.89,753.588 348.861,711.406 358.833,673.51 368.804,640.994 378.775,614.819 388.746,595.757 398.717,584.345 
  408.688,580.853 418.659,585.279 428.63,597.345 438.601,616.541 448.573,642.154 458.544,673.326 468.515,709.109 478.486,748.496 488.457,790.475 498.428,834.059 
  508.399,878.293 518.37,922.285 528.341,965.211 538.313,1006.33 548.284,1044.98 558.255,1080.58 568.226,1112.63 578.197,1140.72 588.168,1164.5 598.139,1183.71 
  608.11,1198.11 618.081,1207.54 628.053,1211.89 638.024,1211.04 647.995,1204.98 657.966,1193.68 667.937,1177.22 677.908,1155.7 687.879,1129.32 697.85,1098.34 
  707.821,1063.15 717.793,1024.23 727.764,982.187 737.735,937.731 747.706,891.694 757.677,844.999 767.648,798.662 777.619,753.764 787.59,711.411 797.561,672.718 
  807.533,638.753 817.504,610.488 827.475,588.751 837.446,574.176 847.417,567.157 857.388,567.836 867.359,576.084 877.33,591.537 887.302,613.611 897.273,641.556 
  907.244,674.511 917.215,711.532 927.186,751.653 937.157,793.913 947.128,837.373 957.099,881.141 967.07,924.389 977.042,966.36 987.013,1006.37 996.984,1043.81 
  1006.95,1078.15 1016.93,1108.94 1026.9,1135.8 1036.87,1158.4 1046.84,1176.47 1056.81,1189.79 1066.78,1198.16 1076.75,1201.44 1086.72,1199.49 1096.69,1192.23 
  1106.67,1179.62 1116.64,1161.68 1126.61,1138.5 1136.58,1110.27 1146.55,1077.28 1156.52,1039.95 1166.49,998.826 1176.46,954.615 1186.43,908.141 1196.41,860.356 
  1206.38,812.324 1216.35,765.194 1226.32,720.157 1236.29,678.42 1246.26,641.155 1256.23,609.441 1266.2,584.216 1276.17,566.224 1286.15,555.967 1296.12,553.675 
  1306.09,559.301 1316.06,572.536 1326.03,592.827 1336,619.439 1345.97,651.496 1355.94,688.024 1365.91,728.022 1375.89,770.474 1385.86,814.384 1395.83,858.808 
  1405.8,902.864 1415.77,945.736 1425.74,986.687 1435.71,1025.07 1445.68,1060.31 1455.65,1091.92 1465.63,1119.51 1475.6,1142.73 1485.57,1161.33 1495.54,1175.08 
  1505.51,1183.84 1515.48,1187.47 1525.45,1185.9 1535.42,1179.09 1545.39,1167.05 1555.37,1149.84 1565.34,1127.59 1575.31,1100.49 1585.28,1068.84 1595.25,1033.03 
  1605.22,993.551 1615.19,951.035 1625.16,906.207 1635.13,859.907 1645.11,813.081 1655.08,766.758 1665.05,722.018 1675.02,679.979 1684.99,641.756 1694.96,608.407 
  1704.93,580.894 1714.9,560.024 1724.87,546.406 1734.85,540.403 1744.82,542.117 1754.79,551.395 1764.76,567.835 1774.73,590.827 1784.7,619.607 1794.67,653.286 
  1804.64,690.92 1814.61,731.541 1824.59,774.177 1834.56,817.892 1844.53,861.807 1854.5,905.098 1864.47,947.01 1874.44,986.867 1884.41,1024.07 1894.38,1058.11 
  1904.35,1088.53 1914.33,1114.95 1924.3,1137.07 1934.27,1154.62 1944.24,1167.38 1954.21,1175.17 1964.18,1177.82 1974.15,1175.23 1984.12,1167.3 1994.09,1154.02 
  2004.07,1135.4 2014.04,1111.55 2024.01,1082.66 2033.98,1049.05 2043.95,1011.15 2053.92,969.524 2063.89,924.889 2073.86,878.086 2083.84,830.089 2093.81,781.977 
  2103.78,734.9 2113.75,690.06 2123.72,648.669 2133.69,611.887 2143.66,580.788 2153.63,556.295 2163.6,539.126 2173.58,529.757 2183.55,528.386 2193.52,534.94 
  2203.49,549.073 2213.46,570.211 2223.43,597.599 2233.4,630.337 2243.37,667.454 2253.34,707.934 2263.32,750.755 2273.29,794.931 2283.26,839.522 2293.23,883.638 
  
  "></polyline>
<polyline clip-path="url(#clip662)" style="stroke:#3da44d; stroke-linecap:butt; stroke-linejoin:round; stroke-width:12; stroke-opacity:1; fill:none" points="
  308.977,893.974 318.948,897.695 328.919,898.274 338.89,896.447 348.861,893.046 358.833,888.922 368.804,884.87 378.775,881.568 388.746,879.525 398.717,879.04 
  408.688,880.183 418.659,882.788 428.63,886.468 438.601,890.64 448.573,894.569 458.544,897.431 468.515,898.373 478.486,896.592 488.457,891.414 498.428,882.359 
  508.399,869.214 518.37,852.078 528.341,831.39 538.313,807.931 548.284,782.796 558.255,757.333 568.226,733.053 578.197,711.522 588.168,694.228 598.139,682.456 
  608.11,677.17 618.081,678.919 628.053,687.784 638.024,703.365 647.995,724.815 657.966,750.916 667.937,780.187 677.908,811.008 687.879,841.751 697.85,870.908 
  707.821,897.189 717.793,919.607 727.764,937.52 737.735,950.648 747.706,959.063 757.677,963.149 767.648,963.546 777.619,961.08 787.59,956.686 797.561,951.329 
  807.533,945.929 817.504,941.292 827.475,938.056 837.446,936.643 847.417,937.232 857.388,939.749 867.359,943.869 877.33,949.041 887.302,954.523 897.273,959.433 
  907.244,962.817 917.215,963.718 927.186,961.254 937.157,954.7 947.128,943.557 957.099,927.619 967.07,907.015 977.042,882.238 987.013,854.135 996.984,823.878 
  1006.95,792.896 1016.93,762.781 1026.9,735.172 1036.87,711.624 1046.84,693.479 1056.81,681.75 1066.78,677.027 1076.75,679.431 1086.72,688.604 1096.69,703.744 
  1106.67,723.687 1116.64,747.014 1126.61,772.175 1136.58,797.622 1146.55,821.926 1156.52,843.879 1166.49,862.563 1176.46,877.397 1186.43,888.142 1196.41,894.887 
  1206.38,898.006 1216.35,898.103 1226.32,895.937 1236.29,892.347 1246.26,888.181 1256.23,884.216 1266.2,881.105 1276.17,879.321 1286.15,879.125 1296.12,880.545 
  1306.09,883.374 1316.06,887.188 1326.03,891.374 1336,895.176 1345.97,897.76 1355.94,898.278 1365.91,895.942 1375.89,890.107 1385.86,880.338 1395.83,866.472 
  1405.8,848.668 1415.77,827.425 1425.74,803.582 1435.71,778.285 1445.68,752.918 1455.65,729.01 1465.63,708.122 1475.6,691.717 1485.57,681.031 1495.54,676.959 
  1505.51,679.972 1515.48,690.064 1525.45,706.753 1535.42,729.122 1545.39,755.896 1555.37,785.56 1565.34,816.484 1575.31,847.052 1585.28,875.787 1595.25,901.449 
  1605.22,923.108 1615.19,940.186 1625.16,952.468 1635.13,960.083 1645.11,963.466 1655.08,963.293 1665.05,960.417 1675.02,955.783 1684.99,950.354 1694.96,945.034 
  1704.93,940.605 1714.9,937.666 1724.87,936.6 1734.85,937.542 1744.82,940.372 1754.79,944.724 1764.76,950.01 1774.73,955.458 1784.7,960.169 1794.67,963.183 
  1804.64,963.551 1814.61,960.413 1824.59,953.077 1834.56,941.094 1844.53,924.313 1854.5,902.927 1864.47,877.491 1874.44,848.915 1884.41,818.42 1894.38,787.472 
  1904.35,757.681 1914.33,730.68 1924.3,707.996 1934.27,690.921 1944.24,680.397 1954.21,676.937 1964.18,680.575 1974.15,690.871 1984.12,706.952 1994.09,727.601 
  2004.07,751.365 2014.04,776.687 2024.01,802.031 2033.98,826.001 2043.95,847.434 2053.92,865.472 2063.89,879.592 2073.86,889.615 2083.84,895.686 2093.81,898.223 
  2103.78,897.862 2113.75,895.382 2123.72,891.631 2133.69,887.446 2143.66,883.589 2153.63,880.683 2163.6,879.167 2173.58,879.261 2183.55,880.951 2193.52,883.991 
  2203.49,887.92 2213.46,892.095 2223.43,895.745 2233.4,898.026 2243.37,898.093 2253.34,895.182 2263.32,888.678 2273.29,878.189 2283.26,863.607 2293.23,845.15 
  
  "></polyline>
<path clip-path="url(#clip660)" d="
M1636.12 300.469 L2282.65 300.469 L2282.65 93.1086 L1636.12 93.1086  Z
  " fill="#ffffff" fill-rule="evenodd" fill-opacity="1"></path>
<polyline clip-path="url(#clip660)" style="stroke:#000000; stroke-linecap:butt; stroke-linejoin:round; stroke-width:4; stroke-opacity:1; fill:none" points="
  1636.12,300.469 2282.65,300.469 2282.65,93.1086 1636.12,93.1086 1636.12,300.469 
  "></polyline>
<polyline clip-path="url(#clip660)" style="stroke:#009af9; stroke-linecap:butt; stroke-linejoin:round; stroke-width:4; stroke-opacity:1; fill:none" points="
  1659.49,144.949 1799.71,144.949 
  "></polyline>
<path clip-path="url(#clip660)" d="M1848.64 157.298 L1848.64 148.016 L1841 148.016 L1841 144.173 L1853.27 144.173 L1853.27 159.011 Q1850.56 160.932 1847.3 161.928 Q1844.03 162.9 1840.33 162.9 Q1832.23 162.9 1827.64 158.178 Q1823.08 153.432 1823.08 144.983 Q1823.08 136.511 1827.64 131.789 Q1832.23 127.044 1840.33 127.044 Q1843.71 127.044 1846.74 127.877 Q1849.8 128.71 1852.37 130.331 L1852.37 135.307 Q1849.77 133.108 1846.86 131.997 Q1843.94 130.886 1840.72 130.886 Q1834.38 130.886 1831.19 134.428 Q1828.01 137.969 1828.01 144.983 Q1828.01 151.974 1831.19 155.516 Q1834.38 159.057 1840.72 159.057 Q1843.2 159.057 1845.14 158.641 Q1847.09 158.201 1848.64 157.298 Z" fill="#000000" fill-rule="evenodd" fill-opacity="1"></path><path clip-path="url(#clip660)" d="M1876.65 140.284 Q1875.93 139.868 1875.07 139.682 Q1874.24 139.474 1873.22 139.474 Q1869.61 139.474 1867.67 141.835 Q1865.75 144.173 1865.75 148.571 L1865.75 162.229 L1861.46 162.229 L1861.46 136.303 L1865.75 136.303 L1865.75 140.331 Q1867.09 137.969 1869.24 136.835 Q1871.39 135.678 1874.47 135.678 Q1874.91 135.678 1875.44 135.747 Q1875.98 135.794 1876.63 135.909 L1876.65 140.284 Z" fill="#000000" fill-rule="evenodd" fill-opacity="1"></path><path clip-path="url(#clip660)" d="M1890.12 139.289 Q1886.69 139.289 1884.7 141.974 Q1882.71 144.636 1882.71 149.289 Q1882.71 153.942 1884.68 156.627 Q1886.67 159.289 1890.12 159.289 Q1893.52 159.289 1895.51 156.604 Q1897.5 153.918 1897.5 149.289 Q1897.5 144.682 1895.51 141.997 Q1893.52 139.289 1890.12 139.289 M1890.12 135.678 Q1895.68 135.678 1898.85 139.289 Q1902.02 142.9 1902.02 149.289 Q1902.02 155.655 1898.85 159.289 Q1895.68 162.9 1890.12 162.9 Q1884.54 162.9 1881.37 159.289 Q1878.22 155.655 1878.22 149.289 Q1878.22 142.9 1881.37 139.289 Q1884.54 135.678 1890.12 135.678 Z" fill="#000000" fill-rule="evenodd" fill-opacity="1"></path><path clip-path="url(#clip660)" d="M1908.64 151.997 L1908.64 136.303 L1912.9 136.303 L1912.9 151.835 Q1912.9 155.516 1914.33 157.368 Q1915.77 159.196 1918.64 159.196 Q1922.09 159.196 1924.08 156.997 Q1926.09 154.798 1926.09 151.002 L1926.09 136.303 L1930.35 136.303 L1930.35 162.229 L1926.09 162.229 L1926.09 158.247 Q1924.54 160.608 1922.48 161.766 Q1920.44 162.9 1917.74 162.9 Q1913.27 162.9 1910.95 160.122 Q1908.64 157.344 1908.64 151.997 M1919.36 135.678 L1919.36 135.678 Z" fill="#000000" fill-rule="evenodd" fill-opacity="1"></path><path clip-path="url(#clip660)" d="M1960.68 146.581 L1960.68 162.229 L1956.42 162.229 L1956.42 146.719 Q1956.42 143.039 1954.98 141.21 Q1953.55 139.382 1950.68 139.382 Q1947.23 139.382 1945.24 141.581 Q1943.25 143.78 1943.25 147.576 L1943.25 162.229 L1938.96 162.229 L1938.96 136.303 L1943.25 136.303 L1943.25 140.331 Q1944.77 137.993 1946.83 136.835 Q1948.92 135.678 1951.62 135.678 Q1956.09 135.678 1958.38 138.456 Q1960.68 141.21 1960.68 146.581 Z" fill="#000000" fill-rule="evenodd" fill-opacity="1"></path><path clip-path="url(#clip660)" d="M1986.23 140.238 L1986.23 126.21 L1990.49 126.21 L1990.49 162.229 L1986.23 162.229 L1986.23 158.34 Q1984.89 160.655 1982.83 161.789 Q1980.79 162.9 1977.92 162.9 Q1973.22 162.9 1970.26 159.15 Q1967.32 155.4 1967.32 149.289 Q1967.32 143.178 1970.26 139.428 Q1973.22 135.678 1977.92 135.678 Q1980.79 135.678 1982.83 136.812 Q1984.89 137.923 1986.23 140.238 M1971.72 149.289 Q1971.72 153.988 1973.64 156.673 Q1975.58 159.335 1978.96 159.335 Q1982.34 159.335 1984.29 156.673 Q1986.23 153.988 1986.23 149.289 Q1986.23 144.59 1984.29 141.928 Q1982.34 139.243 1978.96 139.243 Q1975.58 139.243 1973.64 141.928 Q1971.72 144.59 1971.72 149.289 Z" fill="#000000" fill-rule="evenodd" fill-opacity="1"></path><path clip-path="url(#clip660)" d="M2018.55 128.942 L2018.55 136.303 L2027.32 136.303 L2027.32 139.613 L2018.55 139.613 L2018.55 153.687 Q2018.55 156.858 2019.4 157.761 Q2020.28 158.664 2022.94 158.664 L2027.32 158.664 L2027.32 162.229 L2022.94 162.229 Q2018.01 162.229 2016.14 160.4 Q2014.26 158.548 2014.26 153.687 L2014.26 139.613 L2011.14 139.613 L2011.14 136.303 L2014.26 136.303 L2014.26 128.942 L2018.55 128.942 Z" fill="#000000" fill-rule="evenodd" fill-opacity="1"></path><path clip-path="url(#clip660)" d="M2047.94 140.284 Q2047.23 139.868 2046.37 139.682 Q2045.54 139.474 2044.52 139.474 Q2040.91 139.474 2038.96 141.835 Q2037.04 144.173 2037.04 148.571 L2037.04 162.229 L2032.76 162.229 L2032.76 136.303 L2037.04 136.303 L2037.04 140.331 Q2038.38 137.969 2040.54 136.835 Q2042.69 135.678 2045.77 135.678 Q2046.21 135.678 2046.74 135.747 Q2047.27 135.794 2047.92 135.909 L2047.94 140.284 Z" fill="#000000" fill-rule="evenodd" fill-opacity="1"></path><path clip-path="url(#clip660)" d="M2051.97 151.997 L2051.97 136.303 L2056.23 136.303 L2056.23 151.835 Q2056.23 155.516 2057.67 157.368 Q2059.1 159.196 2061.97 159.196 Q2065.42 159.196 2067.41 156.997 Q2069.42 154.798 2069.42 151.002 L2069.42 136.303 L2073.68 136.303 L2073.68 162.229 L2069.42 162.229 L2069.42 158.247 Q2067.87 160.608 2065.81 161.766 Q2063.78 162.9 2061.07 162.9 Q2056.6 162.9 2054.29 160.122 Q2051.97 157.344 2051.97 151.997 M2062.69 135.678 L2062.69 135.678 Z" fill="#000000" fill-rule="evenodd" fill-opacity="1"></path><path clip-path="url(#clip660)" d="M2086.67 128.942 L2086.67 136.303 L2095.44 136.303 L2095.44 139.613 L2086.67 139.613 L2086.67 153.687 Q2086.67 156.858 2087.53 157.761 Q2088.41 158.664 2091.07 158.664 L2095.44 158.664 L2095.44 162.229 L2091.07 162.229 Q2086.14 162.229 2084.26 160.4 Q2082.39 158.548 2082.39 153.687 L2082.39 139.613 L2079.26 139.613 L2079.26 136.303 L2082.39 136.303 L2082.39 128.942 L2086.67 128.942 Z" fill="#000000" fill-rule="evenodd" fill-opacity="1"></path><path clip-path="url(#clip660)" d="M2122.6 146.581 L2122.6 162.229 L2118.34 162.229 L2118.34 146.719 Q2118.34 143.039 2116.9 141.21 Q2115.47 139.382 2112.6 139.382 Q2109.15 139.382 2107.16 141.581 Q2105.17 143.78 2105.17 147.576 L2105.17 162.229 L2100.88 162.229 L2100.88 126.21 L2105.17 126.21 L2105.17 140.331 Q2106.69 137.993 2108.75 136.835 Q2110.84 135.678 2113.55 135.678 Q2118.01 135.678 2120.3 138.456 Q2122.6 141.21 2122.6 146.581 Z" fill="#000000" fill-rule="evenodd" fill-opacity="1"></path><polyline clip-path="url(#clip660)" style="stroke:#e26f46; stroke-linecap:butt; stroke-linejoin:round; stroke-width:4; stroke-opacity:1; fill:none" points="
  1659.49,196.789 1799.71,196.789 
  "></polyline>
<path clip-path="url(#clip660)" d="M1839.1 182.68 Q1834.01 182.68 1831 186.476 Q1828.01 190.272 1828.01 196.823 Q1828.01 203.351 1831 207.147 Q1834.01 210.944 1839.1 210.944 Q1844.19 210.944 1847.16 207.147 Q1850.14 203.351 1850.14 196.823 Q1850.14 190.272 1847.16 186.476 Q1844.19 182.68 1839.1 182.68 M1839.1 178.884 Q1846.37 178.884 1850.72 183.768 Q1855.07 188.629 1855.07 196.823 Q1855.07 204.995 1850.72 209.879 Q1846.37 214.74 1839.1 214.74 Q1831.81 214.74 1827.44 209.879 Q1823.08 205.018 1823.08 196.823 Q1823.08 188.629 1827.44 183.768 Q1831.81 178.884 1839.1 178.884 Z" fill="#000000" fill-rule="evenodd" fill-opacity="1"></path><path clip-path="url(#clip660)" d="M1861.37 199.184 L1873.85 199.184 L1873.85 202.981 L1861.37 202.981 L1861.37 199.184 Z" fill="#000000" fill-rule="evenodd" fill-opacity="1"></path><path clip-path="url(#clip660)" d="M1880.81 179.509 L1887.11 179.509 L1902.44 208.421 L1902.44 179.509 L1906.97 179.509 L1906.97 214.069 L1900.68 214.069 L1885.35 185.157 L1885.35 214.069 L1880.81 214.069 L1880.81 179.509 Z" fill="#000000" fill-rule="evenodd" fill-opacity="1"></path><path clip-path="url(#clip660)" d="M1916.28 179.509 L1938.13 179.509 L1938.13 183.444 L1920.95 183.444 L1920.95 193.675 L1937.41 193.675 L1937.41 197.61 L1920.95 197.61 L1920.95 210.133 L1938.55 210.133 L1938.55 214.069 L1916.28 214.069 L1916.28 179.509 Z" fill="#000000" fill-rule="evenodd" fill-opacity="1"></path><path clip-path="url(#clip660)" d="M1941.44 179.509 L1970.68 179.509 L1970.68 183.444 L1958.41 183.444 L1958.41 214.069 L1953.71 214.069 L1953.71 183.444 L1941.44 183.444 L1941.44 179.509 Z" fill="#000000" fill-rule="evenodd" fill-opacity="1"></path><polyline clip-path="url(#clip660)" style="stroke:#3da44d; stroke-linecap:butt; stroke-linejoin:round; stroke-width:4; stroke-opacity:1; fill:none" points="
  1659.49,248.629 1799.71,248.629 
  "></polyline>
<path clip-path="url(#clip660)" d="M1845.33 232.483 L1845.33 237.043 Q1842.67 235.77 1840.31 235.145 Q1837.94 234.52 1835.75 234.52 Q1831.93 234.52 1829.84 236.001 Q1827.78 237.483 1827.78 240.214 Q1827.78 242.506 1829.15 243.687 Q1830.54 244.844 1834.38 245.562 L1837.2 246.14 Q1842.44 247.136 1844.91 249.659 Q1847.41 252.159 1847.41 256.372 Q1847.41 261.395 1844.03 263.987 Q1840.68 266.58 1834.17 266.58 Q1831.72 266.58 1828.94 266.024 Q1826.19 265.469 1823.22 264.381 L1823.22 259.566 Q1826.07 261.163 1828.8 261.973 Q1831.53 262.784 1834.17 262.784 Q1838.18 262.784 1840.35 261.21 Q1842.53 259.636 1842.53 256.719 Q1842.53 254.173 1840.95 252.737 Q1839.4 251.302 1835.84 250.585 L1832.99 250.029 Q1827.76 248.987 1825.42 246.765 Q1823.08 244.543 1823.08 240.585 Q1823.08 236.001 1826.3 233.362 Q1829.54 230.724 1835.21 230.724 Q1837.64 230.724 1840.17 231.163 Q1842.69 231.603 1845.33 232.483 Z" fill="#000000" fill-rule="evenodd" fill-opacity="1"></path><path clip-path="url(#clip660)" d="M1858.73 232.622 L1858.73 239.983 L1867.5 239.983 L1867.5 243.293 L1858.73 243.293 L1858.73 257.367 Q1858.73 260.538 1859.59 261.441 Q1860.47 262.344 1863.13 262.344 L1867.5 262.344 L1867.5 265.909 L1863.13 265.909 Q1858.2 265.909 1856.32 264.08 Q1854.45 262.228 1854.45 257.367 L1854.45 243.293 L1851.32 243.293 L1851.32 239.983 L1854.45 239.983 L1854.45 232.622 L1858.73 232.622 Z" fill="#000000" fill-rule="evenodd" fill-opacity="1"></path><path clip-path="url(#clip660)" d="M1888.13 243.964 Q1887.41 243.548 1886.56 243.362 Q1885.72 243.154 1884.7 243.154 Q1881.09 243.154 1879.15 245.515 Q1877.23 247.853 1877.23 252.251 L1877.23 265.909 L1872.94 265.909 L1872.94 239.983 L1877.23 239.983 L1877.23 244.011 Q1878.57 241.649 1880.72 240.515 Q1882.88 239.358 1885.95 239.358 Q1886.39 239.358 1886.93 239.427 Q1887.46 239.474 1888.11 239.589 L1888.13 243.964 Z" fill="#000000" fill-rule="evenodd" fill-opacity="1"></path><path clip-path="url(#clip660)" d="M1892.16 255.677 L1892.16 239.983 L1896.42 239.983 L1896.42 255.515 Q1896.42 259.196 1897.85 261.048 Q1899.29 262.876 1902.16 262.876 Q1905.61 262.876 1907.6 260.677 Q1909.61 258.478 1909.61 254.682 L1909.61 239.983 L1913.87 239.983 L1913.87 265.909 L1909.61 265.909 L1909.61 261.927 Q1908.06 264.288 1906 265.446 Q1903.96 266.58 1901.25 266.58 Q1896.79 266.58 1894.47 263.802 Q1892.16 261.024 1892.16 255.677 M1902.87 239.358 L1902.87 239.358 Z" fill="#000000" fill-rule="evenodd" fill-opacity="1"></path><path clip-path="url(#clip660)" d="M1941.3 240.978 L1941.3 244.96 Q1939.5 243.964 1937.67 243.478 Q1935.86 242.969 1934.01 242.969 Q1929.87 242.969 1927.57 245.608 Q1925.28 248.224 1925.28 252.969 Q1925.28 257.714 1927.57 260.353 Q1929.87 262.969 1934.01 262.969 Q1935.86 262.969 1937.67 262.483 Q1939.5 261.973 1941.3 260.978 L1941.3 264.913 Q1939.52 265.747 1937.6 266.163 Q1935.7 266.58 1933.55 266.58 Q1927.69 266.58 1924.24 262.899 Q1920.79 259.219 1920.79 252.969 Q1920.79 246.626 1924.26 242.992 Q1927.76 239.358 1933.82 239.358 Q1935.79 239.358 1937.67 239.775 Q1939.54 240.168 1941.3 240.978 Z" fill="#000000" fill-rule="evenodd" fill-opacity="1"></path><path clip-path="url(#clip660)" d="M1952.92 232.622 L1952.92 239.983 L1961.69 239.983 L1961.69 243.293 L1952.92 243.293 L1952.92 257.367 Q1952.92 260.538 1953.78 261.441 Q1954.66 262.344 1957.32 262.344 L1961.69 262.344 L1961.69 265.909 L1957.32 265.909 Q1952.39 265.909 1950.51 264.08 Q1948.64 262.228 1948.64 257.367 L1948.64 243.293 L1945.51 243.293 L1945.51 239.983 L1948.64 239.983 L1948.64 232.622 L1952.92 232.622 Z" fill="#000000" fill-rule="evenodd" fill-opacity="1"></path><path clip-path="url(#clip660)" d="M1966.86 255.677 L1966.86 239.983 L1971.12 239.983 L1971.12 255.515 Q1971.12 259.196 1972.55 261.048 Q1973.99 262.876 1976.86 262.876 Q1980.31 262.876 1982.3 260.677 Q1984.31 258.478 1984.31 254.682 L1984.31 239.983 L1988.57 239.983 L1988.57 265.909 L1984.31 265.909 L1984.31 261.927 Q1982.76 264.288 1980.7 265.446 Q1978.66 266.58 1975.95 266.58 Q1971.49 266.58 1969.17 263.802 Q1966.86 261.024 1966.86 255.677 M1977.57 239.358 L1977.57 239.358 Z" fill="#000000" fill-rule="evenodd" fill-opacity="1"></path><path clip-path="url(#clip660)" d="M2012.37 243.964 Q2011.65 243.548 2010.79 243.362 Q2009.96 243.154 2008.94 243.154 Q2005.33 243.154 2003.38 245.515 Q2001.46 247.853 2001.46 252.251 L2001.46 265.909 L1997.18 265.909 L1997.18 239.983 L2001.46 239.983 L2001.46 244.011 Q2002.8 241.649 2004.96 240.515 Q2007.11 239.358 2010.19 239.358 Q2010.63 239.358 2011.16 239.427 Q2011.69 239.474 2012.34 239.589 L2012.37 243.964 Z" fill="#000000" fill-rule="evenodd" fill-opacity="1"></path><path clip-path="url(#clip660)" d="M2037.97 251.881 L2037.97 253.964 L2018.38 253.964 Q2018.66 258.362 2021.02 260.677 Q2023.41 262.969 2027.64 262.969 Q2030.1 262.969 2032.39 262.367 Q2034.7 261.765 2036.97 260.561 L2036.97 264.589 Q2034.68 265.561 2032.27 266.071 Q2029.86 266.58 2027.39 266.58 Q2021.18 266.58 2017.55 262.969 Q2013.94 259.358 2013.94 253.2 Q2013.94 246.835 2017.37 243.108 Q2020.81 239.358 2026.65 239.358 Q2031.88 239.358 2034.91 242.737 Q2037.97 246.094 2037.97 251.881 M2033.71 250.631 Q2033.66 247.136 2031.74 245.052 Q2029.84 242.969 2026.69 242.969 Q2023.13 242.969 2020.98 244.983 Q2018.85 246.997 2018.52 250.654 L2033.71 250.631 Z" fill="#000000" fill-rule="evenodd" fill-opacity="1"></path><path clip-path="url(#clip660)" d="M2062.02 243.918 L2062.02 229.89 L2066.28 229.89 L2066.28 265.909 L2062.02 265.909 L2062.02 262.02 Q2060.68 264.335 2058.61 265.469 Q2056.58 266.58 2053.71 266.58 Q2049.01 266.58 2046.05 262.83 Q2043.11 259.08 2043.11 252.969 Q2043.11 246.858 2046.05 243.108 Q2049.01 239.358 2053.71 239.358 Q2056.58 239.358 2058.61 240.492 Q2060.68 241.603 2062.02 243.918 M2047.5 252.969 Q2047.5 257.668 2049.43 260.353 Q2051.37 263.015 2054.75 263.015 Q2058.13 263.015 2060.07 260.353 Q2062.02 257.668 2062.02 252.969 Q2062.02 248.27 2060.07 245.608 Q2058.13 242.923 2054.75 242.923 Q2051.37 242.923 2049.43 245.608 Q2047.5 248.27 2047.5 252.969 Z" fill="#000000" fill-rule="evenodd" fill-opacity="1"></path><path clip-path="url(#clip660)" d="M2104.33 234.52 Q2099.24 234.52 2096.23 238.316 Q2093.24 242.112 2093.24 248.663 Q2093.24 255.191 2096.23 258.987 Q2099.24 262.784 2104.33 262.784 Q2109.42 262.784 2112.39 258.987 Q2115.37 255.191 2115.37 248.663 Q2115.37 242.112 2112.39 238.316 Q2109.42 234.52 2104.33 234.52 M2104.33 230.724 Q2111.6 230.724 2115.95 235.608 Q2120.3 240.469 2120.3 248.663 Q2120.3 256.835 2115.95 261.719 Q2111.6 266.58 2104.33 266.58 Q2097.04 266.58 2092.67 261.719 Q2088.31 256.858 2088.31 248.663 Q2088.31 240.469 2092.67 235.608 Q2097.04 230.724 2104.33 230.724 Z" fill="#000000" fill-rule="evenodd" fill-opacity="1"></path><path clip-path="url(#clip660)" d="M2126.6 251.024 L2139.08 251.024 L2139.08 254.821 L2126.6 254.821 L2126.6 251.024 Z" fill="#000000" fill-rule="evenodd" fill-opacity="1"></path><path clip-path="url(#clip660)" d="M2146.04 231.349 L2152.34 231.349 L2167.67 260.261 L2167.67 231.349 L2172.2 231.349 L2172.2 265.909 L2165.91 265.909 L2150.58 236.997 L2150.58 265.909 L2146.04 265.909 L2146.04 231.349 Z" fill="#000000" fill-rule="evenodd" fill-opacity="1"></path><path clip-path="url(#clip660)" d="M2181.51 231.349 L2203.36 231.349 L2203.36 235.284 L2186.18 235.284 L2186.18 245.515 L2202.64 245.515 L2202.64 249.45 L2186.18 249.45 L2186.18 261.973 L2203.78 261.973 L2203.78 265.909 L2181.51 265.909 L2181.51 231.349 Z" fill="#000000" fill-rule="evenodd" fill-opacity="1"></path><path clip-path="url(#clip660)" d="M2206.67 231.349 L2235.91 231.349 L2235.91 235.284 L2223.64 235.284 L2223.64 265.909 L2218.94 265.909 L2218.94 235.284 L2206.67 235.284 L2206.67 231.349 Z" fill="#000000" fill-rule="evenodd" fill-opacity="1"></path></svg>