<svg xmlns="http://www.w3.org/2000/svg" xmlns:xlink="http://www.w3.org/1999/xlink" width="600" height="400" viewBox="0 0 2400 1600">
<defs>
  <clipPath id="clip300">
    <rect x="0" y="0" width="2400" height="1600"></rect>
  </clipPath>
</defs>
<path clip-path="url(#clip300)" d="
M0 1600 L2400 1600 L2400 0 L0 0  Z
  " fill="#ffffff" fill-rule="evenodd" fill-opacity="1"></path>
<defs>
  <clipPath id="clip301">
    <rect x="480" y="0" width="1681" height="1600"></rect>
  </clipPath>
</defs>
<path clip-path="url(#clip300)" d="
M210.746 1423.18 L2352.76 1423.18 L2352.76 47.2441 L210.746 47.2441  Z
  " fill="#ffffff" fill-rule="evenodd" fill-opacity="1"></path>
<defs>
  <clipPath id="clip302">
    <rect x="210" y="47" width="2143" height="1377"></rect>
  </clipPath>
</defs>
<polyline clip-path="url(#clip302)" style="stroke:#000000; stroke-linecap:butt; stroke-linejoin:round; stroke-width:2; stroke-opacity:0.1; fill:none" points="
  210.746,1423.18 210.746,47.2441 
  "></polyline>
<polyline clip-path="url(#clip302)" style="stroke:#000000; stroke-linecap:butt; stroke-linejoin:round; stroke-width:2; stroke-opacity:0.1; fill:none" points="
  639.148,1423.18 639.148,47.2441 
  "></polyline>
<polyline clip-path="url(#clip302)" style="stroke:#000000; stroke-linecap:butt; stroke-linejoin:round; stroke-width:2; stroke-opacity:0.1; fill:none" points="
  1067.55,1423.18 1067.55,47.2441 
  "></polyline>
<polyline clip-path="url(#clip302)" style="stroke:#000000; stroke-linecap:butt; stroke-linejoin:round; stroke-width:2; stroke-opacity:0.1; fill:none" points="
  1495.95,1423.18 1495.95,47.2441 
  "></polyline>
<polyline clip-path="url(#clip302)" style="stroke:#000000; stroke-linecap:butt; stroke-linejoin:round; stroke-width:2; stroke-opacity:0.1; fill:none" points="
  1924.35,1423.18 1924.35,47.2441 
  "></polyline>
<polyline clip-path="url(#clip302)" style="stroke:#000000; stroke-linecap:butt; stroke-linejoin:round; stroke-width:2; stroke-opacity:0.1; fill:none" points="
  2352.76,1423.18 2352.76,47.2441 
  "></polyline>
<polyline clip-path="url(#clip300)" style="stroke:#000000; stroke-linecap:butt; stroke-linejoin:round; stroke-width:4; stroke-opacity:1; fill:none" points="
  210.746,1423.18 2352.76,1423.18 
  "></polyline>
<polyline clip-path="url(#clip300)" style="stroke:#000000; stroke-linecap:butt; stroke-linejoin:round; stroke-width:4; stroke-opacity:1; fill:none" points="
  210.746,1423.18 210.746,1404.28 
  "></polyline>
<polyline clip-path="url(#clip300)" style="stroke:#000000; stroke-linecap:butt; stroke-linejoin:round; stroke-width:4; stroke-opacity:1; fill:none" points="
  639.148,1423.18 639.148,1404.28 
  "></polyline>
<polyline clip-path="url(#clip300)" style="stroke:#000000; stroke-linecap:butt; stroke-linejoin:round; stroke-width:4; stroke-opacity:1; fill:none" points="
  1067.55,1423.18 1067.55,1404.28 
  "></polyline>
<polyline clip-path="url(#clip300)" style="stroke:#000000; stroke-linecap:butt; stroke-linejoin:round; stroke-width:4; stroke-opacity:1; fill:none" points="
  1495.95,1423.18 1495.95,1404.28 
  "></polyline>
<polyline clip-path="url(#clip300)" style="stroke:#000000; stroke-linecap:butt; stroke-linejoin:round; stroke-width:4; stroke-opacity:1; fill:none" points="
  1924.35,1423.18 1924.35,1404.28 
  "></polyline>
<polyline clip-path="url(#clip300)" style="stroke:#000000; stroke-linecap:butt; stroke-linejoin:round; stroke-width:4; stroke-opacity:1; fill:none" points="
  2352.76,1423.18 2352.76,1404.28 
  "></polyline>
<path clip-path="url(#clip300)" d="M180.688 1468.75 L210.364 1468.75 L210.364 1472.69 L180.688 1472.69 L180.688 1468.75 Z" fill="#000000" fill-rule="evenodd" fill-opacity="1"></path><path clip-path="url(#clip300)" d="M224.484 1481.64 L240.804 1481.64 L240.804 1485.58 L218.859 1485.58 L218.859 1481.64 Q221.521 1478.89 226.105 1474.26 Q230.711 1469.61 231.892 1468.27 Q234.137 1465.74 235.017 1464.01 Q235.919 1462.25 235.919 1460.56 Q235.919 1457.8 233.975 1456.07 Q232.054 1454.33 228.952 1454.33 Q226.753 1454.33 224.299 1455.09 Q221.869 1455.86 219.091 1457.41 L219.091 1452.69 Q221.915 1451.55 224.369 1450.97 Q226.822 1450.39 228.859 1450.39 Q234.23 1450.39 237.424 1453.08 Q240.618 1455.77 240.618 1460.26 Q240.618 1462.39 239.808 1464.31 Q239.021 1466.2 236.915 1468.8 Q236.336 1469.47 233.234 1472.69 Q230.132 1475.88 224.484 1481.64 Z" fill="#000000" fill-rule="evenodd" fill-opacity="1"></path><path clip-path="url(#clip300)" d="M608.905 1468.75 L638.581 1468.75 L638.581 1472.69 L608.905 1472.69 L608.905 1468.75 Z" fill="#000000" fill-rule="evenodd" fill-opacity="1"></path><path clip-path="url(#clip300)" d="M649.484 1481.64 L657.122 1481.64 L657.122 1455.28 L648.812 1456.95 L648.812 1452.69 L657.076 1451.02 L661.752 1451.02 L661.752 1481.64 L669.391 1481.64 L669.391 1485.58 L649.484 1485.58 L649.484 1481.64 Z" fill="#000000" fill-rule="evenodd" fill-opacity="1"></path><path clip-path="url(#clip300)" d="M1067.55 1454.1 Q1063.94 1454.1 1062.11 1457.66 Q1060.3 1461.2 1060.3 1468.33 Q1060.3 1475.44 1062.11 1479.01 Q1063.94 1482.55 1067.55 1482.55 Q1071.18 1482.55 1072.99 1479.01 Q1074.82 1475.44 1074.82 1468.33 Q1074.82 1461.2 1072.99 1457.66 Q1071.18 1454.1 1067.55 1454.1 M1067.55 1450.39 Q1073.36 1450.39 1076.42 1455 Q1079.49 1459.58 1079.49 1468.33 Q1079.49 1477.06 1076.42 1481.67 Q1073.36 1486.25 1067.55 1486.25 Q1061.74 1486.25 1058.66 1481.67 Q1055.61 1477.06 1055.61 1468.33 Q1055.61 1459.58 1058.66 1455 Q1061.74 1450.39 1067.55 1450.39 Z" fill="#000000" fill-rule="evenodd" fill-opacity="1"></path><path clip-path="url(#clip300)" d="M1486.33 1481.64 L1493.97 1481.64 L1493.97 1455.28 L1485.66 1456.95 L1485.66 1452.69 L1493.93 1451.02 L1498.6 1451.02 L1498.6 1481.64 L1506.24 1481.64 L1506.24 1485.58 L1486.33 1485.58 L1486.33 1481.64 Z" fill="#000000" fill-rule="evenodd" fill-opacity="1"></path><path clip-path="url(#clip300)" d="M1919.01 1481.64 L1935.33 1481.64 L1935.33 1485.58 L1913.38 1485.58 L1913.38 1481.64 Q1916.04 1478.89 1920.63 1474.26 Q1925.23 1469.61 1926.41 1468.27 Q1928.66 1465.74 1929.54 1464.01 Q1930.44 1462.25 1930.44 1460.56 Q1930.44 1457.8 1928.5 1456.07 Q1926.58 1454.33 1923.47 1454.33 Q1921.28 1454.33 1918.82 1455.09 Q1916.39 1455.86 1913.61 1457.41 L1913.61 1452.69 Q1916.44 1451.55 1918.89 1450.97 Q1921.34 1450.39 1923.38 1450.39 Q1928.75 1450.39 1931.95 1453.08 Q1935.14 1455.77 1935.14 1460.26 Q1935.14 1462.39 1934.33 1464.31 Q1933.54 1466.2 1931.44 1468.8 Q1930.86 1469.47 1927.76 1472.69 Q1924.65 1475.88 1919.01 1481.64 Z" fill="#000000" fill-rule="evenodd" fill-opacity="1"></path><path clip-path="url(#clip300)" d="M2357 1466.95 Q2360.36 1467.66 2362.24 1469.93 Q2364.13 1472.2 2364.13 1475.53 Q2364.13 1480.65 2360.61 1483.45 Q2357.1 1486.25 2350.61 1486.25 Q2348.44 1486.25 2346.12 1485.81 Q2343.83 1485.39 2341.38 1484.54 L2341.38 1480.02 Q2343.32 1481.16 2345.64 1481.74 Q2347.95 1482.32 2350.48 1482.32 Q2354.87 1482.32 2357.17 1480.58 Q2359.48 1478.84 2359.48 1475.53 Q2359.48 1472.48 2357.33 1470.77 Q2355.2 1469.03 2351.38 1469.03 L2347.35 1469.03 L2347.35 1465.19 L2351.56 1465.19 Q2355.01 1465.19 2356.84 1463.82 Q2358.67 1462.43 2358.67 1459.84 Q2358.67 1457.18 2356.77 1455.77 Q2354.9 1454.33 2351.38 1454.33 Q2349.46 1454.33 2347.26 1454.75 Q2345.06 1455.16 2342.42 1456.04 L2342.42 1451.88 Q2345.08 1451.14 2347.4 1450.77 Q2349.74 1450.39 2351.8 1450.39 Q2357.12 1450.39 2360.22 1452.83 Q2363.32 1455.23 2363.32 1459.35 Q2363.32 1462.22 2361.68 1464.21 Q2360.04 1466.18 2357 1466.95 Z" fill="#000000" fill-rule="evenodd" fill-opacity="1"></path><path clip-path="url(#clip300)" d="M1271.87 1550.25 Q1271.87 1556.71 1274.51 1560.4 Q1277.18 1564.07 1281.83 1564.07 Q1286.48 1564.07 1289.15 1560.4 Q1291.82 1556.71 1291.82 1550.25 Q1291.82 1543.79 1289.15 1540.13 Q1286.48 1536.44 1281.83 1536.44 Q1277.18 1536.44 1274.51 1540.13 Q1271.87 1543.79 1271.87 1550.25 M1291.82 1562.7 Q1289.98 1565.88 1287.15 1567.44 Q1284.34 1568.97 1280.4 1568.97 Q1273.94 1568.97 1269.86 1563.81 Q1265.82 1558.65 1265.82 1550.25 Q1265.82 1541.85 1269.86 1536.69 Q1273.94 1531.54 1280.4 1531.54 Q1284.34 1531.54 1287.15 1533.1 Q1289.98 1534.62 1291.82 1537.81 L1291.82 1532.4 L1297.68 1532.4 L1297.68 1581.6 L1291.82 1581.6 L1291.82 1562.7 Z" fill="#000000" fill-rule="evenodd" fill-opacity="1"></path><polyline clip-path="url(#clip302)" style="stroke:#000000; stroke-linecap:butt; stroke-linejoin:round; stroke-width:2; stroke-opacity:0.1; fill:none" points="
  210.746,1423.18 2352.76,1423.18 
  "></polyline>
<polyline clip-path="url(#clip302)" style="stroke:#000000; stroke-linecap:butt; stroke-linejoin:round; stroke-width:2; stroke-opacity:0.1; fill:none" points="
  210.746,1147.99 2352.76,1147.99 
  "></polyline>
<polyline clip-path="url(#clip302)" style="stroke:#000000; stroke-linecap:butt; stroke-linejoin:round; stroke-width:2; stroke-opacity:0.1; fill:none" points="
  210.746,872.806 2352.76,872.806 
  "></polyline>
<polyline clip-path="url(#clip302)" style="stroke:#000000; stroke-linecap:butt; stroke-linejoin:round; stroke-width:2; stroke-opacity:0.1; fill:none" points="
  210.746,597.618 2352.76,597.618 
  "></polyline>
<polyline clip-path="url(#clip302)" style="stroke:#000000; stroke-linecap:butt; stroke-linejoin:round; stroke-width:2; stroke-opacity:0.1; fill:none" points="
  210.746,322.431 2352.76,322.431 
  "></polyline>
<polyline clip-path="url(#clip302)" style="stroke:#000000; stroke-linecap:butt; stroke-linejoin:round; stroke-width:2; stroke-opacity:0.1; fill:none" points="
  210.746,47.2441 2352.76,47.2441 
  "></polyline>
<polyline clip-path="url(#clip300)" style="stroke:#000000; stroke-linecap:butt; stroke-linejoin:round; stroke-width:4; stroke-opacity:1; fill:none" points="
  210.746,1423.18 210.746,47.2441 
  "></polyline>
<polyline clip-path="url(#clip300)" style="stroke:#000000; stroke-linecap:butt; stroke-linejoin:round; stroke-width:4; stroke-opacity:1; fill:none" points="
  210.746,1423.18 229.644,1423.18 
  "></polyline>
<polyline clip-path="url(#clip300)" style="stroke:#000000; stroke-linecap:butt; stroke-linejoin:round; stroke-width:4; stroke-opacity:1; fill:none" points="
  210.746,1147.99 229.644,1147.99 
  "></polyline>
<polyline clip-path="url(#clip300)" style="stroke:#000000; stroke-linecap:butt; stroke-linejoin:round; stroke-width:4; stroke-opacity:1; fill:none" points="
  210.746,872.806 229.644,872.806 
  "></polyline>
<polyline clip-path="url(#clip300)" style="stroke:#000000; stroke-linecap:butt; stroke-linejoin:round; stroke-width:4; stroke-opacity:1; fill:none" points="
  210.746,597.618 229.644,597.618 
  "></polyline>
<polyline clip-path="url(#clip300)" style="stroke:#000000; stroke-linecap:butt; stroke-linejoin:round; stroke-width:4; stroke-opacity:1; fill:none" points="
  210.746,322.431 229.644,322.431 
  "></polyline>
<polyline clip-path="url(#clip300)" style="stroke:#000000; stroke-linecap:butt; stroke-linejoin:round; stroke-width:4; stroke-opacity:1; fill:none" points="
  210.746,47.2441 229.644,47.2441 
  "></polyline>
<path clip-path="url(#clip300)" d="M114.631 1423.63 L144.306 1423.63 L144.306 1427.57 L114.631 1427.57 L114.631 1423.63 Z" fill="#000000" fill-rule="evenodd" fill-opacity="1"></path><path clip-path="url(#clip300)" d="M158.427 1436.52 L174.746 1436.52 L174.746 1440.46 L152.802 1440.46 L152.802 1436.52 Q155.464 1433.77 160.047 1429.14 Q164.653 1424.49 165.834 1423.15 Q168.079 1420.62 168.959 1418.89 Q169.862 1417.13 169.862 1415.44 Q169.862 1412.68 167.917 1410.95 Q165.996 1409.21 162.894 1409.21 Q160.695 1409.21 158.241 1409.97 Q155.811 1410.74 153.033 1412.29 L153.033 1407.57 Q155.857 1406.43 158.311 1405.85 Q160.765 1405.27 162.802 1405.27 Q168.172 1405.27 171.366 1407.96 Q174.561 1410.65 174.561 1415.14 Q174.561 1417.27 173.751 1419.19 Q172.964 1421.08 170.857 1423.68 Q170.278 1424.35 167.177 1427.57 Q164.075 1430.76 158.427 1436.52 Z" fill="#000000" fill-rule="evenodd" fill-opacity="1"></path><path clip-path="url(#clip300)" d="M114.26 1148.44 L143.936 1148.44 L143.936 1152.38 L114.26 1152.38 L114.26 1148.44 Z" fill="#000000" fill-rule="evenodd" fill-opacity="1"></path><path clip-path="url(#clip300)" d="M154.839 1161.34 L162.477 1161.34 L162.477 1134.97 L154.167 1136.64 L154.167 1132.38 L162.431 1130.71 L167.107 1130.71 L167.107 1161.34 L174.746 1161.34 L174.746 1165.27 L154.839 1165.27 L154.839 1161.34 Z" fill="#000000" fill-rule="evenodd" fill-opacity="1"></path><path clip-path="url(#clip300)" d="M162.802 858.604 Q159.19 858.604 157.362 862.169 Q155.556 865.711 155.556 872.84 Q155.556 879.947 157.362 883.512 Q159.19 887.053 162.802 887.053 Q166.436 887.053 168.241 883.512 Q170.07 879.947 170.07 872.84 Q170.07 865.711 168.241 862.169 Q166.436 858.604 162.802 858.604 M162.802 854.901 Q168.612 854.901 171.667 859.507 Q174.746 864.09 174.746 872.84 Q174.746 881.567 171.667 886.174 Q168.612 890.757 162.802 890.757 Q156.991 890.757 153.913 886.174 Q150.857 881.567 150.857 872.84 Q150.857 864.09 153.913 859.507 Q156.991 854.901 162.802 854.901 Z" fill="#000000" fill-rule="evenodd" fill-opacity="1"></path><path clip-path="url(#clip300)" d="M154.839 610.963 L162.477 610.963 L162.477 584.598 L154.167 586.264 L154.167 582.005 L162.431 580.338 L167.107 580.338 L167.107 610.963 L174.746 610.963 L174.746 614.898 L154.839 614.898 L154.839 610.963 Z" fill="#000000" fill-rule="evenodd" fill-opacity="1"></path><path clip-path="url(#clip300)" d="M158.427 335.776 L174.746 335.776 L174.746 339.711 L152.802 339.711 L152.802 335.776 Q155.464 333.021 160.047 328.392 Q164.653 323.739 165.834 322.397 Q168.079 319.873 168.959 318.137 Q169.862 316.378 169.862 314.688 Q169.862 311.934 167.917 310.198 Q165.996 308.461 162.894 308.461 Q160.695 308.461 158.241 309.225 Q155.811 309.989 153.033 311.54 L153.033 306.818 Q155.857 305.684 158.311 305.105 Q160.765 304.526 162.802 304.526 Q168.172 304.526 171.366 307.211 Q174.561 309.897 174.561 314.387 Q174.561 316.517 173.751 318.438 Q172.964 320.336 170.857 322.929 Q170.278 323.6 167.177 326.818 Q164.075 330.012 158.427 335.776 Z" fill="#000000" fill-rule="evenodd" fill-opacity="1"></path><path clip-path="url(#clip300)" d="M167.616 45.8899 Q170.973 46.6075 172.848 48.876 Q174.746 51.1445 174.746 54.4779 Q174.746 59.5936 171.227 62.3945 Q167.709 65.1954 161.227 65.1954 Q159.052 65.1954 156.737 64.7556 Q154.445 64.3389 151.991 63.4824 L151.991 58.9686 Q153.936 60.1028 156.251 60.6815 Q158.565 61.2602 161.089 61.2602 Q165.487 61.2602 167.778 59.5241 Q170.093 57.788 170.093 54.4779 Q170.093 51.4223 167.94 49.7094 Q165.811 47.9733 161.991 47.9733 L157.964 47.9733 L157.964 44.1307 L162.177 44.1307 Q165.626 44.1307 167.454 42.765 Q169.283 41.3761 169.283 38.7835 Q169.283 36.1215 167.385 34.7094 Q165.51 33.2743 161.991 33.2743 Q160.07 33.2743 157.871 33.6909 Q155.672 34.1076 153.033 34.9872 L153.033 30.8206 Q155.695 30.0798 158.01 29.7095 Q160.348 29.3391 162.408 29.3391 Q167.732 29.3391 170.834 31.7696 Q173.936 34.177 173.936 38.2974 Q173.936 41.1677 172.292 43.1585 Q170.649 45.1261 167.616 45.8899 Z" fill="#000000" fill-rule="evenodd" fill-opacity="1"></path><path clip-path="url(#clip300)" d="M58.657 745.27 L77.5631 745.27 L77.5631 751.158 L28.3562 751.158 L28.3562 745.27 L33.7671 745.27 Q30.5842 743.424 29.0564 740.623 Q27.4968 737.79 27.4968 733.875 Q27.4968 727.382 32.6531 723.34 Q37.8093 719.266 46.212 719.266 Q54.6147 719.266 59.771 723.34 Q64.9272 727.382 64.9272 733.875 Q64.9272 737.79 63.3994 740.623 Q61.8398 743.424 58.657 745.27 M46.212 725.345 Q39.7508 725.345 36.0905 728.019 Q32.3984 730.66 32.3984 735.307 Q32.3984 739.954 36.0905 742.628 Q39.7508 745.27 46.212 745.27 Q52.6732 745.27 56.3653 742.628 Q60.0256 739.954 60.0256 735.307 Q60.0256 730.66 56.3653 728.019 Q52.6732 725.345 46.212 725.345 Z" fill="#000000" fill-rule="evenodd" fill-opacity="1"></path><polyline clip-path="url(#clip302)" style="stroke:#009af9; stroke-linecap:butt; stroke-linejoin:round; stroke-width:20; stroke-opacity:1; fill:none" points="
  1495.95,597.618 1516.28,625.803 1534.37,655.223 1550.13,685.732 1563.48,717.177 1574.34,749.4 1582.68,782.241 1588.43,815.534 1591.59,849.114 1592.12,882.813 
  1590.03,916.462 1585.33,949.893 1578.04,982.938 1568.19,1015.43 1555.85,1047.21 1541.06,1078.12 1523.91,1108.01 1504.47,1136.71 1482.85,1164.1 1459.15,1190.03 
  1433.5,1214.38 1406.01,1237.02 1376.84,1257.83 1346.11,1276.72 1314,1293.6 1280.65,1308.36 1246.24,1320.95 1210.93,1331.31 1174.91,1339.36 1138.35,1345.09 
  1101.43,1348.45 1064.35,1349.44 1027.28,1348.04 990.412,1344.27 953.931,1338.14 918.018,1329.68 882.853,1318.94 848.611,1305.97 815.464,1290.83 783.576,1273.6 
  753.109,1254.37 724.215,1233.24 697.036,1210.29 671.71,1185.67 648.363,1159.47 627.112,1131.85 608.063,1102.93 591.311,1072.86 576.94,1041.79 565.022,1009.87 
  555.616,977.269 548.77,944.146 544.517,910.665 542.879,876.995 543.865,843.304 547.469,809.761 553.673,776.532 562.446,743.785 573.745,711.683 587.513,680.386 
  603.68,650.052 622.167,620.832 642.88,592.871 665.717,566.31 690.563,541.281 717.293,517.91 745.774,496.313 775.865,476.598 807.414,458.864 840.263,443.2 
  874.248,429.684 909.2,418.383 944.944,409.353 981.301,402.641 1018.09,398.28 1055.12,396.291 1092.22,396.684 1129.2,399.458 1165.86,404.599 1202.04,412.08 
  1237.54,421.865 1272.19,433.905 1305.82,448.138 1338.26,464.495 1369.35,482.894 1398.92,503.242 1426.84,525.437 1452.96,549.369 1477.16,574.918 1499.31,601.957 
  1519.29,630.349 1537.03,659.954 1552.41,690.623 1565.37,722.203 1575.84,754.536 1583.77,787.46 1589.12,820.811 1591.86,854.422 1591.98,888.125 1589.47,921.752 
  1584.36,955.134 1576.67,988.104 1566.42,1020.5 1553.69,1052.15 1538.52,1082.91 1521,1112.62 1501.21,1141.13 1479.26,1168.3 1455.24,1193.99 1429.29,1218.07 
  1401.53,1240.43 1372.1,1260.95 1341.15,1279.53 1308.82,1296.08 1275.3,1310.51 1240.73,1322.75 1205.3,1332.74 1169.18,1340.43 1132.55,1345.79 1095.59,1348.78 
  1058.5,1349.39 1021.45,1347.62 984.629,1343.47 948.225,1336.97 912.417,1328.15 877.385,1317.05 843.303,1303.74 810.343,1288.26 778.668,1270.71 748.438,1251.18 
  719.804,1229.75 692.908,1206.53 667.885,1181.65 644.86,1155.22 623.949,1127.38 605.255,1098.27 588.873,1068.03 574.884,1036.81 563.358,1004.78 554.352,972.081 
  547.913,938.889 544.071,905.367 542.847,871.682 544.246,838.002 548.261,804.496 554.873,771.332 564.048,738.675 575.74,706.688 589.891,675.532 606.43,645.363 
  625.275,616.331 646.33,588.581 669.492,562.252 694.644,537.475 721.66,514.376 750.406,493.068 780.737,473.659 812.503,456.245 845.543,440.914 879.693,427.742 
  914.782,416.795 950.636,408.129 987.073,401.785 1023.91,397.796 1060.97,396.182 1098.06,396.951 1135,400.1 1171.61,405.611 1207.69,413.459 1243.07,423.603 
  1277.57,435.993 1311.02,450.566 1343.26,467.251 1374.12,485.964 1403.44,506.61 1431.09,529.088 1456.92,553.283 1480.8,579.077 1502.61,606.339 1522.25,634.932 
  1539.62,664.716 1554.63,695.54 1567.2,727.25 1577.27,759.687 1584.8,792.69 1589.74,826.094 1592.06,859.732 1591.77,893.434 1588.85,927.035 1583.33,960.364 
  1575.23,993.255 1564.59,1025.54 1551.47,1057.07 1535.93,1087.67 1518.04,1117.2 1497.91,1145.51 1475.62,1172.46 1451.29,1197.9 1425.04,1221.72 1397.01,1243.8 
  
  "></polyline>
<polyline clip-path="url(#clip302)" style="stroke:#e26f46; stroke-linecap:butt; stroke-linejoin:round; stroke-width:20; stroke-opacity:1; fill:none" stroke-dasharray="80, 40, 10, 40" points="
  1495.95,597.618 1518.35,626.126 1538.38,656.087 1555.89,687.323 1570.74,719.641 1582.81,752.832 1592.03,786.682 1598.32,820.969 1601.66,855.47 1602.03,889.962 
  1599.48,924.228 1594.04,958.061 1585.79,991.26 1574.84,1023.64 1561.3,1055.03 1545.29,1085.28 1526.97,1114.25 1506.47,1141.81 1483.96,1167.85 1459.58,1192.29 
  1433.49,1215.04 1405.83,1236.04 1376.75,1255.23 1346.39,1272.56 1314.89,1287.99 1282.37,1301.48 1248.96,1312.99 1214.79,1322.51 1179.98,1329.98 1144.66,1335.39 
  1108.93,1338.71 1072.93,1339.91 1036.79,1338.96 1000.63,1335.85 964.604,1330.56 928.855,1323.06 893.539,1313.36 858.822,1301.45 824.878,1287.35 791.887,1271.08 
  760.041,1252.68 729.532,1232.2 700.559,1209.72 673.319,1185.33 648.006,1159.15 624.805,1131.3 603.892,1101.94 585.428,1071.24 569.555,1039.39 556.394,1006.58 
  546.043,973.036 538.57,938.966 534.021,904.593 532.41,870.138 533.725,835.818 537.927,801.843 544.949,768.414 554.706,735.719 567.091,703.936 581.98,673.224 
  599.239,643.729 618.726,615.579 640.291,588.89 663.784,563.759 689.054,540.27 715.953,518.498 744.337,498.503 774.065,480.338 805,464.05 837.013,449.679 
  869.976,437.261 903.764,426.83 938.257,418.418 973.334,412.055 1008.87,407.77 1044.75,405.591 1080.85,405.545 1117.03,407.656 1153.17,411.947 1189.1,418.433 
  1224.7,427.127 1259.78,438.033 1294.19,451.146 1327.74,466.447 1360.24,483.908 1391.5,503.48 1421.32,525.1 1449.5,548.685 1475.84,574.131 1500.15,601.314 
  1522.23,630.09 1541.93,660.296 1559.08,691.749 1573.54,724.254 1585.22,757.602 1594.01,791.577 1599.88,825.957 1602.78,860.516 1602.73,895.035 1599.74,929.296 
  1593.88,963.092 1585.22,996.227 1573.87,1028.52 1559.94,1059.79 1543.57,1089.9 1524.9,1118.7 1504.07,1146.08 1481.25,1171.93 1456.59,1196.16 1430.23,1218.69 
  1402.33,1239.46 1373.03,1258.41 1342.46,1275.5 1310.77,1290.67 1278.09,1303.9 1244.53,1315.15 1210.23,1324.39 1175.3,1331.59 1139.87,1336.72 1104.06,1339.75 
  1067.99,1340.66 1031.8,1339.42 995.609,1336.01 959.571,1330.41 923.83,1322.61 888.544,1312.6 853.879,1300.38 820.011,1285.97 787.123,1269.39 755.404,1250.69 
  725.051,1229.92 696.26,1207.15 669.229,1182.48 644.151,1156.04 621.212,1127.94 600.585,1098.36 582.428,1067.46 566.883,1035.43 554.066,1002.47 544.072,968.802 
  536.968,934.636 532.793,900.196 531.56,865.702 533.253,831.37 537.827,797.411 545.215,764.024 555.328,731.396 568.055,699.702 583.273,669.1 600.845,639.734 
  620.627,611.73 642.47,585.201 666.222,560.243 691.734,536.94 718.858,515.362 747.449,495.57 777.367,477.616 808.477,461.544 840.648,447.396 873.754,435.207 
  907.67,425.009 942.277,416.835 977.454,410.715 1013.08,406.677 1049.03,404.75 1085.18,404.96 1121.41,407.331 1157.56,411.885 1193.51,418.638 1229.09,427.601 
  1264.14,438.778 1298.5,452.162 1331.97,467.734 1364.38,485.463 1395.52,505.299 1425.2,527.176 1453.22,551.009 1479.37,576.692 1503.46,604.099 1525.31,633.082 
  1544.74,663.477 1561.61,695.1 1575.79,727.752 1587.15,761.225 1595.64,795.299 1601.18,829.752 1603.75,864.362 1603.37,898.906 1600.05,933.167 1593.86,966.94 
  1584.89,1000.03 1573.23,1032.25 1559.01,1063.44 1542.36,1093.45 1523.42,1122.14 1502.35,1149.38 1479.29,1175.09 1454.41,1199.17 1427.85,1221.53 1399.76,1242.13 
  
  "></polyline>
<polyline clip-path="url(#clip302)" style="stroke:#3da44d; stroke-linecap:butt; stroke-linejoin:round; stroke-width:20; stroke-opacity:1; fill:none" stroke-dasharray="10, 20" points="
  1495.95,597.618 1516.27,625.994 1534.33,655.433 1550.07,685.794 1563.42,716.934 1574.31,748.714 1582.71,780.999 1588.59,813.654 1591.91,846.545 1592.67,879.542 
  1590.87,912.511 1586.5,945.322 1579.59,977.842 1570.16,1009.94 1558.26,1041.47 1543.93,1072.31 1527.24,1102.31 1508.24,1131.34 1487.03,1159.23 1463.7,1185.86 
  1438.35,1211.07 1411.1,1234.72 1382.08,1256.65 1351.42,1276.72 1319.28,1294.79 1285.81,1310.74 1251.19,1324.42 1215.59,1335.75 1179.21,1344.62 1142.24,1350.96 
  1104.88,1354.72 1067.32,1355.86 1029.78,1354.37 992.454,1350.28 955.547,1343.63 919.255,1334.47 883.771,1322.88 849.279,1308.97 815.956,1292.85 783.969,1274.65 
  753.474,1254.49 724.619,1232.53 697.539,1208.89 672.358,1183.74 649.188,1157.2 628.132,1129.44 609.279,1100.58 592.71,1070.78 578.491,1040.16 566.682,1008.87 
  557.33,977.042 550.471,944.8 546.133,912.277 544.332,879.6 545.076,846.896 548.362,814.294 554.176,781.919 562.497,749.902 573.291,718.372 586.514,687.461 
  602.115,657.304 620.028,628.038 640.18,599.802 662.483,572.738 686.842,546.992 713.148,522.706 741.281,500.029 771.112,479.104 802.498,460.073 835.286,443.072 
  869.313,428.231 904.407,415.669 940.386,405.49 977.061,397.784 1014.24,392.622 1051.71,390.052 1089.29,390.102 1126.76,392.773 1163.92,398.045 1200.57,405.872 
  1236.51,416.189 1271.56,428.909 1305.53,443.93 1338.24,461.134 1369.53,480.392 1399.25,501.567 1427.26,524.517 1453.41,549.095 1477.59,575.152 1499.7,602.542 
  1519.62,631.115 1537.28,660.728 1552.6,691.236 1565.52,722.499 1575.98,754.378 1583.94,786.738 1589.36,819.444 1592.23,852.364 1592.54,885.365 1590.28,918.316 
  1585.46,951.085 1578.11,983.54 1568.24,1015.55 1555.91,1046.97 1541.16,1077.67 1524.05,1107.51 1504.66,1136.34 1483.07,1164.03 1459.37,1190.42 1433.68,1215.36 
  1406.11,1238.72 1376.78,1260.33 1345.85,1280.06 1313.46,1297.76 1279.78,1313.32 1244.97,1326.6 1209.23,1337.5 1172.73,1345.93 1135.67,1351.81 1098.26,1355.11 
  1060.69,1355.79 1023.17,1353.84 985.905,1349.29 949.093,1342.19 912.93,1332.59 877.608,1320.59 843.31,1306.29 810.21,1289.79 778.475,1271.23 748.26,1250.75 
  719.708,1228.47 692.954,1204.56 668.12,1179.15 645.316,1152.39 624.643,1124.42 606.187,1095.39 590.028,1065.43 576.231,1034.69 564.852,1003.29 555.938,971.379 
  549.522,939.078 545.63,906.518 544.279,873.827 545.472,841.132 549.205,808.561 555.463,776.24 564.223,744.299 575.449,712.869 589.096,682.081 605.11,652.071 
  623.424,622.977 643.961,594.937 666.635,568.096 691.345,542.596 717.983,518.584 746.426,496.205 776.541,475.604 808.186,456.922 841.205,440.293 875.433,425.846 
  910.697,413.697 946.812,403.948 983.59,396.687 1020.83,391.979 1058.34,389.87 1095.91,390.383 1133.34,393.515 1170.43,399.242 1206.97,407.514 1242.77,418.262 
  1277.63,431.396 1311.39,446.811 1343.87,464.386 1374.9,483.993 1404.32,505.492 1432.01,528.74 1457.82,553.589 1481.65,579.893 1503.37,607.502 1522.9,636.269 
  1540.16,666.05 1555.06,696.701 1567.54,728.083 1577.56,760.057 1585.08,792.488 1590.06,825.241 1592.48,858.185 1592.33,891.187 1589.62,924.115 1584.35,956.838 
  1576.55,989.224 1566.24,1021.14 1553.48,1052.44 1538.31,1083 1520.79,1112.67 1501.01,1141.32 1479.04,1168.79 1454.98,1194.93 1428.95,1219.6 1401.05,1242.66 
  
  "></polyline>
<path clip-path="url(#clip300)" d="
M1630.53 300.469 L2281.36 300.469 L2281.36 93.1086 L1630.53 93.1086  Z
  " fill="#ffffff" fill-rule="evenodd" fill-opacity="1"></path>
<polyline clip-path="url(#clip300)" style="stroke:#000000; stroke-linecap:butt; stroke-linejoin:round; stroke-width:4; stroke-opacity:1; fill:none" points="
  1630.53,300.469 2281.36,300.469 2281.36,93.1086 1630.53,93.1086 1630.53,300.469 
  "></polyline>
<polyline clip-path="url(#clip300)" style="stroke:#009af9; stroke-linecap:butt; stroke-linejoin:round; stroke-width:4; stroke-opacity:1; fill:none" points="
  1654.33,144.949 1797.13,144.949 
  "></polyline>
<path clip-path="url(#clip300)" d="M1846.49 157.298 L1846.49 148.016 L1838.85 148.016 L1838.85 144.173 L1851.12 144.173 L1851.12 159.011 Q1848.41 160.932 1845.15 161.928 Q1841.88 162.9 1838.18 162.9 Q1830.08 162.9 1825.49 158.178 Q1820.93 153.432 1820.93 144.983 Q1820.93 136.511 1825.49 131.789 Q1830.08 127.044 1838.18 127.044 Q1841.56 127.044 1844.59 127.877 Q1847.65 128.71 1850.22 130.331 L1850.22 135.307 Q1847.62 133.108 1844.71 131.997 Q1841.79 130.886 1838.57 130.886 Q1832.23 130.886 1829.04 134.428 Q1825.86 137.969 1825.86 144.983 Q1825.86 151.974 1829.04 155.516 Q1832.23 159.057 1838.57 159.057 Q1841.05 159.057 1842.99 158.641 Q1844.94 158.201 1846.49 157.298 Z" fill="#000000" fill-rule="evenodd" fill-opacity="1"></path><path clip-path="url(#clip300)" d="M1874.5 140.284 Q1873.78 139.868 1872.92 139.682 Q1872.09 139.474 1871.07 139.474 Q1867.46 139.474 1865.52 141.835 Q1863.6 144.173 1863.6 148.571 L1863.6 162.229 L1859.31 162.229 L1859.31 136.303 L1863.6 136.303 L1863.6 140.331 Q1864.94 137.969 1867.09 136.835 Q1869.24 135.678 1872.32 135.678 Q1872.76 135.678 1873.29 135.747 Q1873.83 135.794 1874.47 135.909 L1874.5 140.284 Z" fill="#000000" fill-rule="evenodd" fill-opacity="1"></path><path clip-path="url(#clip300)" d="M1887.97 139.289 Q1884.54 139.289 1882.55 141.974 Q1880.56 144.636 1880.56 149.289 Q1880.56 153.942 1882.53 156.627 Q1884.52 159.289 1887.97 159.289 Q1891.37 159.289 1893.36 156.604 Q1895.35 153.918 1895.35 149.289 Q1895.35 144.682 1893.36 141.997 Q1891.37 139.289 1887.97 139.289 M1887.97 135.678 Q1893.53 135.678 1896.7 139.289 Q1899.87 142.9 1899.87 149.289 Q1899.87 155.655 1896.7 159.289 Q1893.53 162.9 1887.97 162.9 Q1882.39 162.9 1879.22 159.289 Q1876.07 155.655 1876.07 149.289 Q1876.07 142.9 1879.22 139.289 Q1882.39 135.678 1887.97 135.678 Z" fill="#000000" fill-rule="evenodd" fill-opacity="1"></path><path clip-path="url(#clip300)" d="M1906.49 151.997 L1906.49 136.303 L1910.75 136.303 L1910.75 151.835 Q1910.75 155.516 1912.18 157.368 Q1913.62 159.196 1916.49 159.196 Q1919.94 159.196 1921.93 156.997 Q1923.94 154.798 1923.94 151.002 L1923.94 136.303 L1928.2 136.303 L1928.2 162.229 L1923.94 162.229 L1923.94 158.247 Q1922.39 160.608 1920.33 161.766 Q1918.29 162.9 1915.59 162.9 Q1911.12 162.9 1908.8 160.122 Q1906.49 157.344 1906.49 151.997 M1917.21 135.678 L1917.21 135.678 Z" fill="#000000" fill-rule="evenodd" fill-opacity="1"></path><path clip-path="url(#clip300)" d="M1958.53 146.581 L1958.53 162.229 L1954.27 162.229 L1954.27 146.719 Q1954.27 143.039 1952.83 141.21 Q1951.4 139.382 1948.53 139.382 Q1945.08 139.382 1943.09 141.581 Q1941.09 143.78 1941.09 147.576 L1941.09 162.229 L1936.81 162.229 L1936.81 136.303 L1941.09 136.303 L1941.09 140.331 Q1942.62 137.993 1944.68 136.835 Q1946.77 135.678 1949.47 135.678 Q1953.94 135.678 1956.23 138.456 Q1958.53 141.21 1958.53 146.581 Z" fill="#000000" fill-rule="evenodd" fill-opacity="1"></path><path clip-path="url(#clip300)" d="M1984.08 140.238 L1984.08 126.21 L1988.34 126.21 L1988.34 162.229 L1984.08 162.229 L1984.08 158.34 Q1982.74 160.655 1980.68 161.789 Q1978.64 162.9 1975.77 162.9 Q1971.07 162.9 1968.11 159.15 Q1965.17 155.4 1965.17 149.289 Q1965.17 143.178 1968.11 139.428 Q1971.07 135.678 1975.77 135.678 Q1978.64 135.678 1980.68 136.812 Q1982.74 137.923 1984.08 140.238 M1969.57 149.289 Q1969.57 153.988 1971.49 156.673 Q1973.43 159.335 1976.81 159.335 Q1980.19 159.335 1982.14 156.673 Q1984.08 153.988 1984.08 149.289 Q1984.08 144.59 1982.14 141.928 Q1980.19 139.243 1976.81 139.243 Q1973.43 139.243 1971.49 141.928 Q1969.57 144.59 1969.57 149.289 Z" fill="#000000" fill-rule="evenodd" fill-opacity="1"></path><path clip-path="url(#clip300)" d="M2016.4 128.942 L2016.4 136.303 L2025.17 136.303 L2025.17 139.613 L2016.4 139.613 L2016.4 153.687 Q2016.4 156.858 2017.25 157.761 Q2018.13 158.664 2020.79 158.664 L2025.17 158.664 L2025.17 162.229 L2020.79 162.229 Q2015.86 162.229 2013.99 160.4 Q2012.11 158.548 2012.11 153.687 L2012.11 139.613 L2008.99 139.613 L2008.99 136.303 L2012.11 136.303 L2012.11 128.942 L2016.4 128.942 Z" fill="#000000" fill-rule="evenodd" fill-opacity="1"></path><path clip-path="url(#clip300)" d="M2045.79 140.284 Q2045.08 139.868 2044.22 139.682 Q2043.39 139.474 2042.37 139.474 Q2038.76 139.474 2036.81 141.835 Q2034.89 144.173 2034.89 148.571 L2034.89 162.229 L2030.61 162.229 L2030.61 136.303 L2034.89 136.303 L2034.89 140.331 Q2036.23 137.969 2038.39 136.835 Q2040.54 135.678 2043.62 135.678 Q2044.06 135.678 2044.59 135.747 Q2045.12 135.794 2045.77 135.909 L2045.79 140.284 Z" fill="#000000" fill-rule="evenodd" fill-opacity="1"></path><path clip-path="url(#clip300)" d="M2049.82 151.997 L2049.82 136.303 L2054.08 136.303 L2054.08 151.835 Q2054.08 155.516 2055.52 157.368 Q2056.95 159.196 2059.82 159.196 Q2063.27 159.196 2065.26 156.997 Q2067.27 154.798 2067.27 151.002 L2067.27 136.303 L2071.53 136.303 L2071.53 162.229 L2067.27 162.229 L2067.27 158.247 Q2065.72 160.608 2063.66 161.766 Q2061.63 162.9 2058.92 162.9 Q2054.45 162.9 2052.14 160.122 Q2049.82 157.344 2049.82 151.997 M2060.54 135.678 L2060.54 135.678 Z" fill="#000000" fill-rule="evenodd" fill-opacity="1"></path><path clip-path="url(#clip300)" d="M2084.52 128.942 L2084.52 136.303 L2093.29 136.303 L2093.29 139.613 L2084.52 139.613 L2084.52 153.687 Q2084.52 156.858 2085.38 157.761 Q2086.26 158.664 2088.92 158.664 L2093.29 158.664 L2093.29 162.229 L2088.92 162.229 Q2083.99 162.229 2082.11 160.4 Q2080.24 158.548 2080.24 153.687 L2080.24 139.613 L2077.11 139.613 L2077.11 136.303 L2080.24 136.303 L2080.24 128.942 L2084.52 128.942 Z" fill="#000000" fill-rule="evenodd" fill-opacity="1"></path><path clip-path="url(#clip300)" d="M2120.45 146.581 L2120.45 162.229 L2116.19 162.229 L2116.19 146.719 Q2116.19 143.039 2114.75 141.21 Q2113.32 139.382 2110.45 139.382 Q2107 139.382 2105.01 141.581 Q2103.02 143.78 2103.02 147.576 L2103.02 162.229 L2098.73 162.229 L2098.73 126.21 L2103.02 126.21 L2103.02 140.331 Q2104.54 137.993 2106.6 136.835 Q2108.69 135.678 2111.39 135.678 Q2115.86 135.678 2118.15 138.456 Q2120.45 141.21 2120.45 146.581 Z" fill="#000000" fill-rule="evenodd" fill-opacity="1"></path><polyline clip-path="url(#clip300)" style="stroke:#e26f46; stroke-linecap:butt; stroke-linejoin:round; stroke-width:4; stroke-opacity:1; fill:none" stroke-dasharray="16, 8, 2, 8" points="
  1654.33,196.789 1797.13,196.789 
  "></polyline>
<path clip-path="url(#clip300)" d="M1836.95 182.68 Q1831.86 182.68 1828.85 186.476 Q1825.86 190.272 1825.86 196.823 Q1825.86 203.351 1828.85 207.147 Q1831.86 210.944 1836.95 210.944 Q1842.04 210.944 1845.01 207.147 Q1847.99 203.351 1847.99 196.823 Q1847.99 190.272 1845.01 186.476 Q1842.04 182.68 1836.95 182.68 M1836.95 178.884 Q1844.22 178.884 1848.57 183.768 Q1852.92 188.629 1852.92 196.823 Q1852.92 204.995 1848.57 209.879 Q1844.22 214.74 1836.95 214.74 Q1829.66 214.74 1825.29 209.879 Q1820.93 205.018 1820.93 196.823 Q1820.93 188.629 1825.29 183.768 Q1829.66 178.884 1836.95 178.884 Z" fill="#000000" fill-rule="evenodd" fill-opacity="1"></path><path clip-path="url(#clip300)" d="M1859.22 199.184 L1871.7 199.184 L1871.7 202.981 L1859.22 202.981 L1859.22 199.184 Z" fill="#000000" fill-rule="evenodd" fill-opacity="1"></path><path clip-path="url(#clip300)" d="M1878.66 179.509 L1884.96 179.509 L1900.28 208.421 L1900.28 179.509 L1904.82 179.509 L1904.82 214.069 L1898.53 214.069 L1883.2 185.157 L1883.2 214.069 L1878.66 214.069 L1878.66 179.509 Z" fill="#000000" fill-rule="evenodd" fill-opacity="1"></path><path clip-path="url(#clip300)" d="M1914.13 179.509 L1935.98 179.509 L1935.98 183.444 L1918.8 183.444 L1918.8 193.675 L1935.26 193.675 L1935.26 197.61 L1918.8 197.61 L1918.8 210.133 L1936.4 210.133 L1936.4 214.069 L1914.13 214.069 L1914.13 179.509 Z" fill="#000000" fill-rule="evenodd" fill-opacity="1"></path><path clip-path="url(#clip300)" d="M1939.29 179.509 L1968.53 179.509 L1968.53 183.444 L1956.26 183.444 L1956.26 214.069 L1951.56 214.069 L1951.56 183.444 L1939.29 183.444 L1939.29 179.509 Z" fill="#000000" fill-rule="evenodd" fill-opacity="1"></path><polyline clip-path="url(#clip300)" style="stroke:#3da44d; stroke-linecap:butt; stroke-linejoin:round; stroke-width:4; stroke-opacity:1; fill:none" stroke-dasharray="2, 4" points="
  1654.33,248.629 1797.13,248.629 
  "></polyline>
<path clip-path="url(#clip300)" d="M1843.18 232.483 L1843.18 237.043 Q1840.52 235.77 1838.16 235.145 Q1835.79 234.52 1833.6 234.52 Q1829.78 234.52 1827.69 236.001 Q1825.63 237.483 1825.63 240.214 Q1825.63 242.506 1827 243.687 Q1828.39 244.844 1832.23 245.562 L1835.05 246.14 Q1840.29 247.136 1842.76 249.659 Q1845.26 252.159 1845.26 256.372 Q1845.26 261.395 1841.88 263.987 Q1838.53 266.58 1832.02 266.58 Q1829.57 266.58 1826.79 266.024 Q1824.04 265.469 1821.07 264.381 L1821.07 259.566 Q1823.92 261.163 1826.65 261.973 Q1829.38 262.784 1832.02 262.784 Q1836.03 262.784 1838.2 261.21 Q1840.38 259.636 1840.38 256.719 Q1840.38 254.173 1838.8 252.737 Q1837.25 251.302 1833.69 250.585 L1830.84 250.029 Q1825.61 248.987 1823.27 246.765 Q1820.93 244.543 1820.93 240.585 Q1820.93 236.001 1824.15 233.362 Q1827.39 230.724 1833.06 230.724 Q1835.49 230.724 1838.02 231.163 Q1840.54 231.603 1843.18 232.483 Z" fill="#000000" fill-rule="evenodd" fill-opacity="1"></path><path clip-path="url(#clip300)" d="M1856.58 232.622 L1856.58 239.983 L1865.35 239.983 L1865.35 243.293 L1856.58 243.293 L1856.58 257.367 Q1856.58 260.538 1857.44 261.441 Q1858.32 262.344 1860.98 262.344 L1865.35 262.344 L1865.35 265.909 L1860.98 265.909 Q1856.05 265.909 1854.17 264.08 Q1852.3 262.228 1852.3 257.367 L1852.3 243.293 L1849.17 243.293 L1849.17 239.983 L1852.3 239.983 L1852.3 232.622 L1856.58 232.622 Z" fill="#000000" fill-rule="evenodd" fill-opacity="1"></path><path clip-path="url(#clip300)" d="M1885.98 243.964 Q1885.26 243.548 1884.41 243.362 Q1883.57 243.154 1882.55 243.154 Q1878.94 243.154 1877 245.515 Q1875.08 247.853 1875.08 252.251 L1875.08 265.909 L1870.79 265.909 L1870.79 239.983 L1875.08 239.983 L1875.08 244.011 Q1876.42 241.649 1878.57 240.515 Q1880.72 239.358 1883.8 239.358 Q1884.24 239.358 1884.78 239.427 Q1885.31 239.474 1885.96 239.589 L1885.98 243.964 Z" fill="#000000" fill-rule="evenodd" fill-opacity="1"></path><path clip-path="url(#clip300)" d="M1890.01 255.677 L1890.01 239.983 L1894.27 239.983 L1894.27 255.515 Q1894.27 259.196 1895.7 261.048 Q1897.14 262.876 1900.01 262.876 Q1903.46 262.876 1905.45 260.677 Q1907.46 258.478 1907.46 254.682 L1907.46 239.983 L1911.72 239.983 L1911.72 265.909 L1907.46 265.909 L1907.46 261.927 Q1905.91 264.288 1903.85 265.446 Q1901.81 266.58 1899.1 266.58 Q1894.64 266.58 1892.32 263.802 Q1890.01 261.024 1890.01 255.677 M1900.72 239.358 L1900.72 239.358 Z" fill="#000000" fill-rule="evenodd" fill-opacity="1"></path><path clip-path="url(#clip300)" d="M1939.15 240.978 L1939.15 244.96 Q1937.34 243.964 1935.52 243.478 Q1933.71 242.969 1931.86 242.969 Q1927.72 242.969 1925.42 245.608 Q1923.13 248.224 1923.13 252.969 Q1923.13 257.714 1925.42 260.353 Q1927.72 262.969 1931.86 262.969 Q1933.71 262.969 1935.52 262.483 Q1937.34 261.973 1939.15 260.978 L1939.15 264.913 Q1937.37 265.747 1935.45 266.163 Q1933.55 266.58 1931.4 266.58 Q1925.54 266.58 1922.09 262.899 Q1918.64 259.219 1918.64 252.969 Q1918.64 246.626 1922.11 242.992 Q1925.61 239.358 1931.67 239.358 Q1933.64 239.358 1935.52 239.775 Q1937.39 240.168 1939.15 240.978 Z" fill="#000000" fill-rule="evenodd" fill-opacity="1"></path><path clip-path="url(#clip300)" d="M1950.77 232.622 L1950.77 239.983 L1959.54 239.983 L1959.54 243.293 L1950.77 243.293 L1950.77 257.367 Q1950.77 260.538 1951.63 261.441 Q1952.51 262.344 1955.17 262.344 L1959.54 262.344 L1959.54 265.909 L1955.17 265.909 Q1950.24 265.909 1948.36 264.08 Q1946.49 262.228 1946.49 257.367 L1946.49 243.293 L1943.36 243.293 L1943.36 239.983 L1946.49 239.983 L1946.49 232.622 L1950.77 232.622 Z" fill="#000000" fill-rule="evenodd" fill-opacity="1"></path><path clip-path="url(#clip300)" d="M1964.71 255.677 L1964.71 239.983 L1968.97 239.983 L1968.97 255.515 Q1968.97 259.196 1970.4 261.048 Q1971.84 262.876 1974.71 262.876 Q1978.15 262.876 1980.15 260.677 Q1982.16 258.478 1982.16 254.682 L1982.16 239.983 L1986.42 239.983 L1986.42 265.909 L1982.16 265.909 L1982.16 261.927 Q1980.61 264.288 1978.55 265.446 Q1976.51 266.58 1973.8 266.58 Q1969.34 266.58 1967.02 263.802 Q1964.71 261.024 1964.71 255.677 M1975.42 239.358 L1975.42 239.358 Z" fill="#000000" fill-rule="evenodd" fill-opacity="1"></path><path clip-path="url(#clip300)" d="M2010.21 243.964 Q2009.5 243.548 2008.64 243.362 Q2007.81 243.154 2006.79 243.154 Q2003.18 243.154 2001.23 245.515 Q1999.31 247.853 1999.31 252.251 L1999.31 265.909 L1995.03 265.909 L1995.03 239.983 L1999.31 239.983 L1999.31 244.011 Q2000.65 241.649 2002.81 240.515 Q2004.96 239.358 2008.04 239.358 Q2008.48 239.358 2009.01 239.427 Q2009.54 239.474 2010.19 239.589 L2010.21 243.964 Z" fill="#000000" fill-rule="evenodd" fill-opacity="1"></path><path clip-path="url(#clip300)" d="M2035.82 251.881 L2035.82 253.964 L2016.23 253.964 Q2016.51 258.362 2018.87 260.677 Q2021.26 262.969 2025.49 262.969 Q2027.95 262.969 2030.24 262.367 Q2032.55 261.765 2034.82 260.561 L2034.82 264.589 Q2032.53 265.561 2030.12 266.071 Q2027.71 266.58 2025.24 266.58 Q2019.03 266.58 2015.4 262.969 Q2011.79 259.358 2011.79 253.2 Q2011.79 246.835 2015.21 243.108 Q2018.66 239.358 2024.5 239.358 Q2029.73 239.358 2032.76 242.737 Q2035.82 246.094 2035.82 251.881 M2031.56 250.631 Q2031.51 247.136 2029.59 245.052 Q2027.69 242.969 2024.54 242.969 Q2020.98 242.969 2018.83 244.983 Q2016.7 246.997 2016.37 250.654 L2031.56 250.631 Z" fill="#000000" fill-rule="evenodd" fill-opacity="1"></path><path clip-path="url(#clip300)" d="M2059.87 243.918 L2059.87 229.89 L2064.13 229.89 L2064.13 265.909 L2059.87 265.909 L2059.87 262.02 Q2058.52 264.335 2056.46 265.469 Q2054.43 266.58 2051.56 266.58 Q2046.86 266.58 2043.9 262.83 Q2040.96 259.08 2040.96 252.969 Q2040.96 246.858 2043.9 243.108 Q2046.86 239.358 2051.56 239.358 Q2054.43 239.358 2056.46 240.492 Q2058.52 241.603 2059.87 243.918 M2045.35 252.969 Q2045.35 257.668 2047.27 260.353 Q2049.22 263.015 2052.6 263.015 Q2055.98 263.015 2057.92 260.353 Q2059.87 257.668 2059.87 252.969 Q2059.87 248.27 2057.92 245.608 Q2055.98 242.923 2052.6 242.923 Q2049.22 242.923 2047.27 245.608 Q2045.35 248.27 2045.35 252.969 Z" fill="#000000" fill-rule="evenodd" fill-opacity="1"></path><path clip-path="url(#clip300)" d="M2102.18 234.52 Q2097.09 234.52 2094.08 238.316 Q2091.09 242.112 2091.09 248.663 Q2091.09 255.191 2094.08 258.987 Q2097.09 262.784 2102.18 262.784 Q2107.27 262.784 2110.24 258.987 Q2113.22 255.191 2113.22 248.663 Q2113.22 242.112 2110.24 238.316 Q2107.27 234.52 2102.18 234.52 M2102.18 230.724 Q2109.45 230.724 2113.8 235.608 Q2118.15 240.469 2118.15 248.663 Q2118.15 256.835 2113.8 261.719 Q2109.45 266.58 2102.18 266.58 Q2094.89 266.58 2090.52 261.719 Q2086.16 256.858 2086.16 248.663 Q2086.16 240.469 2090.52 235.608 Q2094.89 230.724 2102.18 230.724 Z" fill="#000000" fill-rule="evenodd" fill-opacity="1"></path><path clip-path="url(#clip300)" d="M2124.45 251.024 L2136.93 251.024 L2136.93 254.821 L2124.45 254.821 L2124.45 251.024 Z" fill="#000000" fill-rule="evenodd" fill-opacity="1"></path><path clip-path="url(#clip300)" d="M2143.89 231.349 L2150.19 231.349 L2165.51 260.261 L2165.51 231.349 L2170.05 231.349 L2170.05 265.909 L2163.76 265.909 L2148.43 236.997 L2148.43 265.909 L2143.89 265.909 L2143.89 231.349 Z" fill="#000000" fill-rule="evenodd" fill-opacity="1"></path><path clip-path="url(#clip300)" d="M2179.36 231.349 L2201.21 231.349 L2201.21 235.284 L2184.03 235.284 L2184.03 245.515 L2200.49 245.515 L2200.49 249.45 L2184.03 249.45 L2184.03 261.973 L2201.63 261.973 L2201.63 265.909 L2179.36 265.909 L2179.36 231.349 Z" fill="#000000" fill-rule="evenodd" fill-opacity="1"></path><path clip-path="url(#clip300)" d="M2204.52 231.349 L2233.76 231.349 L2233.76 235.284 L2221.49 235.284 L2221.49 265.909 L2216.79 265.909 L2216.79 235.284 L2204.52 235.284 L2204.52 231.349 Z" fill="#000000" fill-rule="evenodd" fill-opacity="1"></path></svg>