<svg xmlns="http://www.w3.org/2000/svg" xmlns:xlink="http://www.w3.org/1999/xlink" width="600" height="400" viewBox="0 0 2400 1600">
<defs>
  <clipPath id="clip940">
    <rect x="0" y="0" width="2400" height="1600"></rect>
  </clipPath>
</defs>
<path clip-path="url(#clip940)" d="
M0 1600 L2400 1600 L2400 0 L0 0  Z
  " fill="#ffffff" fill-rule="evenodd" fill-opacity="1"></path>
<defs>
  <clipPath id="clip941">
    <rect x="480" y="0" width="1681" height="1600"></rect>
  </clipPath>
</defs>
<path clip-path="url(#clip940)" d="
M310.352 1423.18 L2352.76 1423.18 L2352.76 47.2441 L310.352 47.2441  Z
  " fill="#ffffff" fill-rule="evenodd" fill-opacity="1"></path>
<defs>
  <clipPath id="clip942">
    <rect x="310" y="47" width="2043" height="1377"></rect>
  </clipPath>
</defs>
<polyline clip-path="url(#clip942)" style="stroke:#000000; stroke-linecap:butt; stroke-linejoin:round; stroke-width:2; stroke-opacity:0.1; fill:none" points="
  368.156,1423.18 368.156,47.2441 
  "></polyline>
<polyline clip-path="url(#clip942)" style="stroke:#000000; stroke-linecap:butt; stroke-linejoin:round; stroke-width:2; stroke-opacity:0.1; fill:none" points="
  852.275,1423.18 852.275,47.2441 
  "></polyline>
<polyline clip-path="url(#clip942)" style="stroke:#000000; stroke-linecap:butt; stroke-linejoin:round; stroke-width:2; stroke-opacity:0.1; fill:none" points="
  1336.4,1423.18 1336.4,47.2441 
  "></polyline>
<polyline clip-path="url(#clip942)" style="stroke:#000000; stroke-linecap:butt; stroke-linejoin:round; stroke-width:2; stroke-opacity:0.1; fill:none" points="
  1820.51,1423.18 1820.51,47.2441 
  "></polyline>
<polyline clip-path="url(#clip942)" style="stroke:#000000; stroke-linecap:butt; stroke-linejoin:round; stroke-width:2; stroke-opacity:0.1; fill:none" points="
  2304.63,1423.18 2304.63,47.2441 
  "></polyline>
<polyline clip-path="url(#clip940)" style="stroke:#000000; stroke-linecap:butt; stroke-linejoin:round; stroke-width:4; stroke-opacity:1; fill:none" points="
  310.352,1423.18 2352.76,1423.18 
  "></polyline>
<polyline clip-path="url(#clip940)" style="stroke:#000000; stroke-linecap:butt; stroke-linejoin:round; stroke-width:4; stroke-opacity:1; fill:none" points="
  368.156,1423.18 368.156,1404.28 
  "></polyline>
<polyline clip-path="url(#clip940)" style="stroke:#000000; stroke-linecap:butt; stroke-linejoin:round; stroke-width:4; stroke-opacity:1; fill:none" points="
  852.275,1423.18 852.275,1404.28 
  "></polyline>
<polyline clip-path="url(#clip940)" style="stroke:#000000; stroke-linecap:butt; stroke-linejoin:round; stroke-width:4; stroke-opacity:1; fill:none" points="
  1336.4,1423.18 1336.4,1404.28 
  "></polyline>
<polyline clip-path="url(#clip940)" style="stroke:#000000; stroke-linecap:butt; stroke-linejoin:round; stroke-width:4; stroke-opacity:1; fill:none" points="
  1820.51,1423.18 1820.51,1404.28 
  "></polyline>
<polyline clip-path="url(#clip940)" style="stroke:#000000; stroke-linecap:butt; stroke-linejoin:round; stroke-width:4; stroke-opacity:1; fill:none" points="
  2304.63,1423.18 2304.63,1404.28 
  "></polyline>
<path clip-path="url(#clip940)" d="M368.156 1454.1 Q364.545 1454.1 362.716 1457.66 Q360.91 1461.2 360.91 1468.33 Q360.91 1475.44 362.716 1479.01 Q364.545 1482.55 368.156 1482.55 Q371.79 1482.55 373.596 1479.01 Q375.424 1475.44 375.424 1468.33 Q375.424 1461.2 373.596 1457.66 Q371.79 1454.1 368.156 1454.1 M368.156 1450.39 Q373.966 1450.39 377.021 1455 Q380.1 1459.58 380.1 1468.33 Q380.1 1477.06 377.021 1481.67 Q373.966 1486.25 368.156 1486.25 Q362.346 1486.25 359.267 1481.67 Q356.211 1477.06 356.211 1468.33 Q356.211 1459.58 359.267 1455 Q362.346 1450.39 368.156 1450.39 Z" fill="#000000" fill-rule="evenodd" fill-opacity="1"></path><path clip-path="url(#clip940)" d="M842.553 1451.02 L860.91 1451.02 L860.91 1454.96 L846.836 1454.96 L846.836 1463.43 Q847.854 1463.08 848.873 1462.92 Q849.891 1462.73 850.91 1462.73 Q856.697 1462.73 860.076 1465.9 Q863.456 1469.08 863.456 1474.49 Q863.456 1480.07 859.984 1483.17 Q856.512 1486.25 850.192 1486.25 Q848.016 1486.25 845.748 1485.88 Q843.502 1485.51 841.095 1484.77 L841.095 1480.07 Q843.178 1481.2 845.4 1481.76 Q847.623 1482.32 850.1 1482.32 Q854.104 1482.32 856.442 1480.21 Q858.78 1478.1 858.78 1474.49 Q858.78 1470.88 856.442 1468.77 Q854.104 1466.67 850.1 1466.67 Q848.225 1466.67 846.35 1467.08 Q844.498 1467.5 842.553 1468.38 L842.553 1451.02 Z" fill="#000000" fill-rule="evenodd" fill-opacity="1"></path><path clip-path="url(#clip940)" d="M1311.08 1481.64 L1318.72 1481.64 L1318.72 1455.28 L1310.41 1456.95 L1310.41 1452.69 L1318.68 1451.02 L1323.35 1451.02 L1323.35 1481.64 L1330.99 1481.64 L1330.99 1485.58 L1311.08 1485.58 L1311.08 1481.64 Z" fill="#000000" fill-rule="evenodd" fill-opacity="1"></path><path clip-path="url(#clip940)" d="M1350.43 1454.1 Q1346.82 1454.1 1344.99 1457.66 Q1343.19 1461.2 1343.19 1468.33 Q1343.19 1475.44 1344.99 1479.01 Q1346.82 1482.55 1350.43 1482.55 Q1354.07 1482.55 1355.87 1479.01 Q1357.7 1475.44 1357.7 1468.33 Q1357.7 1461.2 1355.87 1457.66 Q1354.07 1454.1 1350.43 1454.1 M1350.43 1450.39 Q1356.24 1450.39 1359.3 1455 Q1362.38 1459.58 1362.38 1468.33 Q1362.38 1477.06 1359.3 1481.67 Q1356.24 1486.25 1350.43 1486.25 Q1344.62 1486.25 1341.55 1481.67 Q1338.49 1477.06 1338.49 1468.33 Q1338.49 1459.58 1341.55 1455 Q1344.62 1450.39 1350.43 1450.39 Z" fill="#000000" fill-rule="evenodd" fill-opacity="1"></path><path clip-path="url(#clip940)" d="M1795.7 1481.64 L1803.34 1481.64 L1803.34 1455.28 L1795.03 1456.95 L1795.03 1452.69 L1803.29 1451.02 L1807.97 1451.02 L1807.97 1481.64 L1815.61 1481.64 L1815.61 1485.58 L1795.7 1485.58 L1795.7 1481.64 Z" fill="#000000" fill-rule="evenodd" fill-opacity="1"></path><path clip-path="url(#clip940)" d="M1825.1 1451.02 L1843.45 1451.02 L1843.45 1454.96 L1829.38 1454.96 L1829.38 1463.43 Q1830.4 1463.08 1831.42 1462.92 Q1832.44 1462.73 1833.45 1462.73 Q1839.24 1462.73 1842.62 1465.9 Q1846 1469.08 1846 1474.49 Q1846 1480.07 1842.53 1483.17 Q1839.06 1486.25 1832.74 1486.25 Q1830.56 1486.25 1828.29 1485.88 Q1826.05 1485.51 1823.64 1484.77 L1823.64 1480.07 Q1825.72 1481.2 1827.95 1481.76 Q1830.17 1482.32 1832.64 1482.32 Q1836.65 1482.32 1838.99 1480.21 Q1841.32 1478.1 1841.32 1474.49 Q1841.32 1470.88 1838.99 1468.77 Q1836.65 1466.67 1832.64 1466.67 Q1830.77 1466.67 1828.89 1467.08 Q1827.04 1467.5 1825.1 1468.38 L1825.1 1451.02 Z" fill="#000000" fill-rule="evenodd" fill-opacity="1"></path><path clip-path="url(#clip940)" d="M2283.41 1481.64 L2299.73 1481.64 L2299.73 1485.58 L2277.78 1485.58 L2277.78 1481.64 Q2280.44 1478.89 2285.03 1474.26 Q2289.63 1469.61 2290.82 1468.27 Q2293.06 1465.74 2293.94 1464.01 Q2294.84 1462.25 2294.84 1460.56 Q2294.84 1457.8 2292.9 1456.07 Q2290.98 1454.33 2287.88 1454.33 Q2285.68 1454.33 2283.22 1455.09 Q2280.79 1455.86 2278.01 1457.41 L2278.01 1452.69 Q2280.84 1451.55 2283.29 1450.97 Q2285.75 1450.39 2287.78 1450.39 Q2293.15 1450.39 2296.35 1453.08 Q2299.54 1455.77 2299.54 1460.26 Q2299.54 1462.39 2298.73 1464.31 Q2297.94 1466.2 2295.84 1468.8 Q2295.26 1469.47 2292.16 1472.69 Q2289.06 1475.88 2283.41 1481.64 Z" fill="#000000" fill-rule="evenodd" fill-opacity="1"></path><path clip-path="url(#clip940)" d="M2319.54 1454.1 Q2315.93 1454.1 2314.1 1457.66 Q2312.3 1461.2 2312.3 1468.33 Q2312.3 1475.44 2314.1 1479.01 Q2315.93 1482.55 2319.54 1482.55 Q2323.18 1482.55 2324.98 1479.01 Q2326.81 1475.44 2326.81 1468.33 Q2326.81 1461.2 2324.98 1457.66 Q2323.18 1454.1 2319.54 1454.1 M2319.54 1450.39 Q2325.35 1450.39 2328.41 1455 Q2331.49 1459.58 2331.49 1468.33 Q2331.49 1477.06 2328.41 1481.67 Q2325.35 1486.25 2319.54 1486.25 Q2313.73 1486.25 2310.65 1481.67 Q2307.6 1477.06 2307.6 1468.33 Q2307.6 1459.58 2310.65 1455 Q2313.73 1450.39 2319.54 1450.39 Z" fill="#000000" fill-rule="evenodd" fill-opacity="1"></path><path clip-path="url(#clip940)" d="M1172.62 1520.52 L1212.82 1520.52 L1212.82 1525.93 L1195.95 1525.93 L1195.95 1568.04 L1189.49 1568.04 L1189.49 1525.93 L1172.62 1525.93 L1172.62 1520.52 Z" fill="#000000" fill-rule="evenodd" fill-opacity="1"></path><path clip-path="url(#clip940)" d="M1216.76 1532.4 L1222.62 1532.4 L1222.62 1568.04 L1216.76 1568.04 L1216.76 1532.4 M1216.76 1518.52 L1222.62 1518.52 L1222.62 1525.93 L1216.76 1525.93 L1216.76 1518.52 Z" fill="#000000" fill-rule="evenodd" fill-opacity="1"></path><path clip-path="url(#clip940)" d="M1262.63 1539.24 Q1264.83 1535.29 1267.88 1533.41 Q1270.94 1531.54 1275.07 1531.54 Q1280.64 1531.54 1283.67 1535.45 Q1286.69 1539.33 1286.69 1546.53 L1286.69 1568.04 L1280.8 1568.04 L1280.8 1546.72 Q1280.8 1541.59 1278.99 1539.11 Q1277.17 1536.63 1273.45 1536.63 Q1268.9 1536.63 1266.26 1539.65 Q1263.62 1542.68 1263.62 1547.9 L1263.62 1568.04 L1257.73 1568.04 L1257.73 1546.72 Q1257.73 1541.56 1255.91 1539.11 Q1254.1 1536.63 1250.31 1536.63 Q1245.82 1536.63 1243.18 1539.68 Q1240.54 1542.71 1240.54 1547.9 L1240.54 1568.04 L1234.65 1568.04 L1234.65 1532.4 L1240.54 1532.4 L1240.54 1537.93 Q1242.55 1534.66 1245.35 1533.1 Q1248.15 1531.54 1252 1531.54 Q1255.88 1531.54 1258.59 1533.51 Q1261.32 1535.48 1262.63 1539.24 Z" fill="#000000" fill-rule="evenodd" fill-opacity="1"></path><path clip-path="url(#clip940)" d="M1328.86 1548.76 L1328.86 1551.62 L1301.94 1551.62 Q1302.32 1557.67 1305.57 1560.85 Q1308.84 1564 1314.67 1564 Q1318.04 1564 1321.19 1563.17 Q1324.38 1562.35 1327.5 1560.69 L1327.5 1566.23 Q1324.34 1567.57 1321.03 1568.27 Q1317.72 1568.97 1314.32 1568.97 Q1305.79 1568.97 1300.79 1564 Q1295.83 1559.04 1295.83 1550.57 Q1295.83 1541.82 1300.54 1536.69 Q1305.28 1531.54 1313.3 1531.54 Q1320.49 1531.54 1324.66 1536.18 Q1328.86 1540.8 1328.86 1548.76 M1323.01 1547.04 Q1322.94 1542.23 1320.3 1539.37 Q1317.69 1536.5 1313.36 1536.5 Q1308.46 1536.5 1305.5 1539.27 Q1302.57 1542.04 1302.13 1547.07 L1323.01 1547.04 Z" fill="#000000" fill-rule="evenodd" fill-opacity="1"></path><path clip-path="url(#clip940)" d="M1381.92 1533.45 L1381.92 1538.98 Q1379.44 1537.71 1376.77 1537.07 Q1374.09 1536.44 1371.23 1536.44 Q1366.87 1536.44 1364.67 1537.77 Q1362.51 1539.11 1362.51 1541.79 Q1362.51 1543.82 1364.07 1545 Q1365.63 1546.15 1370.34 1547.2 L1372.34 1547.64 Q1378.58 1548.98 1381.19 1551.43 Q1383.83 1553.85 1383.83 1558.21 Q1383.83 1563.17 1379.89 1566.07 Q1375.97 1568.97 1369.1 1568.97 Q1366.23 1568.97 1363.11 1568.39 Q1360.02 1567.85 1356.59 1566.74 L1356.59 1560.69 Q1359.83 1562.38 1362.98 1563.24 Q1366.14 1564.07 1369.22 1564.07 Q1373.36 1564.07 1375.59 1562.66 Q1377.82 1561.23 1377.82 1558.65 Q1377.82 1556.27 1376.19 1554.99 Q1374.6 1553.72 1369.16 1552.54 L1367.12 1552.07 Q1361.68 1550.92 1359.26 1548.56 Q1356.84 1546.18 1356.84 1542.04 Q1356.84 1537.01 1360.41 1534.27 Q1363.97 1531.54 1370.53 1531.54 Q1373.77 1531.54 1376.64 1532.01 Q1379.5 1532.49 1381.92 1533.45 Z" fill="#000000" fill-rule="evenodd" fill-opacity="1"></path><path clip-path="url(#clip940)" d="M1398.95 1522.27 L1398.95 1532.4 L1411.01 1532.4 L1411.01 1536.95 L1398.95 1536.95 L1398.95 1556.3 Q1398.95 1560.66 1400.13 1561.9 Q1401.34 1563.14 1405 1563.14 L1411.01 1563.14 L1411.01 1568.04 L1405 1568.04 Q1398.22 1568.04 1395.64 1565.53 Q1393.06 1562.98 1393.06 1556.3 L1393.06 1536.95 L1388.77 1536.95 L1388.77 1532.4 L1393.06 1532.4 L1393.06 1522.27 L1398.95 1522.27 Z" fill="#000000" fill-rule="evenodd" fill-opacity="1"></path><path clip-path="url(#clip940)" d="M1449.21 1548.76 L1449.21 1551.62 L1422.28 1551.62 Q1422.66 1557.67 1425.91 1560.85 Q1429.19 1564 1435.01 1564 Q1438.39 1564 1441.54 1563.17 Q1444.72 1562.35 1447.84 1560.69 L1447.84 1566.23 Q1444.69 1567.57 1441.38 1568.27 Q1438.07 1568.97 1434.66 1568.97 Q1426.13 1568.97 1421.14 1564 Q1416.17 1559.04 1416.17 1550.57 Q1416.17 1541.82 1420.88 1536.69 Q1425.62 1531.54 1433.64 1531.54 Q1440.84 1531.54 1445.01 1536.18 Q1449.21 1540.8 1449.21 1548.76 M1443.35 1547.04 Q1443.29 1542.23 1440.65 1539.37 Q1438.04 1536.5 1433.71 1536.5 Q1428.81 1536.5 1425.85 1539.27 Q1422.92 1542.04 1422.47 1547.07 L1443.35 1547.04 Z" fill="#000000" fill-rule="evenodd" fill-opacity="1"></path><path clip-path="url(#clip940)" d="M1464.49 1562.7 L1464.49 1581.6 L1458.6 1581.6 L1458.6 1532.4 L1464.49 1532.4 L1464.49 1537.81 Q1466.33 1534.62 1469.13 1533.1 Q1471.97 1531.54 1475.88 1531.54 Q1482.37 1531.54 1486.42 1536.69 Q1490.49 1541.85 1490.49 1550.25 Q1490.49 1558.65 1486.42 1563.81 Q1482.37 1568.97 1475.88 1568.97 Q1471.97 1568.97 1469.13 1567.44 Q1466.33 1565.88 1464.49 1562.7 M1484.41 1550.25 Q1484.41 1543.79 1481.74 1540.13 Q1479.1 1536.44 1474.45 1536.44 Q1469.8 1536.44 1467.13 1540.13 Q1464.49 1543.79 1464.49 1550.25 Q1464.49 1556.71 1467.13 1560.4 Q1469.8 1564.07 1474.45 1564.07 Q1479.1 1564.07 1481.74 1560.4 Q1484.41 1556.71 1484.41 1550.25 Z" fill="#000000" fill-rule="evenodd" fill-opacity="1"></path><polyline clip-path="url(#clip942)" style="stroke:#000000; stroke-linecap:butt; stroke-linejoin:round; stroke-width:2; stroke-opacity:0.1; fill:none" points="
  310.352,1423.18 2352.76,1423.18 
  "></polyline>
<polyline clip-path="url(#clip942)" style="stroke:#000000; stroke-linecap:butt; stroke-linejoin:round; stroke-width:2; stroke-opacity:0.1; fill:none" points="
  310.352,1211.5 2352.76,1211.5 
  "></polyline>
<polyline clip-path="url(#clip942)" style="stroke:#000000; stroke-linecap:butt; stroke-linejoin:round; stroke-width:2; stroke-opacity:0.1; fill:none" points="
  310.352,999.815 2352.76,999.815 
  "></polyline>
<polyline clip-path="url(#clip942)" style="stroke:#000000; stroke-linecap:butt; stroke-linejoin:round; stroke-width:2; stroke-opacity:0.1; fill:none" points="
  310.352,788.133 2352.76,788.133 
  "></polyline>
<polyline clip-path="url(#clip942)" style="stroke:#000000; stroke-linecap:butt; stroke-linejoin:round; stroke-width:2; stroke-opacity:0.1; fill:none" points="
  310.352,576.45 2352.76,576.45 
  "></polyline>
<polyline clip-path="url(#clip942)" style="stroke:#000000; stroke-linecap:butt; stroke-linejoin:round; stroke-width:2; stroke-opacity:0.1; fill:none" points="
  310.352,364.768 2352.76,364.768 
  "></polyline>
<polyline clip-path="url(#clip942)" style="stroke:#000000; stroke-linecap:butt; stroke-linejoin:round; stroke-width:2; stroke-opacity:0.1; fill:none" points="
  310.352,153.085 2352.76,153.085 
  "></polyline>
<polyline clip-path="url(#clip940)" style="stroke:#000000; stroke-linecap:butt; stroke-linejoin:round; stroke-width:4; stroke-opacity:1; fill:none" points="
  310.352,1423.18 310.352,47.2441 
  "></polyline>
<polyline clip-path="url(#clip940)" style="stroke:#000000; stroke-linecap:butt; stroke-linejoin:round; stroke-width:4; stroke-opacity:1; fill:none" points="
  310.352,1423.18 329.25,1423.18 
  "></polyline>
<polyline clip-path="url(#clip940)" style="stroke:#000000; stroke-linecap:butt; stroke-linejoin:round; stroke-width:4; stroke-opacity:1; fill:none" points="
  310.352,1211.5 329.25,1211.5 
  "></polyline>
<polyline clip-path="url(#clip940)" style="stroke:#000000; stroke-linecap:butt; stroke-linejoin:round; stroke-width:4; stroke-opacity:1; fill:none" points="
  310.352,999.815 329.25,999.815 
  "></polyline>
<polyline clip-path="url(#clip940)" style="stroke:#000000; stroke-linecap:butt; stroke-linejoin:round; stroke-width:4; stroke-opacity:1; fill:none" points="
  310.352,788.133 329.25,788.133 
  "></polyline>
<polyline clip-path="url(#clip940)" style="stroke:#000000; stroke-linecap:butt; stroke-linejoin:round; stroke-width:4; stroke-opacity:1; fill:none" points="
  310.352,576.45 329.25,576.45 
  "></polyline>
<polyline clip-path="url(#clip940)" style="stroke:#000000; stroke-linecap:butt; stroke-linejoin:round; stroke-width:4; stroke-opacity:1; fill:none" points="
  310.352,364.768 329.25,364.768 
  "></polyline>
<polyline clip-path="url(#clip940)" style="stroke:#000000; stroke-linecap:butt; stroke-linejoin:round; stroke-width:4; stroke-opacity:1; fill:none" points="
  310.352,153.085 329.25,153.085 
  "></polyline>
<path clip-path="url(#clip940)" d="M126.691 1408.98 Q123.08 1408.98 121.251 1412.54 Q119.445 1416.08 119.445 1423.21 Q119.445 1430.32 121.251 1433.89 Q123.08 1437.43 126.691 1437.43 Q130.325 1437.43 132.13 1433.89 Q133.959 1430.32 133.959 1423.21 Q133.959 1416.08 132.13 1412.54 Q130.325 1408.98 126.691 1408.98 M126.691 1405.27 Q132.501 1405.27 135.556 1409.88 Q138.635 1414.46 138.635 1423.21 Q138.635 1431.94 135.556 1436.55 Q132.501 1441.13 126.691 1441.13 Q120.88 1441.13 117.802 1436.55 Q114.746 1431.94 114.746 1423.21 Q114.746 1414.46 117.802 1409.88 Q120.88 1405.27 126.691 1405.27 Z" fill="#000000" fill-rule="evenodd" fill-opacity="1"></path><path clip-path="url(#clip940)" d="M146.853 1434.58 L151.737 1434.58 L151.737 1440.46 L146.853 1440.46 L146.853 1434.58 Z" fill="#000000" fill-rule="evenodd" fill-opacity="1"></path><path clip-path="url(#clip940)" d="M171.922 1408.98 Q168.311 1408.98 166.482 1412.54 Q164.677 1416.08 164.677 1423.21 Q164.677 1430.32 166.482 1433.89 Q168.311 1437.43 171.922 1437.43 Q175.556 1437.43 177.362 1433.89 Q179.19 1430.32 179.19 1423.21 Q179.19 1416.08 177.362 1412.54 Q175.556 1408.98 171.922 1408.98 M171.922 1405.27 Q177.732 1405.27 180.788 1409.88 Q183.866 1414.46 183.866 1423.21 Q183.866 1431.94 180.788 1436.55 Q177.732 1441.13 171.922 1441.13 Q166.112 1441.13 163.033 1436.55 Q159.978 1431.94 159.978 1423.21 Q159.978 1414.46 163.033 1409.88 Q166.112 1405.27 171.922 1405.27 Z" fill="#000000" fill-rule="evenodd" fill-opacity="1"></path><path clip-path="url(#clip940)" d="M202.084 1408.98 Q198.473 1408.98 196.644 1412.54 Q194.838 1416.08 194.838 1423.21 Q194.838 1430.32 196.644 1433.89 Q198.473 1437.43 202.084 1437.43 Q205.718 1437.43 207.524 1433.89 Q209.352 1430.32 209.352 1423.21 Q209.352 1416.08 207.524 1412.54 Q205.718 1408.98 202.084 1408.98 M202.084 1405.27 Q207.894 1405.27 210.949 1409.88 Q214.028 1414.46 214.028 1423.21 Q214.028 1431.94 210.949 1436.55 Q207.894 1441.13 202.084 1441.13 Q196.274 1441.13 193.195 1436.55 Q190.139 1431.94 190.139 1423.21 Q190.139 1414.46 193.195 1409.88 Q196.274 1405.27 202.084 1405.27 Z" fill="#000000" fill-rule="evenodd" fill-opacity="1"></path><path clip-path="url(#clip940)" d="M232.246 1408.98 Q228.635 1408.98 226.806 1412.54 Q225 1416.08 225 1423.21 Q225 1430.32 226.806 1433.89 Q228.635 1437.43 232.246 1437.43 Q235.88 1437.43 237.685 1433.89 Q239.514 1430.32 239.514 1423.21 Q239.514 1416.08 237.685 1412.54 Q235.88 1408.98 232.246 1408.98 M232.246 1405.27 Q238.056 1405.27 241.111 1409.88 Q244.19 1414.46 244.19 1423.21 Q244.19 1431.94 241.111 1436.55 Q238.056 1441.13 232.246 1441.13 Q226.435 1441.13 223.357 1436.55 Q220.301 1431.94 220.301 1423.21 Q220.301 1414.46 223.357 1409.88 Q226.435 1405.27 232.246 1405.27 Z" fill="#000000" fill-rule="evenodd" fill-opacity="1"></path><path clip-path="url(#clip940)" d="M262.408 1408.98 Q258.796 1408.98 256.968 1412.54 Q255.162 1416.08 255.162 1423.21 Q255.162 1430.32 256.968 1433.89 Q258.796 1437.43 262.408 1437.43 Q266.042 1437.43 267.847 1433.89 Q269.676 1430.32 269.676 1423.21 Q269.676 1416.08 267.847 1412.54 Q266.042 1408.98 262.408 1408.98 M262.408 1405.27 Q268.218 1405.27 271.273 1409.88 Q274.352 1414.46 274.352 1423.21 Q274.352 1431.94 271.273 1436.55 Q268.218 1441.13 262.408 1441.13 Q256.597 1441.13 253.519 1436.55 Q250.463 1431.94 250.463 1423.21 Q250.463 1414.46 253.519 1409.88 Q256.597 1405.27 262.408 1405.27 Z" fill="#000000" fill-rule="evenodd" fill-opacity="1"></path><path clip-path="url(#clip940)" d="M128.288 1197.3 Q124.677 1197.3 122.848 1200.86 Q121.043 1204.4 121.043 1211.53 Q121.043 1218.64 122.848 1222.2 Q124.677 1225.75 128.288 1225.75 Q131.922 1225.75 133.728 1222.2 Q135.556 1218.64 135.556 1211.53 Q135.556 1204.4 133.728 1200.86 Q131.922 1197.3 128.288 1197.3 M128.288 1193.59 Q134.098 1193.59 137.154 1198.2 Q140.232 1202.78 140.232 1211.53 Q140.232 1220.26 137.154 1224.87 Q134.098 1229.45 128.288 1229.45 Q122.478 1229.45 119.399 1224.87 Q116.343 1220.26 116.343 1211.53 Q116.343 1202.78 119.399 1198.2 Q122.478 1193.59 128.288 1193.59 Z" fill="#000000" fill-rule="evenodd" fill-opacity="1"></path><path clip-path="url(#clip940)" d="M148.45 1222.9 L153.334 1222.9 L153.334 1228.78 L148.45 1228.78 L148.45 1222.9 Z" fill="#000000" fill-rule="evenodd" fill-opacity="1"></path><path clip-path="url(#clip940)" d="M173.519 1197.3 Q169.908 1197.3 168.079 1200.86 Q166.274 1204.4 166.274 1211.53 Q166.274 1218.64 168.079 1222.2 Q169.908 1225.75 173.519 1225.75 Q177.153 1225.75 178.959 1222.2 Q180.788 1218.64 180.788 1211.53 Q180.788 1204.4 178.959 1200.86 Q177.153 1197.3 173.519 1197.3 M173.519 1193.59 Q179.329 1193.59 182.385 1198.2 Q185.463 1202.78 185.463 1211.53 Q185.463 1220.26 182.385 1224.87 Q179.329 1229.45 173.519 1229.45 Q167.709 1229.45 164.63 1224.87 Q161.575 1220.26 161.575 1211.53 Q161.575 1202.78 164.63 1198.2 Q167.709 1193.59 173.519 1193.59 Z" fill="#000000" fill-rule="evenodd" fill-opacity="1"></path><path clip-path="url(#clip940)" d="M203.681 1197.3 Q200.07 1197.3 198.241 1200.86 Q196.436 1204.4 196.436 1211.53 Q196.436 1218.64 198.241 1222.2 Q200.07 1225.75 203.681 1225.75 Q207.315 1225.75 209.121 1222.2 Q210.949 1218.64 210.949 1211.53 Q210.949 1204.4 209.121 1200.86 Q207.315 1197.3 203.681 1197.3 M203.681 1193.59 Q209.491 1193.59 212.547 1198.2 Q215.625 1202.78 215.625 1211.53 Q215.625 1220.26 212.547 1224.87 Q209.491 1229.45 203.681 1229.45 Q197.871 1229.45 194.792 1224.87 Q191.737 1220.26 191.737 1211.53 Q191.737 1202.78 194.792 1198.2 Q197.871 1193.59 203.681 1193.59 Z" fill="#000000" fill-rule="evenodd" fill-opacity="1"></path><path clip-path="url(#clip940)" d="M233.843 1197.3 Q230.232 1197.3 228.403 1200.86 Q226.598 1204.4 226.598 1211.53 Q226.598 1218.64 228.403 1222.2 Q230.232 1225.75 233.843 1225.75 Q237.477 1225.75 239.283 1222.2 Q241.111 1218.64 241.111 1211.53 Q241.111 1204.4 239.283 1200.86 Q237.477 1197.3 233.843 1197.3 M233.843 1193.59 Q239.653 1193.59 242.709 1198.2 Q245.787 1202.78 245.787 1211.53 Q245.787 1220.26 242.709 1224.87 Q239.653 1229.45 233.843 1229.45 Q228.033 1229.45 224.954 1224.87 Q221.898 1220.26 221.898 1211.53 Q221.898 1202.78 224.954 1198.2 Q228.033 1193.59 233.843 1193.59 Z" fill="#000000" fill-rule="evenodd" fill-opacity="1"></path><path clip-path="url(#clip940)" d="M258.033 1224.84 L274.352 1224.84 L274.352 1228.78 L252.408 1228.78 L252.408 1224.84 Q255.07 1222.09 259.653 1217.46 Q264.259 1212.81 265.44 1211.46 Q267.685 1208.94 268.565 1207.2 Q269.468 1205.44 269.468 1203.75 Q269.468 1201 267.523 1199.26 Q265.602 1197.53 262.5 1197.53 Q260.301 1197.53 257.847 1198.29 Q255.417 1199.06 252.639 1200.61 L252.639 1195.88 Q255.463 1194.75 257.917 1194.17 Q260.37 1193.59 262.408 1193.59 Q267.778 1193.59 270.972 1196.28 Q274.167 1198.96 274.167 1203.45 Q274.167 1205.58 273.357 1207.5 Q272.569 1209.4 270.463 1212 Q269.884 1212.67 266.782 1215.88 Q263.681 1219.08 258.033 1224.84 Z" fill="#000000" fill-rule="evenodd" fill-opacity="1"></path><path clip-path="url(#clip940)" d="M126.205 985.614 Q122.593 985.614 120.765 989.178 Q118.959 992.72 118.959 999.85 Q118.959 1006.96 120.765 1010.52 Q122.593 1014.06 126.205 1014.06 Q129.839 1014.06 131.644 1010.52 Q133.473 1006.96 133.473 999.85 Q133.473 992.72 131.644 989.178 Q129.839 985.614 126.205 985.614 M126.205 981.91 Q132.015 981.91 135.07 986.516 Q138.149 991.1 138.149 999.85 Q138.149 1008.58 135.07 1013.18 Q132.015 1017.77 126.205 1017.77 Q120.394 1017.77 117.316 1013.18 Q114.26 1008.58 114.26 999.85 Q114.26 991.1 117.316 986.516 Q120.394 981.91 126.205 981.91 Z" fill="#000000" fill-rule="evenodd" fill-opacity="1"></path><path clip-path="url(#clip940)" d="M146.366 1011.22 L151.251 1011.22 L151.251 1017.09 L146.366 1017.09 L146.366 1011.22 Z" fill="#000000" fill-rule="evenodd" fill-opacity="1"></path><path clip-path="url(#clip940)" d="M171.436 985.614 Q167.825 985.614 165.996 989.178 Q164.19 992.72 164.19 999.85 Q164.19 1006.96 165.996 1010.52 Q167.825 1014.06 171.436 1014.06 Q175.07 1014.06 176.876 1010.52 Q178.704 1006.96 178.704 999.85 Q178.704 992.72 176.876 989.178 Q175.07 985.614 171.436 985.614 M171.436 981.91 Q177.246 981.91 180.301 986.516 Q183.38 991.1 183.38 999.85 Q183.38 1008.58 180.301 1013.18 Q177.246 1017.77 171.436 1017.77 Q165.626 1017.77 162.547 1013.18 Q159.491 1008.58 159.491 999.85 Q159.491 991.1 162.547 986.516 Q165.626 981.91 171.436 981.91 Z" fill="#000000" fill-rule="evenodd" fill-opacity="1"></path><path clip-path="url(#clip940)" d="M201.598 985.614 Q197.987 985.614 196.158 989.178 Q194.352 992.72 194.352 999.85 Q194.352 1006.96 196.158 1010.52 Q197.987 1014.06 201.598 1014.06 Q205.232 1014.06 207.037 1010.52 Q208.866 1006.96 208.866 999.85 Q208.866 992.72 207.037 989.178 Q205.232 985.614 201.598 985.614 M201.598 981.91 Q207.408 981.91 210.463 986.516 Q213.542 991.1 213.542 999.85 Q213.542 1008.58 210.463 1013.18 Q207.408 1017.77 201.598 1017.77 Q195.787 1017.77 192.709 1013.18 Q189.653 1008.58 189.653 999.85 Q189.653 991.1 192.709 986.516 Q195.787 981.91 201.598 981.91 Z" fill="#000000" fill-rule="evenodd" fill-opacity="1"></path><path clip-path="url(#clip940)" d="M231.76 985.614 Q228.148 985.614 226.32 989.178 Q224.514 992.72 224.514 999.85 Q224.514 1006.96 226.32 1010.52 Q228.148 1014.06 231.76 1014.06 Q235.394 1014.06 237.199 1010.52 Q239.028 1006.96 239.028 999.85 Q239.028 992.72 237.199 989.178 Q235.394 985.614 231.76 985.614 M231.76 981.91 Q237.57 981.91 240.625 986.516 Q243.704 991.1 243.704 999.85 Q243.704 1008.58 240.625 1013.18 Q237.57 1017.77 231.76 1017.77 Q225.949 1017.77 222.871 1013.18 Q219.815 1008.58 219.815 999.85 Q219.815 991.1 222.871 986.516 Q225.949 981.91 231.76 981.91 Z" fill="#000000" fill-rule="evenodd" fill-opacity="1"></path><path clip-path="url(#clip940)" d="M264.769 986.609 L252.963 1005.06 L264.769 1005.06 L264.769 986.609 M263.542 982.535 L269.421 982.535 L269.421 1005.06 L274.352 1005.06 L274.352 1008.95 L269.421 1008.95 L269.421 1017.09 L264.769 1017.09 L264.769 1008.95 L249.167 1008.95 L249.167 1004.43 L263.542 982.535 Z" fill="#000000" fill-rule="evenodd" fill-opacity="1"></path><path clip-path="url(#clip940)" d="M126.529 773.931 Q122.918 773.931 121.089 777.496 Q119.283 781.038 119.283 788.167 Q119.283 795.274 121.089 798.839 Q122.918 802.38 126.529 802.38 Q130.163 802.38 131.968 798.839 Q133.797 795.274 133.797 788.167 Q133.797 781.038 131.968 777.496 Q130.163 773.931 126.529 773.931 M126.529 770.228 Q132.339 770.228 135.394 774.834 Q138.473 779.417 138.473 788.167 Q138.473 796.894 135.394 801.501 Q132.339 806.084 126.529 806.084 Q120.718 806.084 117.64 801.501 Q114.584 796.894 114.584 788.167 Q114.584 779.417 117.64 774.834 Q120.718 770.228 126.529 770.228 Z" fill="#000000" fill-rule="evenodd" fill-opacity="1"></path><path clip-path="url(#clip940)" d="M146.691 799.533 L151.575 799.533 L151.575 805.413 L146.691 805.413 L146.691 799.533 Z" fill="#000000" fill-rule="evenodd" fill-opacity="1"></path><path clip-path="url(#clip940)" d="M171.76 773.931 Q168.149 773.931 166.32 777.496 Q164.515 781.038 164.515 788.167 Q164.515 795.274 166.32 798.839 Q168.149 802.38 171.76 802.38 Q175.394 802.38 177.2 798.839 Q179.028 795.274 179.028 788.167 Q179.028 781.038 177.2 777.496 Q175.394 773.931 171.76 773.931 M171.76 770.228 Q177.57 770.228 180.626 774.834 Q183.704 779.417 183.704 788.167 Q183.704 796.894 180.626 801.501 Q177.57 806.084 171.76 806.084 Q165.95 806.084 162.871 801.501 Q159.815 796.894 159.815 788.167 Q159.815 779.417 162.871 774.834 Q165.95 770.228 171.76 770.228 Z" fill="#000000" fill-rule="evenodd" fill-opacity="1"></path><path clip-path="url(#clip940)" d="M201.922 773.931 Q198.311 773.931 196.482 777.496 Q194.676 781.038 194.676 788.167 Q194.676 795.274 196.482 798.839 Q198.311 802.38 201.922 802.38 Q205.556 802.38 207.362 798.839 Q209.19 795.274 209.19 788.167 Q209.19 781.038 207.362 777.496 Q205.556 773.931 201.922 773.931 M201.922 770.228 Q207.732 770.228 210.787 774.834 Q213.866 779.417 213.866 788.167 Q213.866 796.894 210.787 801.501 Q207.732 806.084 201.922 806.084 Q196.112 806.084 193.033 801.501 Q189.977 796.894 189.977 788.167 Q189.977 779.417 193.033 774.834 Q196.112 770.228 201.922 770.228 Z" fill="#000000" fill-rule="evenodd" fill-opacity="1"></path><path clip-path="url(#clip940)" d="M232.084 773.931 Q228.473 773.931 226.644 777.496 Q224.838 781.038 224.838 788.167 Q224.838 795.274 226.644 798.839 Q228.473 802.38 232.084 802.38 Q235.718 802.38 237.523 798.839 Q239.352 795.274 239.352 788.167 Q239.352 781.038 237.523 777.496 Q235.718 773.931 232.084 773.931 M232.084 770.228 Q237.894 770.228 240.949 774.834 Q244.028 779.417 244.028 788.167 Q244.028 796.894 240.949 801.501 Q237.894 806.084 232.084 806.084 Q226.273 806.084 223.195 801.501 Q220.139 796.894 220.139 788.167 Q220.139 779.417 223.195 774.834 Q226.273 770.228 232.084 770.228 Z" fill="#000000" fill-rule="evenodd" fill-opacity="1"></path><path clip-path="url(#clip940)" d="M262.824 786.269 Q259.676 786.269 257.824 788.422 Q255.996 790.575 255.996 794.325 Q255.996 798.052 257.824 800.227 Q259.676 802.38 262.824 802.38 Q265.972 802.38 267.801 800.227 Q269.653 798.052 269.653 794.325 Q269.653 790.575 267.801 788.422 Q265.972 786.269 262.824 786.269 M272.107 771.616 L272.107 775.876 Q270.347 775.042 268.542 774.603 Q266.759 774.163 265 774.163 Q260.37 774.163 257.917 777.288 Q255.486 780.413 255.139 786.732 Q256.505 784.718 258.565 783.653 Q260.625 782.565 263.102 782.565 Q268.31 782.565 271.32 785.737 Q274.352 788.885 274.352 794.325 Q274.352 799.649 271.204 802.866 Q268.056 806.084 262.824 806.084 Q256.829 806.084 253.658 801.501 Q250.486 796.894 250.486 788.167 Q250.486 779.973 254.375 775.112 Q258.264 770.228 264.815 770.228 Q266.574 770.228 268.357 770.575 Q270.162 770.922 272.107 771.616 Z" fill="#000000" fill-rule="evenodd" fill-opacity="1"></path><path clip-path="url(#clip940)" d="M126.783 562.249 Q123.172 562.249 121.343 565.814 Q119.538 569.355 119.538 576.485 Q119.538 583.591 121.343 587.156 Q123.172 590.698 126.783 590.698 Q130.417 590.698 132.223 587.156 Q134.052 583.591 134.052 576.485 Q134.052 569.355 132.223 565.814 Q130.417 562.249 126.783 562.249 M126.783 558.545 Q132.593 558.545 135.649 563.152 Q138.728 567.735 138.728 576.485 Q138.728 585.212 135.649 589.818 Q132.593 594.401 126.783 594.401 Q120.973 594.401 117.894 589.818 Q114.839 585.212 114.839 576.485 Q114.839 567.735 117.894 563.152 Q120.973 558.545 126.783 558.545 Z" fill="#000000" fill-rule="evenodd" fill-opacity="1"></path><path clip-path="url(#clip940)" d="M146.945 587.851 L151.829 587.851 L151.829 593.73 L146.945 593.73 L146.945 587.851 Z" fill="#000000" fill-rule="evenodd" fill-opacity="1"></path><path clip-path="url(#clip940)" d="M172.014 562.249 Q168.403 562.249 166.575 565.814 Q164.769 569.355 164.769 576.485 Q164.769 583.591 166.575 587.156 Q168.403 590.698 172.014 590.698 Q175.649 590.698 177.454 587.156 Q179.283 583.591 179.283 576.485 Q179.283 569.355 177.454 565.814 Q175.649 562.249 172.014 562.249 M172.014 558.545 Q177.825 558.545 180.88 563.152 Q183.959 567.735 183.959 576.485 Q183.959 585.212 180.88 589.818 Q177.825 594.401 172.014 594.401 Q166.204 594.401 163.126 589.818 Q160.07 585.212 160.07 576.485 Q160.07 567.735 163.126 563.152 Q166.204 558.545 172.014 558.545 Z" fill="#000000" fill-rule="evenodd" fill-opacity="1"></path><path clip-path="url(#clip940)" d="M202.176 562.249 Q198.565 562.249 196.737 565.814 Q194.931 569.355 194.931 576.485 Q194.931 583.591 196.737 587.156 Q198.565 590.698 202.176 590.698 Q205.811 590.698 207.616 587.156 Q209.445 583.591 209.445 576.485 Q209.445 569.355 207.616 565.814 Q205.811 562.249 202.176 562.249 M202.176 558.545 Q207.987 558.545 211.042 563.152 Q214.121 567.735 214.121 576.485 Q214.121 585.212 211.042 589.818 Q207.987 594.401 202.176 594.401 Q196.366 594.401 193.288 589.818 Q190.232 585.212 190.232 576.485 Q190.232 567.735 193.288 563.152 Q196.366 558.545 202.176 558.545 Z" fill="#000000" fill-rule="evenodd" fill-opacity="1"></path><path clip-path="url(#clip940)" d="M232.338 562.249 Q228.727 562.249 226.898 565.814 Q225.093 569.355 225.093 576.485 Q225.093 583.591 226.898 587.156 Q228.727 590.698 232.338 590.698 Q235.972 590.698 237.778 587.156 Q239.607 583.591 239.607 576.485 Q239.607 569.355 237.778 565.814 Q235.972 562.249 232.338 562.249 M232.338 558.545 Q238.148 558.545 241.204 563.152 Q244.283 567.735 244.283 576.485 Q244.283 585.212 241.204 589.818 Q238.148 594.401 232.338 594.401 Q226.528 594.401 223.449 589.818 Q220.394 585.212 220.394 576.485 Q220.394 567.735 223.449 563.152 Q226.528 558.545 232.338 558.545 Z" fill="#000000" fill-rule="evenodd" fill-opacity="1"></path><path clip-path="url(#clip940)" d="M262.5 577.318 Q259.167 577.318 257.246 579.101 Q255.347 580.883 255.347 584.008 Q255.347 587.133 257.246 588.915 Q259.167 590.698 262.5 590.698 Q265.833 590.698 267.755 588.915 Q269.676 587.11 269.676 584.008 Q269.676 580.883 267.755 579.101 Q265.857 577.318 262.5 577.318 M257.824 575.327 Q254.815 574.587 253.125 572.527 Q251.458 570.466 251.458 567.503 Q251.458 563.36 254.398 560.953 Q257.361 558.545 262.5 558.545 Q267.662 558.545 270.602 560.953 Q273.542 563.36 273.542 567.503 Q273.542 570.466 271.852 572.527 Q270.185 574.587 267.199 575.327 Q270.579 576.115 272.454 578.406 Q274.352 580.698 274.352 584.008 Q274.352 589.031 271.273 591.716 Q268.218 594.401 262.5 594.401 Q256.783 594.401 253.704 591.716 Q250.648 589.031 250.648 584.008 Q250.648 580.698 252.546 578.406 Q254.445 576.115 257.824 575.327 M256.111 567.943 Q256.111 570.628 257.778 572.133 Q259.468 573.638 262.5 573.638 Q265.509 573.638 267.199 572.133 Q268.912 570.628 268.912 567.943 Q268.912 565.258 267.199 563.753 Q265.509 562.249 262.5 562.249 Q259.468 562.249 257.778 563.753 Q256.111 565.258 256.111 567.943 Z" fill="#000000" fill-rule="evenodd" fill-opacity="1"></path><path clip-path="url(#clip940)" d="M126.691 350.566 Q123.08 350.566 121.251 354.131 Q119.445 357.673 119.445 364.802 Q119.445 371.909 121.251 375.474 Q123.08 379.015 126.691 379.015 Q130.325 379.015 132.13 375.474 Q133.959 371.909 133.959 364.802 Q133.959 357.673 132.13 354.131 Q130.325 350.566 126.691 350.566 M126.691 346.863 Q132.501 346.863 135.556 351.469 Q138.635 356.052 138.635 364.802 Q138.635 373.529 135.556 378.136 Q132.501 382.719 126.691 382.719 Q120.88 382.719 117.802 378.136 Q114.746 373.529 114.746 364.802 Q114.746 356.052 117.802 351.469 Q120.88 346.863 126.691 346.863 Z" fill="#000000" fill-rule="evenodd" fill-opacity="1"></path><path clip-path="url(#clip940)" d="M146.853 376.168 L151.737 376.168 L151.737 382.048 L146.853 382.048 L146.853 376.168 Z" fill="#000000" fill-rule="evenodd" fill-opacity="1"></path><path clip-path="url(#clip940)" d="M171.922 350.566 Q168.311 350.566 166.482 354.131 Q164.677 357.673 164.677 364.802 Q164.677 371.909 166.482 375.474 Q168.311 379.015 171.922 379.015 Q175.556 379.015 177.362 375.474 Q179.19 371.909 179.19 364.802 Q179.19 357.673 177.362 354.131 Q175.556 350.566 171.922 350.566 M171.922 346.863 Q177.732 346.863 180.788 351.469 Q183.866 356.052 183.866 364.802 Q183.866 373.529 180.788 378.136 Q177.732 382.719 171.922 382.719 Q166.112 382.719 163.033 378.136 Q159.978 373.529 159.978 364.802 Q159.978 356.052 163.033 351.469 Q166.112 346.863 171.922 346.863 Z" fill="#000000" fill-rule="evenodd" fill-opacity="1"></path><path clip-path="url(#clip940)" d="M202.084 350.566 Q198.473 350.566 196.644 354.131 Q194.838 357.673 194.838 364.802 Q194.838 371.909 196.644 375.474 Q198.473 379.015 202.084 379.015 Q205.718 379.015 207.524 375.474 Q209.352 371.909 209.352 364.802 Q209.352 357.673 207.524 354.131 Q205.718 350.566 202.084 350.566 M202.084 346.863 Q207.894 346.863 210.949 351.469 Q214.028 356.052 214.028 364.802 Q214.028 373.529 210.949 378.136 Q207.894 382.719 202.084 382.719 Q196.274 382.719 193.195 378.136 Q190.139 373.529 190.139 364.802 Q190.139 356.052 193.195 351.469 Q196.274 346.863 202.084 346.863 Z" fill="#000000" fill-rule="evenodd" fill-opacity="1"></path><path clip-path="url(#clip940)" d="M223.056 378.113 L230.695 378.113 L230.695 351.747 L222.385 353.414 L222.385 349.154 L230.648 347.488 L235.324 347.488 L235.324 378.113 L242.963 378.113 L242.963 382.048 L223.056 382.048 L223.056 378.113 Z" fill="#000000" fill-rule="evenodd" fill-opacity="1"></path><path clip-path="url(#clip940)" d="M262.408 350.566 Q258.796 350.566 256.968 354.131 Q255.162 357.673 255.162 364.802 Q255.162 371.909 256.968 375.474 Q258.796 379.015 262.408 379.015 Q266.042 379.015 267.847 375.474 Q269.676 371.909 269.676 364.802 Q269.676 357.673 267.847 354.131 Q266.042 350.566 262.408 350.566 M262.408 346.863 Q268.218 346.863 271.273 351.469 Q274.352 356.052 274.352 364.802 Q274.352 373.529 271.273 378.136 Q268.218 382.719 262.408 382.719 Q256.597 382.719 253.519 378.136 Q250.463 373.529 250.463 364.802 Q250.463 356.052 253.519 351.469 Q256.597 346.863 262.408 346.863 Z" fill="#000000" fill-rule="evenodd" fill-opacity="1"></path><path clip-path="url(#clip940)" d="M128.288 138.884 Q124.677 138.884 122.848 142.449 Q121.043 145.99 121.043 153.12 Q121.043 160.226 122.848 163.791 Q124.677 167.333 128.288 167.333 Q131.922 167.333 133.728 163.791 Q135.556 160.226 135.556 153.12 Q135.556 145.99 133.728 142.449 Q131.922 138.884 128.288 138.884 M128.288 135.18 Q134.098 135.18 137.154 139.787 Q140.232 144.37 140.232 153.12 Q140.232 161.847 137.154 166.453 Q134.098 171.037 128.288 171.037 Q122.478 171.037 119.399 166.453 Q116.343 161.847 116.343 153.12 Q116.343 144.37 119.399 139.787 Q122.478 135.18 128.288 135.18 Z" fill="#000000" fill-rule="evenodd" fill-opacity="1"></path><path clip-path="url(#clip940)" d="M148.45 164.486 L153.334 164.486 L153.334 170.365 L148.45 170.365 L148.45 164.486 Z" fill="#000000" fill-rule="evenodd" fill-opacity="1"></path><path clip-path="url(#clip940)" d="M173.519 138.884 Q169.908 138.884 168.079 142.449 Q166.274 145.99 166.274 153.12 Q166.274 160.226 168.079 163.791 Q169.908 167.333 173.519 167.333 Q177.153 167.333 178.959 163.791 Q180.788 160.226 180.788 153.12 Q180.788 145.99 178.959 142.449 Q177.153 138.884 173.519 138.884 M173.519 135.18 Q179.329 135.18 182.385 139.787 Q185.463 144.37 185.463 153.12 Q185.463 161.847 182.385 166.453 Q179.329 171.037 173.519 171.037 Q167.709 171.037 164.63 166.453 Q161.575 161.847 161.575 153.12 Q161.575 144.37 164.63 139.787 Q167.709 135.18 173.519 135.18 Z" fill="#000000" fill-rule="evenodd" fill-opacity="1"></path><path clip-path="url(#clip940)" d="M203.681 138.884 Q200.07 138.884 198.241 142.449 Q196.436 145.99 196.436 153.12 Q196.436 160.226 198.241 163.791 Q200.07 167.333 203.681 167.333 Q207.315 167.333 209.121 163.791 Q210.949 160.226 210.949 153.12 Q210.949 145.99 209.121 142.449 Q207.315 138.884 203.681 138.884 M203.681 135.18 Q209.491 135.18 212.547 139.787 Q215.625 144.37 215.625 153.12 Q215.625 161.847 212.547 166.453 Q209.491 171.037 203.681 171.037 Q197.871 171.037 194.792 166.453 Q191.737 161.847 191.737 153.12 Q191.737 144.37 194.792 139.787 Q197.871 135.18 203.681 135.18 Z" fill="#000000" fill-rule="evenodd" fill-opacity="1"></path><path clip-path="url(#clip940)" d="M224.653 166.43 L232.292 166.43 L232.292 140.065 L223.982 141.731 L223.982 137.472 L232.246 135.805 L236.922 135.805 L236.922 166.43 L244.56 166.43 L244.56 170.365 L224.653 170.365 L224.653 166.43 Z" fill="#000000" fill-rule="evenodd" fill-opacity="1"></path><path clip-path="url(#clip940)" d="M258.033 166.43 L274.352 166.43 L274.352 170.365 L252.408 170.365 L252.408 166.43 Q255.07 163.676 259.653 159.046 Q264.259 154.393 265.44 153.051 Q267.685 150.527 268.565 148.791 Q269.468 147.032 269.468 145.342 Q269.468 142.588 267.523 140.852 Q265.602 139.115 262.5 139.115 Q260.301 139.115 257.847 139.879 Q255.417 140.643 252.639 142.194 L252.639 137.472 Q255.463 136.338 257.917 135.759 Q260.37 135.18 262.408 135.18 Q267.778 135.18 270.972 137.865 Q274.167 140.551 274.167 145.041 Q274.167 147.171 273.357 149.092 Q272.569 150.99 270.463 153.583 Q269.884 154.254 266.782 157.472 Q263.681 160.666 258.033 166.43 Z" fill="#000000" fill-rule="evenodd" fill-opacity="1"></path><path clip-path="url(#clip940)" d="M21.7677 1218.11 L39.6235 1218.11 L39.6235 1210.03 Q39.6235 1205.54 37.3 1203.09 Q34.9765 1200.64 30.6797 1200.64 Q26.4147 1200.64 24.0912 1203.09 Q21.7677 1205.54 21.7677 1210.03 L21.7677 1218.11 M16.4842 1224.54 L16.4842 1210.03 Q16.4842 1202.04 20.1126 1197.97 Q23.7092 1193.86 30.6797 1193.86 Q37.7138 1193.86 41.3104 1197.97 Q44.907 1202.04 44.907 1210.03 L44.907 1218.11 L64.0042 1218.11 L64.0042 1224.54 L16.4842 1224.54 Z" fill="#000000" fill-rule="evenodd" fill-opacity="1"></path><path clip-path="url(#clip940)" d="M33.8307 1165.98 Q33.2578 1166.97 33.0032 1168.14 Q32.7167 1169.29 32.7167 1170.69 Q32.7167 1175.66 35.9632 1178.33 Q39.1779 1180.97 45.2253 1180.97 L64.0042 1180.97 L64.0042 1186.86 L28.3562 1186.86 L28.3562 1180.97 L33.8944 1180.97 Q30.6479 1179.12 29.0883 1176.16 Q27.4968 1173.2 27.4968 1168.97 Q27.4968 1168.37 27.5923 1167.63 Q27.656 1166.9 27.8151 1166.01 L33.8307 1165.98 Z" fill="#000000" fill-rule="evenodd" fill-opacity="1"></path><path clip-path="url(#clip940)" d="M44.7161 1130.78 L47.5806 1130.78 L47.5806 1157.7 Q53.6281 1157.32 56.8109 1154.08 Q59.9619 1150.8 59.9619 1144.97 Q59.9619 1141.6 59.1344 1138.45 Q58.3069 1135.26 56.6518 1132.15 L62.1899 1132.15 Q63.5267 1135.3 64.227 1138.61 Q64.9272 1141.92 64.9272 1145.32 Q64.9272 1153.85 59.9619 1158.85 Q54.9967 1163.81 46.5303 1163.81 Q37.7774 1163.81 32.6531 1159.1 Q27.4968 1154.36 27.4968 1146.34 Q27.4968 1139.15 32.1438 1134.98 Q36.7589 1130.78 44.7161 1130.78 M42.9973 1136.63 Q38.1912 1136.7 35.3266 1139.34 Q32.4621 1141.95 32.4621 1146.28 Q32.4621 1151.18 35.2312 1154.14 Q38.0002 1157.07 43.0292 1157.51 L42.9973 1136.63 Z" fill="#000000" fill-rule="evenodd" fill-opacity="1"></path><path clip-path="url(#clip940)" d="M33.7671 1097.71 L14.479 1097.71 L14.479 1091.85 L64.0042 1091.85 L64.0042 1097.71 L58.657 1097.71 Q61.8398 1099.55 63.3994 1102.39 Q64.9272 1105.19 64.9272 1109.13 Q64.9272 1115.59 59.771 1119.67 Q54.6147 1123.71 46.212 1123.71 Q37.8093 1123.71 32.6531 1119.67 Q27.4968 1115.59 27.4968 1109.13 Q27.4968 1105.19 29.0564 1102.39 Q30.5842 1099.55 33.7671 1097.71 M46.212 1117.66 Q52.6732 1117.66 56.3653 1115.02 Q60.0256 1112.35 60.0256 1107.7 Q60.0256 1103.05 56.3653 1100.38 Q52.6732 1097.71 46.212 1097.71 Q39.7508 1097.71 36.0905 1100.38 Q32.3984 1103.05 32.3984 1107.7 Q32.3984 1112.35 36.0905 1115.02 Q39.7508 1117.66 46.212 1117.66 Z" fill="#000000" fill-rule="evenodd" fill-opacity="1"></path><path clip-path="url(#clip940)" d="M28.3562 1079.79 L28.3562 1073.93 L64.0042 1073.93 L64.0042 1079.79 L28.3562 1079.79 M14.479 1079.79 L14.479 1073.93 L21.895 1073.93 L21.895 1079.79 L14.479 1079.79 Z" fill="#000000" fill-rule="evenodd" fill-opacity="1"></path><path clip-path="url(#clip940)" d="M29.7248 1036.02 L35.1993 1036.02 Q33.8307 1038.51 33.1623 1041.02 Q32.4621 1043.5 32.4621 1046.05 Q32.4621 1051.75 36.0905 1054.9 Q39.6872 1058.05 46.212 1058.05 Q52.7369 1058.05 56.3653 1054.9 Q59.9619 1051.75 59.9619 1046.05 Q59.9619 1043.5 59.2935 1041.02 Q58.5933 1038.51 57.2247 1036.02 L62.6355 1036.02 Q63.7814 1038.47 64.3543 1041.12 Q64.9272 1043.73 64.9272 1046.69 Q64.9272 1054.74 59.8664 1059.48 Q54.8057 1064.22 46.212 1064.22 Q37.491 1064.22 32.4939 1059.45 Q27.4968 1054.64 27.4968 1046.3 Q27.4968 1043.6 28.0697 1041.02 Q28.6108 1038.44 29.7248 1036.02 Z" fill="#000000" fill-rule="evenodd" fill-opacity="1"></path><path clip-path="url(#clip940)" d="M18.2347 1020.05 L28.3562 1020.05 L28.3562 1007.98 L32.9077 1007.98 L32.9077 1020.05 L52.2594 1020.05 Q56.6199 1020.05 57.8613 1018.87 Q59.1026 1017.66 59.1026 1014 L59.1026 1007.98 L64.0042 1007.98 L64.0042 1014 Q64.0042 1020.78 61.4897 1023.36 Q58.9434 1025.93 52.2594 1025.93 L32.9077 1025.93 L32.9077 1030.23 L28.3562 1030.23 L28.3562 1025.93 L18.2347 1025.93 L18.2347 1020.05 Z" fill="#000000" fill-rule="evenodd" fill-opacity="1"></path><path clip-path="url(#clip940)" d="M28.3562 1000.28 L28.3562 994.424 L64.0042 994.424 L64.0042 1000.28 L28.3562 1000.28 M14.479 1000.28 L14.479 994.424 L21.895 994.424 L21.895 1000.28 L14.479 1000.28 Z" fill="#000000" fill-rule="evenodd" fill-opacity="1"></path><path clip-path="url(#clip940)" d="M32.4621 968.356 Q32.4621 973.067 36.1542 975.804 Q39.8145 978.541 46.212 978.541 Q52.6095 978.541 56.3017 975.836 Q59.9619 973.098 59.9619 968.356 Q59.9619 963.677 56.2698 960.94 Q52.5777 958.203 46.212 958.203 Q39.8781 958.203 36.186 960.94 Q32.4621 963.677 32.4621 968.356 M27.4968 968.356 Q27.4968 960.717 32.4621 956.357 Q37.4273 951.996 46.212 951.996 Q54.9649 951.996 59.9619 956.357 Q64.9272 960.717 64.9272 968.356 Q64.9272 976.027 59.9619 980.387 Q54.9649 984.716 46.212 984.716 Q37.4273 984.716 32.4621 980.387 Q27.4968 976.027 27.4968 968.356 Z" fill="#000000" fill-rule="evenodd" fill-opacity="1"></path><path clip-path="url(#clip940)" d="M42.4881 912.656 L64.0042 912.656 L64.0042 918.512 L42.679 918.512 Q37.6183 918.512 35.1038 920.486 Q32.5894 922.459 32.5894 926.406 Q32.5894 931.148 35.6131 933.886 Q38.6368 936.623 43.8567 936.623 L64.0042 936.623 L64.0042 942.511 L28.3562 942.511 L28.3562 936.623 L33.8944 936.623 Q30.6797 934.522 29.0883 931.69 Q27.4968 928.825 27.4968 925.101 Q27.4968 918.958 31.3163 915.807 Q35.1038 912.656 42.4881 912.656 Z" fill="#000000" fill-rule="evenodd" fill-opacity="1"></path><path clip-path="url(#clip940)" d="M44.7161 849.763 L47.5806 849.763 L47.5806 876.69 Q53.6281 876.308 56.8109 873.061 Q59.9619 869.783 59.9619 863.958 Q59.9619 860.585 59.1344 857.434 Q58.3069 854.251 56.6518 851.131 L62.1899 851.131 Q63.5267 854.283 64.227 857.593 Q64.9272 860.903 64.9272 864.308 Q64.9272 872.839 59.9619 877.836 Q54.9967 882.801 46.5303 882.801 Q37.7774 882.801 32.6531 878.09 Q27.4968 873.348 27.4968 865.327 Q27.4968 858.134 32.1438 853.964 Q36.7589 849.763 44.7161 849.763 M42.9973 855.619 Q38.1912 855.683 35.3266 858.325 Q32.4621 860.935 32.4621 865.263 Q32.4621 870.165 35.2312 873.125 Q38.0002 876.053 43.0292 876.499 L42.9973 855.619 Z" fill="#000000" fill-rule="evenodd" fill-opacity="1"></path><path clip-path="url(#clip940)" d="M33.8307 819.494 Q33.2578 820.481 33.0032 821.658 Q32.7167 822.804 32.7167 824.205 Q32.7167 829.17 35.9632 831.843 Q39.1779 834.485 45.2253 834.485 L64.0042 834.485 L64.0042 840.373 L28.3562 840.373 L28.3562 834.485 L33.8944 834.485 Q30.6479 832.639 29.0883 829.679 Q27.4968 826.719 27.4968 822.486 Q27.4968 821.881 27.5923 821.149 Q27.656 820.417 27.8151 819.526 L33.8307 819.494 Z" fill="#000000" fill-rule="evenodd" fill-opacity="1"></path><path clip-path="url(#clip940)" d="M33.8307 793.84 Q33.2578 794.827 33.0032 796.004 Q32.7167 797.15 32.7167 798.551 Q32.7167 803.516 35.9632 806.19 Q39.1779 808.831 45.2253 808.831 L64.0042 808.831 L64.0042 814.72 L28.3562 814.72 L28.3562 808.831 L33.8944 808.831 Q30.6479 806.985 29.0883 804.025 Q27.4968 801.065 27.4968 796.832 Q27.4968 796.227 27.5923 795.495 Q27.656 794.763 27.8151 793.872 L33.8307 793.84 Z" fill="#000000" fill-rule="evenodd" fill-opacity="1"></path><path clip-path="url(#clip940)" d="M32.4621 775.316 Q32.4621 780.027 36.1542 782.764 Q39.8145 785.501 46.212 785.501 Q52.6095 785.501 56.3017 782.796 Q59.9619 780.058 59.9619 775.316 Q59.9619 770.637 56.2698 767.9 Q52.5777 765.163 46.212 765.163 Q39.8781 765.163 36.186 767.9 Q32.4621 770.637 32.4621 775.316 M27.4968 775.316 Q27.4968 767.677 32.4621 763.317 Q37.4273 758.956 46.212 758.956 Q54.9649 758.956 59.9619 763.317 Q64.9272 767.677 64.9272 775.316 Q64.9272 782.987 59.9619 787.347 Q54.9649 791.676 46.212 791.676 Q37.4273 791.676 32.4621 787.347 Q27.4968 782.987 27.4968 775.316 Z" fill="#000000" fill-rule="evenodd" fill-opacity="1"></path><path clip-path="url(#clip940)" d="M33.8307 728.592 Q33.2578 729.578 33.0032 730.756 Q32.7167 731.902 32.7167 733.302 Q32.7167 738.268 35.9632 740.941 Q39.1779 743.583 45.2253 743.583 L64.0042 743.583 L64.0042 749.471 L28.3562 749.471 L28.3562 743.583 L33.8944 743.583 Q30.6479 741.737 29.0883 738.777 Q27.4968 735.817 27.4968 731.584 Q27.4968 730.979 27.5923 730.247 Q27.656 729.515 27.8151 728.623 L33.8307 728.592 Z" fill="#000000" fill-rule="evenodd" fill-opacity="1"></path><path clip-path="url(#clip940)" d="M32.4621 687.915 Q32.4621 692.625 36.1542 695.363 Q39.8145 698.1 46.212 698.1 Q52.6095 698.1 56.3017 695.394 Q59.9619 692.657 59.9619 687.915 Q59.9619 683.236 56.2698 680.499 Q52.5777 677.761 46.212 677.761 Q39.8781 677.761 36.186 680.499 Q32.4621 683.236 32.4621 687.915 M27.4968 687.915 Q27.4968 680.276 32.4621 675.915 Q37.4273 671.555 46.212 671.555 Q54.9649 671.555 59.9619 675.915 Q64.9272 680.276 64.9272 687.915 Q64.9272 695.585 59.9619 699.946 Q54.9649 704.275 46.212 704.275 Q37.4273 704.275 32.4621 699.946 Q27.4968 695.585 27.4968 687.915 Z" fill="#000000" fill-rule="evenodd" fill-opacity="1"></path><path clip-path="url(#clip940)" d="M14.479 643.8 L19.3487 643.8 L19.3487 649.402 Q19.3487 652.553 20.6219 653.795 Q21.895 655.004 25.2052 655.004 L28.3562 655.004 L28.3562 645.36 L32.9077 645.36 L32.9077 655.004 L64.0042 655.004 L64.0042 660.892 L32.9077 660.892 L32.9077 666.494 L28.3562 666.494 L28.3562 660.892 L25.8736 660.892 Q19.9216 660.892 17.2162 658.123 Q14.479 655.354 14.479 649.339 L14.479 643.8 Z" fill="#000000" fill-rule="evenodd" fill-opacity="1"></path><path clip-path="url(#clip940)" d="M29.7248 592.525 L35.1993 592.525 Q33.8307 595.007 33.1623 597.522 Q32.4621 600.004 32.4621 602.551 Q32.4621 608.248 36.0905 611.399 Q39.6872 614.55 46.212 614.55 Q52.7369 614.55 56.3653 611.399 Q59.9619 608.248 59.9619 602.551 Q59.9619 600.004 59.2935 597.522 Q58.5933 595.007 57.2247 592.525 L62.6355 592.525 Q63.7814 594.975 64.3543 597.617 Q64.9272 600.227 64.9272 603.187 Q64.9272 611.24 59.8664 615.982 Q54.8057 620.725 46.212 620.725 Q37.491 620.725 32.4939 615.95 Q27.4968 611.144 27.4968 602.805 Q27.4968 600.1 28.0697 597.522 Q28.6108 594.944 29.7248 592.525 Z" fill="#000000" fill-rule="evenodd" fill-opacity="1"></path><path clip-path="url(#clip940)" d="M32.4621 568.526 Q32.4621 573.237 36.1542 575.974 Q39.8145 578.711 46.212 578.711 Q52.6095 578.711 56.3017 576.006 Q59.9619 573.268 59.9619 568.526 Q59.9619 563.847 56.2698 561.11 Q52.5777 558.373 46.212 558.373 Q39.8781 558.373 36.186 561.11 Q32.4621 563.847 32.4621 568.526 M27.4968 568.526 Q27.4968 560.887 32.4621 556.527 Q37.4273 552.166 46.212 552.166 Q54.9649 552.166 59.9619 556.527 Q64.9272 560.887 64.9272 568.526 Q64.9272 576.197 59.9619 580.557 Q54.9649 584.886 46.212 584.886 Q37.4273 584.886 32.4621 580.557 Q27.4968 576.197 27.4968 568.526 Z" fill="#000000" fill-rule="evenodd" fill-opacity="1"></path><path clip-path="url(#clip940)" d="M32.4621 528.645 Q32.4621 533.355 36.1542 536.093 Q39.8145 538.83 46.212 538.83 Q52.6095 538.83 56.3017 536.124 Q59.9619 533.387 59.9619 528.645 Q59.9619 523.966 56.2698 521.229 Q52.5777 518.491 46.212 518.491 Q39.8781 518.491 36.186 521.229 Q32.4621 523.966 32.4621 528.645 M27.4968 528.645 Q27.4968 521.006 32.4621 516.645 Q37.4273 512.285 46.212 512.285 Q54.9649 512.285 59.9619 516.645 Q64.9272 521.006 64.9272 528.645 Q64.9272 536.315 59.9619 540.676 Q54.9649 545.005 46.212 545.005 Q37.4273 545.005 32.4621 540.676 Q27.4968 536.315 27.4968 528.645 Z" fill="#000000" fill-rule="evenodd" fill-opacity="1"></path><path clip-path="url(#clip940)" d="M33.8307 481.921 Q33.2578 482.907 33.0032 484.085 Q32.7167 485.231 32.7167 486.631 Q32.7167 491.596 35.9632 494.27 Q39.1779 496.912 45.2253 496.912 L64.0042 496.912 L64.0042 502.8 L28.3562 502.8 L28.3562 496.912 L33.8944 496.912 Q30.6479 495.066 29.0883 492.106 Q27.4968 489.146 27.4968 484.912 Q27.4968 484.308 27.5923 483.576 Q27.656 482.844 27.8151 481.952 L33.8307 481.921 Z" fill="#000000" fill-rule="evenodd" fill-opacity="1"></path><path clip-path="url(#clip940)" d="M33.7671 453.466 L14.479 453.466 L14.479 447.609 L64.0042 447.609 L64.0042 453.466 L58.657 453.466 Q61.8398 455.312 63.3994 458.145 Q64.9272 460.945 64.9272 464.892 Q64.9272 471.353 59.771 475.427 Q54.6147 479.47 46.212 479.47 Q37.8093 479.47 32.6531 475.427 Q27.4968 471.353 27.4968 464.892 Q27.4968 460.945 29.0564 458.145 Q30.5842 455.312 33.7671 453.466 M46.212 473.422 Q52.6732 473.422 56.3653 470.781 Q60.0256 468.107 60.0256 463.46 Q60.0256 458.813 56.3653 456.139 Q52.6732 453.466 46.212 453.466 Q39.7508 453.466 36.0905 456.139 Q32.3984 458.813 32.3984 463.46 Q32.3984 468.107 36.0905 470.781 Q39.7508 473.422 46.212 473.422 Z" fill="#000000" fill-rule="evenodd" fill-opacity="1"></path><path clip-path="url(#clip940)" d="M28.3562 435.546 L28.3562 429.69 L64.0042 429.69 L64.0042 435.546 L28.3562 435.546 M14.479 435.546 L14.479 429.69 L21.895 429.69 L21.895 435.546 L14.479 435.546 Z" fill="#000000" fill-rule="evenodd" fill-opacity="1"></path><path clip-path="url(#clip940)" d="M42.4881 387.804 L64.0042 387.804 L64.0042 393.66 L42.679 393.66 Q37.6183 393.66 35.1038 395.633 Q32.5894 397.607 32.5894 401.553 Q32.5894 406.296 35.6131 409.033 Q38.6368 411.77 43.8567 411.77 L64.0042 411.77 L64.0042 417.659 L28.3562 417.659 L28.3562 411.77 L33.8944 411.77 Q30.6797 409.67 29.0883 406.837 Q27.4968 403.972 27.4968 400.248 Q27.4968 394.106 31.3163 390.955 Q35.1038 387.804 42.4881 387.804 Z" fill="#000000" fill-rule="evenodd" fill-opacity="1"></path><path clip-path="url(#clip940)" d="M46.0847 359.922 Q46.0847 367.019 47.7079 369.757 Q49.3312 372.494 53.2461 372.494 Q56.3653 372.494 58.2114 370.457 Q60.0256 368.388 60.0256 364.855 Q60.0256 359.985 56.5881 357.057 Q53.1188 354.097 47.3897 354.097 L46.0847 354.097 L46.0847 359.922 M43.6657 348.241 L64.0042 348.241 L64.0042 354.097 L58.5933 354.097 Q61.8398 356.102 63.3994 359.094 Q64.9272 362.086 64.9272 366.415 Q64.9272 371.889 61.8716 375.136 Q58.7843 378.35 53.6281 378.35 Q47.6125 378.35 44.5569 374.34 Q41.5014 370.298 41.5014 362.309 L41.5014 354.097 L40.9285 354.097 Q36.8862 354.097 34.6901 356.771 Q32.4621 359.412 32.4621 364.219 Q32.4621 367.274 33.1941 370.171 Q33.9262 373.067 35.3903 375.741 L29.9795 375.741 Q28.7381 372.526 28.1334 369.502 Q27.4968 366.478 27.4968 363.614 Q27.4968 355.88 31.5072 352.06 Q35.5176 348.241 43.6657 348.241 Z" fill="#000000" fill-rule="evenodd" fill-opacity="1"></path><path clip-path="url(#clip940)" d="M18.2347 330.385 L28.3562 330.385 L28.3562 318.322 L32.9077 318.322 L32.9077 330.385 L52.2594 330.385 Q56.6199 330.385 57.8613 329.207 Q59.1026 327.998 59.1026 324.337 L59.1026 318.322 L64.0042 318.322 L64.0042 324.337 Q64.0042 331.117 61.4897 333.695 Q58.9434 336.273 52.2594 336.273 L32.9077 336.273 L32.9077 340.57 L28.3562 340.57 L28.3562 336.273 L18.2347 336.273 L18.2347 330.385 Z" fill="#000000" fill-rule="evenodd" fill-opacity="1"></path><path clip-path="url(#clip940)" d="M44.7161 280.128 L47.5806 280.128 L47.5806 307.055 Q53.6281 306.673 56.8109 303.426 Q59.9619 300.148 59.9619 294.323 Q59.9619 290.949 59.1344 287.798 Q58.3069 284.615 56.6518 281.496 L62.1899 281.496 Q63.5267 284.647 64.227 287.957 Q64.9272 291.268 64.9272 294.673 Q64.9272 303.203 59.9619 308.2 Q54.9967 313.166 46.5303 313.166 Q37.7774 313.166 32.6531 308.455 Q27.4968 303.713 27.4968 295.692 Q27.4968 288.499 32.1438 284.329 Q36.7589 280.128 44.7161 280.128 M42.9973 285.984 Q38.1912 286.048 35.3266 288.689 Q32.4621 291.299 32.4621 295.628 Q32.4621 300.53 35.2312 303.49 Q38.0002 306.418 43.0292 306.864 L42.9973 285.984 Z" fill="#000000" fill-rule="evenodd" fill-opacity="1"></path><path clip-path="url(#clip940)" d="M29.4065 247.79 L34.9447 247.79 Q33.6716 250.272 33.035 252.946 Q32.3984 255.62 32.3984 258.484 Q32.3984 262.845 33.7352 265.041 Q35.072 267.205 37.7456 267.205 Q39.7826 267.205 40.9603 265.646 Q42.1061 264.086 43.1565 259.375 L43.6021 257.37 Q44.9389 251.132 47.3897 248.522 Q49.8086 245.88 54.1691 245.88 Q59.1344 245.88 62.0308 249.827 Q64.9272 253.742 64.9272 260.617 Q64.9272 263.481 64.3543 266.6 Q63.8132 269.688 62.6992 273.125 L56.6518 273.125 Q58.3387 269.879 59.198 266.728 Q60.0256 263.577 60.0256 260.489 Q60.0256 256.352 58.6251 254.124 Q57.1929 251.896 54.6147 251.896 Q52.2276 251.896 50.9545 253.519 Q49.6813 255.11 48.5037 260.553 L48.0262 262.59 Q46.8804 268.033 44.5251 270.452 Q42.138 272.871 38.0002 272.871 Q32.9713 272.871 30.2341 269.306 Q27.4968 265.741 27.4968 259.184 Q27.4968 255.938 27.9743 253.073 Q28.4517 250.209 29.4065 247.79 Z" fill="#000000" fill-rule="evenodd" fill-opacity="1"></path><polyline clip-path="url(#clip942)" style="stroke:#009af9; stroke-linecap:butt; stroke-linejoin:round; stroke-width:12; stroke-opacity:1; fill:none" points="
  368.156,1423.18 377.838,1410.03 387.521,1371.07 397.203,1308.27 406.885,1225.52 416.568,1128.68 426.25,1025.29 435.933,924.297 445.615,834.889 455.297,765.956 
  464.98,724.938 474.662,716.457 484.344,742.295 494.027,800.532 503.709,885.942 513.392,990.284 523.074,1103.05 532.756,1212.73 542.439,1307.88 552.121,1378.43 
  561.804,1416.83 571.486,1418.84 581.168,1383.94 590.851,1315.42 600.533,1219.84 610.216,1106.33 619.898,985.479 629.58,868.201 639.263,764.638 648.945,683.191 
  658.628,629.839 668.31,607.787 677.992,617.394 687.675,656.499 697.357,720.715 707.04,804.178 716.722,900.2 726.404,1001.89 736.087,1102.65 745.769,1196.54 
  755.452,1278.44 765.134,1344.09 774.816,1390.09 784.499,1413.83 794.181,1413.53 803.863,1388.36 813.546,1338.63 823.228,1266.21 832.911,1174.59 842.593,1069.2 
  852.275,957.3 861.958,847.378 871.64,748.741 881.323,670.46 891.005,620.47 900.687,604.248 910.37,624.497 920.052,680.227 929.735,767.079 939.417,877.43 
  949.099,1001.03 958.782,1126.23 968.464,1240.94 978.147,1334.03 987.829,1396.5 997.511,1422.4 1007.19,1409.46 1016.88,1359.27 1026.56,1277.04 1036.24,1170.93 
  1045.92,1051.08 1055.61,928.562 1065.29,814.177 1074.97,717.453 1084.65,645.834 1094.34,604.17 1104.02,594.455 1113.7,616.061 1123.38,665.974 1133.06,739.238 
  1142.75,829.702 1152.43,930.609 1162.11,1035.13 1171.79,1136.77 1181.48,1229.62 1191.16,1308.5 1200.84,1368.99 1210.52,1407.42 1220.21,1420.99 1229.89,1407.8 
  1239.57,1367.17 1249.25,1299.97 1258.94,1208.81 1268.62,1098.47 1278.3,975.809 1287.98,849.371 1297.67,729.062 1307.35,625.104 1317.03,546.861 1326.71,502.196 
  1336.4,496.021 1346.08,529.681 1355.76,601.02 1365.44,704.097 1375.12,829.834 1384.81,966.988 1394.49,1103.04 1404.17,1225.7 1413.85,1324.17 1423.54,1390.16 
  1433.22,1418.85 1442.9,1409.25 1452.58,1364.26 1462.27,1290.13 1471.95,1195.7 1481.63,1091.33 1491.31,987.743 1501,894.919 1510.68,821.151 1520.36,772.369 
  1530.04,751.765 1539.73,759.77 1549.41,794.459 1559.09,851.659 1568.77,925.811 1578.45,1010.57 1588.14,1099.38 1597.82,1185.97 1607.5,1264.63 1617.18,1330.44 
  1626.87,1379.26 1636.55,1407.77 1646.23,1413.42 1655.91,1394.47 1665.6,1350.24 1675.28,1281.31 1684.96,1189.82 1694.64,1079.82 1704.33,957.372 1714.01,830.228 
  1723.69,707.669 1733.37,599.583 1743.06,515.314 1752.74,463.101 1762.42,448.664 1772.1,474.317 1781.79,538.926 1791.47,637.682 1801.15,762.321 1810.83,902.188 
  1820.51,1044.96 1830.2,1178.04 1839.88,1289.86 1849.56,1371.05 1859.24,1415.32 1868.93,1420.19 1878.61,1387.04 1888.29,1320.9 1897.97,1229.73 1907.66,1123.49 
  1917.34,1013.01 1927.02,908.879 1936.7,820.392 1946.39,754.792 1956.07,716.753 1965.75,708.145 1975.43,728.447 1985.12,774.654 1994.8,842.01 2004.48,924.628 
  2014.16,1016.07 2023.85,1109.83 2033.53,1199.75 2043.21,1280.22 2052.89,1346.3 2062.57,1393.77 2072.26,1419.11 2081.94,1419.61 2091.62,1393.49 2101.3,1340.2 
  2110.99,1260.74 2120.67,1158 2130.35,1037.08 2140.03,905.039 2149.72,770.894 2159.4,644.843 2169.08,537.147 2178.76,457.471 2188.45,413.661 2198.13,410.323 
  2207.81,448.749 2217.49,526.424 2227.18,637.009 2236.86,771.233 2246.54,917.396 2256.22,1062.82 2265.9,1195.07 2275.59,1303.18 2285.27,1378.86 2294.95,1417.28 
  
  "></polyline>
<polyline clip-path="url(#clip942)" style="stroke:#e26f46; stroke-linecap:butt; stroke-linejoin:round; stroke-width:12; stroke-opacity:1; fill:none" points="
  368.156,1423.18 377.838,1422.89 387.521,1422.78 397.203,1423.1 406.885,1422.95 416.568,1420.65 426.25,1414.13 435.933,1401.55 445.615,1381.79 455.297,1354.86 
  464.98,1322.09 474.662,1286.09 484.344,1250.5 494.027,1219.43 503.709,1196.86 513.392,1185.95 523.074,1188.41 532.756,1204.07 542.439,1230.7 552.121,1264.19 
  561.804,1299.03 571.486,1329.13 581.168,1348.8 590.851,1353.72 600.533,1341.86 610.216,1313.99 619.898,1273.72 629.58,1227.04 639.263,1181.4 648.945,1144.42 
  658.628,1122.54 668.31,1119.85 677.992,1137.31 687.675,1172.67 697.357,1220.83 707.04,1274.92 716.722,1327.5 726.404,1371.95 736.087,1403.53 745.769,1420.05 
  755.452,1422.05 765.134,1412.45 774.816,1395.81 784.499,1377.33 794.181,1361.91 803.863,1353.19 813.546,1353.02 823.228,1361.18 832.911,1375.5 842.593,1392.34 
  852.275,1407.22 861.958,1415.68 871.64,1414.03 881.323,1400.09 891.005,1373.55 900.687,1336.22 910.37,1291.79 920.052,1245.39 929.735,1202.88 939.417,1169.98 
  949.099,1151.35 958.782,1149.87 968.464,1165.99 978.147,1197.59 987.829,1240.1 997.511,1287.06 1007.19,1331.08 1016.88,1364.97 1026.56,1382.87 1036.24,1381.36 
  1045.92,1360.09 1055.61,1321.98 1065.29,1272.81 1074.97,1220.29 1084.65,1172.78 1094.34,1137.82 1104.02,1120.86 1113.7,1124.34 1123.38,1147.4 1133.06,1186.17 
  1142.75,1234.67 1152.43,1285.94 1162.11,1333.36 1171.79,1371.7 1181.48,1397.92 1191.16,1411.37 1200.84,1413.6 1210.52,1407.82 1220.21,1398.03 1229.89,1388.22 
  1239.57,1381.61 1249.25,1380.11 1258.94,1384.12 1268.62,1392.58 1278.3,1403.32 1287.98,1413.6 1297.67,1420.66 1307.35,1422.36 1317.03,1417.59 1326.71,1406.52 
  1336.4,1390.61 1346.08,1372.39 1355.76,1355.01 1365.44,1341.63 1375.12,1334.8 1384.81,1335.92 1394.49,1344.79 1404.17,1359.55 1413.85,1376.8 1423.54,1392.09 
  1433.22,1400.71 1442.9,1398.53 1452.58,1382.93 1462.27,1353.48 1471.95,1312.26 1481.63,1263.84 1491.31,1214.56 1501,1171.63 1510.68,1141.75 1520.36,1129.93 
  1530.04,1138.42 1539.73,1166.24 1549.41,1209.23 1559.09,1260.77 1568.77,1312.97 1578.45,1358.02 1588.14,1389.56 1597.82,1403.72 1607.5,1399.63 1617.18,1379.47 
  1626.87,1347.91 1636.55,1311.18 1646.23,1276.01 1655.91,1248.5 1665.6,1233.17 1675.28,1232.33 1684.96,1245.89 1694.64,1271.46 1704.33,1304.87 1714.01,1340.9 
  1723.69,1374.11 1733.37,1399.76 1743.06,1414.44 1752.74,1416.66 1762.42,1406.96 1772.1,1387.84 1781.79,1363.31 1791.47,1338.22 1801.15,1317.47 1810.83,1305.14 
  1820.51,1303.78 1830.2,1313.9 1839.88,1333.74 1849.56,1359.52 1859.24,1385.93 1868.93,1407.05 1878.61,1417.34 1888.29,1412.78 1897.97,1391.62 1907.66,1355 
  1917.34,1306.87 1927.02,1253.47 1936.7,1202.35 1946.39,1161.03 1956.07,1135.67 1965.75,1129.89 1975.43,1144.18 1985.12,1175.77 1994.8,1219.23 2004.48,1267.48 
  2014.16,1313.11 2023.85,1349.67 2033.53,1372.69 2043.21,1380.34 2052.89,1373.47 2062.57,1355.28 2072.26,1330.55 2081.94,1304.7 2091.62,1282.85 2101.3,1269.02 
  2110.99,1265.57 2120.67,1272.95 2130.35,1289.88 2140.03,1313.65 2149.72,1340.75 2159.4,1367.51 2169.08,1390.7 2178.76,1408.08 2188.45,1418.65 2198.13,1422.75 
  2207.81,1421.84 2217.49,1418.13 2227.18,1414.01 2236.86,1411.51 2246.54,1411.75 2256.22,1414.63 2265.9,1418.68 2275.59,1421.26 2285.27,1419.05 2294.95,1408.7 
  
  "></polyline>
<path clip-path="url(#clip940)" d="
M1644.92 248.629 L2284.68 248.629 L2284.68 93.1086 L1644.92 93.1086  Z
  " fill="#ffffff" fill-rule="evenodd" fill-opacity="1"></path>
<polyline clip-path="url(#clip940)" style="stroke:#000000; stroke-linecap:butt; stroke-linejoin:round; stroke-width:4; stroke-opacity:1; fill:none" points="
  1644.92,248.629 2284.68,248.629 2284.68,93.1086 1644.92,93.1086 1644.92,248.629 
  "></polyline>
<polyline clip-path="url(#clip940)" style="stroke:#009af9; stroke-linecap:butt; stroke-linejoin:round; stroke-width:4; stroke-opacity:1; fill:none" points="
  1667.61,144.949 1803.77,144.949 
  "></polyline>
<path clip-path="url(#clip940)" d="M1842.49 130.84 Q1837.39 130.84 1834.38 134.636 Q1831.4 138.432 1831.4 144.983 Q1831.4 151.511 1834.38 155.307 Q1837.39 159.104 1842.49 159.104 Q1847.58 159.104 1850.54 155.307 Q1853.53 151.511 1853.53 144.983 Q1853.53 138.432 1850.54 134.636 Q1847.58 130.84 1842.49 130.84 M1842.49 127.044 Q1849.75 127.044 1854.11 131.928 Q1858.46 136.789 1858.46 144.983 Q1858.46 153.155 1854.11 158.039 Q1849.75 162.9 1842.49 162.9 Q1835.19 162.9 1830.82 158.039 Q1826.47 153.178 1826.47 144.983 Q1826.47 136.789 1830.82 131.928 Q1835.19 127.044 1842.49 127.044 Z" fill="#000000" fill-rule="evenodd" fill-opacity="1"></path><path clip-path="url(#clip940)" d="M1864.75 147.344 L1877.23 147.344 L1877.23 151.141 L1864.75 151.141 L1864.75 147.344 Z" fill="#000000" fill-rule="evenodd" fill-opacity="1"></path><path clip-path="url(#clip940)" d="M1884.2 127.669 L1890.49 127.669 L1905.82 156.581 L1905.82 127.669 L1910.36 127.669 L1910.36 162.229 L1904.06 162.229 L1888.74 133.317 L1888.74 162.229 L1884.2 162.229 L1884.2 127.669 Z" fill="#000000" fill-rule="evenodd" fill-opacity="1"></path><path clip-path="url(#clip940)" d="M1919.66 127.669 L1941.51 127.669 L1941.51 131.604 L1924.34 131.604 L1924.34 141.835 L1940.8 141.835 L1940.8 145.77 L1924.34 145.77 L1924.34 158.293 L1941.93 158.293 L1941.93 162.229 L1919.66 162.229 L1919.66 127.669 Z" fill="#000000" fill-rule="evenodd" fill-opacity="1"></path><path clip-path="url(#clip940)" d="M1944.82 127.669 L1974.06 127.669 L1974.06 131.604 L1961.79 131.604 L1961.79 162.229 L1957.09 162.229 L1957.09 131.604 L1944.82 131.604 L1944.82 127.669 Z" fill="#000000" fill-rule="evenodd" fill-opacity="1"></path><polyline clip-path="url(#clip940)" style="stroke:#e26f46; stroke-linecap:butt; stroke-linejoin:round; stroke-width:4; stroke-opacity:1; fill:none" points="
  1667.61,196.789 1803.77,196.789 
  "></polyline>
<path clip-path="url(#clip940)" d="M1848.71 180.643 L1848.71 185.203 Q1846.05 183.93 1843.69 183.305 Q1841.33 182.68 1839.13 182.68 Q1835.31 182.68 1833.23 184.161 Q1831.17 185.643 1831.17 188.374 Q1831.17 190.666 1832.53 191.847 Q1833.92 193.004 1837.76 193.722 L1840.59 194.3 Q1845.82 195.296 1848.3 197.819 Q1850.8 200.319 1850.8 204.532 Q1850.8 209.555 1847.42 212.147 Q1844.06 214.74 1837.56 214.74 Q1835.1 214.74 1832.32 214.184 Q1829.57 213.629 1826.61 212.541 L1826.61 207.726 Q1829.45 209.323 1832.18 210.133 Q1834.92 210.944 1837.56 210.944 Q1841.56 210.944 1843.74 209.37 Q1845.91 207.796 1845.91 204.879 Q1845.91 202.333 1844.34 200.897 Q1842.79 199.462 1839.22 198.745 L1836.37 198.189 Q1831.14 197.147 1828.81 194.925 Q1826.47 192.703 1826.47 188.745 Q1826.47 184.161 1829.68 181.522 Q1832.93 178.884 1838.6 178.884 Q1841.03 178.884 1843.55 179.323 Q1846.07 179.763 1848.71 180.643 Z" fill="#000000" fill-rule="evenodd" fill-opacity="1"></path><path clip-path="url(#clip940)" d="M1862.12 180.782 L1862.12 188.143 L1870.89 188.143 L1870.89 191.453 L1862.12 191.453 L1862.12 205.527 Q1862.12 208.698 1862.97 209.601 Q1863.85 210.504 1866.51 210.504 L1870.89 210.504 L1870.89 214.069 L1866.51 214.069 Q1861.58 214.069 1859.71 212.24 Q1857.83 210.388 1857.83 205.527 L1857.83 191.453 L1854.71 191.453 L1854.71 188.143 L1857.83 188.143 L1857.83 180.782 L1862.12 180.782 Z" fill="#000000" fill-rule="evenodd" fill-opacity="1"></path><path clip-path="url(#clip940)" d="M1891.51 192.124 Q1890.8 191.708 1889.94 191.522 Q1889.11 191.314 1888.09 191.314 Q1884.48 191.314 1882.53 193.675 Q1880.61 196.013 1880.61 200.411 L1880.61 214.069 L1876.33 214.069 L1876.33 188.143 L1880.61 188.143 L1880.61 192.171 Q1881.95 189.809 1884.11 188.675 Q1886.26 187.518 1889.34 187.518 Q1889.78 187.518 1890.31 187.587 Q1890.84 187.634 1891.49 187.749 L1891.51 192.124 Z" fill="#000000" fill-rule="evenodd" fill-opacity="1"></path><path clip-path="url(#clip940)" d="M1895.54 203.837 L1895.54 188.143 L1899.8 188.143 L1899.8 203.675 Q1899.8 207.356 1901.24 209.208 Q1902.67 211.036 1905.54 211.036 Q1908.99 211.036 1910.98 208.837 Q1912.99 206.638 1912.99 202.842 L1912.99 188.143 L1917.25 188.143 L1917.25 214.069 L1912.99 214.069 L1912.99 210.087 Q1911.44 212.448 1909.38 213.606 Q1907.35 214.74 1904.64 214.74 Q1900.17 214.74 1897.86 211.962 Q1895.54 209.184 1895.54 203.837 M1906.26 187.518 L1906.26 187.518 Z" fill="#000000" fill-rule="evenodd" fill-opacity="1"></path><path clip-path="url(#clip940)" d="M1944.68 189.138 L1944.68 193.12 Q1942.88 192.124 1941.05 191.638 Q1939.24 191.129 1937.39 191.129 Q1933.25 191.129 1930.96 193.768 Q1928.67 196.384 1928.67 201.129 Q1928.67 205.874 1930.96 208.513 Q1933.25 211.129 1937.39 211.129 Q1939.24 211.129 1941.05 210.643 Q1942.88 210.133 1944.68 209.138 L1944.68 213.073 Q1942.9 213.907 1940.98 214.323 Q1939.08 214.74 1936.93 214.74 Q1931.07 214.74 1927.62 211.059 Q1924.17 207.379 1924.17 201.129 Q1924.17 194.786 1927.65 191.152 Q1931.14 187.518 1937.21 187.518 Q1939.17 187.518 1941.05 187.935 Q1942.92 188.328 1944.68 189.138 Z" fill="#000000" fill-rule="evenodd" fill-opacity="1"></path><path clip-path="url(#clip940)" d="M1956.3 180.782 L1956.3 188.143 L1965.08 188.143 L1965.08 191.453 L1956.3 191.453 L1956.3 205.527 Q1956.3 208.698 1957.16 209.601 Q1958.04 210.504 1960.7 210.504 L1965.08 210.504 L1965.08 214.069 L1960.7 214.069 Q1955.77 214.069 1953.9 212.24 Q1952.02 210.388 1952.02 205.527 L1952.02 191.453 L1948.9 191.453 L1948.9 188.143 L1952.02 188.143 L1952.02 180.782 L1956.3 180.782 Z" fill="#000000" fill-rule="evenodd" fill-opacity="1"></path><path clip-path="url(#clip940)" d="M1970.24 203.837 L1970.24 188.143 L1974.5 188.143 L1974.5 203.675 Q1974.5 207.356 1975.93 209.208 Q1977.37 211.036 1980.24 211.036 Q1983.69 211.036 1985.68 208.837 Q1987.69 206.638 1987.69 202.842 L1987.69 188.143 L1991.95 188.143 L1991.95 214.069 L1987.69 214.069 L1987.69 210.087 Q1986.14 212.448 1984.08 213.606 Q1982.05 214.74 1979.34 214.74 Q1974.87 214.74 1972.55 211.962 Q1970.24 209.184 1970.24 203.837 M1980.96 187.518 L1980.96 187.518 Z" fill="#000000" fill-rule="evenodd" fill-opacity="1"></path><path clip-path="url(#clip940)" d="M2015.75 192.124 Q2015.03 191.708 2014.17 191.522 Q2013.34 191.314 2012.32 191.314 Q2008.71 191.314 2006.77 193.675 Q2004.85 196.013 2004.85 200.411 L2004.85 214.069 L2000.56 214.069 L2000.56 188.143 L2004.85 188.143 L2004.85 192.171 Q2006.19 189.809 2008.34 188.675 Q2010.49 187.518 2013.57 187.518 Q2014.01 187.518 2014.54 187.587 Q2015.08 187.634 2015.73 187.749 L2015.75 192.124 Z" fill="#000000" fill-rule="evenodd" fill-opacity="1"></path><path clip-path="url(#clip940)" d="M2041.35 200.041 L2041.35 202.124 L2021.77 202.124 Q2022.04 206.522 2024.41 208.837 Q2026.79 211.129 2031.03 211.129 Q2033.48 211.129 2035.77 210.527 Q2038.09 209.925 2040.35 208.721 L2040.35 212.749 Q2038.06 213.721 2035.66 214.231 Q2033.25 214.74 2030.77 214.74 Q2024.57 214.74 2020.93 211.129 Q2017.32 207.518 2017.32 201.36 Q2017.32 194.995 2020.75 191.268 Q2024.2 187.518 2030.03 187.518 Q2035.26 187.518 2038.29 190.897 Q2041.35 194.254 2041.35 200.041 M2037.09 198.791 Q2037.04 195.296 2035.12 193.212 Q2033.23 191.129 2030.08 191.129 Q2026.51 191.129 2024.36 193.143 Q2022.23 195.157 2021.91 198.814 L2037.09 198.791 Z" fill="#000000" fill-rule="evenodd" fill-opacity="1"></path><path clip-path="url(#clip940)" d="M2065.4 192.078 L2065.4 178.05 L2069.66 178.05 L2069.66 214.069 L2065.4 214.069 L2065.4 210.18 Q2064.06 212.495 2062 213.629 Q2059.96 214.74 2057.09 214.74 Q2052.39 214.74 2049.43 210.99 Q2046.49 207.24 2046.49 201.129 Q2046.49 195.018 2049.43 191.268 Q2052.39 187.518 2057.09 187.518 Q2059.96 187.518 2062 188.652 Q2064.06 189.763 2065.4 192.078 M2050.89 201.129 Q2050.89 205.828 2052.81 208.513 Q2054.75 211.175 2058.13 211.175 Q2061.51 211.175 2063.46 208.513 Q2065.4 205.828 2065.4 201.129 Q2065.4 196.43 2063.46 193.768 Q2061.51 191.083 2058.13 191.083 Q2054.75 191.083 2052.81 193.768 Q2050.89 196.43 2050.89 201.129 Z" fill="#000000" fill-rule="evenodd" fill-opacity="1"></path><path clip-path="url(#clip940)" d="M2107.72 182.68 Q2102.62 182.68 2099.61 186.476 Q2096.63 190.272 2096.63 196.823 Q2096.63 203.351 2099.61 207.147 Q2102.62 210.944 2107.72 210.944 Q2112.81 210.944 2115.77 207.147 Q2118.76 203.351 2118.76 196.823 Q2118.76 190.272 2115.77 186.476 Q2112.81 182.68 2107.72 182.68 M2107.72 178.884 Q2114.98 178.884 2119.34 183.768 Q2123.69 188.629 2123.69 196.823 Q2123.69 204.995 2119.34 209.879 Q2114.98 214.74 2107.72 214.74 Q2100.42 214.74 2096.05 209.879 Q2091.7 205.018 2091.7 196.823 Q2091.7 188.629 2096.05 183.768 Q2100.42 178.884 2107.72 178.884 Z" fill="#000000" fill-rule="evenodd" fill-opacity="1"></path><path clip-path="url(#clip940)" d="M2129.98 199.184 L2142.46 199.184 L2142.46 202.981 L2129.98 202.981 L2129.98 199.184 Z" fill="#000000" fill-rule="evenodd" fill-opacity="1"></path><path clip-path="url(#clip940)" d="M2149.43 179.509 L2155.72 179.509 L2171.05 208.421 L2171.05 179.509 L2175.59 179.509 L2175.59 214.069 L2169.29 214.069 L2153.97 185.157 L2153.97 214.069 L2149.43 214.069 L2149.43 179.509 Z" fill="#000000" fill-rule="evenodd" fill-opacity="1"></path><path clip-path="url(#clip940)" d="M2184.89 179.509 L2206.74 179.509 L2206.74 183.444 L2189.57 183.444 L2189.57 193.675 L2206.03 193.675 L2206.03 197.61 L2189.57 197.61 L2189.57 210.133 L2207.16 210.133 L2207.16 214.069 L2184.89 214.069 L2184.89 179.509 Z" fill="#000000" fill-rule="evenodd" fill-opacity="1"></path><path clip-path="url(#clip940)" d="M2210.05 179.509 L2239.29 179.509 L2239.29 183.444 L2227.02 183.444 L2227.02 214.069 L2222.32 214.069 L2222.32 183.444 L2210.05 183.444 L2210.05 179.509 Z" fill="#000000" fill-rule="evenodd" fill-opacity="1"></path></svg>